<svg xmlns="http://www.w3.org/2000/svg" width="52.928" height="45.145" viewBox="0 0 52.928 45.145">
  <g id="air-conditioner-air-conditioning-svgrepo-com" transform="translate(0 -37.646)">
    <g id="Group_11746" data-name="Group 11746" transform="translate(0 37.646)">
      <path id="Path_24190" data-name="Path 24190" d="M50.593,37.646H2.335A2.335,2.335,0,0,0,0,39.981V77.343a2.335,2.335,0,0,0,2.335,2.335H4.806a2.33,2.33,0,0,0,2.2,3.113h4.67a2.33,2.33,0,0,0,2.2-3.113H39.054a2.33,2.33,0,0,0,2.2,3.113h4.67a2.33,2.33,0,0,0,2.2-3.113h2.471a2.335,2.335,0,0,0,2.335-2.335V39.981A2.335,2.335,0,0,0,50.593,37.646ZM30.9,61.311a2.335,2.335,0,0,1,.853,3.192,11.718,11.718,0,0,1-10.111,5.835A2.335,2.335,0,0,1,19.306,68v-5.3l-4.588,2.649A2.334,2.334,0,0,1,11.53,64.5a11.685,11.685,0,0,1,0-11.681,2.335,2.335,0,0,1,3.189-.853l4.588,2.648v-5.3a2.335,2.335,0,0,1,2.335-2.335,11.718,11.718,0,0,1,10.111,5.835,2.335,2.335,0,0,1-.854,3.192l-4.587,2.649Zm10.355,8.248H39.7a2.335,2.335,0,1,1,0-4.67h1.557a2.335,2.335,0,1,1,0,4.67Zm0-9.34H39.7a2.335,2.335,0,0,1,0-4.67h1.557a2.335,2.335,0,1,1,0,4.67Zm0-9.34H39.7a2.335,2.335,0,1,1,0-4.67h1.557a2.335,2.335,0,1,1,0,4.67Z" transform="translate(0 -37.646)" fill="#3f1651"/>
    </g>
  </g>
</svg>
