<svg xmlns="http://www.w3.org/2000/svg" width="18.683" height="23.357" viewBox="0 0 18.683 23.357">
  <g id="_4881413b1918c35eb00ab7419ff71cd1" data-name="4881413b1918c35eb00ab7419ff71cd1" transform="translate(-108.1 -10)">
    <path id="Path_22999" data-name="Path 22999" d="M125.229,13.115h-3.165v3.453c0,.644-.288,1.168-.648,1.168H113.37c-.358,0-.648-.524-.648-1.168V13.115h-3.065a1.555,1.555,0,0,0-1.556,1.556V31.8a1.555,1.555,0,0,0,1.556,1.556h15.571a1.555,1.555,0,0,0,1.556-1.556V14.671A1.552,1.552,0,0,0,125.229,13.115Zm-2.181,8.971H111.318a.7.7,0,0,1-.7-.7h0a.7.7,0,0,1,.7-.7h11.731a.7.7,0,0,1,.7.7h0A.7.7,0,0,1,123.048,22.086Zm0,3.83H111.318a.7.7,0,0,1-.7-.7h0a.7.7,0,0,1,.7-.7h11.731a.7.7,0,0,1,.7.7h0A.7.7,0,0,1,123.048,25.916Zm0,3.832H111.318a.7.7,0,0,1-.7-.7h0a.7.7,0,0,1,.7-.7h11.731a.7.7,0,0,1,.7.7h0A.7.7,0,0,1,123.048,29.749Zm-3.289-17.42H119.6v-.172A2.156,2.156,0,0,0,117.44,10h0a2.156,2.156,0,0,0-2.157,2.157v.172h-.162a.8.8,0,0,0-.8.8v2.255a.8.8,0,0,0,.8.8h4.633a.8.8,0,0,0,.8-.8V13.129A.792.792,0,0,0,119.759,12.329Z" fill="#b4b5b5"/>
  </g>
</svg>
