<svg id="Iconly_Bold_Home" data-name="Iconly/Bold/Home" xmlns="http://www.w3.org/2000/svg" width="20" height="21" viewBox="0 0 20 21">
  <g id="Home" transform="translate(0 0)">
    <path id="Home-2" data-name="Home" d="M6.984,19.712V16.5a1.491,1.491,0,0,1,1.5-1.484h3.025a1.506,1.506,0,0,1,1.06.435,1.477,1.477,0,0,1,.439,1.049v3.211a1.272,1.272,0,0,0,.375.91A1.3,1.3,0,0,0,14.3,21h2.064a3.647,3.647,0,0,0,2.572-1.049A3.576,3.576,0,0,0,20,17.407V8.26a2.594,2.594,0,0,0-.943-2L12.036.71A3.267,3.267,0,0,0,7.879.784L1.018,6.263A2.6,2.6,0,0,0,0,8.26V17.4A3.62,3.62,0,0,0,3.638,21H5.655a1.294,1.294,0,0,0,1.3-1.279Z" fill="#b4b5b5"/>
  </g>
</svg>
