<svg id="Iconly_Bold_Call" data-name="Iconly/Bold/Call" xmlns="http://www.w3.org/2000/svg" width="8.416" height="8.416" viewBox="0 0 8.416 8.416">
  <g id="Call">
    <path id="Call-2" data-name="Call" d="M6.8,5.209a.959.959,0,0,0-.7.185c-.2.118-.588.431-.809.351A5.021,5.021,0,0,1,2.633,3.153c-.081-.226.23-.614.347-.819a.983.983,0,0,0,.184-.709A5.767,5.767,0,0,0,2.184.259.8.8,0,0,0,1.692,0C1.06-.026.355.816.231,1.018a1.638,1.638,0,0,0,.005,1.7A13.152,13.152,0,0,0,5.719,8.173a2.26,2.26,0,0,0,.944.242A1.228,1.228,0,0,0,7.4,8.185c.16-.092,1.038-.833,1.015-1.482a.817.817,0,0,0-.256-.491,5.807,5.807,0,0,0-1.357-1" transform="translate(0 0)" fill="#653780"/>
  </g>
</svg>
