<svg xmlns="http://www.w3.org/2000/svg" width="67.472" height="100.066" viewBox="0 0 67.472 100.066">
  <g id="Group_11606" data-name="Group 11606" transform="translate(-50.702 -21.652)">
    <g id="Group_11596" data-name="Group 11596" transform="translate(51.461 21.652)">
      <g id="Group_11591" data-name="Group 11591" transform="translate(0 30.648)">
        <g id="Group_11589" data-name="Group 11589" transform="translate(18.844)">
          <path id="Path_23225" data-name="Path 23225" d="M121.783,154.6l-10.3-69.3H96.44l10.3,69.3" transform="translate(-96.44 -85.3)" fill="none" stroke="#5c2b61" stroke-miterlimit="10" stroke-width="1.534"/>
          <line id="Line_242" data-name="Line 242" x1="15.043" transform="translate(0.878 5.908)" fill="none" stroke="#5c2b61" stroke-miterlimit="10" stroke-width="1.534"/>
          <line id="Line_243" data-name="Line 243" x1="15.043" transform="translate(1.756 11.817)" fill="none" stroke="#5c2b61" stroke-miterlimit="10" stroke-width="1.534"/>
          <line id="Line_244" data-name="Line 244" x1="14.757" transform="translate(2.943 17.873)" fill="none" stroke="#5c2b61" stroke-miterlimit="10" stroke-width="1.534"/>
          <line id="Line_245" data-name="Line 245" x1="15.043" transform="translate(3.556 23.929)" fill="none" stroke="#5c2b61" stroke-miterlimit="10" stroke-width="1.534"/>
          <line id="Line_246" data-name="Line 246" x1="15.043" transform="translate(4.456 29.985)" fill="none" stroke="#5c2b61" stroke-miterlimit="10" stroke-width="1.534"/>
          <line id="Line_247" data-name="Line 247" x1="14.899" transform="translate(5.356 36.041)" fill="none" stroke="#5c2b61" stroke-miterlimit="10" stroke-width="1.534"/>
          <line id="Line_248" data-name="Line 248" x1="15.043" transform="translate(6.256 42.097)" fill="none" stroke="#5c2b61" stroke-miterlimit="10" stroke-width="1.534"/>
          <line id="Line_249" data-name="Line 249" x1="15.043" transform="translate(7.156 48.153)" fill="none" stroke="#5c2b61" stroke-miterlimit="10" stroke-width="1.534"/>
          <line id="Line_250" data-name="Line 250" x1="15.043" transform="translate(8.055 54.208)" fill="none" stroke="#5c2b61" stroke-miterlimit="10" stroke-width="1.534"/>
          <line id="Line_251" data-name="Line 251" x1="15.043" transform="translate(8.955 60.264)" fill="none" stroke="#5c2b61" stroke-miterlimit="10" stroke-width="1.534"/>
        </g>
        <g id="Group_11590" data-name="Group 11590" transform="translate(0)">
          <path id="Path_23226" data-name="Path 23226" d="M57.153,154.6l10.3-69.3H82.5L72.2,154.6" transform="translate(-57.153 -85.3)" fill="none" stroke="#c4c6ff" stroke-miterlimit="10" stroke-width="1.534"/>
          <line id="Line_252" data-name="Line 252" x2="15.043" transform="translate(9.421 5.908)" fill="none" stroke="#c4c6ff" stroke-miterlimit="10" stroke-width="1.534"/>
          <line id="Line_253" data-name="Line 253" x2="15.043" transform="translate(8.543 11.817)" fill="none" stroke="#c4c6ff" stroke-miterlimit="10" stroke-width="1.534"/>
          <line id="Line_254" data-name="Line 254" x2="14.757" transform="translate(7.643 17.873)" fill="none" stroke="#c4c6ff" stroke-miterlimit="10" stroke-width="1.534"/>
          <line id="Line_255" data-name="Line 255" x2="15.043" transform="translate(6.743 23.929)" fill="none" stroke="#c4c6ff" stroke-miterlimit="10" stroke-width="1.534"/>
          <line id="Line_256" data-name="Line 256" x2="15.043" transform="translate(5.843 29.985)" fill="none" stroke="#c4c6ff" stroke-miterlimit="10" stroke-width="1.534"/>
          <line id="Line_257" data-name="Line 257" x2="14.899" transform="translate(5.088 36.041)" fill="none" stroke="#c4c6ff" stroke-miterlimit="10" stroke-width="1.534"/>
          <line id="Line_258" data-name="Line 258" x2="15.043" transform="translate(4.043 42.097)" fill="none" stroke="#c4c6ff" stroke-miterlimit="10" stroke-width="1.534"/>
          <line id="Line_259" data-name="Line 259" x2="15.043" transform="translate(3.143 48.153)" fill="none" stroke="#c4c6ff" stroke-miterlimit="10" stroke-width="1.534"/>
          <line id="Line_260" data-name="Line 260" x2="15.043" transform="translate(2.243 54.208)" fill="none" stroke="#c4c6ff" stroke-miterlimit="10" stroke-width="1.534"/>
          <line id="Line_261" data-name="Line 261" x2="15.043" transform="translate(1.343 60.264)" fill="none" stroke="#c4c6ff" stroke-miterlimit="10" stroke-width="1.534"/>
        </g>
      </g>
      <g id="Group_11595" data-name="Group 11595" transform="translate(0.607)">
        <g id="Group_11593" data-name="Group 11593" transform="translate(7.015 3.447)">
          <path id="Path_23271" data-name="Path 23271" d="M5.558,0H38.8a5.569,5.569,0,0,1,5.558,5.58v3.9a5.569,5.569,0,0,1-5.558,5.58H5.558A5.569,5.569,0,0,1,0,9.481V5.58A5.569,5.569,0,0,1,5.558,0Z" transform="translate(44.358 15.061) rotate(180)" fill="#e2cbaa"/>
          <rect id="Rectangle_3973" data-name="Rectangle 3973" width="31.154" height="2.289" transform="translate(37.756 15.061) rotate(180)" fill="#5c2b61"/>
          <rect id="Rectangle_3974" data-name="Rectangle 3974" width="29.425" height="1.551" transform="translate(7.467 14.101)" fill="#e2cbaa"/>
          <path id="Path_23227" data-name="Path 23227" d="M83.391,28.81V38.858h34.431V28.81" transform="translate(-78.428 -28.81)" fill="none" stroke="#5c2b61" stroke-miterlimit="10" stroke-width="0.613"/>
          <g id="Group_11592" data-name="Group 11592" transform="translate(8.074 1.629)">
            <rect id="Rectangle_3975" data-name="Rectangle 3975" width="28.211" height="0.443" transform="translate(28.211 0.443) rotate(180)" fill="#5c2b61"/>
            <rect id="Rectangle_3976" data-name="Rectangle 3976" width="28.211" height="0.443" transform="translate(28.211 1.329) rotate(180)" fill="#5c2b61"/>
            <rect id="Rectangle_3977" data-name="Rectangle 3977" width="28.211" height="0.443" transform="translate(28.211 2.363) rotate(180)" fill="#5c2b61"/>
          </g>
          <path id="Path_23228" data-name="Path 23228" d="M149.959,45.671a.592.592,0,1,0,.592-.595A.593.593,0,0,0,149.959,45.671Z" transform="translate(-113.067 -37.243)" fill="#ff565e"/>
        </g>
        <g id="Group_11594" data-name="Group 11594">
          <path id="Path_23229" data-name="Path 23229" d="M70.981,41.379,59.323,44.741s-2.038,1.44,0,3.789L63.942,51.6l1.288-2.639L63.942,47.62l7.039-1.132A2.635,2.635,0,0,0,73,44.059C73.175,42.51,71.738,41.161,70.981,41.379Z" transform="translate(-58.418 -31.868)" fill="#f89f5b"/>
          <path id="Path_23230" data-name="Path 23230" d="M60.527,55.345l4.513-.98L66.328,55.7,65.04,58.342Z" transform="translate(-59.515 -38.613)" fill="#5c2b61"/>
          <path id="Path_23231" data-name="Path 23231" d="M87.774,29.75V26.135a2.875,2.875,0,1,1,5.751,0v.942l.985,1.876h-.985v.777a2.281,2.281,0,0,1-2.276,2.285h-.842l-1.338,2.327-2.69-2.218Z" transform="translate(-72.967 -22.48)" fill="#fff"/>
          <path id="Path_23232" data-name="Path 23232" d="M64.548,113.018s-.568-9.968,2.5-14.479c1.636-2.4-2.108-11.385-.6-21.376l9.819,2.707c-.294,3.024-2.422,22.805-8.688,32.189a8.135,8.135,0,0,0-1.067,2.334l-.031.111,1.368.781,1.673.253a.821.821,0,0,1,.71.815v.435h-5.78Z" transform="translate(-61.558 -50.433)" fill="#9c3587"/>
          <path id="Path_23233" data-name="Path 23233" d="M92.04,24.95s2.611-.264,2.979-1.809-1.581-1.883-2.28-1.034c0,0-2.989-1.034-4.635.775a4.215,4.215,0,0,0-.184,5.085s-.709.771.16,1.111,2.211-1.261,2.055-2.085C90.136,26.994,92.3,26.981,92.04,24.95Z" transform="translate(-73.366 -21.652)" fill="#5c2b61"/>
          <path id="Path_23234" data-name="Path 23234" d="M91.482,31.942c.1.642.548,1.105,1,1.034s.744-.649.645-1.291-.548-1.105-1-1.034S91.383,31.3,91.482,31.942Z" transform="translate(-75.613 -26.314)" fill="#fff"/>
          <path id="Path_23235" data-name="Path 23235" d="M93.325,39.7A2.217,2.217,0,0,1,92.1,38.076l-.114,3.955Z" transform="translate(-75.886 -30.167)" fill="#c4c6ff"/>
          <path id="Path_23236" data-name="Path 23236" d="M122.937,60.9s1-1.955,2-1.954c0,0,.269.167-.637,1.293a4.864,4.864,0,0,1,2.56-.652s.985,2.175-2.265,3.084L123.338,63Z" transform="translate(-91.991 -40.99)" fill="#dedcdc"/>
          <path id="Path_23237" data-name="Path 23237" d="M75.7,41.413a1.247,1.247,0,0,1,1.445.109l3.982,3.3a2.168,2.168,0,0,1,.551.69l3.761,6.949,9.219-.876.721,2.2-11,3.066a2.626,2.626,0,0,1-3.021-1.284l-1.7-3.145a37.542,37.542,0,0,0-.959,9.417L68.531,59.125S67.191,46.616,75.7,41.413Z" transform="translate(-63.64 -31.804)" fill="#f89f5b"/>
          <path id="Path_23238" data-name="Path 23238" d="M70.612,47.881h0c.086-.175.176-.349.269-.523l.061-.114c.036-.066.072-.132.109-.2l.072-.127c.036-.064.072-.127.11-.19h0a13.583,13.583,0,0,1,3.774-4.17,44.568,44.568,0,0,0-3.168,4.355l3.228.983,4.989-3.238.816.689-4.444,3.446,2.98,5.684.016.1a35.325,35.325,0,0,0-.718,8.33L68.531,60.143A25.48,25.48,0,0,1,70.612,47.881Z" transform="translate(-63.64 -32.491)" fill="#9c3587"/>
          <path id="Path_23239" data-name="Path 23239" d="M88.27,57.566l1.7,3.319a48.446,48.446,0,0,0-.981,7.12A58.866,58.866,0,0,1,88.27,57.566Z" transform="translate(-73.948 -40.272)" fill="#5c2b61"/>
          <path id="Path_23240" data-name="Path 23240" d="M68.614,78.39,78.79,81.1s11.988,6.7,10.141,12.474-7.024,12.578-7.024,12.578l1.446,1.494,1.961.908a1.051,1.051,0,0,1,.582,1.253l-.154.533-7.3-2.131,1.311-3.515,2.335-11.476S68.744,90.508,68.614,78.39Z" transform="translate(-63.723 -51.069)" fill="#9c3587"/>
          <path id="Path_23241" data-name="Path 23241" d="M96.4,139.392l-7.3-2.131,1.057-2.835,2.412.777,1.446,1.494,1.961.908a1.051,1.051,0,0,1,.582,1.253Z" transform="translate(-74.383 -80.122)" fill="#9c3587"/>
          <path id="Path_23275" data-name="Path 23275" d="M0,0,1.13,0l.008,4.129-1.13,0Z" transform="matrix(-0.751, -0.66, 0.66, -0.751, 11.376, 32.502)" fill="#3f1651"/>
          <path id="Path_23242" data-name="Path 23242" d="M96.391,109.18h2.777l-3.062,1.4Z" transform="translate(-78.029 -67.033)" fill="#5c2b61"/>
        </g>
      </g>
    </g>
    <path id="Path_23274" data-name="Path 23274" d="M144.229,0" transform="translate(-26.055 121.605)" fill="none" stroke="#5c2b61" stroke-width="1.534"/>
  </g>
</svg>
