<svg id="cpu-fan-svgrepo-com" xmlns="http://www.w3.org/2000/svg" width="48.652" height="48.656" viewBox="0 0 48.652 48.656">
  <path id="Path_24191" data-name="Path 24191" d="M4.577,0H44.071a4.6,4.6,0,0,1,4.581,4.581V44.075a4.6,4.6,0,0,1-4.581,4.581H4.577A4.589,4.589,0,0,1,0,44.075V4.577A4.6,4.6,0,0,1,4.577,0ZM22.659,28.7A4.878,4.878,0,0,1,21,27.786a6.73,6.73,0,0,1-1.449-1.726c-.2.012-.384.016-.566.016-.317,0-.645-.012-.99-.036A11.929,11.929,0,0,1,14.6,25.2a14.177,14.177,0,0,0-2.039-.626,2.188,2.188,0,0,0-.689-.032,1.264,1.264,0,0,0-.816.471,2.443,2.443,0,0,0-.467,1.069,4.175,4.175,0,0,0-.028,1.421,6.572,6.572,0,0,0,.333,1.251,9.8,9.8,0,0,0,.546,1.223,8.41,8.41,0,0,0,.614,1.014,10.461,10.461,0,0,0,.736.934,7.561,7.561,0,0,0,2.7,2.063,4.232,4.232,0,0,0,2.423.285,4.7,4.7,0,0,0,2.237-1.144,9.014,9.014,0,0,0,2.277-3.381A2.82,2.82,0,0,0,22.623,29a1.074,1.074,0,0,0,.036-.3Zm6.632-2.637a4.838,4.838,0,0,1-1.049,1.576A6.657,6.657,0,0,1,26.4,28.931c-.008.2-.016.384-.036.566-.024.317-.063.645-.119.982a11.893,11.893,0,0,1-1.124,3.31,14.2,14.2,0,0,0-.8,1.976,1.984,1.984,0,0,0-.087.685,1.272,1.272,0,0,0,.4.851,2.445,2.445,0,0,0,1.025.558,4.139,4.139,0,0,0,1.413.15,6.583,6.583,0,0,0,1.275-.226,9.963,9.963,0,0,0,1.267-.443,8.537,8.537,0,0,0,1.061-.527,11.015,11.015,0,0,0,.994-.653,7.582,7.582,0,0,0,2.285-2.514,4.224,4.224,0,0,0,.491-2.391,4.741,4.741,0,0,0-.95-2.328,8.986,8.986,0,0,0-3.175-2.554,2.615,2.615,0,0,0-.729-.253,1.4,1.4,0,0,0-.3-.059Zm-3.215-6.141A4.927,4.927,0,0,1,27.7,20.9a6.684,6.684,0,0,1,1.378,1.786c.186,0,.376,0,.566.012.34.012.665.036.986.071a11.855,11.855,0,0,1,3.354.982,14.358,14.358,0,0,0,2.015.7.165.165,0,0,0,.024.008,1.962,1.962,0,0,0,.661.051,1.271,1.271,0,0,0,.835-.436,2.521,2.521,0,0,0,.511-1.053,4.257,4.257,0,0,0,.087-1.417,6.54,6.54,0,0,0-.277-1.267,9.866,9.866,0,0,0-.5-1.247,9.384,9.384,0,0,0-.574-1.037,11.792,11.792,0,0,0-.7-.962,7.5,7.5,0,0,0-2.613-2.166,4.284,4.284,0,0,0-2.411-.384,4.752,4.752,0,0,0-2.285,1.049,8.975,8.975,0,0,0-2.411,3.282,3.007,3.007,0,0,0-.226.74,1.823,1.823,0,0,0-.044.3Zm.879,2.094a3.369,3.369,0,1,0,.986,2.383,3.36,3.36,0,0,0-.986-2.383Zm-7.016.685a4.881,4.881,0,0,1,.97-1.623A6.7,6.7,0,0,1,22.691,19.7c0-.19,0-.376.008-.566q.018-.5.071-.986a11.9,11.9,0,0,1,.97-3.357,14.592,14.592,0,0,0,.7-2.015,1.912,1.912,0,0,0,.055-.685,1.285,1.285,0,0,0-.439-.835,2.447,2.447,0,0,0-1.053-.507,4.255,4.255,0,0,0-1.417-.083,6.488,6.488,0,0,0-1.267.281,10.237,10.237,0,0,0-1.247.5,9.131,9.131,0,0,0-1.037.578,10.054,10.054,0,0,0-.958.7,7.5,7.5,0,0,0-2.166,2.625,4.2,4.2,0,0,0-.376,2.407,4.7,4.7,0,0,0,1.053,2.281,9.048,9.048,0,0,0,3.29,2.407,2.854,2.854,0,0,0,.736.222,2.955,2.955,0,0,0,.321.04ZM24.326,6.093A18.237,18.237,0,1,1,6.089,24.33,18.236,18.236,0,0,1,24.326,6.093ZM42.784,3.785A2.312,2.312,0,1,1,40.472,6.1a2.312,2.312,0,0,1,2.312-2.312Zm-36.92,0A2.312,2.312,0,1,1,3.551,6.1,2.312,2.312,0,0,1,5.864,3.785Zm36.92,36.493a2.312,2.312,0,1,1-2.312,2.312,2.312,2.312,0,0,1,2.312-2.312ZM8.18,42.59a2.312,2.312,0,1,1-2.312-2.312A2.312,2.312,0,0,1,8.18,42.59Z" fill="#3f1651" fill-rule="evenodd"/>
</svg>
