<svg xmlns="http://www.w3.org/2000/svg" width="41.801" height="41.801" viewBox="0 0 41.801 41.801">
  <g id="duplicate-svgrepo-com" transform="translate(-2 -2)">
    <path id="Path_24192" data-name="Path 24192" d="M6.18,39.441h25.08a4.18,4.18,0,0,0,4.18-4.18V10.18A4.18,4.18,0,0,0,31.261,6H6.18A4.18,4.18,0,0,0,2,10.18v25.08A4.18,4.18,0,0,0,6.18,39.441Zm4.18-18.81h6.27V14.36h4.18v6.27h6.27v4.18H20.81v6.27H16.63V24.81H10.36Z" transform="translate(0 4.36)" fill="#3f1651"/>
    <path id="Path_24193" data-name="Path 24193" d="M33.08,2H8V6.18H33.08v25.08h4.18V6.18A4.184,4.184,0,0,0,33.08,2Z" transform="translate(6.54)" fill="#3f1651"/>
  </g>
</svg>
