<svg xmlns="http://www.w3.org/2000/svg" xmlns:xlink="http://www.w3.org/1999/xlink" width="62.607" height="99.953" viewBox="0 0 62.607 99.953">
  <defs>
    <clipPath id="clip-path">
      <path id="SVGID" d="M1750.557,236.235a2.331,2.331,0,0,0,.125,1.142,3.126,3.126,0,0,0,1.2-.166c-.148-.931-.176-1.011-.176-1.011a.92.92,0,0,0-.642-.122A2.052,2.052,0,0,0,1750.557,236.235Z" transform="translate(-1750.533 -236.062)" fill="#fff" opacity="0.5"/>
    </clipPath>
    <clipPath id="clip-path-2">
      <path id="SVGID-2" data-name="SVGID" d="M1720.745,240.14a2.331,2.331,0,0,1,.234,1.124,4.852,4.852,0,0,1-1.485.26c-.148-.931.047-1.154.047-1.154a1.9,1.9,0,0,1,.711-.323A.55.55,0,0,1,1720.745,240.14Z" transform="translate(-1719.439 -240.034)" fill="#fff" opacity="0.5"/>
    </clipPath>
  </defs>
  <g id="Group_11588" data-name="Group 11588" transform="translate(-1530.886 -175.381)">
    <g id="Group_11529" data-name="Group 11529" transform="translate(1551.261 274.029)">
      <path id="Path_23014" data-name="Path 23014" d="M1675.054,874.029c0,.36,3.765.653,8.409.653s8.409-.292,8.409-.653-3.765-.653-8.409-.653S1675.054,873.668,1675.054,874.029Z" transform="translate(-1675.054 -873.376)" fill="#1c1f23" opacity="0.1"/>
      <path id="Path_23015" data-name="Path 23015" d="M1711.48,875.825c0,.2,2.4.357,5.351.357s5.351-.16,5.351-.357-2.4-.357-5.351-.357S1711.48,875.628,1711.48,875.825Z" transform="translate(-1706.332 -875.172)" fill="#1c1f23" opacity="0.1"/>
    </g>
    <g id="Group_11530" data-name="Group 11530" transform="translate(1533.001 274.029)">
      <path id="Path_23016" data-name="Path 23016" d="M1545.847,874.029c0,.36,4.023.653,8.985.653s8.985-.292,8.985-.653-4.023-.653-8.985-.653S1545.847,873.668,1545.847,874.029Z" transform="translate(-1545.847 -873.376)" fill="#1c1f23" opacity="0.1"/>
      <path id="Path_23017" data-name="Path 23017" d="M1582.273,875.825c0,.2,2.4.357,5.351.357s5.351-.16,5.351-.357-2.4-.357-5.351-.357S1582.273,875.628,1582.273,875.825Z" transform="translate(-1577.125 -875.172)" fill="#1c1f23" opacity="0.1"/>
    </g>
    <g id="Group_11587" data-name="Group 11587" transform="translate(1530.886 175.381)">
      <g id="Group_11545" data-name="Group 11545" transform="translate(29.642 10.557)">
        <g id="Group_11532" data-name="Group 11532" transform="translate(0 9.509)">
          <g id="Group_11531" data-name="Group 11531">
            <path id="Path_23018" data-name="Path 23018" d="M1748.922,331.359c-1.936-2.354-4.894-3.484-6.465-4.628s-3.4-8.363.481-9.285,8.075,6.065,9.972,7.426,3.417,4.418,2.55,6.6S1751.323,334.279,1748.922,331.359Z" transform="translate(-1740.621 -317.362)" fill="#f89f5b"/>
            <path id="Path_23019" data-name="Path 23019" d="M1755.7,362.4c1.11,4.823,2,4.226,2.386,5.421s1.47,1.934,2.492.967c.458-.4,2.771-.772,4.918-.486a3.922,3.922,0,0,1-.226,1.84c-.867,2.179-4.136,2.81-6.537-.11-1.936-2.354-4.894-3.484-6.465-4.628a1.6,1.6,0,0,1-.222-.2Z" transform="translate(-1750.427 -356.033)" fill="#f89f5b" opacity="0.1"/>
            <path id="Path_23020" data-name="Path 23020" d="M1757.014,317.455l.143-.025a2.331,2.331,0,0,1,.406-.049,1.862,1.862,0,0,1,.292,0l.166.01a1.05,1.05,0,0,1,.177.02,4.043,4.043,0,0,1,.8.2l.218.078.22.1c.151.062.3.147.452.226s.3.178.458.274.308.2.458.317c.308.22.607.473.908.732s.592.54.876.827c1.143,1.142,2.167,2.395,2.969,3.3.4.455.745.824,1,1.065.13.119.233.213.309.269l.115.089a1.028,1.028,0,0,1-.175-.012,1.889,1.889,0,0,1-.456-.125,2.767,2.767,0,0,1-.6-.338c-.208-.152-.414-.35-.643-.556s-.473-.433-.719-.68-.5-.511-.75-.787l-.377-.427-.376-.442c-.258-.291-.513-.594-.774-.887s-.534-.573-.8-.853-.538-.538-.814-.769c-.133-.125-.272-.232-.406-.345s-.272-.209-.407-.3-.267-.188-.4-.261l-.2-.117-.2-.1a4.21,4.21,0,0,0-.73-.289,3.341,3.341,0,0,0-.6-.118,2.5,2.5,0,0,0-.41-.02Z" transform="translate(-1754.697 -317.372)" fill="#f89f5b" opacity="0.15"/>
          </g>
        </g>
        <g id="Group_11533" data-name="Group 11533" transform="translate(10.186 14.638)">
          <path id="Path_23021" data-name="Path 23021" d="M1817.649,364.823a3.17,3.17,0,0,1-3.568-5.24,3.216,3.216,0,0,1,.425-.244c1.1-1.091,1.76-1.362,6.027-2.96,3.809-1.426,4.137-1.754,5.046-2.724l2.046,1.279C1823.538,360.168,1820.227,363.515,1817.649,364.823Z" transform="translate(-1812.695 -353.655)" fill="#ffb98b"/>
          <path id="Path_23022" data-name="Path 23022" d="M1825.51,359.339a1.256,1.256,0,0,0,.169-.028c.108-.023.255-.062.424-.114.086-.025.177-.057.271-.092s.193-.074.3-.115c.2-.087.427-.192.685-.289s.551-.19.861-.3.641-.221.981-.347c.169-.066.344-.131.517-.2l.527-.221c.177-.075.358-.147.537-.225l.538-.238c.358-.16.725-.315,1.073-.481s.7-.335,1.036-.5.652-.345.954-.514.579-.35.831-.53a4.948,4.948,0,0,0,.647-.543,4.256,4.256,0,0,0,.417-.491c.1-.141.178-.258.23-.336l.079-.12-.1.1c-.063.067-.156.165-.278.286a4.847,4.847,0,0,1-.464.41,5.233,5.233,0,0,1-.676.435c-.257.145-.547.279-.853.42s-.637.275-.979.413c-.683.276-1.419.552-2.154.827s-1.471.552-2.157.822-1.32.535-1.844.805a6.244,6.244,0,0,0-.69.412,5.56,5.56,0,0,0-.489.381c-.128.115-.227.206-.293.271Z" transform="translate(-1823.699 -353.655)" fill="#fff" opacity="0.15"/>
          <path id="Path_23023" data-name="Path 23023" d="M1813.245,379.492a3.171,3.171,0,0,1,1.261-4.648,5.867,5.867,0,0,1,1.6-1.177l.6-.2c-1.711,2.153-.727,3.124.333,3.321s7.09-2.642,9.578-5.071c-3.627,4.506-6.605,7.417-8.967,8.616A3.17,3.17,0,0,1,1813.245,379.492Z" transform="translate(-1812.695 -369.16)" opacity="0.05"/>
        </g>
        <g id="Group_11534" data-name="Group 11534" transform="translate(9.48 17.836)">
          <path id="Path_23024" data-name="Path 23024" d="M1812.747,377.159a5.836,5.836,0,0,0-2.31,2.808c-.663,1.851-.778,4.273.427,4.753a.9.9,0,0,1-1.477.046,2.581,2.581,0,0,0-.927-.618c-.4-.221-1.44-2.75-.1-5.48a3.925,3.925,0,0,1,3.736-2.365C1812.334,376.385,1812.747,377.159,1812.747,377.159Z" transform="translate(-1807.698 -376.281)" fill="#e53f71"/>
          <path id="Path_23025" data-name="Path 23025" d="M1812.412,378.674s.069-.065.186-.181c.057-.057.125-.134.206-.209s.176-.151.268-.238.217-.166.327-.258.244-.171.379-.247l.2-.117c.067-.04.143-.068.213-.1s.143-.068.217-.1.145-.064.221-.085l.225-.069c.076-.018.15-.039.224-.059.149-.034.293-.066.433-.1l.388-.079.077-.016.031-.007.008,0-.009,0-.016-.009a.077.077,0,0,1-.014-.012l-.053-.022h.005l.007,0,.013,0,.022.006a.146.146,0,0,1-.024-.016c-.014-.011-.03-.033-.016-.023l.022.007a2.717,2.717,0,0,1,.242.18,1.321,1.321,0,0,0,.268.146,1.571,1.571,0,0,0,.231.073c.029.008.056.011.073.014l.026,0s-.042-.08-.123-.216c-.041-.068-.091-.15-.152-.241a2.333,2.333,0,0,0-.226-.291.374.374,0,0,0-.173-.114,1.031,1.031,0,0,0-.225-.015,3.221,3.221,0,0,0-.485.048c-.083.018-.167.034-.252.054l-.254.071-.253.09c-.083.034-.165.072-.248.109s-.16.084-.24.125l-.118.065-.112.074c-.073.051-.15.094-.218.149l-.2.161c-.129.109-.243.228-.353.337s-.2.228-.28.336l-.21.3c-.061.091-.1.179-.142.247Z" transform="translate(-1811.746 -376.287)" fill="#fff" opacity="0.15"/>
          <path id="Path_23026" data-name="Path 23026" d="M1821.1,382.5l-.1.028c-.065.02-.163.047-.281.1a4.09,4.09,0,0,0-.42.192,4.963,4.963,0,0,0-.519.311,5.367,5.367,0,0,0-.568.453,5.718,5.718,0,0,0-.561.61l-.131.178-.122.19a4.635,4.635,0,0,0-.232.4l-.056.1-.048.1c-.028.059-.058.131-.089.2-.06.144-.114.281-.166.424a6.593,6.593,0,0,0-.26.867c-.033.147-.057.294-.08.442s-.032.295-.039.442a4.032,4.032,0,0,0,.063.86,3.639,3.639,0,0,0,.237.782,2.289,2.289,0,0,0,.392.634,1.09,1.09,0,0,0,.537.318.812.812,0,0,0,.418-.009.615.615,0,0,0,.108-.045l.035-.018-.09-.042a1.14,1.14,0,0,1-.231-.158,1.705,1.705,0,0,1-.48-.863,4.532,4.532,0,0,1-.106-1.406,8.208,8.208,0,0,1,.266-1.6,7.415,7.415,0,0,1,.253-.784,3.957,3.957,0,0,1,.16-.371l.087-.179.1-.17a5.4,5.4,0,0,1,.417-.618c.072-.094.149-.18.22-.267s.148-.163.22-.236c.146-.147.284-.277.413-.386s.244-.2.341-.272C1820.98,382.566,1821.1,382.5,1821.1,382.5Z" transform="translate(-1816.05 -381.618)" fill="#1c1f23" opacity="0.2"/>
        </g>
        <g id="Group_11535" data-name="Group 11535" transform="translate(22.682 8.014)">
          <path id="Path_23027" data-name="Path 23027" d="M1901.649,324.49c.4-.783.753-1.021,1.264-.809a3.594,3.594,0,0,0,2.153-.334c.573-.27.928-.188,1.13.394s.586,4.128.107,4.708a3.1,3.1,0,0,1-2.273.892,4.036,4.036,0,0,0-1.494.47c-.306.14-.936-.015-1.281-.929-.323-.856-.026-1.094.06-1.186a1.624,1.624,0,0,0,.229-1.165A3.4,3.4,0,0,1,1901.649,324.49Z" transform="translate(-1901.108 -320.879)" fill="#ffb98b"/>
          <path id="Path_23028" data-name="Path 23028" d="M1908.692,323.2c.26.01.445.179.571.541.2.582.494,3.777.014,4.356a3.478,3.478,0,0,1-2.411.954,4.356,4.356,0,0,0-2.077,1.06c-.2.158-.077-.1-.019-.178.427-.568.975-1.394.767-1.661,2.43,1.343,3.225-1.418,2.753-1.412s-.841-.826-.841-.826a5.642,5.642,0,0,1-1.21,1.284C1907.6,325.895,1906.952,324.45,1908.692,323.2Z" transform="translate(-1904.174 -320.884)" opacity="0.05"/>
          <path id="Path_23029" data-name="Path 23029" d="M1932.215,317.6a.672.672,0,0,1-1.166-.143c-.273-.5-.261-.942.309-1.069a3.51,3.51,0,0,0,1.328-.77c.25-.268,1.52-.707,1.786-.045a.667.667,0,0,1-.34.976A6.956,6.956,0,0,0,1932.215,317.6Z" transform="translate(-1926.669 -314.035)" fill="#ffb98b"/>
          <path id="Path_23030" data-name="Path 23030" d="M1902.481,311.236a1.561,1.561,0,0,1,.02-.832c.069-.36-.445-.966-.409-1.152a.728.728,0,0,1,.492-.411,1.619,1.619,0,0,1,1.03.715,1.993,1.993,0,0,1-.017,1.273C1903.375,311.466,1902.56,311.48,1902.481,311.236Z" transform="translate(-1901.952 -308.55)" fill="#ffb98b"/>
          <path id="Path_23031" data-name="Path 23031" d="M1903.273,326.137a1.372,1.372,0,0,1-.6-1.006c-.215-1.078-.485-1.463-.294-2.05a4.238,4.238,0,0,0,.294-1.333c-.037-.4.083-.6.412-.652s.763.075.7.245c-.1.282.268.636.437.732,0,.406.019,1.255-.025,2.235S1903.689,326.5,1903.273,326.137Z" transform="translate(-1902.142 -319.062)" fill="#ffb98b"/>
          <path id="Path_23032" data-name="Path 23032" d="M1949.06,308.356c-.171-.387.029-.573.242-.918a1.5,1.5,0,0,1,1.37-.645.933.933,0,0,1,.812.852c0,.214-.11.438-.567.648a3.084,3.084,0,0,0-.834.6C1949.772,309.142,1949.279,308.851,1949.06,308.356Z" transform="translate(-1942.228 -306.784)" fill="#ffb98b"/>
          <path id="Path_23033" data-name="Path 23033" d="M1943.8,307.56a.8.8,0,0,0-.079-.216.693.693,0,0,0-.322-.325.591.591,0,0,0-.113-.041l-.063-.016-.065-.011a1.151,1.151,0,0,0-.269-.007,1.525,1.525,0,0,0-.541.146,1.44,1.44,0,0,0-.249.152,1.2,1.2,0,0,0-.219.2,1.38,1.38,0,0,1,.429-.415,1.528,1.528,0,0,1,.557-.218,1.3,1.3,0,0,1,.3-.019,1.083,1.083,0,0,1,.3.054.9.9,0,0,1,.456.375,1.039,1.039,0,0,1,.121.274.521.521,0,0,1-.15.549,1.155,1.155,0,0,1-.243.176c-.087.05-.18.088-.269.135a1.955,1.955,0,0,0-.257.156c-.162.118-.3.268-.458.39h0a.637.637,0,0,1-.186.289.583.583,0,0,1-.145.1c-.053.022-.112.031-.165.054-.216.085-.427.181-.636.282s-.415.209-.615.326c-.1.059-.2.12-.294.187a1.8,1.8,0,0,0-.268.222.7.7,0,0,1,.076-.182,1.109,1.109,0,0,1,.109-.159,1.551,1.551,0,0,1,.127-.138,1.732,1.732,0,0,1,.138-.122,3.331,3.331,0,0,1,.3-.206q.152-.1.305-.188c.1-.062.208-.118.314-.172s.213-.107.332-.16c.021-.008.042-.017.063-.024l.055-.018.021-.006h0l.024-.005h-.008l-.008,0s0,0,0,0a.286.286,0,0,0,.058-.042.349.349,0,0,0,.086-.135l.045-.115.061-.046c.085-.064.143-.113.221-.181a3.08,3.08,0,0,1,.262-.211,2.233,2.233,0,0,1,.308-.169c.057-.027.1-.041.146-.063s.08-.034.118-.052a.941.941,0,0,0,.193-.12.315.315,0,0,0,.1-.124.2.2,0,0,0,.016-.073A.405.405,0,0,0,1943.8,307.56Z" transform="translate(-1934.804 -306.79)" fill="#fff" opacity="0.15"/>
          <path id="Path_23034" data-name="Path 23034" d="M1949.021,312.21a.53.53,0,0,1,.007-.318,1.155,1.155,0,0,1,.129-.25l.149-.231s0,.03-.015.08-.031.121-.055.2a1.118,1.118,0,0,0-.054.25.3.3,0,0,0,.009.109.5.5,0,0,0,.037.1c.018.036.038.068.061.111s.045.071.067.109c.042.073.076.145.109.21.017.032.036.058.048.088a.421.421,0,0,1,.026.092c.006.03.007.063.01.084s0,.038,0,.037a.883.883,0,0,1-.22-.163,1.225,1.225,0,0,1-.177-.219A1.149,1.149,0,0,1,1949.021,312.21Z" transform="translate(-1942.231 -310.758)" opacity="0.15"/>
          <path id="Path_23035" data-name="Path 23035" d="M1902.66,316c-.306.48-.587.413-.5.322a1.623,1.623,0,0,0,.229-1.164c-.189-.772-.365-1.128-.2-1.633a4.234,4.234,0,0,0,.294-1.333,1.561,1.561,0,0,1,.02-.832c.069-.36-.445-.966-.409-1.152a.5.5,0,0,1,.188-.254c-.273.389.4.791.754,1.24.381.482.662.085.65-.431a2.231,2.231,0,0,1-.088,1.021.556.556,0,0,0,.177.508l-.017.015a1.464,1.464,0,0,0-1.05.777,1.526,1.526,0,0,0-.046,1.381C1902.808,315.053,1902.966,315.524,1902.66,316Z" transform="translate(-1901.952 -309.509)" opacity="0.05"/>
        </g>
        <path id="Path_23036" data-name="Path 23036" d="M1893.155,312.067a2.443,2.443,0,0,0,.895-.482l.023-.046c0-.008,0-.017.007-.025l.018-.062c0-.008.006-.017.008-.026s0-.019,0-.028l.01-.064c0-.012,0-.025.006-.036l.006-.081c0-.019,0-.038,0-.058v-.073c0-.023,0-.046,0-.08v-.021c0-.074,0-.146-.009-.21-.037-.148-.072-.28-.105-.4s-.067-.249-.092-.357l0-.017c-.008-.035-.016-.07-.022-.1l0-.016c-.016-.083-.027-.158-.033-.229l0-.036c0-.026,0-.053,0-.081v-.04c0-.025,0-.049,0-.074l0-.048c0-.024,0-.049.009-.079l.005-.038c0-.027.01-.055.018-.091l.006-.029c.01-.04.021-.081.034-.122a5.135,5.135,0,0,0,.283-1.2,1.845,1.845,0,0,1,.022-.935.158.158,0,0,0,0-.053.778.778,0,0,0-.054-.177c-.044-.107-.1-.22-.163-.33a2.751,2.751,0,0,1-.154-.317.517.517,0,0,1-.035-.278.527.527,0,0,1,.05-.14.639.639,0,0,1,.042-.068.474.474,0,0,1,.029-.042.891.891,0,0,1,.066-.075l.014-.015c.025-.024.051-.047.086-.076h0a1,1,0,0,1,.45-.219l.027,0h.016a1.871,1.871,0,0,1,1.275.884,2,2,0,0,1,.085,1.081l-.007.045c-.006.032-.011.063-.018.093s-.011.049-.017.074l-.015.06c-.012.044-.024.085-.038.126v.015s0,.009,0,.02.005.017.01.028a.576.576,0,0,0,.081.132,1.205,1.205,0,0,0,.238.022,4.367,4.367,0,0,0,1.6-.377,17.688,17.688,0,0,1,1.786-.657,1.54,1.54,0,0,0,.187-.162,1.754,1.754,0,0,1,.731-.384c.01-.026.021-.053.034-.08v0l.053-.1v0c.018-.031.037-.062.058-.095l.146-.226a1.447,1.447,0,0,1,.23-.28l.011-.011a1.869,1.869,0,0,1,.594-.376,1.7,1.7,0,0,1,.635-.121,1.622,1.622,0,0,1,.172.01l.063.01.023,0a1.24,1.24,0,0,1,.173.044l.034.009.013.009a1.209,1.209,0,0,1,.149.073,1.135,1.135,0,0,1,.291.236l.014.015a1.308,1.308,0,0,1,.095.127l.018.027c.024.038.046.078.066.119l.1.271c0,.018.008.036.011.053l0,.015a.814.814,0,0,1,.011.117c0,.032,0,.064,0,.09l0,.017a.762.762,0,0,1-.056.212l0,.011-.007.013a.857.857,0,0,1-.118.183,1.119,1.119,0,0,1-.175.167l0,0-.06.043a2.031,2.031,0,0,1-.28.158l-.105.051-.026.013a1.687,1.687,0,0,0-.22.133,2.487,2.487,0,0,0-.2.167l-.113.1-.074.063a.91.91,0,0,1-.454.472l-.029.013h0a.543.543,0,0,1-.068.021l-.014,0a.364.364,0,0,0-.05.016l-.024.01h-.005c-.1.038-.194.079-.291.123l-.059.027c.006.075.01.152.012.232l.01.205c0,.052.009.1.016.147l0,.022c.009.055.018.11.028.164s.022.123.032.189a2.508,2.508,0,0,1,.032.358v.015a1.248,1.248,0,0,1-.054.375,1.032,1.032,0,0,1-.138.281l-.005.008-.008.01a1.092,1.092,0,0,1-.07.087l-.01.011c-.025.028-.052.054-.079.08a1.221,1.221,0,0,1-.149.984s-.158.206-.19.236a1.4,1.4,0,0,1-.312,1.048,1.308,1.308,0,0,1-.3.235l-.158.094a6.8,6.8,0,0,1-1.1.579,3.719,3.719,0,0,1-1.66.413l-.085,0h-.019a2.213,2.213,0,0,0-.7.17c-.438.147-1.106,1.339-1.106,1.339a1.665,1.665,0,0,1-1.551-.564C1892.638,313.972,1892.626,312.472,1893.155,312.067Z" transform="translate(-1871.291 -297.065)" fill="#f15a29" opacity="0.5" style="mix-blend-mode: hard-light;isolation: isolate"/>
        <g id="Group_11542" data-name="Group 11542" transform="translate(23.826)">
          <g id="Group_11536" data-name="Group 11536" transform="translate(2.49 1.148)">
            <path id="Path_23037" data-name="Path 23037" d="M1927.172,284.546a.555.555,0,0,0,.75-.227l.39-.728a1.181,1.181,0,0,0-.187-1.231c-.2-.323-.213-.4-.16-.494a.554.554,0,1,0-.977-.523,1.5,1.5,0,0,0,.193,1.6c.037.06.088.143.116.2l-.351.655A.555.555,0,0,0,1927.172,284.546Z" transform="translate(-1926.827 -277.822)" fill="#d0ddec"/>
            <path id="Path_23038" data-name="Path 23038" d="M1927.789,280.458a.554.554,0,0,0,.732-.195,5.411,5.411,0,0,1,1.773.385c1.109.356,2.068.664,2.453-.055a.555.555,0,0,0-.864-.67,7.111,7.111,0,0,1-1.25-.33c-1.2-.386-2.567-.824-3.07.115A.554.554,0,0,0,1927.789,280.458Z" transform="translate(-1927.402 -276.187)" fill="#d0ddec"/>
            <path id="Path_23039" data-name="Path 23039" d="M1933.653,269.305a.554.554,0,0,0,.742-.213,4.4,4.4,0,0,1,1.615.263c.99.271,1.924.527,2.3-.174a.554.554,0,0,0-.883-.652,6.121,6.121,0,0,1-1.124-.243c-1.117-.306-2.384-.653-2.877.269A.554.554,0,0,0,1933.653,269.305Z" transform="translate(-1932.437 -266.581)" fill="#d0ddec"/>
            <path id="Path_23040" data-name="Path 23040" d="M1939.222,259.461a.554.554,0,0,0,.7-.146,6.094,6.094,0,0,1,1.574.335c1.07.316,1.916.565,2.262-.082a.554.554,0,0,0-.824-.7,7.654,7.654,0,0,1-1.124-.278c-1.166-.344-2.371-.7-2.812.124A.555.555,0,0,0,1939.222,259.461Z" transform="translate(-1937.219 -258.206)" fill="#d0ddec"/>
          </g>
          <g id="Group_11537" data-name="Group 11537" transform="translate(3.38)">
            <path id="Path_23041" data-name="Path 23041" d="M1937.71,296.447a.555.555,0,0,0,.75-.227l.351-.655c.062-.008.16-.012.23-.014a1.5,1.5,0,0,0,1.437-.725.554.554,0,0,0-.978-.523c-.052.1-.12.127-.5.141a1.18,1.18,0,0,0-1.128.526l-.39.728A.555.555,0,0,0,1937.71,296.447Z" transform="translate(-1936.81 -287.801)" fill="#d5eeff"/>
            <path id="Path_23042" data-name="Path 23042" d="M1936.04,274.523a.554.554,0,0,0,.75-.227c.5-.931-.6-1.847-1.573-2.656a7.053,7.053,0,0,1-.96-.891.554.554,0,0,0-1.035-.355c-.38.71.392,1.353,1.286,2.1.4.335,1.229,1.024,1.29,1.311A.554.554,0,0,0,1936.04,274.523Z" transform="translate(-1933.123 -267.271)" fill="#d5eeff"/>
            <path id="Path_23043" data-name="Path 23043" d="M1941.61,264.124a.554.554,0,0,0,.75-.227c.5-.931-.6-1.847-1.573-2.656a7.066,7.066,0,0,1-.96-.891.554.554,0,0,0-1.035-.355c-.38.71.392,1.353,1.286,2.1.4.335,1.229,1.024,1.29,1.311A.554.554,0,0,0,1941.61,264.124Z" transform="translate(-1937.905 -258.342)" fill="#d5eeff"/>
            <path id="Path_23044" data-name="Path 23044" d="M1948.51,255.435a.555.555,0,0,0,.75-.227c.442-.824-.476-1.589-1.286-2.264a6.649,6.649,0,0,1-.724-.659.554.554,0,0,0-1.042-.306c-.347.648.3,1.19,1.056,1.817a5.083,5.083,0,0,1,.985.963A.554.554,0,0,0,1948.51,255.435Z" transform="translate(-1944.277 -251.46)" fill="#d5eeff"/>
            <path id="Path_23045" data-name="Path 23045" d="M1946.62,251.351a.555.555,0,0,0,.706-.157,2.3,2.3,0,0,1,1.094.3,1.634,1.634,0,0,1,.684.63.554.554,0,0,0,1,.465c.392-.731-.308-1.613-1.165-2.072-.674-.361-2.074-.808-2.551.082A.555.555,0,0,0,1946.62,251.351Z" transform="translate(-1944.461 -250.08)" fill="#d5eeff"/>
          </g>
          <g id="Group_11541" data-name="Group 11541" transform="translate(0 6.666)">
            <g id="Group_11539" data-name="Group 11539" transform="translate(0 3.73)">
              <g id="Group_11538" data-name="Group 11538">
                <path id="Path_23046" data-name="Path 23046" d="M1913.329,339.12c-.065.122.045.309.248.417s.419.1.485-.025-.045-.309-.248-.417S1913.394,339,1913.329,339.12Z" transform="translate(-1912.73 -336.846)" fill="#3c3c4e"/>
                <path id="Path_23047" data-name="Path 23047" d="M1911.233,323.689l1.915,1.025.091.049s-.148.059-.179.116l-.725,1.353a.443.443,0,0,1-.6.181l-1.133-.607a.444.444,0,0,1-.182-.6l.724-1.353a.47.47,0,0,0,0-.213Z" transform="translate(-1910.203 -323.64)" fill="#516a80"/>
                <path id="Rectangle_3967" data-name="Rectangle 3967" d="M0,0H1.36a0,0,0,0,1,0,0V1.41a.68.68,0,0,1-.68.68h0A.68.68,0,0,1,0,1.41V0A0,0,0,0,1,0,0Z" transform="matrix(0.882, 0.472, -0.472, 0.882, 1.387, 0.24)" fill="#fff" opacity="0.15"/>
                <path id="Rectangle_3968" data-name="Rectangle 3968" d="M0,0H.5a0,0,0,0,1,0,0V1.842a.248.248,0,0,1-.248.248h0A.248.248,0,0,1,0,1.842V0A0,0,0,0,1,0,0Z" transform="translate(1.769 0.444) rotate(28.176)" fill="#fff" opacity="0.15"/>
                <path id="Path_23048" data-name="Path 23048" d="M1914.5,324.488l1.816,1.329a.157.157,0,0,0,.219-.034h0a.157.157,0,0,0-.034-.219l-1.816-1.329a.157.157,0,0,0-.219.034h0A.157.157,0,0,0,1914.5,324.488Z" transform="translate(-1913.698 -324.125)" fill="#516a80"/>
                <path id="Path_23049" data-name="Path 23049" d="M1917.384,325.81a.046.046,0,0,0,.059-.014.045.045,0,0,0,.008-.034.046.046,0,0,0-.018-.03l-1.817-1.33a.047.047,0,0,0-.063.011.046.046,0,0,0,.01.065l1.816,1.329Z" transform="translate(-1914.648 -324.288)" fill="#fff" opacity="0.15"/>
                <path id="Path_23050" data-name="Path 23050" d="M1912.758,327.744l1.816,1.329a.157.157,0,0,0,.219-.034h0a.157.157,0,0,0-.034-.219l-1.816-1.329a.157.157,0,0,0-.219.034h0A.157.157,0,0,0,1912.758,327.744Z" transform="translate(-1912.2 -326.921)" fill="#516a80"/>
                <path id="Path_23051" data-name="Path 23051" d="M1915.641,329.066a.046.046,0,0,0,.049-.078l-1.817-1.33a.048.048,0,0,0-.064.011.046.046,0,0,0-.008.034.045.045,0,0,0,.018.03l1.816,1.329Z" transform="translate(-1913.151 -327.084)" fill="#fff" opacity="0.15"/>
                <path id="Path_23052" data-name="Path 23052" d="M1911.014,331l1.816,1.329a.157.157,0,0,0,.219-.034h0a.157.157,0,0,0-.034-.219l-1.816-1.329a.157.157,0,0,0-.219.034h0A.157.157,0,0,0,1911.014,331Z" transform="translate(-1910.703 -329.716)" fill="#516a80"/>
                <path id="Path_23053" data-name="Path 23053" d="M1913.9,332.322a.047.047,0,0,0,.059-.014.046.046,0,0,0,.008-.034.046.046,0,0,0-.019-.03l-1.817-1.33a.047.047,0,0,0-.063.011.044.044,0,0,0-.008.034.045.045,0,0,0,.018.03l1.816,1.329Z" transform="translate(-1911.653 -329.88)" fill="#fff" opacity="0.15"/>
                <path id="Path_23054" data-name="Path 23054" d="M1909.27,334.256l.382.28a.157.157,0,0,0,.22-.034h0a.157.157,0,0,0-.034-.22l-.382-.28a.157.157,0,0,0-.219.034h0A.157.157,0,0,0,1909.27,334.256Z" transform="translate(-1909.206 -332.512)" fill="#516a80"/>
                <path id="Path_23055" data-name="Path 23055" d="M1910.719,334.529a.047.047,0,0,0,.059-.013.046.046,0,0,0,.008-.034.045.045,0,0,0-.018-.03l-.384-.281a.047.047,0,0,0-.063.011.046.046,0,0,0-.009.034.047.047,0,0,0,.019.03l.382.28Z" transform="translate(-1910.156 -332.675)" fill="#fff" opacity="0.15"/>
              </g>
              <path id="Path_23056" data-name="Path 23056" d="M1910.163,323.781a.157.157,0,0,1,.032-.031l.007,0a.154.154,0,0,1,.035-.017l.008,0a.167.167,0,0,1,.035,0h.013a.155.155,0,0,1,.037.007l.01,0h0a.853.853,0,0,0-.013-.091l.091.049h0l.252.135-.01.016a.212.212,0,0,1-.173.089.144.144,0,0,1-.067-.008.23.23,0,0,1-.061-.043.393.393,0,0,0-.074-.053.038.038,0,0,0-.028-.005.028.028,0,0,0-.016.028.055.055,0,0,0,.021.039c.016.014.037.021.053.034l.011.009a.132.132,0,0,1,.03.17l-.106.176-.006.01-.008.012a.126.126,0,0,1-.177.022c-.01-.008-.005,0-.009-.008l-.005,0a.036.036,0,0,0-.015,0,.04.04,0,0,0-.018,0l0,0s0-.005,0,0l-.006.006s-.006.007,0,0l0,0a.049.049,0,0,0-.011.043c0,.007.008.019.007.021l.011.011.009.008.026.022.01.008a.084.084,0,0,1,.017.109l-.109.174-.005.008-.005.007a.073.073,0,0,1-.1.01l-.016-.013-.016-.008a.089.089,0,0,0-.038-.005.093.093,0,0,0-.038.012.1.1,0,0,0-.016.011l-.006.006,0,0-.007.009a.1.1,0,0,0-.013.087.115.115,0,0,0,.022.041l.012.011.011.01.026.022,0,0a.035.035,0,0,1,.007.046l-.112.172,0,0,0,0a.02.02,0,0,1-.028,0,.143.143,0,0,0-.1-.039.151.151,0,0,0-.107.052.155.155,0,0,1,.075-.055l.007,0,.024-.006h0a.154.154,0,0,1,.061,0h0a.161.161,0,0,1,.054.027h0l.066-.123.031-.057-.032-.024-.017-.014-.007-.006-.015-.017-.008-.011a.108.108,0,0,1-.01-.02l0-.008a.149.149,0,0,1-.008-.027v0a.151.151,0,0,1,0-.033v0a.151.151,0,0,1,0-.029.052.052,0,0,1,0-.008.148.148,0,0,1,.009-.023l.006-.009.012-.018.009-.009.015-.014.01-.007.018-.011.011-.005.022-.007.009,0,.025,0h.008a.16.16,0,0,1,.063.015l.01.006.02.012h0l.066-.123.031-.057-.032-.024-.017-.014-.007-.006-.015-.017-.008-.011a.113.113,0,0,1-.01-.02l0-.008a.147.147,0,0,1-.008-.027v0a.151.151,0,0,1,0-.033v0a.171.171,0,0,1,0-.029l0-.008a.147.147,0,0,1,.009-.023l.005-.009.012-.018.009-.009.015-.014.01-.007.018-.011.011-.005.022-.007.009,0,.025,0h.008a.158.158,0,0,1,.063.015l.01.006.02.012h0l.066-.123.031-.057-.032-.024-.017-.014-.007-.006-.015-.017-.008-.011a.133.133,0,0,1-.01-.02l0-.008a.136.136,0,0,1-.008-.027v0a.151.151,0,0,1,0-.033v0a.172.172,0,0,1,0-.029l0-.008a.148.148,0,0,1,.009-.023l.005-.009Z" transform="translate(-1909.39 -323.64)" fill="#fff" opacity="0.15"/>
            </g>
            <path id="Path_23057" data-name="Path 23057" d="M1912.428,298.044l.811-.8,1.965,1.052,1.964,1.052-.213,1.117a7.2,7.2,0,0,1-.7,1.1.733.733,0,0,1-.854.224l-.281.29-.607.013-1.048-.561-1.048-.561-.325-.513.085-.394a.734.734,0,0,1-.287-.835A7.2,7.2,0,0,1,1912.428,298.044Z" transform="translate(-1911.482 -297.248)" fill="#aac9df"/>
            <path id="Path_23058" data-name="Path 23058" d="M1917.687,305.9l1.466.785,1.466.785a11.049,11.049,0,0,1-.668,1.12c-.329.463-.653.332-.653.332l-.246.308-.443.1-.679-.363-.679-.364-.161-.425.12-.376s-.288-.2-.086-.727A11.09,11.09,0,0,1,1917.687,305.9Z" transform="translate(-1915.944 -304.68)" fill="#fff" opacity="0.15"/>
            <path id="Path_23059" data-name="Path 23059" d="M1922.846,309.829l.43.23.43.23s-.346.653-.63,1.14-.392.471-.392.471l-.2.332-.229.216-.2-.107-.2-.107.052-.311.165-.352s-.072-.081.175-.588S1922.846,309.829,1922.846,309.829Z" transform="translate(-1920.066 -308.051)" fill="#fff" opacity="0.15"/>
            <path id="Path_23060" data-name="Path 23060" d="M1916.854,318.948l-3.224-1.727-.085.394,3.029,1.622Z" transform="translate(-1912.932 -314.398)" fill="#fff" opacity="0.15"/>
            <path id="Path_23061" data-name="Path 23061" d="M1913.545,320.012l.325.513,2.1,1.123.607-.013Z" transform="translate(-1912.932 -316.794)" opacity="0.15"/>
            <path id="Path_23062" data-name="Path 23062" d="M1915.9,298.044l.811-.8,3.929,2.1-.213,1.117Z" transform="translate(-1914.952 -297.248)" fill="#fff" opacity="0.15"/>
            <path id="Path_23063" data-name="Path 23063" d="M1921.538,300.721l.706-.852,2.545,1.363-.318,1.06Z" transform="translate(-1919.795 -299.499)" fill="#fff" opacity="0.15"/>
            <path id="Path_23064" data-name="Path 23064" d="M1928.871,304.2l.569-.926.747.4-.455.987Z" transform="translate(-1926.092 -302.425)" fill="#fff" opacity="0.15"/>
            <g id="Group_11540" data-name="Group 11540" transform="translate(0.882 1.257)">
              <path id="Path_23065" data-name="Path 23065" d="M1928.765,313.175a.213.213,0,1,0,.288-.087A.213.213,0,0,0,1928.765,313.175Z" transform="translate(-1926.861 -312.084)" opacity="0.15"/>
              <path id="Path_23066" data-name="Path 23066" d="M1921.917,309.567a.192.192,0,1,0,.259-.078A.192.192,0,0,0,1921.917,309.567Z" transform="translate(-1920.983 -308.996)" opacity="0.15"/>
              <path id="Path_23067" data-name="Path 23067" d="M1915.467,306.221a.124.124,0,1,0,.176-.069A.134.134,0,0,0,1915.467,306.221Z" transform="translate(-1915.447 -306.14)" opacity="0.15"/>
              <path id="Path_23068" data-name="Path 23068" d="M1936.25,317.243a.192.192,0,1,1-.078-.26A.192.192,0,0,1,1936.25,317.243Z" transform="translate(-1933 -315.432)" opacity="0.15"/>
              <path id="Path_23069" data-name="Path 23069" d="M1943.48,321.224a.124.124,0,1,1-.04-.185A.134.134,0,0,1,1943.48,321.224Z" transform="translate(-1939.316 -318.923)" opacity="0.15"/>
            </g>
          </g>
        </g>
        <g id="Group_11544" data-name="Group 11544" transform="translate(26.372 9.31)">
          <g id="Group_11543" data-name="Group 11543" transform="translate(0.312 0.314)">
            <path id="Path_23070" data-name="Path 23070" d="M1939.769,325.611c0-.5-.367-.842-.235-1.33s.348-.944.955-.745c.542.178.353.69.453,1.251s.194.986-.251,1.339S1939.768,326.106,1939.769,325.611Z" transform="translate(-1938.081 -322.738)" fill="#ffb98b"/>
            <path id="Path_23071" data-name="Path 23071" d="M1937.857,334.817c-.081-.469-.454-.7-.42-1.193s.144-.989.7-.968c.495.019.417.556.6,1.059s.329.879,0,1.336S1937.938,335.286,1937.857,334.817Z" transform="translate(-1936.303 -330.608)" fill="#ffb98b"/>
            <path id="Path_23072" data-name="Path 23072" d="M1937.876,345.64c.075-.391-.15-.679.024-1.059s.406-.732.834-.552c.382.161.162.559.153,1.005s0,.786-.392,1.048S1937.8,346.031,1937.876,345.64Z" transform="translate(-1936.644 -340.334)" fill="#ffb98b"/>
            <path id="Path_23073" data-name="Path 23073" d="M1932.549,320.09c-.705-.281-1.386-.8-1.09-1.26.555-.857.821-.671,1.026-.538a2.355,2.355,0,0,0,.824.486.634.634,0,0,1,.558.506,1,1,0,0,1-.6,1.124C1932.9,320.542,1932.836,320.2,1932.549,320.09Z" transform="translate(-1931.111 -318.177)" fill="#ffb98b"/>
            <path id="Path_23074" data-name="Path 23074" d="M1931.518,323.348a.674.674,0,0,1-.077-.137.485.485,0,0,1-.037-.136.4.4,0,0,1,.031-.206l.037-.071s.016.047.027.1c0,.025.018.055.019.081a.749.749,0,0,0,.021.084.663.663,0,0,0,.047.091.266.266,0,0,0,.034.048.459.459,0,0,0,.036.052,2.74,2.74,0,0,0,.195.228,2.182,2.182,0,0,0,.243.216c.08.07.16.132.231.183s.128.1.171.128l.066.051s-.109-.042-.267-.119a2.813,2.813,0,0,1-.541-.343A1.3,1.3,0,0,1,1931.518,323.348Z" transform="translate(-1931.122 -322.144)" opacity="0.15"/>
            <path id="Path_23075" data-name="Path 23075" d="M1937.221,319.628a1.22,1.22,0,0,1-.16.713,6.858,6.858,0,0,1-.792-.382c.076-.2.294-.582.188-.827C1936.458,319.132,1936.994,319.47,1937.221,319.628Z" transform="translate(-1935.302 -318.997)" fill="#fff" opacity="0.15"/>
            <path id="Path_23076" data-name="Path 23076" d="M1930.444,330.213c-.634-.169-1.227-.5-.947-1.306.232-.664.652-.451.838-.353a1.806,1.806,0,0,0,.762.29c.318.016.409.144.507.407a1.128,1.128,0,0,1-.516,1.165C1930.769,330.6,1930.7,330.282,1930.444,330.213Z" transform="translate(-1929.425 -326.991)" fill="#ffb98b"/>
            <path id="Path_23077" data-name="Path 23077" d="M1929.9,332.824a1.187,1.187,0,0,1-.271-.211.787.787,0,0,1-.1-.142.64.64,0,0,1-.063-.156.7.7,0,0,1-.026-.156,1.347,1.347,0,0,1,0-.142,1.248,1.248,0,0,1,.043-.208l.023-.077a.506.506,0,0,1,.044.1.633.633,0,0,1,.019.094,1.076,1.076,0,0,1,.006.109,1.437,1.437,0,0,0,.05.239.267.267,0,0,0,.022.06.344.344,0,0,0,.024.061,1.065,1.065,0,0,0,.07.12,1.007,1.007,0,0,0,.217.212,1.833,1.833,0,0,0,.239.163c.074.045.137.085.184.109l.072.043a2.835,2.835,0,0,1-.28-.089A1.973,1.973,0,0,1,1929.9,332.824Z" transform="translate(-1929.433 -329.816)" opacity="0.15"/>
            <path id="Path_23078" data-name="Path 23078" d="M1934.527,329.632s.511.271.718.39a1.3,1.3,0,0,1-.044.631,5.092,5.092,0,0,1-.713-.254A1.238,1.238,0,0,0,1934.527,329.632Z" transform="translate(-1933.772 -328.013)" fill="#fff" opacity="0.15"/>
            <path id="Path_23079" data-name="Path 23079" d="M1933.8,339.735c-.447-.32-.812-.758-.355-1.3.378-.452.645-.16.761-.029a1.512,1.512,0,0,0,.511.453c.244.107.277.234.277.469,0,.368-.446.713-.749.76S1933.983,339.866,1933.8,339.735Z" transform="translate(-1932.697 -335.36)" fill="#ffb98b"/>
            <path id="Path_23080" data-name="Path 23080" d="M1938.338,340.013a1.36,1.36,0,0,1-.134.458,2.674,2.674,0,0,1-.487-.369.953.953,0,0,0,.161-.591S1938.212,339.859,1938.338,340.013Z" transform="translate(-1936.545 -336.496)" fill="#fff" opacity="0.15"/>
            <path id="Path_23081" data-name="Path 23081" d="M1932.346,331.148c.006-.045.01-.089.011-.132a1.127,1.127,0,0,0,0-.128,1.854,1.854,0,0,0-.145-.521c-.035-.092-.073-.174-.106-.279s-.057-.2-.078-.3a1.649,1.649,0,0,0-.138-.5l-.016-.026,0-.009a.451.451,0,0,0-.118-.2.278.278,0,0,0-.1-.049.673.673,0,0,0-.134-.025,1.189,1.189,0,0,1-.174-.03,1.262,1.262,0,0,1-.167-.055,1.857,1.857,0,0,1-.3-.159c-.092-.058-.178-.118-.266-.162a.5.5,0,0,0-.27-.061.343.343,0,0,0-.133.041.557.557,0,0,0-.116.094.852.852,0,0,0-.092.125,1.464,1.464,0,0,0-.075.141,1.519,1.519,0,0,1,.063-.147.878.878,0,0,1,.082-.137.607.607,0,0,1,.114-.112.4.4,0,0,1,.146-.061.539.539,0,0,1,.312.045c.1.042.19.1.283.148a1.4,1.4,0,0,0,.6.2.467.467,0,0,1,.482.347h0a.8.8,0,0,1,.116.269c.026.095.043.191.064.287s.043.192.072.285l.1.278a1.753,1.753,0,0,1,.119.574.856.856,0,0,1-.052.288,1.179,1.179,0,0,1-.138.259c.008-.055.025-.1.031-.15A.876.876,0,0,0,1932.346,331.148Z" transform="translate(-1929.858 -326.995)" fill="#fff" opacity="0.15"/>
            <path id="Path_23082" data-name="Path 23082" d="M1940.5,321.082a2.283,2.283,0,0,1-.051-.391c-.008-.135,0-.266,0-.39a1.356,1.356,0,0,0-.013-.175.935.935,0,0,0-.043-.164.575.575,0,0,0-.154-.266.659.659,0,0,0-.273-.134,1.145,1.145,0,0,1-.307-.139,1.559,1.559,0,0,1-.216-.171l-.15-.143c-.082-.08-.133-.121-.133-.121s.055.035.145.106a2.855,2.855,0,0,0,.387.271,1.069,1.069,0,0,0,.295.11.782.782,0,0,1,.324.13.679.679,0,0,1,.207.309,1.106,1.106,0,0,1,.083.378c.006.13.012.26.019.389a2.986,2.986,0,0,0,.052.373,2.184,2.184,0,0,1,.05.663.767.767,0,0,1-.194.423.836.836,0,0,1-.095.092l-.035.031a.381.381,0,0,1,.021-.047l.059-.12c.022-.051.045-.111.067-.174a.817.817,0,0,0,.042-.222A2.927,2.927,0,0,0,1940.5,321.082Z" transform="translate(-1937.777 -318.873)" fill="#fff" opacity="0.15"/>
            <path id="Path_23083" data-name="Path 23083" d="M1940.735,340.948c0-.066,0-.129,0-.185a.773.773,0,0,0-.008-.141l-.007-.042a.9.9,0,0,0,0-.118.175.175,0,0,0-.026-.079.305.305,0,0,0-.073-.075.5.5,0,0,0-.058-.038.737.737,0,0,1-.071-.046,1.112,1.112,0,0,1-.233-.24,2.245,2.245,0,0,1-.156-.276,1.666,1.666,0,0,0,.443.419.787.787,0,0,1,.257.162.436.436,0,0,1,.087.287h0a.99.99,0,0,1-.009.4,3.031,3.031,0,0,0-.045.4.351.351,0,0,1-.1-.213C1940.733,341.083,1940.736,341.014,1940.735,340.948Z" transform="translate(-1938.595 -336.665)" fill="#fff" opacity="0.15"/>
            <path id="Path_23084" data-name="Path 23084" d="M1933.247,340.5a.53.53,0,0,1,0-.141.69.69,0,0,1,.07-.24,1.009,1.009,0,0,1,.1-.15l.041-.054a.477.477,0,0,1,.015.1.5.5,0,0,1-.03.169,1.021,1.021,0,0,0-.009.407.82.82,0,0,0,.1.227,1.516,1.516,0,0,0,.132.2l.148.2a2.385,2.385,0,0,1-.192-.152,1.185,1.185,0,0,1-.327-.424A.656.656,0,0,1,1933.247,340.5Z" transform="translate(-1932.701 -336.838)" opacity="0.15"/>
            <path id="Path_23085" data-name="Path 23085" d="M1932.719,353.677c-.276.07.47-1.481.875-1.6a.572.572,0,0,1,.644.033c.26.254.162.653-.265.906A7.269,7.269,0,0,1,1932.719,353.677Z" transform="translate(-1932.202 -347.207)" fill="#ffb98b"/>
          </g>
          <path id="Path_23086" data-name="Path 23086" d="M1927.961,322.786a3.626,3.626,0,0,0,1.334-.344l.165-.1a1.354,1.354,0,0,0,.242-.184c.017-.015.037-.035.056-.055s.044-.048.06-.069a1.015,1.015,0,0,0,.088-.126l.01-.016,0-.01a1.738,1.738,0,0,0,.163-.838,1.064,1.064,0,0,0,.133-.155,1.682,1.682,0,0,0,.107-.178c.017-.032.03-.063.043-.093a.555.555,0,0,0,.027-.059.493.493,0,0,0,.017-.057c.009-.029.018-.061.025-.092a.327.327,0,0,0,.012-.048.527.527,0,0,0,.007-.059c0-.033.007-.066.009-.1,0-.015,0-.03,0-.045s0-.035,0-.055c0-.041,0-.078-.007-.114s-.007-.048-.011-.071l-.006-.034c0-.022-.007-.044-.012-.066.026-.024.051-.05.075-.077l.018-.02c.021-.024.039-.048.057-.073l.01-.013a1.063,1.063,0,0,0,.141-.282l.009-.027a1.251,1.251,0,0,0,.051-.37v-.014a2.547,2.547,0,0,0-.033-.365c-.01-.067-.021-.127-.032-.19s-.02-.109-.028-.164l0-.016c-.007-.049-.013-.1-.016-.15l-.01-.2a1.92,1.92,0,0,0-.077-.569l-.007-.022-.036-.094c-.006-.015-.014-.034-.023-.053s-.017-.037-.026-.056-.024-.045-.036-.066l-.027-.044a.853.853,0,0,0-.054-.073l-.035-.041a.786.786,0,0,0-.064-.061.382.382,0,0,0-.04-.034l-.039-.026-.044-.027-.052-.029-.064-.028c-.024-.01-.048-.019-.073-.027l-.054-.017c-.041-.011-.081-.021-.121-.03a.677.677,0,0,1-.1-.03l-.021-.009c-.026-.011-.052-.023-.076-.035l-.031-.017-.062-.037-.035-.023-.05-.035-.048-.036-.131-.1c-.084-.067-.145-.107-.159-.117a.752.752,0,0,0-.649-.141,1.647,1.647,0,0,0-.816.77.68.68,0,0,0-.05.091l0,0-.011.025c-.009.02-.015.04-.022.06l-.007.024-.009.034-.006.018,0,.018a.728.728,0,0,0-.01.086v.032a.779.779,0,0,0,.063.315.97.97,0,0,0,.043.089l.018.032a.82.82,0,0,0-.065.063l-.009,0-.012.017-.01.006-.035.053a1.131,1.131,0,0,0-.1.16l-.033.065v0l-.014.033-.037.093-.007.023a1.558,1.558,0,0,0-.076.34v.015l0,.077a1.075,1.075,0,0,0,.072.425c.006.015.011.028.017.04a1.165,1.165,0,0,0,.448.5l.054.034c-.009.026-.016.051-.023.076s-.009.032-.013.05a.967.967,0,0,0-.014.1.886.886,0,0,0,0,.1l0,.038c0,.025,0,.054.008.083l0,.01a.937.937,0,0,0,.055.2,1.1,1.1,0,0,0,.091.177,1.578,1.578,0,0,0,.215.267l.016.016c.05.049.108.1.17.151l.053.042.04.03a2.163,2.163,0,0,0,.026.262A3,3,0,0,0,1927.961,322.786Z" transform="translate(-1927.217 -315.953)" fill="#f15a29" opacity="0.5" style="mix-blend-mode: hard-light;isolation: isolate"/>
        </g>
      </g>
      <g id="Group_11547" data-name="Group 11547" transform="translate(31.549 48.643)">
        <path id="Path_23087" data-name="Path 23087" d="M1754.129,521.486c.272-1.475,1.088-2.214,2.243-1.827a12.681,12.681,0,0,1,2.947,1.919v0c.4.3.368.877.2,1.942a3.051,3.051,0,0,0,.2,1.866l-.353.312s-1.842-1.177-3.313-2.192C1754.891,522.711,1754.009,522.135,1754.129,521.486Z" transform="translate(-1754.118 -519.558)" fill="#594a42"/>
        <path id="Path_23088" data-name="Path 23088" d="M1754.195,521.5l.02-.016a.622.622,0,0,0,.054-.048,1.8,1.8,0,0,0,.168-.186c.031-.038.065-.079.1-.124s.067-.092.1-.145c.065-.1.127-.223.211-.337a1.437,1.437,0,0,1,.135-.166c.026-.025.047-.056.073-.08l.078-.073a1.374,1.374,0,0,1,.342-.226,1.161,1.161,0,0,1,.407-.092,1.662,1.662,0,0,1,.493.07l.154.048.129.049c.084.029.18.076.272.112.185.08.367.17.543.26s.347.179.508.267l.456.25c.14.081.274.148.388.214l.3.169.264.146s-.327-.281-.845-.67c-.129-.1-.271-.2-.422-.307s-.314-.216-.484-.325-.35-.217-.536-.318a4.393,4.393,0,0,0-.583-.27,1.852,1.852,0,0,0-.627-.128,1.385,1.385,0,0,0-.6.123,1.514,1.514,0,0,0-.46.351,1.714,1.714,0,0,0-.164.214,1.87,1.87,0,0,0-.129.217,2.834,2.834,0,0,0-.173.405c-.047.123-.071.236-.1.326C1754.216,521.4,1754.195,521.5,1754.195,521.5Z" transform="translate(-1754.184 -519.574)" fill="#fff" opacity="0.2"/>
        <path id="Path_23089" data-name="Path 23089" d="M1771.073,538.537c-.5-1.19.137-3.6-.543-3.858s-1.546-.418-2.411.972c0,0-.2.72-.359.694C1769.23,537.359,1771.073,538.537,1771.073,538.537Z" transform="translate(-1765.832 -532.394)" fill="#1c1f23" opacity="0.15"/>
        <path id="Path_23090" data-name="Path 23090" d="M1764.122,550.12a3.284,3.284,0,0,0,1.987-.265,71.207,71.207,0,0,0,.733-8.716c-.933.3-3.124-.456-3.124-.456Z" transform="translate(-1762.361 -537.697)" fill="#594a42"/>
        <path id="Path_23091" data-name="Path 23091" d="M1767.281,532.851c.865-1.389,1.728-1.228,2.41-.972s.048,2.669.544,3.859l.353-.312a3.053,3.053,0,0,1-.2-1.866c.189-1.182.208-1.763-.342-2.032s-1.834-.516-2.416.119c-.421.459-.754.65-.85,1.041.052.249.1.629.138.858C1767.084,533.57,1767.281,532.851,1767.281,532.851Z" transform="translate(-1764.995 -529.595)" fill="#1c1f23" opacity="0.3"/>
        <g id="Group_11546" data-name="Group 11546" transform="translate(2.233 3.255)" opacity="0.2">
          <path id="Path_23092" data-name="Path 23092" d="M1769.971,542.591v0c.074.019.147.038.221.055.13.03.26.059.39.083s.262.047.393.066c.066.011.132.016.2.024s.132.015.2.017.133.01.2.009l.2,0,.147-.015.052-.005.194-.044h0c0,.073,0,.145,0,.218,0,0,0,.244,0,.329,0,.182-.012.365-.019.547-.016.365-.036.729-.057,1.093q-.066,1.092-.156,2.182t-.209,2.178l-.063.544-.068.543c-.047.362-.1.722-.16,1.082l.088-1.092.072-1.091c.025-.363.043-.727.063-1.091s.037-.727.058-1.091q.059-1.09.094-2.181c.015-.363.031-.726.042-1.089l.022-.542c0-.069,0-.138.006-.207l-.089.007-.218,0c-.073,0-.142-.01-.213-.015s-.14-.016-.209-.028-.138-.02-.205-.034c-.135-.026-.27-.054-.4-.087s-.264-.066-.394-.107c-.078-.023-.154-.049-.23-.077C1769.951,542.665,1769.971,542.591,1769.971,542.591Z" transform="translate(-1769.918 -542.589)" fill="#fff" opacity="0.3"/>
        </g>
      </g>
      <g id="Group_11551" data-name="Group 11551" transform="translate(7.651 50.276)">
        <g id="Group_11548" data-name="Group 11548" transform="translate(1.917 0.001)">
          <path id="Path_23093" data-name="Path 23093" d="M1630.355,555.685c2.236-18.97,5.488-24.564,5.488-24.564h7.562l-1.7,6.336c-2.83,0-7.353,18.229-7.353,18.229Z" transform="translate(-1625.865 -531.121)" fill="#653780"/>
          <path id="Path_23094" data-name="Path 23094" d="M1602.043,721.881c-.689,2.68-1.339,5.251-1.941,7.5h-1.52c2.025-7.558,1.238-14.172,2.057-17.228s2.434-7.225,2.434-7.225h4c-.2.519-.4,1.061-.6,1.617-.284.847-.264,3.557-.723,5.268C1605.287,713.545,1602.758,719.126,1602.043,721.881Z" transform="translate(-1598.582 -680.365)" fill="#653780"/>
          <path id="Path_23095" data-name="Path 23095" d="M1608.56,531.121H1611c-4.8,10.563-6.931,22.137-4.572,26.331-.194.788-.235,2.57-.47,4.081a15.332,15.332,0,0,0-.012-1.989c-.129-1.087-1-1.484-1.553-.9s-.633-.189-1.134.188c-1.172,1.649-1.69,3.58-2.008,6.878s.091,8.362,1.181,5.632h0c-.158.472-.293.909-.392,1.291-.689,2.68-1.339,5.251-1.941,7.5h-1.52c2.025-7.558,1.238-14.172,2.057-17.228s2.434-7.225,2.434-7.225C1605.309,536.716,1608.56,531.121,1608.56,531.121Z" transform="translate(-1598.582 -531.121)" fill="#9c3587"/>
        </g>
        <path id="Path_23096" data-name="Path 23096" d="M1723.831,729.4c0-7.17-.13-17.6.766-24.457h-3.706a29.385,29.385,0,0,0-1.34,7.226c0,3.057,2.927,9.671,2.927,17.231Z" transform="translate(-1700.538 -680.379)" fill="#653780"/>
        <path id="Path_23097" data-name="Path 23097" d="M1710.679,537.452v-6.337h7.5s1.916,5.6-1.2,24.568h-3.706S1713.773,537.452,1710.679,537.452Z" transform="translate(-1692.919 -531.115)" fill="#653780"/>
        <path id="Path_23098" data-name="Path 23098" d="M1714.084,575.715a3.9,3.9,0,0,0-1.531.165c-.33.236,1.366,1.6,1.531,1.979s-.793-.165-.891.165-.087,5.956-.087,5.956h0c-.281-4.382-.937-8.606-2.426-8.606A6.935,6.935,0,0,1,1714.084,575.715Z" transform="translate(-1692.919 -569.036)" fill="#9c3587"/>
        <g id="Group_11549" data-name="Group 11549" transform="translate(20.389 44.105)">
          <path id="Path_23099" data-name="Path 23099" d="M1732.031,843.187a2.659,2.659,0,0,0-1.823.556l.5.778-.09,2.585h3.555l-.562-2.89.383-.639S1733.637,843.187,1732.031,843.187Z" transform="translate(-1730.078 -843.187)" fill="#594a42"/>
          <path id="Path_23100" data-name="Path 23100" d="M1730.209,859.01s.383-1.959,3.127-1.959a11.466,11.466,0,0,1,3.173.82l.81-.195.518.354.248.98Z" transform="translate(-1730.078 -855.092)" fill="#594a42"/>
          <path id="Path_23101" data-name="Path 23101" d="M1729.415,870.914l-.131,1h8.186l-.18-1Z" transform="translate(-1729.285 -866.995)" fill="#45342b"/>
          <path id="Path_23102" data-name="Path 23102" d="M1741.356,857.051a5.478,5.478,0,0,1,1.243.187h0a2.219,2.219,0,0,0-2.015,1.772h-1.035A2.33,2.33,0,0,1,1741.356,857.051Z" transform="translate(-1738.098 -855.092)" opacity="0.15"/>
          <path id="Path_23103" data-name="Path 23103" d="M1754.743,858.753c.266.071.525.151.758.228a1.863,1.863,0,0,0-.709,1.491h-1.339S1753.768,859.041,1754.743,858.753Z" transform="translate(-1750.037 -856.553)" opacity="0.15"/>
          <path id="Path_23104" data-name="Path 23104" d="M1733.989,843.576l-.383.639c-1.969-.709-2.9.306-2.9.306l-.5-.778a2.659,2.659,0,0,1,1.823-.556C1733.637,843.187,1733.989,843.576,1733.989,843.576Z" transform="translate(-1730.078 -843.187)" opacity="0.15"/>
          <path id="Path_23105" data-name="Path 23105" d="M1742.621,858.214l-1.742.361a.694.694,0,0,1,.445-.5c-2.1-.7-3.242-.9-4.633-.392a3.591,3.591,0,0,1,2.211-.632,11.466,11.466,0,0,1,3.173.82l.81-.195.518.354.248.98h-.575l-.13-.621Z" transform="translate(-1735.644 -855.092)" fill="#fff" opacity="0.2"/>
        </g>
        <g id="Group_11550" data-name="Group 11550" transform="translate(0 44.105)">
          <path id="Path_23106" data-name="Path 23106" d="M1596.262,843.187a2.658,2.658,0,0,1,1.822.556l-.495.778.09,2.585h-3.555l.563-2.89-.383-.639S1594.656,843.187,1596.262,843.187Z" transform="translate(-1592.837 -843.187)" fill="#594a42"/>
          <path id="Path_23107" data-name="Path 23107" d="M1590.984,859.01s-.249-1.959-2.037-1.959a12.75,12.75,0,0,0-2.594.625l-.337.354-.161.98Z" transform="translate(-1585.737 -855.092)" fill="#594a42"/>
          <path id="Path_23108" data-name="Path 23108" d="M1589.8,857.75c-.878,0-2.808.28-2.808.28l.337-.354a12.749,12.749,0,0,1,2.594-.625,2.015,2.015,0,0,1,1.946,1.576A2.389,2.389,0,0,0,1589.8,857.75Z" transform="translate(-1586.716 -855.092)" fill="#fff" opacity="0.2"/>
          <path id="Path_23109" data-name="Path 23109" d="M1590.3,870.914l.086,1h-5.367l.118-1Z" transform="translate(-1585.02 -866.995)" fill="#45342b"/>
          <path id="Path_23110" data-name="Path 23110" d="M1595.4,843.576l.382.639c1.969-.709,2.9.306,2.9.306l.495-.778a2.659,2.659,0,0,0-1.823-.556C1595.75,843.187,1595.4,843.576,1595.4,843.576Z" transform="translate(-1593.931 -843.187)" opacity="0.15"/>
        </g>
      </g>
      <g id="Group_11552" data-name="Group 11552" transform="translate(12.267 19.386)">
        <path id="Path_23111" data-name="Path 23111" d="M1633.6,337.477a.283.283,0,0,0,.022-.564c-.345-.028-1.412-.835-.662-10.038a87.825,87.825,0,0,1,1.273-9.684c.737-3.665,1.288-4.043,1.342-4.072a.28.28,0,0,0,.292-.259.283.283,0,0,0-.259-.3c-.291-.024-.975-.08-1.877,4.27a86.588,86.588,0,0,0-1.335,10c-.757,9.29.232,10.57,1.18,10.647Z" transform="translate(-1630.084 -312.551)" fill="#535363"/>
        <path id="Path_23112" data-name="Path 23112" d="M1640.228,337.744a.283.283,0,1,0,0-.565c-.346,0-1.476-.718-1.476-9.951a87.774,87.774,0,0,1,.482-9.756c.437-3.713.955-4.135,1.006-4.168a.283.283,0,0,0-.013-.565c-.293,0-.978,0-1.524,4.409a86.615,86.615,0,0,0-.517,10.079C1638.187,336.548,1639.278,337.744,1640.228,337.744Z" transform="translate(-1635.289 -312.712)" fill="#60606f"/>
        <path id="Path_23113" data-name="Path 23113" d="M1628.28,337.666a.283.283,0,0,0,.022-.564c-.172-.014-.594-.239-.8-2.02a45,45,0,0,1,.143-8.018,87.821,87.821,0,0,1,1.274-9.684c.737-3.665,1.288-4.044,1.342-4.072a.279.279,0,0,0,.292-.259.283.283,0,0,0-.259-.3c-.29-.024-.975-.08-1.877,4.27a86.537,86.537,0,0,0-1.334,10,45.492,45.492,0,0,0-.141,8.13c.123,1.044.395,2.442,1.32,2.517Z" transform="translate(-1625.521 -312.713)" fill="#535363"/>
        <path id="Path_23114" data-name="Path 23114" d="M1624.488,338.312a.283.283,0,0,0,.023-.564c-.345-.028-1.413-.835-.662-10.038a87.787,87.787,0,0,1,1.274-9.684c.737-3.665,1.288-4.044,1.342-4.072a.279.279,0,0,0,.292-.259.283.283,0,0,0-.259-.3c-.291-.024-.975-.08-1.877,4.27a86.61,86.61,0,0,0-1.335,10c-.757,9.29.233,10.57,1.18,10.647Z" transform="translate(-1622.263 -313.268)" fill="#60606f"/>
        <path id="Path_23115" data-name="Path 23115" d="M1631.121,338.954a.283.283,0,0,0,0-.565c-.346,0-1.476-.718-1.476-9.951a87.81,87.81,0,0,1,.482-9.756c.437-3.713.955-4.135,1.006-4.168a.283.283,0,0,0-.013-.565c-.293,0-.978,0-1.524,4.409a86.558,86.558,0,0,0-.517,10.08C1629.08,337.758,1630.171,338.954,1631.121,338.954Z" transform="translate(-1627.469 -313.751)" fill="#60606f"/>
        <path id="Path_23116" data-name="Path 23116" d="M1619.155,338.853a.283.283,0,0,0,.023-.564c-.345-.028-1.412-.835-.662-10.038a87.783,87.783,0,0,1,1.274-9.684c.737-3.665,1.288-4.044,1.342-4.072a.283.283,0,0,0,.033-.564c-.291-.025-.975-.078-1.877,4.27a86.534,86.534,0,0,0-1.334,10c-.758,9.29.232,10.57,1.179,10.647Z" transform="translate(-1617.684 -313.732)" fill="#535363"/>
      </g>
      <g id="Group_11555" data-name="Group 11555" transform="translate(18.994 47.71)">
        <g id="Group_11553" data-name="Group 11553">
          <path id="Path_23117" data-name="Path 23117" d="M1665.288,515.389c.092-1.152,3.378-1.381,7.391-1.035s7.084,1.132,7.14,2.287l.058-1.244c.092-1.152-3.143-1.943-7.174-2.29s-7.333-.12-7.425,1.032Z" transform="translate(-1665.278 -512.958)" fill="#58402c"/>
        </g>
        <g id="Group_11554" data-name="Group 11554" opacity="0.3">
          <path id="Path_23118" data-name="Path 23118" d="M1665.594,514.1c.076-.951,3.232-1.1,7.092-.769s6.962,1.022,6.886,1.974l.305.092c.092-1.152-3.143-1.943-7.174-2.29s-7.333-.12-7.425,1.032Z" transform="translate(-1665.278 -512.958)" fill="#fff"/>
        </g>
      </g>
      <path id="Path_23119" data-name="Path 23119" d="M1668.882,530.486a1.551,1.551,0,0,1,.436-.878l5.471.213h7.5s.715,2.09.562,8.042c-.448-4.747-4.038-4.558-8.307-5C1671.367,532.529,1668.849,530.973,1668.882,530.486Z" transform="translate(-1649.379 -479.545)" fill="#9c3587"/>
      <g id="Group_11556" data-name="Group 11556" transform="translate(11.324 19.649)">
        <path id="Path_23120" data-name="Path 23120" d="M1613.568,315.131c6.99-.752,16.855-1,19.046-.347,3.33.988,3.894,8.868,2.275,11.713-1.81,3.661-2.651,8.326-2.469,17.474.336.707.666,1.346-1.221,2.082s-6.349.713-8.983.191-3.1-.825-3.014-1.276c1.272-6.476-1.223-10.587-3.393-13.827-.758-1.132-1.476-2.105-1.981-2.948C1609.942,323.72,1610.291,315.483,1613.568,315.131Z" transform="translate(-1611.012 -314.409)" fill="#f89f5b"/>
        <path id="Path_23121" data-name="Path 23121" d="M1763.347,372.613l-.029.063c-.019.042-.049.1-.08.184-.069.16-.152.388-.256.676l-.159.47-.084.263c-.033.09-.062.183-.091.279a9,9,0,0,1-.459,1.221c-.051.1-.106.2-.164.3l-.045.072-.023.036-.006.009,0,0-.029.054-.012.023-.1.184c-.138.247-.267.5-.4.8l-.2.437-.185.446c-.129.3-.224.617-.332.935l-.08.24-.071.244c-.046.163-.1.327-.14.493-.084.333-.151.671-.228,1.01s-.128.683-.187,1.027l-.138,1.035q-.052.517-.1,1.032c-.028.342-.051.682-.071,1.02s-.026.671-.04,1-.018.654-.021.973c0,.638.016,1.252.031,1.833s.047,1.128.067,1.633c.009.253.032.493.051.722l.054.65c.031.408.072.762.1,1.054s.06.52.077.676l.028.239-.012-.924c0-.294-.013-.651-.01-1.061s0-.873,0-1.378.013-1.053.034-1.633.04-1.191.081-1.825c.017-.317.035-.638.064-.964s.047-.656.083-.988.071-.668.107-1l.135-1.011.167-1.009.2-1c.081-.328.151-.655.238-.975l.134-.476.066-.236.075-.232c.1-.308.194-.611.308-.9l.161-.434.175-.418c.11-.277.237-.538.357-.793.059-.128.118-.252.185-.371s.116-.242.165-.363a7.5,7.5,0,0,0,.392-1.351c.082-.409.128-.768.158-1.063s.045-.528.053-.686Z" transform="translate(-1738.606 -364.387)" fill="#fff" opacity="0.15"/>
        <path id="Path_23122" data-name="Path 23122" d="M1644.911,345c1.355-6.894-1.561-11.165-3.808-14.438,2.493,1.71,6.188-2.8,6.029-6.994,0,0-2.257-8.453-6.179-8.571h0c.613-.056,1.241-.108,1.876-.156h0s4.2.128,6.313,8.627c3.417-.179,6.4-.5,8.281-.693.281-4.391-2.115-7.8-3.788-8.33.568.006,1.1.019,1.6.038.029.006,4.969.6,4.079,12.688-.2,2.663.466,1.276.466,1.276v0c-1.241,3.412-1.8,7.922-1.65,15.555.336.707.666,1.346-1.221,2.082s-6.35.713-8.983.191S1644.824,345.451,1644.911,345Z" transform="translate(-1636.721 -314.439)" fill="#9c3587"/>
        <path id="Path_23123" data-name="Path 23123" d="M1612.218,363.184l3.574-1.089a5.572,5.572,0,0,1,.276,3.721c-.421,1.427,1.757,4.7,3.479,6.334s2.61,5.571,2.669,8.543.654,4.161,3.695,4.79,7.348.147,7.492-.559c.016-.034.033-.066.051-.1,0,.031,0,.061,0,.092.336.707.666,1.346-1.221,2.082s-6.349.713-8.983.191-3.1-.825-3.014-1.276c1.351-6.876-1.546-11.141-3.791-14.413-.608-.886-1.168-1.668-1.583-2.362A12.127,12.127,0,0,1,1612.218,363.184Z" transform="translate(-1612.047 -355.355)" opacity="0.1"/>
        <path id="Path_23124" data-name="Path 23124" d="M1671.9,486.328c-.092-.785.265-1.643,1.6-3.481s1.486-2.671,1.464-3.19-1.807-1.192-2.809.385a15.293,15.293,0,0,0-1.386,6.166C1670.924,486.55,1671.9,486.328,1671.9,486.328Z" transform="translate(-1662.305 -455.79)" opacity="0.1"/>
        <path id="Path_23125" data-name="Path 23125" d="M1663.781,314.457c.74.22.167,2.421-3,2.583a25.9,25.9,0,0,1-10.017-2.193A121.951,121.951,0,0,1,1663.781,314.457Z" transform="translate(-1645.14 -314.409)" opacity="0.15"/>
        <path id="Path_23126" data-name="Path 23126" d="M1673.41,316.242c-.032.578,3.338,1.549,5.582,1.48s2.511-1.154,2.542-1.732-2.257-.527-4.5-.457S1673.441,315.664,1673.41,316.242Z" transform="translate(-1664.591 -315.339)" fill="#ffb98b"/>
        <path id="Path_23127" data-name="Path 23127" d="M1641.1,333.636c.088.058.171.125.264.177a1.984,1.984,0,0,0,.292.138l.154.056.161.035a2.1,2.1,0,0,0,.332.04,2.5,2.5,0,0,0,.68-.076l.169-.044.165-.059a3.3,3.3,0,0,0,.325-.138c.107-.049.208-.112.313-.167s.2-.127.3-.2.191-.141.283-.217.183-.152.27-.234c.175-.162.342-.332.5-.51s.307-.364.45-.555l.207-.291.194-.3c.124-.2.244-.408.353-.619a6.938,6.938,0,0,0,.3-.644c.094-.218.173-.441.25-.665l.106-.338.092-.342c.053-.229.106-.46.141-.692.022-.116.037-.232.05-.349s.03-.233.035-.35c.021-.234.023-.468.024-.7v-.033l-.012-.05c-.06-.24-.123-.467-.19-.7s-.136-.456-.208-.683c-.146-.453-.309-.9-.48-1.34-.087-.22-.175-.44-.268-.658s-.2-.431-.3-.645-.209-.425-.319-.634-.226-.416-.351-.617-.251-.4-.382-.6c-.065-.1-.136-.194-.2-.291s-.139-.192-.214-.285c-.145-.188-.3-.366-.46-.545s-.33-.345-.51-.5c-.086-.083-.18-.158-.274-.233a2.861,2.861,0,0,0-.293-.212,3.51,3.51,0,0,0-.642-.345c-.117-.041-.231-.085-.35-.116s-.243-.052-.364-.07-.251-.011-.373-.013-.249.024-.37.045l.351.034c.114.023.227.051.341.076s.218.077.327.115.208.1.312.148a4.173,4.173,0,0,1,.576.374,2.875,2.875,0,0,1,.266.217c.087.075.174.149.253.233.166.158.317.331.469.5s.291.356.423.544.263.378.39.57.244.391.358.593a20.593,20.593,0,0,1,1.2,2.511q.262.648.49,1.313c.152.443.3.889.421,1.342h0c0,.221.006.443-.009.666,0,.111-.015.222-.026.334s-.022.222-.04.333c-.029.222-.075.444-.121.664l-.082.329-.1.327c-.069.216-.141.432-.227.644-.041.107-.083.212-.131.316s-.09.21-.143.312c-.1.207-.208.408-.321.608l-.178.3-.191.287c-.132.188-.27.373-.417.55s-.3.347-.467.508c-.081.082-.169.156-.253.235s-.177.145-.266.219-.186.134-.28.2-.193.122-.294.174a3.207,3.207,0,0,1-.307.146l-.157.064-.161.05a2.45,2.45,0,0,1-.654.1,2.083,2.083,0,0,1-.325-.023l-.159-.026-.154-.045a1.991,1.991,0,0,1-.3-.117C1641.282,333.749,1641.195,333.688,1641.1,333.636Z" transform="translate(-1636.721 -317.514)" opacity="0.15"/>
        <path id="Path_23128" data-name="Path 23128" d="M1734.484,322.774a2.263,2.263,0,0,0,.193-.439,2.383,2.383,0,0,0,.116-.5c.02-.2.024-.422.033-.669s-.012-.5-.032-.778-.069-.56-.127-.852a7.422,7.422,0,0,0-.248-.877l-.158-.438c-.059-.144-.128-.284-.192-.426s-.129-.283-.206-.417-.146-.271-.222-.4c-.169-.253-.321-.51-.5-.735-.092-.112-.173-.227-.269-.327l-.274-.3c-.089-.1-.188-.179-.277-.264l-.133-.123c-.045-.039-.093-.074-.137-.11-.089-.072-.178-.136-.262-.2l-.256-.152-.115-.068c-.039-.02-.078-.036-.115-.053l-.2-.09a.8.8,0,0,0-.17-.055l-.128-.033-.1-.027.1.041a2.494,2.494,0,0,1,.275.123l.185.11c.033.02.07.04.1.063l.1.079.228.174.233.217c.04.038.083.075.123.117l.119.131c.078.09.167.177.245.278l.24.31c.084.1.153.224.232.338.162.227.293.487.441.74.125.268.27.53.375.813.055.14.116.277.167.419l.141.427a4.378,4.378,0,0,1,.123.426l.109.42c.054.281.109.553.15.813s.063.51.083.74l.029.633c.01.188-.005.354-.006.49Z" transform="translate(-1713.781 -314.439)" opacity="0.15"/>
        <path id="Path_23129" data-name="Path 23129" d="M1694.2,386.758a64.747,64.747,0,0,1-.837,8.589l1.357,1.983a72.94,72.94,0,0,0,7.895-1.086,8.826,8.826,0,0,0,.885-1.564,56.461,56.461,0,0,1-.511-8.7C1702.145,386.866,1696.1,387.439,1694.2,386.758Z" transform="translate(-1681.723 -375.869)" fill="#27aae1" opacity="0.3"/>
      </g>
      <g id="Group_11557" data-name="Group 11557" transform="translate(20.98 11.957)">
        <path id="Path_23130" data-name="Path 23130" d="M1679.332,268.133c0-.892,1.257-5.441.208-7.424s5.1.637,6.273,1.7,1.487,1.958.735,2.661-.634,2.258-.634,3.326a1.329,1.329,0,0,1-1.136,1.3C1684.286,269.7,1679.332,268.883,1679.332,268.133Z" transform="translate(-1679.332 -259.987)" fill="#ffb98b"/>
        <path id="Path_23131" data-name="Path 23131" d="M1692.964,269.474c-3.4-.184-4.855-5.359-5.167-9.056a15.844,15.844,0,0,1,5.284,2.364c1.175,1.066,1.487,1.958.735,2.661s-.634,2.258-.634,3.326A1.3,1.3,0,0,1,1692.964,269.474Z" transform="translate(-1686.601 -260.357)" opacity="0.15"/>
      </g>
      <g id="Group_11569" data-name="Group 11569" transform="translate(17.755 0)">
        <g id="Group_11566" data-name="Group 11566" transform="translate(1.353 1.445)">
          <path id="Path_23132" data-name="Path 23132" d="M1670.833,198.206c-2.511-.635-2.657-1.274-3.555-2.781a6.968,6.968,0,0,1-.854-5.871,6.408,6.408,0,0,1,4.814-3.866c1.934-.307,5.5.276,6.411,1.032s3.39,10.307-.729,10.96S1671.737,198.435,1670.833,198.206Z" transform="translate(-1666.087 -185.605)" fill="#ffb98b"/>
          <path id="Path_23133" data-name="Path 23133" d="M1674.44,239.438c-.853-.059-1.172-.547-1.553-1.727s.1-1.452.521-1.66,1.04.324,1.04.324l.2,3A.227.227,0,0,1,1674.44,239.438Z" transform="translate(-1671.806 -228.881)" fill="#ffb98b"/>
          <path id="Path_23134" data-name="Path 23134" d="M1676.56,241.051a.647.647,0,0,0-1.01-.314c-.221.259-.028.837.307,1.183-.125-.3-.246-.689-.011-.783s.539-.1.6.024-.263.3-.134.582.381.372.313.693a.363.363,0,0,0-.036-.489c-.13-.182-.211-.278-.111-.472S1676.621,241.181,1676.56,241.051Z" transform="translate(-1674.131 -232.821)" opacity="0.15"/>
          <path id="Path_23135" data-name="Path 23135" d="M1674.451,239.444l-.062-.017a1.736,1.736,0,0,1-.171-.052.8.8,0,0,1-.115-.045.817.817,0,0,1-.128-.065,1.144,1.144,0,0,1-.132-.09,1.653,1.653,0,0,1-.125-.119,1.873,1.873,0,0,1-.383-.735c-.053-.148-.1-.308-.142-.471l-.063-.242c-.019-.084-.045-.176-.053-.247a1.81,1.81,0,0,1-.027-.44.476.476,0,0,1,.014-.095.408.408,0,0,1,.023-.085.538.538,0,0,1,.065-.141.965.965,0,0,1,.256-.23c.029-.018.056-.036.087-.053l.022-.013.011-.007.006,0-.022.009h0l.048-.024.024-.012h.007a.028.028,0,0,0,.011-.006c.013,0,.037-.007.056-.012a.956.956,0,0,1,.279.035c.092.022.18.042.256.058a2.611,2.611,0,0,0,.261.041,1.743,1.743,0,0,0-.195-.143,1.923,1.923,0,0,0-.242-.134,1.032,1.032,0,0,0-.345-.094.548.548,0,0,0-.2.026,1.347,1.347,0,0,0-.2.094,1.059,1.059,0,0,0-.363.3.884.884,0,0,0-.151.477,1.845,1.845,0,0,0,.056.519,5.14,5.14,0,0,0,.15.5c.058.163.115.323.181.474a1.982,1.982,0,0,0,.493.744,1.058,1.058,0,0,0,.3.188.915.915,0,0,0,.142.049.857.857,0,0,0,.124.03,1.452,1.452,0,0,0,.177.025Z" transform="translate(-1671.817 -228.887)" fill="#fff" opacity="0.2"/>
          <path id="Path_23136" data-name="Path 23136" d="M1684.48,200.555s-.412-3.568.218-5.094c.93-2.249,4.609-4.7,8.555-3.605,1.64,1.106,2.268,4.788,2.268,4.788a5.888,5.888,0,0,0,.244,2.186c.339.708.443.929.394,3.038s-.277,3.709-.851,4.119a4.133,4.133,0,0,1-1.316.553.433.433,0,0,1-.08.021l-.026,0-.007,0a5.475,5.475,0,0,1-2.367.1,14.019,14.019,0,0,1-1.452-.249,11.874,11.874,0,0,1-3.994-1.322C1684.85,204.331,1683.784,203.069,1684.48,200.555Z" transform="translate(-1681.691 -190.741)" fill="#ffb98b"/>
          <path id="Path_23137" data-name="Path 23137" d="M1684.7,195.468c.809-1.958,3.7-4.069,7.041-3.86a10.033,10.033,0,0,0-4.376,14.118,6.945,6.945,0,0,1-1.3-.627c-1.215-.761-2.281-2.023-1.586-4.537C1684.48,200.562,1684.067,196.993,1684.7,195.468Z" transform="translate(-1681.691 -190.748)" opacity="0.05"/>
          <path id="Path_23138" data-name="Path 23138" d="M1721.061,273.324c-.693-.325-.76-1.578-.479-2.207s.377-1.039,1.273-1.055c.109-.606-1.6-.92-2.056-.573s-.194,2.463-.116,2.88a2.075,2.075,0,0,0,.308.739Z" transform="translate(-1711.983 -257.509)" opacity="0.15"/>
          <path id="Path_23139" data-name="Path 23139" d="M1691.535,261.155s-.169-.031-.46-.1c-.146-.033-.322-.076-.523-.129l-.674-.184c-.5-.131-1.075-.28-1.673-.481a7.9,7.9,0,0,1-1.779-.786l-.2-.13-.209-.147c-.061-.049-.124-.1-.185-.143l-.18-.153a3.844,3.844,0,0,1-.594-.682,3.028,3.028,0,0,1-.367-.751,3.814,3.814,0,0,1-.163-.749c-.011-.12-.014-.237-.021-.348s0-.218,0-.318,0-.2.006-.284,0-.171,0-.246c.007-.148,0-.269,0-.352,0-.041,0-.074-.006-.1l0-.033-.11.457c-.021.148-.063.325-.081.533-.008.1-.021.214-.026.331s0,.24,0,.368a3.59,3.59,0,0,0,.137.814,3.464,3.464,0,0,0,.154.424,3.562,3.562,0,0,0,.231.411,3.6,3.6,0,0,0,.65.738,5.165,5.165,0,0,0,.833.585,8.156,8.156,0,0,0,1.856.751c.617.174,1.2.294,1.7.4s.92.191,1.215.236S1691.535,261.155,1691.535,261.155Z" transform="translate(-1681.715 -245.232)" fill="#fff" opacity="0.2"/>
          <path id="Path_23140" data-name="Path 23140" d="M1713.871,258.524c.481-.809,1.509-.569,2.807-.525a6.8,6.8,0,0,0,3.168-.651c.855-.474,1.413-.09,1.463,1.643s.03,2.178-.719,2.877c.225-.692-.143-1.047-.062-1.722s-.12-1.206-.645-1.111h0a10.3,10.3,0,0,1-4.248.571c-.8.055-1.335,1.816-.979,3.041C1713.476,262.378,1712.771,260.373,1713.871,258.524Z" transform="translate(-1706.647 -247.047)" fill="#4a3c40"/>
          <path id="Path_23141" data-name="Path 23141" d="M1759.739,268.85h0c.073-.036.3-.154.366-.194.943-.448,1.173,1.558.341,3.028.225-.692-.143-1.047-.062-1.722S1760.264,268.755,1759.739,268.85Z" transform="translate(-1746.503 -256.863)" opacity="0.15"/>
          <path id="Path_23142" data-name="Path 23142" d="M1737.676,275.39a1.064,1.064,0,0,0,.71.394,4.07,4.07,0,0,0,2.048-.327c.4-.218.342-.907.008-.97s-2.875.258-2.93.522A.535.535,0,0,0,1737.676,275.39Z" transform="translate(-1727.414 -261.918)" fill="#1c1f23" opacity="0.2"/>
          <path id="Path_23143" data-name="Path 23143" d="M1737.3,273.309a1.164,1.164,0,0,0,.775.383,4.944,4.944,0,0,0,2.262-.361c.441-.225.391-.915.024-.973s-3.17.3-3.236.571C1737.1,273.041,1737.19,273.182,1737.3,273.309Z" transform="translate(-1727.084 -260.092)" fill="#ffb98b"/>
          <g id="Group_11561" data-name="Group 11561" transform="translate(11.935 6.96)">
            <g id="Group_11560" data-name="Group 11560" transform="translate(0 0.171)">
              <path id="SVGID-3" data-name="SVGID" d="M1750.557,236.235a2.331,2.331,0,0,0,.125,1.142,3.126,3.126,0,0,0,1.2-.166c-.148-.931-.176-1.011-.176-1.011a.92.92,0,0,0-.642-.122A2.052,2.052,0,0,0,1750.557,236.235Z" transform="translate(-1750.533 -236.062)" fill="#fff" opacity="0.5"/>
              <g id="Group_11559" data-name="Group 11559" clip-path="url(#clip-path)">
                <g id="Group_11558" data-name="Group 11558" transform="translate(-0.036 0.083)">
                  <path id="Path_23144" data-name="Path 23144" d="M1752.006,237.089c.146.542-.17.691-.495.7-.378.013-.551-.014-.666-.518-.105-.464.171-.615.5-.62A.589.589,0,0,1,1752.006,237.089Z" transform="translate(-1750.746 -236.653)" fill="#fff" opacity="0.5"/>
                  <path id="Path_23145" data-name="Path 23145" d="M1751.129,238.363a.427.427,0,1,1-.489-.355A.427.427,0,0,1,1751.129,238.363Z" transform="translate(-1750.28 -237.812)" fill="#4e474b"/>
                </g>
              </g>
            </g>
            <path id="Path_23146" data-name="Path 23146" d="M1752.505,237.3a.171.171,0,1,1-.2-.142A.171.171,0,0,1,1752.505,237.3Z" transform="translate(-1751.934 -236.831)" fill="#fff" opacity="0.5"/>
            <path id="Path_23147" data-name="Path 23147" d="M1750.739,244.071c.035.094.02.316.6.271a1.291,1.291,0,0,0,.792-.259l-.06,0S1751.065,244.385,1750.739,244.071Z" transform="translate(-1750.71 -242.768)" opacity="0.3"/>
            <path id="Path_23148" data-name="Path 23148" d="M1750.707,235.194a.559.559,0,0,1,.28-.344,1.053,1.053,0,0,1,.87.309A1.4,1.4,0,0,0,1750.707,235.194Z" transform="translate(-1750.682 -234.85)" fill="#4e474b"/>
          </g>
          <g id="Group_11564" data-name="Group 11564" transform="translate(7.318 7.496)">
            <g id="Group_11563" data-name="Group 11563" transform="translate(0.223 0.197)">
              <path id="SVGID-4" data-name="SVGID" d="M1720.745,240.14a2.331,2.331,0,0,1,.234,1.124,4.852,4.852,0,0,1-1.485.26c-.148-.931.047-1.154.047-1.154a1.9,1.9,0,0,1,.711-.323A.55.55,0,0,1,1720.745,240.14Z" transform="translate(-1719.439 -240.034)" fill="#fff" opacity="0.5"/>
              <g id="Group_11562" data-name="Group 11562" clip-path="url(#clip-path-2)">
                <path id="Path_23149" data-name="Path 23149" d="M1720.069,241.772c.02.562.417.6.779.5.421-.113.6-.2.56-.713-.038-.474-.393-.526-.753-.422C1720.262,241.25,1720.058,241.454,1720.069,241.772Z" transform="translate(-1719.98 -240.943)" fill="#fff" opacity="0.5"/>
                <path id="Path_23150" data-name="Path 23150" d="M1720.807,243.123a.427.427,0,1,0,.355-.489A.427.427,0,0,0,1720.807,243.123Z" transform="translate(-1720.609 -242.262)" fill="#4e474b"/>
              </g>
            </g>
            <path id="Path_23151" data-name="Path 23151" d="M1720.163,239.173a2.755,2.755,0,0,1,1.551-.532l-.347.3S1721.036,238.78,1720.163,239.173Z" transform="translate(-1719.838 -238.641)" fill="#4e474b"/>
            <path id="Path_23152" data-name="Path 23152" d="M1721.49,242.219a.171.171,0,1,0,.142-.2A.171.171,0,0,0,1721.49,242.219Z" transform="translate(-1720.976 -241.543)" fill="#fff" opacity="0.5"/>
            <path id="Path_23153" data-name="Path 23153" d="M1719.571,244.387s.161.4.2.551a.55.55,0,0,0,.159-.186s.084.306-.585.459a6.611,6.611,0,0,1-1.481.12l.278-.069a5.1,5.1,0,0,0,1.4-.27A1.446,1.446,0,0,0,1719.571,244.387Z" transform="translate(-1717.863 -243.575)" opacity="0.3"/>
          </g>
          <path id="Path_23154" data-name="Path 23154" d="M1717.238,217.291c.012.512-.047.671-.66.874s-1.781.367-2.221,1.068c-.323-.041-.275-.771-.275-.771s1.067-1.022,1.529-1.07,1.327-.166,1.507-.5A1,1,0,0,1,1717.238,217.291Z" transform="translate(-1707.296 -212.474)" fill="#4a3c40"/>
          <path id="Path_23155" data-name="Path 23155" d="M1749.806,219.69a.857.857,0,0,0,.323.936c.357.194,1.542-.035,1.643.3a.8.8,0,0,0-.27-1.042C1751.193,219.725,1750.31,219.92,1749.806,219.69Z" transform="translate(-1737.945 -214.873)" fill="#4a3c40"/>
          <g id="Group_11565" data-name="Group 11565" transform="translate(9.627 5.692)">
            <path id="Path_23156" data-name="Path 23156" d="M1736.587,225.993c-.618,1.1-.169,1.454.149,2.448s.917,1.53.885,2.222-.921.632-1.812.482c-.776-.13-1.354.2-1.543-.22a.833.833,0,0,1,.333-1.036,8.371,8.371,0,0,0,0-2.286,1.535,1.535,0,0,1,.584-1.574A2.034,2.034,0,0,1,1736.587,225.993Z" transform="translate(-1734.202 -225.876)" fill="#ffb98b"/>
            <path id="Path_23157" data-name="Path 23157" d="M1746.884,226.7l-.068.055a1.37,1.37,0,0,0-.181.166,1.653,1.653,0,0,0-.235.322,1.347,1.347,0,0,0-.168.532,1.552,1.552,0,0,0,0,.329,3.2,3.2,0,0,0,.054.324c.042.212.105.4.158.591.025.094.053.186.085.277l.034.085c.01.025.023.049.034.074.019.046.06.11.089.164a4.567,4.567,0,0,0,.445.578,3.335,3.335,0,0,1,.369.54,1.3,1.3,0,0,1,.169.517v.1c0-.044,0-.011,0-.02v0l0,.019a.371.371,0,0,1-.023.118c-.005.009,0,.017-.01.029a.36.36,0,0,0-.02.035.4.4,0,0,1-.051.063.67.67,0,0,1-.342.141,1.575,1.575,0,0,1-.385,0c-.12-.012-.23-.025-.324-.039l-.228-.033c-.055-.008-.089-.009-.089-.009l.068.043a1.661,1.661,0,0,0,.2.11,1.875,1.875,0,0,0,.33.119,1.455,1.455,0,0,0,.451.04.834.834,0,0,0,.492-.192.66.66,0,0,0,.186-.549,1.771,1.771,0,0,0-.181-.613c-.094-.2-.206-.39-.311-.587a6.021,6.021,0,0,1-.286-.6c-.084-.2-.14-.411-.218-.6s-.155-.38-.221-.559a1.837,1.837,0,0,1-.122-.523,1.36,1.36,0,0,1,.048-.45,2.045,2.045,0,0,1,.119-.33c.037-.09.077-.156.1-.2Z" transform="translate(-1744.498 -226.584)" fill="#fff" opacity="0.2"/>
            <path id="Path_23158" data-name="Path 23158" d="M1736.582,255.615a1.526,1.526,0,0,0-.149-.057c-.049-.015-.107-.032-.176-.049s-.146-.038-.231-.052c-.17-.028-.368-.055-.577-.086s-.429-.051-.626-.089a1.146,1.146,0,0,1-.247-.078c-.03-.014-.045-.029-.044-.032s.018.036-.009-.028a.424.424,0,0,1-.023-.085.761.761,0,0,1-.018-.1,1.149,1.149,0,0,1,0-.2,1.481,1.481,0,0,1,.039-.177c.015-.053.021-.106.031-.151a.8.8,0,0,1,.026-.12.351.351,0,0,1,.021-.051.293.293,0,0,0-.131.078.9.9,0,0,0-.223.9.34.34,0,0,0,.22.221,1.286,1.286,0,0,0,.325.075,5.867,5.867,0,0,0,.657.026c.21,0,.406,0,.574,0A3.775,3.775,0,0,1,1736.582,255.615Z" transform="translate(-1734.203 -250.255)" fill="#1c1f23" opacity="0.2"/>
          </g>
        </g>
        <g id="Group_11568" data-name="Group 11568" transform="translate(0.918)">
          <path id="Path_23159" data-name="Path 23159" d="M1690.783,194.695l-.048-.084a7.678,7.678,0,0,1,8.078-2.754c1.583,1.068,2.223,4.533,2.265,4.774C1699.356,197.852,1693.269,198.841,1690.783,194.695Z" transform="translate(-1686.817 -189.296)" opacity="0.15"/>
          <path id="Path_23160" data-name="Path 23160" d="M1663.053,180.683c.231-2.517,3.064-4.549,6.609-5.3,1.8,0,5.2.785,6.107,2.073a8.589,8.589,0,0,1,.985,1.93c1.409.092,2.212.58,2.416,1.871a7.14,7.14,0,0,1-2.247.021l-.09-.292s-.527-.557-2.526-.38c-.876.494-.768.727-1.28.88a28.126,28.126,0,0,0-4.848.625h0c-1.592.722-3.761,1.513-4.39,2.661C1663.609,185.1,1662.823,183.2,1663.053,180.683Z" transform="translate(-1663.011 -175.381)" fill="#175f8b"/>
          <path id="Path_23161" data-name="Path 23161" d="M1663.792,184.769a.1.1,0,0,1-.039.012c-.018-.007-.017-.031-.029-.07a3.2,3.2,0,0,1-.036-.4c-.006-.088-.012-.185-.018-.292s-.013-.22-.026-.34c-.021-.241-.059-.51-.07-.809s-.012-.62-.007-.959.036-.7.07-1.062l.006-.069,0-.035v0c-.009.074,0,.018,0,.033v-.009l0-.018.023-.147.046-.294c.022-.074.042-.148.062-.224l.028-.114.048-.122.1-.248c.038-.081.085-.159.124-.242a4.13,4.13,0,0,1,.283-.478,2.65,2.65,0,0,1,.169-.227c.06-.074.115-.152.177-.223l.2-.21a2.675,2.675,0,0,1,.2-.207c.141-.13.273-.271.425-.387s.291-.245.447-.35.3-.225.453-.32.3-.2.454-.284.3-.175.443-.254l.427-.22c.278-.132.533-.26.766-.359s.437-.186.609-.246.306-.116.4-.151l.142-.054-.559.133c-.178.041-.389.11-.634.179-.123.032-.249.083-.385.127s-.279.091-.423.152l-.453.183c-.155.067-.311.145-.474.22s-.322.169-.489.256-.328.192-.495.3-.327.22-.491.337-.317.252-.476.382a2.683,2.683,0,0,0-.227.209l-.222.218c-.072.075-.137.157-.206.235a3.07,3.07,0,0,0-.2.242,4.658,4.658,0,0,0-.344.521c-.05.091-.1.18-.151.272l-.121.285-.059.142-.042.147-.085.292-.048.3a2.683,2.683,0,0,0-.037.293,9.856,9.856,0,0,0,.057,2.134,6.414,6.414,0,0,0,.359,1.466,1.236,1.236,0,0,0,.206.368c.033.035.077.05.1.031A.134.134,0,0,0,1663.792,184.769Z" transform="translate(-1663.013 -175.381)" fill="#ffe6d2" opacity="0.15"/>
          <path id="Path_23162" data-name="Path 23162" d="M1699.37,179.5a15.63,15.63,0,0,0-6.07,2.179,12.882,12.882,0,0,1-.842-4.065c.2-1.176,2.471-2.234,2.471-2.234,1.8,0,5.2.785,6.107,2.073a8.584,8.584,0,0,1,.985,1.93A16.664,16.664,0,0,0,1699.37,179.5Z" transform="translate(-1688.278 -175.381)" fill="#27aae1" opacity="0.5"/>
          <path id="Path_23163" data-name="Path 23163" d="M1746.818,206.817a1.851,1.851,0,0,1,.717,1.217,7,7,0,0,1-1.976-.017l-.09-.292s-.527-.557-2.526-.38C1744.579,206.384,1746.171,206.347,1746.818,206.817Z" transform="translate(-1731.646 -202.122)" opacity="0.15"/>
          <path id="Path_23164" data-name="Path 23164" d="M1698.136,205.963a.181.181,0,0,1,.058-.064,15.629,15.629,0,0,1,6.069-2.179,10.5,10.5,0,0,1,3.585.029c-1.576-.361-3.6.753-4.315,1.26s-.683.371-2.507.448A9.516,9.516,0,0,0,1698.136,205.963Z" transform="translate(-1693.172 -199.599)" fill="#27aae1" opacity="0.75"/>
          <path id="Path_23165" data-name="Path 23165" d="M1717.4,178.973c-.841.133-1.121.985-.624,1.9a2.627,2.627,0,0,0,2.423,1.42c.842-.133,1.121-.986.624-1.9A2.627,2.627,0,0,0,1717.4,178.973Z" transform="translate(-1708.965 -178.45)" fill="#fbc400"/>
          <g id="Group_11567" data-name="Group 11567" transform="translate(8.078 0.68)">
            <path id="Path_23166" data-name="Path 23166" d="M1720.273,180.193c.67.441,1.357.866,2.026,1.307-.351.161-.527.241-.879.4.459.353.911.72,1.329,1.107-.672-.37-1.377-.7-2.087-1.03l.865-.387c-.54-.284-.783-.428-1.358-.712C1720.208,180.6,1720.231,180.466,1720.273,180.193Z" transform="translate(-1720.169 -180.193)" fill="#1c7f98"/>
            <path id="Path_23167" data-name="Path 23167" d="M1733.4,195.994l-.828-.065.577-.611C1733.249,195.587,1733.3,195.722,1733.4,195.994Z" transform="translate(-1730.816 -193.18)" fill="#1c7f98"/>
          </g>
        </g>
        <path id="Path_23168" data-name="Path 23168" d="M1657.665,228.784c-.723-.078-1.213-1.154-.889-1.52a.755.755,0,0,0,1.434.424c.532-.972,2.171-1.689,3.627-2.324.093.274.1.578-.1.684a1.2,1.2,0,0,1,.172,1.084s-.123-.544-.525-.6c.152.395-.164,1.11-.875.705,0,0-.614-.531-1.04-.324s-.9.479-.521,1.66a3.89,3.89,0,0,0,.593,1.275,5.39,5.39,0,0,0,.345.777c.257.5-.214.624-.534.764a1.337,1.337,0,0,0,.053-.8.874.874,0,0,1-.636.164.674.674,0,0,0,.487-.657h0a.7.7,0,0,1-.768-.1c-.237.147-.7-.178-.708-.5a1.168,1.168,0,0,1-1.266-.508C1656.92,229.077,1656.975,229.193,1657.665,228.784Z" transform="translate(-1656.513 -218.3)" fill="#4a3c40"/>
      </g>
      <g id="Group_11571" data-name="Group 11571" transform="translate(18.992 48.852)">
        <path id="Path_23169" data-name="Path 23169" d="M1679.572,522.247c-.076.951-3.266,1.453-7.126,1.12s-6.927-1.374-6.852-2.325l-.316.038.01,1.109c-.092,1.152,3.087,2.571,7.1,2.917s7.492-.426,7.432-1.665l.058-1.1Z" transform="translate(-1665.276 -521.042)" fill="#594a42"/>
        <g id="Group_11570" data-name="Group 11570" opacity="0.3">
          <path id="Path_23170" data-name="Path 23170" d="M1665.266,521.08c-.092,1.152,3.1,2.368,7.133,2.715s7.374-.3,7.466-1.457l-.305-.092c-.076.951-3.266,1.453-7.126,1.12s-6.927-1.374-6.852-2.325Z" transform="translate(-1665.264 -521.042)" fill="#fff"/>
        </g>
      </g>
      <g id="Group_11572" data-name="Group 11572" transform="translate(17.393 48.891)">
        <path id="Path_23171" data-name="Path 23171" d="M1654.108,521.9c.205-.3.853-.251,1.054-.251s.138-.331.138-.331h.254s.008.688.008.888-.4.221-.63.242-.523-.055-.58.1l-.354.116A.874.874,0,0,1,1654.108,521.9Z" transform="translate(-1653.954 -521.313)" fill="#594a42"/>
        <path id="Path_23172" data-name="Path 23172" d="M1654.352,522.547c-.135-.287.064-.521.41-.57s.79-.016.79-.34l0-.324h-.254s.064.331-.138.331-.849-.05-1.054.251a.874.874,0,0,0-.11.768Z" transform="translate(-1653.954 -521.313)" fill="#fff" opacity="0.2"/>
      </g>
      <g id="Group_11575" data-name="Group 11575" transform="translate(15.458 41.11)">
        <g id="Group_11574" data-name="Group 11574" transform="translate(2.695)">
          <g id="Group_11573" data-name="Group 11573">
            <path id="Path_23173" data-name="Path 23173" d="M1679.378,466.287l.154-.03.551.207.551.207.1.124.028.426-.35.611-.735-.276-.735-.276.139-.69Z" transform="translate(-1676.167 -466.257)" fill="#f26522"/>
            <path id="Path_23174" data-name="Path 23174" d="M1659.574,521.074l.735.276.735.276-.033.407-.241.144-.141,0-.551-.207-.551-.207-.108-.091-.087-.268Z" transform="translate(-1659.331 -513.327)" fill="#f26522"/>
            <path id="Path_23175" data-name="Path 23175" d="M1662.69,475.2c.682-1.816.891-1.72.891-1.72l.735.276.735.276s.22.065-.462,1.881-1.534,3.063-1.885,4a1.844,1.844,0,0,0-.181.847l-.735-.276-.735-.276a1.843,1.843,0,0,0,.422-.756C1661.826,478.519,1662.007,477.02,1662.69,475.2Z" transform="translate(-1660.81 -472.462)" fill="#1c7f98"/>
          </g>
          <path id="Path_23176" data-name="Path 23176" d="M1662.951,474.017c.351-.934.705-2.368,1.388-4.184s.78-1.761.78-1.761l.194-.669.216-.334.089-.055.266.1.266.1.031.1-.058.394-.3.631s.109.023-.573,1.839-1.361,3.128-1.712,4.062a3.617,3.617,0,0,0-.243.824l-.088.387-.157.176-.077.021-.266-.1-.266-.1-.044-.066,0-.236.189-.349A3.625,3.625,0,0,0,1662.951,474.017Z" transform="translate(-1661.968 -466.907)" fill="#fff" opacity="0.2"/>
        </g>
        <rect id="Rectangle_3969" data-name="Rectangle 3969" width="0.471" height="8.085" transform="translate(0.817 16.292) rotate(-159.401)" fill="#516a80"/>
        <rect id="Rectangle_3970" data-name="Rectangle 3970" width="0.471" height="0.365" transform="matrix(-0.936, -0.352, 0.352, -0.936, 3.533, 9.065)" opacity="0.15"/>
        <path id="Path_23177" data-name="Path 23177" d="M1640.834,574.941l.6.226.026.557-.759,1.149-.22-.083-.22-.083.186-1.365Z" transform="translate(-1640.261 -559.581)" fill="#516a80"/>
        <rect id="Rectangle_3971" data-name="Rectangle 3971" width="0.118" height="7.208" transform="translate(0.96 15.408) rotate(-159.399)" fill="#fff" opacity="0.2"/>
        <path id="Path_23178" data-name="Path 23178" d="M1643.018,576l-.112.505-.568,1.221.065.024.667-1.184.016-.541Z" transform="translate(-1642.045 -560.494)" opacity="0.15"/>
        <path id="Path_23179" data-name="Path 23179" d="M1641.537,575.319l-.249.454-.377,1.293-.065-.024.278-1.33.344-.418Z" transform="translate(-1640.764 -559.883)" fill="#fff" opacity="0.2"/>
        <path id="Path_23180" data-name="Path 23180" d="M1661.011,512.26l-.242.144-.141,0-.551-.207-.551-.207-.109-.091-.087-.267.243-.328-.116.309.307.183.812.305.288.009s-.193-.545.992-2.414h0a12.522,12.522,0,0,0-.632,1.314,1.844,1.844,0,0,0-.181.847Z" transform="translate(-1656.636 -503.553)" opacity="0.15"/>
      </g>
      <g id="Group_11576" data-name="Group 11576" transform="translate(17.438 49.98)">
        <path id="Path_23181" data-name="Path 23181" d="M1654.623,529.166c.134.287.5.385.948.144s.743-.425,1.139-.156l-.05.637a.973.973,0,0,1-.279.191c-.369-.25-.447.163-.919.276a.878.878,0,0,1-.934-.256,4.728,4.728,0,0,1-.26-.721Z" transform="translate(-1654.269 -529.021)" fill="#594a42"/>
        <path id="Path_23182" data-name="Path 23182" d="M1656.71,529.154c-.4-.269-.693-.085-1.139.156s-.814.143-.948-.144l-.354.116a.792.792,0,0,0,.715.509c.545.014.892-.38,1.14-.441s.332.057.332.057Z" transform="translate(-1654.269 -529.021)" fill="#fff" opacity="0.2"/>
        <path id="Path_23183" data-name="Path 23183" d="M1669.289,530.214l-.074.576.279-.19.05-.637Z" transform="translate(-1667.103 -529.829)" opacity="0.15"/>
      </g>
      <g id="Group_11585" data-name="Group 11585" transform="translate(0 20.369)">
        <g id="Group_11577" data-name="Group 11577">
          <path id="Path_23184" data-name="Path 23184" d="M1555.286,319.521c-4.331-.548-12.464,13.6-12.464,13.6l5.605,3.039s3.32-4.538,5.294-4.288C1557.01,332.289,1559.057,320,1555.286,319.521Z" transform="translate(-1541.136 -319.505)" fill="#f89f5b"/>
          <path id="Path_23185" data-name="Path 23185" d="M1596.514,397.206h0a10.084,10.084,0,0,0-.8.66h0s.094-2.346-.8-3.159A2.66,2.66,0,0,1,1596.514,397.206Z" transform="translate(-1585.866 -384.079)" opacity="0.1"/>
          <path id="Path_23186" data-name="Path 23186" d="M1555.286,319.525l-.212-.015a2.544,2.544,0,0,0-.6.068,4,4,0,0,0-.874.326,7.318,7.318,0,0,0-1.029.639,16.574,16.574,0,0,0-2.24,2.045c-.76.811-1.519,1.723-2.244,2.661-1.451,1.876-2.769,3.849-3.723,5.349s-1.545,2.529-1.545,2.529l.528-.634c.164-.2.37-.445.6-.729s.491-.6.768-.945l.9-1.115c.317-.4.655-.812,1.008-1.237s.706-.871,1.079-1.312.741-.894,1.125-1.333c.19-.221.383-.438.576-.654l.573-.642.564-.624c.185-.205.366-.409.549-.6.357-.4.7-.774,1.031-1.127s.643-.676.945-.951.591-.5.842-.7l.663-.526c.048-.036.1-.07.141-.106s.089-.06.131-.092.079-.055.116-.078l.1-.07A2.27,2.27,0,0,0,1555.286,319.525Z" transform="translate(-1541.136 -319.509)" fill="#fff" opacity="0.2"/>
          <circle id="Ellipse_2291" data-name="Ellipse 2291" cx="3.188" cy="3.188" r="3.188" transform="translate(0 15.547) rotate(-50.231)" fill="#ef5a32"/>
        </g>
        <g id="Group_11578" data-name="Group 11578" transform="translate(0.407 11.054)">
          <circle id="Ellipse_2292" data-name="Ellipse 2292" cx="3.188" cy="3.188" r="3.188" transform="translate(0 5.996) rotate(-70.105)" fill="#ffb98b"/>
        </g>
        <path id="Path_23187" data-name="Path 23187" d="M1536.658,406.832a3.188,3.188,0,0,1,6.326.8,3.235,3.235,0,0,1-.1.483c.089,1.556-.146,2.233-1.784,6.514a18,18,0,0,0-1.475,7.777l-2.693.2C1535.711,416.039,1535.927,409.646,1536.658,406.832Z" transform="translate(-1535.331 -392.096)" fill="#ffb98b"/>
        <path id="Path_23188" data-name="Path 23188" d="M1559.806,432.855l-.028.167c-.016.11-.049.268-.09.465a6.31,6.31,0,0,1-.19.688c-.084.259-.212.541-.346.849s-.307.639-.48.992-.361.726-.558,1.112l-.587,1.2c-.1.2-.2.412-.3.621l-.289.643c-.048.1-.095.213-.141.327l-.14.336c-.1.225-.168.449-.251.671s-.144.449-.216.67-.118.448-.175.667-.09.442-.126.657-.062.429-.079.639a11.769,11.769,0,0,0-.044,1.184c0,.184.009.36.02.529a3.442,3.442,0,0,0,.049.477,2.771,2.771,0,0,0,.249.769,2.029,2.029,0,0,0,.161.275,1.623,1.623,0,0,0,.148.2,1.311,1.311,0,0,0,.15.156l-.013-.166c-.009-.108-.016-.267-.021-.469s0-.448.012-.729c.007-.141.014-.29.029-.448s.028-.323.048-.495c.038-.345.1-.716.164-1.107l.118-.6c.047-.2.091-.412.144-.622a26.04,26.04,0,0,1,.792-2.6c.158-.434.323-.866.486-1.291l.472-1.249c.3-.811.577-1.573.77-2.239a8.089,8.089,0,0,0,.21-.922,5.469,5.469,0,0,0,.062-.726c0-.2,0-.361-.006-.469Z" transform="translate(-1552.253 -416.835)" fill="#fff" opacity="0.2"/>
        <path id="Path_23189" data-name="Path 23189" d="M1536.661,406.832a3.188,3.188,0,1,1,6.226,1.284,6.137,6.137,0,0,1-.047,1.356c-.215-2.142-1.287-2.945-3.274-3.463-2.35-.613-3.428,9.91-2.793,15.672C1535.736,415.445,1535.964,409.513,1536.661,406.832Z" transform="translate(-1535.334 -392.096)" opacity="0.05"/>
        <g id="Group_11579" data-name="Group 11579" transform="translate(1.484 10.281)">
          <path id="Path_23190" data-name="Path 23190" d="M1547.459,398.278c.243-1.935-4.276-4.114-5.872-2.686a1.356,1.356,0,0,1,.213-1.69c.182-.563.21-1.68,1.794-1.649s5.248,1.777,5.851,4.112c.149.9-.067,1.28-.336,1.34C1548.963,398.283,1547.459,398.278,1547.459,398.278Z" transform="translate(-1541.384 -392.252)" fill="#e53f71"/>
          <path id="Path_23191" data-name="Path 23191" d="M1544.333,393.909l.047-.106.122-.3a2.3,2.3,0,0,1,.216-.439,1.19,1.19,0,0,1,.422-.4,1.385,1.385,0,0,1,.656-.152,1.293,1.293,0,0,1,.19,0l.1.006a.3.3,0,0,1,.042,0l.054.007a1.9,1.9,0,0,1,.2.034c.062.012.133.032.2.047a6.092,6.092,0,0,1,.831.277c.279.115.56.24.832.382s.538.3.794.454c.128.079.252.162.373.245s.243.161.358.245.226.168.334.251.214.163.314.245c.2.167.378.329.537.488s.284.32.4.458.223.264.313.369.167.191.221.252c.026.03.05.053.066.069l.024.024-.033-.11a2.936,2.936,0,0,0-.109-.306c-.028-.064-.062-.134-.1-.21s-.083-.155-.132-.239a4.674,4.674,0,0,0-.38-.533,6.663,6.663,0,0,0-1.2-1.113,9.507,9.507,0,0,0-1.618-.951,7.662,7.662,0,0,0-1.778-.6,3.433,3.433,0,0,0-.439-.051c-.072-.006-.143,0-.214,0a1.431,1.431,0,0,0-.208.013,1.567,1.567,0,0,0-.728.242,1.281,1.281,0,0,0-.422.492,2.443,2.443,0,0,0-.172.474l-.082.314Z" transform="translate(-1543.916 -392.259)" fill="#fff" opacity="0.2"/>
          <path id="Path_23192" data-name="Path 23192" d="M1548.519,410.634l.023-.083.027-.1c.005-.041.011-.089.016-.145a1.6,1.6,0,0,0-.029-.4,2.167,2.167,0,0,0-.161-.5,3.612,3.612,0,0,0-.317-.533,4.78,4.78,0,0,0-.441-.533,6.233,6.233,0,0,0-.553-.487,6.642,6.642,0,0,0-.628-.437,4.216,4.216,0,0,0-.686-.357,3.206,3.206,0,0,0-.365-.115c-.123-.032-.245-.062-.369-.081-.245-.044-.489-.073-.724-.1s-.471-.125-.706-.128a.87.87,0,0,0-.169.013.909.909,0,0,0-.16.054,1.026,1.026,0,0,0-.272.18,1.065,1.065,0,0,0-.2.229c-.027.039-.05.081-.072.119s-.037.084-.051.126a1.006,1.006,0,0,0-.057.416,1.054,1.054,0,0,0,.025.166l.066-.051.079-.062c.032-.024.073-.044.116-.071l.069-.041.081-.036a1.285,1.285,0,0,1,.185-.072,1.583,1.583,0,0,1,.218-.06l.12-.026.127-.016a3.392,3.392,0,0,1,.563-.018,4.665,4.665,0,0,1,.624.081,5.619,5.619,0,0,1,.651.17,6.447,6.447,0,0,1,.647.253,6.078,6.078,0,0,1,.616.321,5.757,5.757,0,0,1,.558.376,4.391,4.391,0,0,1,.471.417,3.275,3.275,0,0,1,.359.434,2.222,2.222,0,0,1,.222.421,1.486,1.486,0,0,1,.093.354l.013.135c0,.039,0,.073,0,.1Z" transform="translate(-1542.448 -404.605)" fill="#1c1f23" opacity="0.2"/>
        </g>
        <g id="Group_11584" data-name="Group 11584" transform="translate(0.637 29.388)">
          <g id="Group_11580" data-name="Group 11580" transform="translate(0 4.978)">
            <path id="Path_23193" data-name="Path 23193" d="M1535.484,562.816c-.2.2-.032.367.158.763s.246,1.158.492,1.386.76-.077.757-.372-.356-.689-.438-1.052-.042-.634-.267-.767A.53.53,0,0,0,1535.484,562.816Z" transform="translate(-1535.395 -562.662)" fill="#ffb98b"/>
            <path id="Path_23194" data-name="Path 23194" d="M1540.2,575.481a7.482,7.482,0,0,1,.6.892c.109.188.249.345.549.188s.266-.43.1-.644a2.821,2.821,0,0,1-.509-.765.369.369,0,0,0-.557-.24C1540.111,575.057,1539.969,575.2,1540.2,575.481Z" transform="translate(-1539.422 -573.133)" fill="#ffb98b"/>
            <path id="Path_23195" data-name="Path 23195" d="M1546.277,584.091a2.536,2.536,0,0,1,.386.473c.125.161.182.256.366.205s.422-.194.422-.394-.009-.27-.05-.328a1.152,1.152,0,0,0-.308-.246c-.167-.1-.234-.262-.475-.2S1546.088,583.924,1546.277,584.091Z" transform="translate(-1544.687 -580.629)" fill="#ffb98b"/>
            <path id="Path_23196" data-name="Path 23196" d="M1548.883,587c-.031-.118.249-.337.323-.318.161.148.356.374.356.374a.944.944,0,0,0-.383.307C1549.051,587.218,1548.883,587,1548.883,587Z" transform="translate(-1546.975 -583.282)" fill="#fff" opacity="0.15"/>
          </g>
          <path id="Path_23197" data-name="Path 23197" d="M1538.924,527.45a3.464,3.464,0,0,0-1.532.308,1.5,1.5,0,0,0-.887.981,23.893,23.893,0,0,0-.827,3.893c.683.467,4.221-.578,4.221-.578A7.215,7.215,0,0,0,1538.924,527.45Z" transform="translate(-1535.638 -527.44)" fill="#ffb98b"/>
          <g id="Group_11581" data-name="Group 11581" transform="translate(0.584 4.663)">
            <path id="Path_23198" data-name="Path 23198" d="M1539.63,560.608c-.224.229-.036.418.18.869s.28,1.318.56,1.577.866-.087.862-.423-.405-.784-.5-1.2-.048-.722-.3-.873A.6.6,0,0,0,1539.63,560.608Z" transform="translate(-1539.529 -560.432)" fill="#ffb98b"/>
            <path id="Path_23199" data-name="Path 23199" d="M1545,575.024a8.532,8.532,0,0,1,.682,1.015c.125.214.283.392.625.214s.3-.49.116-.733a3.212,3.212,0,0,1-.579-.871.421.421,0,0,0-.634-.273C1544.9,574.542,1544.736,574.7,1545,575.024Z" transform="translate(-1544.113 -572.352)" fill="#ffb98b"/>
            <path id="Path_23200" data-name="Path 23200" d="M1551.917,584.826a2.885,2.885,0,0,1,.439.538c.142.183.207.292.416.234s.481-.221.48-.449-.01-.307-.057-.374a1.309,1.309,0,0,0-.351-.28c-.191-.119-.267-.3-.541-.228S1551.7,584.636,1551.917,584.826Z" transform="translate(-1550.106 -580.886)" fill="#ffb98b"/>
            <path id="Path_23201" data-name="Path 23201" d="M1554.882,588.132c-.036-.134.283-.384.368-.362.184.168.406.426.406.426a1.075,1.075,0,0,0-.436.35C1555.073,588.385,1554.882,588.132,1554.882,588.132Z" transform="translate(-1552.71 -583.905)" fill="#fff" opacity="0.15"/>
            <path id="Path_23202" data-name="Path 23202" d="M1541.35,565.448a.449.449,0,0,1-.117-.159,1.347,1.347,0,0,1-.068-.186,4.106,4.106,0,0,0-.146-.394c-.052-.131-.114-.256-.178-.383-.032-.063-.065-.127-.1-.188l-.057-.093-.03-.046-.022-.041-.052-.052v0h0l.017.018h0l-.006-.009-.024-.034-.012-.017a.049.049,0,0,1,0-.007.091.091,0,0,0,0-.011c0-.02-.024-.064-.034-.1s-.023-.089-.034-.136-.02-.1-.029-.149c-.016-.1-.042-.208-.062-.319a2.8,2.8,0,0,0-.083-.338c-.019-.057-.038-.117-.063-.175a1.8,1.8,0,0,0-.087-.181,1.467,1.467,0,0,0-.1-.157l-.106-.141a1.357,1.357,0,0,0-.184-.218c-.026-.023-.057-.03-.086-.064a.349.349,0,0,1-.051-.183.371.371,0,0,0-.089.14.3.3,0,0,0,0,.165,1.61,1.61,0,0,0,.136.3c.052.1.1.2.15.3a2.406,2.406,0,0,1,.109.316c.062.215.108.433.168.648a2.623,2.623,0,0,0,.106.317,1.012,1.012,0,0,0,.075.149.449.449,0,0,0,.109.125h0c.039.056.084.106.124.161l.12.164q.117.166.226.338t.213.347A.643.643,0,0,0,1541.35,565.448Z" transform="translate(-1539.533 -561.5)" fill="#fff" opacity="0.15"/>
          </g>
          <path id="Path_23203" data-name="Path 23203" d="M1554.969,527.509c.338.163.585.122.987.63a2.329,2.329,0,0,0,.535.391c.357.178.6.049.675.431.157.755.381,1.051.651,1.2s.309.281.309.281a2.714,2.714,0,0,0,.85.039.759.759,0,0,1-.227,1.058,1.47,1.47,0,0,1-1.4.118,1.312,1.312,0,0,1-.672-1.094c-.213-.545-.619-.167-.7.221-.058.287-1.516-.374-1.594-1.177A2.55,2.55,0,0,1,1554.969,527.509Z" transform="translate(-1551.682 -527.499)" fill="#ffb98b"/>
          <path id="Path_23204" data-name="Path 23204" d="M1578.665,548.232a1.314,1.314,0,0,0-.382.593,2.981,2.981,0,0,0,.667.115,2.474,2.474,0,0,1,.431-.647C1579.111,548.289,1578.665,548.232,1578.665,548.232Z" transform="translate(-1572.222 -545.294)" fill="#fff" opacity="0.15"/>
          <g id="Group_11582" data-name="Group 11582" transform="translate(1.32 4.368)">
            <path id="Path_23205" data-name="Path 23205" d="M1544.831,558.779c-.261.266.072.6.272,1.082s.344,1.426.484,1.765.358.314.766.068.3-.316.024-1.363a15.381,15.381,0,0,1-.092-1.632C1546.218,558.38,1545.526,558.071,1544.831,558.779Z" transform="translate(-1544.735 -558.349)" fill="#ffb98b"/>
            <path id="Path_23206" data-name="Path 23206" d="M1550.631,577.874a9.5,9.5,0,0,1,.6,1.224c.1.255.252.476.657.332s.41-.493.24-.791a3.582,3.582,0,0,1-.505-1.05.468.468,0,0,0-.657-.4C1550.592,577.326,1550.389,577.478,1550.631,577.874Z" transform="translate(-1549.708 -574.496)" fill="#ffb98b"/>
            <path id="Path_23207" data-name="Path 23207" d="M1556.145,589.99a3.212,3.212,0,0,1,.315.707c.1.238.137.374.379.373s.581-.1.647-.342.079-.333.048-.418a1.457,1.457,0,0,0-.3-.4c-.17-.184-.2-.4-.515-.4S1555.968,589.723,1556.145,589.99Z" transform="translate(-1554.498 -585.1)" fill="#ffb98b"/>
            <path id="Path_23208" data-name="Path 23208" d="M1558.551,594.112c0-.154.416-.33.5-.282.149.234.312.576.312.576a1.2,1.2,0,0,0-.571.249C1558.683,594.439,1558.551,594.112,1558.551,594.112Z" transform="translate(-1556.598 -588.808)" fill="#fff" opacity="0.15"/>
            <path id="Path_23209" data-name="Path 23209" d="M1546.387,565.848a.205.205,0,0,1-.01-.112l0-.013c-.013-.062-.03-.118-.044-.174s-.025-.122-.038-.182a3.5,3.5,0,0,0-.092-.363c-.036-.12-.074-.239-.115-.358s-.083-.24-.136-.357l-.055-.067c0-.008-.014-.039-.025-.083,0,0-.006-.019,0-.009l-.006-.025-.012-.049-.013-.079-.063-.384c-.021-.132-.037-.268-.065-.4a4.073,4.073,0,0,0-.092-.41,2.282,2.282,0,0,0-.156-.421l-.013-.027a.314.314,0,0,0-.015-.029l-.025-.045-.058-.1c-.039-.066-.084-.121-.125-.178-.084-.109-.157-.215-.222-.29-.037-.039-.068-.065-.1-.1a.3.3,0,0,1-.063-.2.331.331,0,0,0-.091.177.43.43,0,0,0,.023.2,2.436,2.436,0,0,0,.174.366,3.6,3.6,0,0,1,.177.365,3.667,3.667,0,0,1,.125.386c.071.261.129.526.191.789.031.132.063.263.1.393a.775.775,0,0,0,.18.359h0c.122.211.23.429.333.65q.077.166.148.334a3.583,3.583,0,0,0,.153.331h0A.228.228,0,0,0,1546.387,565.848Z" transform="translate(-1544.74 -560.958)" fill="#fff" opacity="0.15"/>
          </g>
          <g id="Group_11583" data-name="Group 11583" transform="translate(2.537 4.222)">
            <path id="Path_23210" data-name="Path 23210" d="M1555.041,557.922a9.215,9.215,0,0,0-.1,2.345c-.021.7-1.262.667-1.266.1a3.544,3.544,0,0,0-.1-1.065c-.118-.658-.132-.986-.225-1.322s.479-.6.932-.642S1555.185,557.25,1555.041,557.922Z" transform="translate(-1553.343 -557.315)" fill="#ffb98b"/>
            <path id="Path_23211" data-name="Path 23211" d="M1556,574.859c.526-.264.922-.022.929.367a2.647,2.647,0,0,0,.3,1c.164.321.155.474-.215.705s-.615.121-.724-.287a3.115,3.115,0,0,0-.493-1.091C1555.605,575.337,1555.629,575.044,1556,574.859Z" transform="translate(-1555.348 -572.284)" fill="#ffb98b"/>
            <path id="Path_23212" data-name="Path 23212" d="M1562.12,586.428a4.528,4.528,0,0,1-.487-.68.551.551,0,0,0-.822-.1.477.477,0,0,0-.011.719c.1.042.172.124.3.42s.134.4.267.455.431.066.727-.32A.7.7,0,0,0,1562.12,586.428Z" transform="translate(-1559.609 -581.524)" fill="#ffb98b"/>
            <path id="Path_23213" data-name="Path 23213" d="M1563.818,590.323c-.29-.037-.425.309-.425.309l.328.629a4.654,4.654,0,0,1,.5-.376C1564.155,590.566,1563.958,590.341,1563.818,590.323Z" transform="translate(-1561.973 -585.655)" fill="#fff" opacity="0.15"/>
            <path id="Path_23214" data-name="Path 23214" d="M1554.832,565.019a1.047,1.047,0,0,0-.137-.405.379.379,0,0,0-.093-.092c-.006-.005-.025-.015-.021-.015-.014-.009,0,0,0-.005s-.006-.014-.01-.024a.545.545,0,0,1-.032-.147l-.022-.048a.59.59,0,0,1-.038-.125c0-.023-.008-.046-.011-.07l-.011-.083c-.018-.121-.04-.236-.067-.353a2.422,2.422,0,0,0-.1-.349,2.361,2.361,0,0,0-.159-.352l-.094-.09c-.02-.021-.028-.037-.027-.044s.007,0,.011-.012l.014-.183c0-.063.011-.125.014-.2a1.86,1.86,0,0,0-.008-.238l-.025-.208c-.007-.066-.022-.129-.034-.192l-.037-.188c-.022-.124-.061-.243-.088-.367s-.069-.247-.1-.374a1.541,1.541,0,0,0-.149-.386.581.581,0,0,0-.062-.092l0-.006s0-.007,0,0l0,0-.008-.01c0-.005-.007,0-.011,0a.171.171,0,0,1-.027-.019.287.287,0,0,1-.069-.184.321.321,0,0,0-.072.176.76.76,0,0,0,.036.189c.029.125.05.252.068.38.037.255.072.509.117.763l.067.38a2.184,2.184,0,0,1,.043.383v.386a.377.377,0,0,0,.194.314h0a2.934,2.934,0,0,1,.295.608q.058.159.1.322a.951.951,0,0,0,.126.312h0a.521.521,0,0,0,.085.181.173.173,0,0,0,.079.06.3.3,0,0,1,.08.06A1.3,1.3,0,0,1,1554.832,565.019Z" transform="translate(-1553.343 -559.755)" fill="#fff" opacity="0.15"/>
          </g>
        </g>
        <path id="Path_23215" data-name="Path 23215" d="M1537.544,439.762a4.017,4.017,0,0,1,3.334-.13A2.242,2.242,0,0,0,1537.544,439.762Z" transform="translate(-1536.603 -422.088)" opacity="0.15"/>
        <path id="Path_23216" data-name="Path 23216" d="M1536.807,451.687a3.931,3.931,0,0,1,3.13-.077C1538.714,450.584,1537.15,451.01,1536.807,451.687Z" transform="translate(-1535.97 -432.413)" opacity="0.15"/>
        <path id="Path_23217" data-name="Path 23217" d="M1536.471,462.8a3.727,3.727,0,0,1,2.779.02C1538.069,461.946,1536.787,462.241,1536.471,462.8Z" transform="translate(-1535.682 -442.09)" opacity="0.15"/>
        <path id="Path_23218" data-name="Path 23218" d="M1535.5,509a2.139,2.139,0,0,1,2.32.9s-.213.092-.3,1.441a.278.278,0,0,1,.062.189h0a1.691,1.691,0,0,1,.61.509,2.019,2.019,0,0,0,.453.33,1.1,1.1,0,0,0,.258.085.638.638,0,0,1,.567.542c.152.73.351.92.508,1a1.127,1.127,0,0,1,.341.265c.165.018.386.04.538.043a.373.373,0,0,0,.065-.01l.179-.054.12.143a.9.9,0,0,1,.19.682,1.161,1.161,0,0,1-.464.783,1.777,1.777,0,0,1-1.239.284,1.2,1.2,0,0,1-.474-.151,1.567,1.567,0,0,1-.8-1.256.438.438,0,0,0-.023-.045.5.5,0,0,0-.118.215,7.065,7.065,0,0,1-.048,1.311h.007a1.4,1.4,0,0,1-.033.27,5.628,5.628,0,0,0-.109,1.653c.01.2.021.417.014.641a.578.578,0,0,1-.008.079,2.649,2.649,0,0,0,.259.774,1.626,1.626,0,0,1,.084.189.638.638,0,0,1,.056.083,4.25,4.25,0,0,0,.463.644l.031.039.016.048a.975.975,0,0,1-.051.721l-.01.017-.012.016a1.041,1.041,0,0,1-.744.456,1.018,1.018,0,0,1-.836.371.751.751,0,0,1-.1-.006c-.333-.042-.437-.294-.52-.5l-.019-.045c-.031-.075-.056-.144-.081-.214a2.087,2.087,0,0,0-.132-.317,1.32,1.32,0,0,1-.176-.2l-.021-.028a1.138,1.138,0,0,1-.195.074.574.574,0,0,1-.227.02.616.616,0,0,1-.414-.295l-.023-.03c-.04-.051-.074-.1-.107-.149a1.4,1.4,0,0,0-.21-.256.814.814,0,0,1-.3-.323,7.2,7.2,0,0,0-.574-.856l-.006-.008-.007-.007a1.888,1.888,0,0,1-.386-.915,3.267,3.267,0,0,0-.169-.556c-.036-.076-.072-.143-.1-.2a.783.783,0,0,1-.13-.691,25.814,25.814,0,0,1,.837-3.9c.007-.024.017-.047.025-.071h0a.6.6,0,0,1-.057-.562,15.224,15.224,0,0,1-.571-1.831S1533.781,509.26,1535.5,509Z" transform="translate(-1533.071 -482.189)" fill="#f15a29" opacity="0.5" style="mix-blend-mode: hard-light;isolation: isolate"/>
      </g>
      <g id="Group_11586" data-name="Group 11586" transform="translate(13.455 19.389)">
        <path id="Path_23219" data-name="Path 23219" d="M1640.867,337.5c.878,0,1.353-1.29,1.636-2.273a45.489,45.489,0,0,0,1.178-8.046,86.533,86.533,0,0,0,.3-10.088c-.186-4.438-.869-4.494-1.16-4.518a.283.283,0,0,0-.058.562c.048.037.53.5.664,4.236a87.85,87.85,0,0,1-.312,9.762,44.977,44.977,0,0,1-1.158,7.935c-.5,1.723-.943,1.874-1.121,1.863a.283.283,0,0,0-.046.563C1640.818,337.5,1640.843,337.5,1640.867,337.5Z" transform="translate(-1638.492 -312.572)" fill="#747481"/>
        <path id="Path_23220" data-name="Path 23220" d="M1650.912,337.744c.95,0,2.041-1.2,2.041-10.516a86.562,86.562,0,0,0-.517-10.079c-.546-4.409-1.231-4.409-1.524-4.409a.283.283,0,0,0-.013.565c.051.033.569.455,1.006,4.168a87.867,87.867,0,0,1,.482,9.755c0,9.233-1.13,9.951-1.476,9.951a.283.283,0,1,0,0,.565Z" transform="translate(-1647.161 -312.715)" fill="#92929c"/>
        <path id="Path_23221" data-name="Path 23221" d="M1635.534,337.688c.878,0,1.353-1.29,1.636-2.273a45.486,45.486,0,0,0,1.178-8.046,86.646,86.646,0,0,0,.3-10.088c-.186-4.438-.869-4.494-1.161-4.518a.283.283,0,0,0-.058.562c.048.037.53.5.664,4.236a87.826,87.826,0,0,1-.312,9.762,45,45,0,0,1-1.158,7.935c-.5,1.723-.945,1.876-1.121,1.863a.283.283,0,0,0-.046.563C1635.485,337.687,1635.51,337.688,1635.534,337.688Z" transform="translate(-1633.913 -312.735)" fill="#747481"/>
        <path id="Path_23222" data-name="Path 23222" d="M1631.76,338.333c.878,0,1.353-1.29,1.636-2.273a45.486,45.486,0,0,0,1.178-8.046,86.528,86.528,0,0,0,.3-10.088c-.185-4.438-.869-4.494-1.161-4.518a.283.283,0,0,0-.058.562c.048.037.53.5.664,4.236a87.818,87.818,0,0,1-.312,9.762,44.971,44.971,0,0,1-1.158,7.935c-.5,1.723-.945,1.876-1.121,1.863a.283.283,0,0,0-.046.563C1631.71,338.332,1631.735,338.333,1631.76,338.333Z" transform="translate(-1630.672 -313.289)" fill="#868691"/>
        <path id="Path_23223" data-name="Path 23223" d="M1641.8,338.954c.95,0,2.041-1.2,2.041-10.516a86.561,86.561,0,0,0-.517-10.08c-.546-4.409-1.231-4.409-1.524-4.409a.283.283,0,0,0-.013.565c.051.033.569.455,1.006,4.168a87.778,87.778,0,0,1,.482,9.756c0,9.233-1.13,9.951-1.476,9.951a.283.283,0,1,0,0,.565Z" transform="translate(-1639.34 -313.754)" fill="#a6a6ae"/>
        <path id="Path_23224" data-name="Path 23224" d="M1626.426,338.875c.878,0,1.353-1.29,1.636-2.273a45.509,45.509,0,0,0,1.178-8.046,86.587,86.587,0,0,0,.3-10.088c-.186-4.438-.869-4.494-1.161-4.518a.283.283,0,0,0-.058.562c.048.037.53.5.664,4.235a87.76,87.76,0,0,1-.312,9.762,44.992,44.992,0,0,1-1.158,7.935c-.5,1.723-.945,1.874-1.122,1.863a.283.283,0,0,0-.046.563C1626.376,338.874,1626.4,338.875,1626.426,338.875Z" transform="translate(-1626.091 -313.754)" fill="#92929c"/>
      </g>
    </g>
  </g>
</svg>
