<svg xmlns="http://www.w3.org/2000/svg" width="82.528" height="107.108" viewBox="0 0 82.528 107.108">
  <g id="Group_11609" data-name="Group 11609" transform="translate(-272.882 -621.879)">
    <path id="Path_23273" data-name="Path 23273" d="M215.071,887.808c0,.534-12.253.966-27.367.966s-27.367-.433-27.367-.966,12.253-.966,27.367-.966S215.071,887.274,215.071,887.808Z" transform="translate(140.34 -159.787)" fill="#ccc"/>
    <g id="Group_11608" data-name="Group 11608" transform="translate(214.231 322.391)">
      <path id="Path_21809" data-name="Path 21809" d="M156.1,315.49a16.416,16.416,0,0,1,5.628-4.93s6.374,3.486,6.922,4.98-1,6.126-1,6.126Z" transform="translate(-46.455 -5.278)" fill="#387ead"/>
      <path id="Path_21810" data-name="Path 21810" d="M170.282,336.865c4.084-2.092,4.332-4.183,4.332-4.183l-.547-.9,1.1.349a2.843,2.843,0,0,0-.258-3.419l-4.323-2.358Z" transform="translate(-53.215 -12.809)" fill="#591d32"/>
      <path id="Path_21811" data-name="Path 21811" d="M124.919,355.1a10.227,10.227,0,0,1-10.623-1.313l-2.384,8.3c7.83,4.511,14.09,2.544,14.09,2.544Z" transform="translate(-25.39 -25.885)" fill="#ff9566"/>
      <path id="Path_21812" data-name="Path 21812" d="M128.3,353.728s-.962,10.837-.641,11.2,15.081-2.81,15.918-11.172S128.3,353.728,128.3,353.728Z" transform="translate(-32.867 -24.094)" fill="#f89f5b"/>
      <path id="Path_21813" data-name="Path 21813" d="M141.634,350.457c-2.934,4.87-10.757,7.3-13.69,7.861-.233,3.051-.462,6.607-.28,6.811.321.362,15.081-2.81,15.918-11.172C143.785,351.913,142.973,350.871,141.634,350.457Z" transform="translate(-32.867 -24.297)" fill="#f89f5b"/>
      <path id="Path_21814" data-name="Path 21814" d="M109.663,362.434l2.937-11.723-11.5-5.755-3.386,6.956S104.527,359.436,109.663,362.434Z" transform="translate(-18.624 -21.675)" fill="#ffce55"/>
      <path id="Path_21815" data-name="Path 21815" d="M106.068,353.654l-.122-6.274-4.841-2.424-3.386,6.956s6.808,7.524,11.944,10.522l1.432-5.713C108.212,355.139,106.068,353.654,106.068,353.654Z" transform="translate(-18.624 -21.675)" fill="#ffb14a"/>
      <path id="Path_21816" data-name="Path 21816" d="M137.826,350.613c-14.126,22.2-1.417,77.61-1.417,77.61h.365l5.644-30.08h.8l14.807,30.08h.531s-6.7-46.863-3.586-57.47c1.468-5,4.117-11.155,2.789-14.741-.38-1.027-4.751-5.03-8.765-6.375C145,348.3,138.753,349.157,137.826,350.613Z" transform="translate(-34.564 -23.589)" fill="#9c3587"/>
      <g id="Group_11266" data-name="Group 11266" transform="translate(98.997 338.756)">
        <ellipse id="Ellipse_745" data-name="Ellipse 745" cx="0.771" cy="1.391" rx="0.771" ry="1.391" transform="translate(0)" fill="#417ea3"/>
        <path id="Path_21817" data-name="Path 21817" d="M137.256,376.2c0-.367-.165-.664-.368-.664s-.368.3-.368.664.165.665.368.665S137.256,376.57,137.256,376.2Z" transform="translate(-136.118 -375.01)" fill="#e8c792"/>
        <path id="Path_21818" data-name="Path 21818" d="M155.073,382.061c0-.768-.345-1.391-.771-1.391s-.771.623-.771,1.391.345,1.391.771,1.391S155.073,382.829,155.073,382.061Z" transform="translate(-144.227 -377.455)" fill="#417ea3"/>
        <path id="Path_21819" data-name="Path 21819" d="M155.036,382.345c0-.367-.165-.664-.368-.664s-.368.3-.368.664.165.665.368.665S155.036,382.712,155.036,382.345Z" transform="translate(-144.593 -377.937)" fill="#e8c792"/>
      </g>
      <path id="Path_21820" data-name="Path 21820" d="M152.951,394.765l-4.05-8.7a10.025,10.025,0,0,1-7.636,2.694v-.769l-9.293-2.065c-.377,3.051-.6,6.215-.7,9.425a50.089,50.089,0,0,0,9.989,4.725v-2.884C148.622,397.9,152.951,394.765,152.951,394.765Z" transform="translate(-34.621 -41.206)" fill="#8b3079"/>
      <g id="Group_11267" data-name="Group 11267" transform="translate(96.516 330.84)">
        <path id="Path_21821" data-name="Path 21821" d="M157.724,374.525c-1.049,5.911,9.91,46.313,13.325,58.67h.135s-6.7-46.863-3.586-57.47c1.468-5,4.117-11.155,2.789-14.741a1.586,1.586,0,0,0-.192-.339c-1.914-2.741-5.177-.477-7.171,2.207A28.933,28.933,0,0,0,157.724,374.525Z" transform="translate(-143.711 -359.401)" fill="#8b3079"/>
        <path id="Path_21822" data-name="Path 21822" d="M149.085,438.506l2.086-1.579-9.417-.564,3.947,2.368-4.04,31.151h.12l5.644-30.079h.8l3.76,7.639Z" transform="translate(-136.087 -396.089)" fill="#8b3079"/>
        <path id="Path_21823" data-name="Path 21823" d="M131.009,412.764l.085,1.706c7.9,1.139,15.462,2.469,22.718,4.215l.064-1.776C147.373,413.9,131.009,412.764,131.009,412.764Z" transform="translate(-131.009 -384.839)" fill="#8b3079"/>
      </g>
      <rect id="Rectangle_2301" data-name="Rectangle 2301" width="1.992" height="48.472" transform="translate(64.627 348.226)" fill="#bc3737"/>
      <rect id="Rectangle_2302" data-name="Rectangle 2302" width="1.992" height="39.175" transform="translate(64.627 357.524)" fill="#e85454"/>
      <rect id="Rectangle_2303" data-name="Rectangle 2303" width="1.992" height="48.472" transform="translate(69.408 348.226)" fill="#2d93aa"/>
      <rect id="Rectangle_2304" data-name="Rectangle 2304" width="1.992" height="39.175" transform="translate(69.408 357.524)" fill="#43b4d6"/>
      <path id="Path_21824" data-name="Path 21824" d="M89.085,389.9H87.092v14.542c0,2.357-.465,3.088-3.088,3.088h-3.02v1.992h4.083c2.689,0,4.017-1.495,4.017-3.686Z" transform="translate(-10.646 -43.098)" fill="#43b4d6"/>
      <rect id="Rectangle_2305" data-name="Rectangle 2305" width="1.992" height="10.613" transform="translate(76.446 346.798)" fill="#2d93aa"/>
      <path id="Path_21825" data-name="Path 21825" d="M148.769,364.379c1.53-.893,4.408-11.2,10.275-11.263a20.676,20.676,0,0,0-5.959-3.478,17.284,17.284,0,0,0-9.712.064c-2.9,5.889-4.034,11.661-3.5,12.352C140.535,362.918,147.175,365.309,148.769,364.379Z" transform="translate(-38.658 -23.59)" fill="#f7deb0"/>
      <g id="Group_11268" data-name="Group 11268" transform="translate(101.087 325.98)">
        <path id="Path_21826" data-name="Path 21826" d="M140.36,362.3c-.527-.686.581-6.354,3.42-12.184-.141.042-.279.086-.408.132-2.9,5.889-4.034,11.661-3.5,12.352.664.863,7.3,3.254,8.9,2.324a1.129,1.129,0,0,0,.226-.193C147.045,365.327,140.993,363.121,140.36,362.3Z" transform="translate(-139.744 -350.114)" fill="#e8c792"/>
        <path id="Path_21827" data-name="Path 21827" d="M171.8,357.385a5.253,5.253,0,0,1,2.526-.7c-.093-.074-.192-.15-.287-.224A5.7,5.7,0,0,0,171.8,357.385Z" transform="translate(-155.025 -353.14)" fill="#e8c792"/>
      </g>
      <path id="Path_21828" data-name="Path 21828" d="M152.382,380.7a10.228,10.228,0,0,1-10.492,2.125l.373,8.63c8.857,1.795,14.169-2.057,14.169-2.057Z" transform="translate(-39.68 -38.713)" fill="#ffb882"/>
      <path id="Path_21829" data-name="Path 21829" d="M152.382,380.7a9.383,9.383,0,0,1-3.093,1.979l1.76,2.995-4.033,1.092-.726-3.378a11.243,11.243,0,0,1-4.4-.563l.373,8.63c8.857,1.795,14.169-2.057,14.169-2.057Z" transform="translate(-39.68 -38.713)" fill="#ff9566"/>
      <path id="Path_21830" data-name="Path 21830" d="M134.79,394.669V382.584l-12.469-1.968-1.316,4.812S129.079,393.009,134.79,394.669Z" transform="translate(-29.725 -38.674)" fill="#ffce55"/>
      <path id="Path_21831" data-name="Path 21831" d="M121.012,386.153l-.94,1.425s8.562,8.07,14.273,9.73v-6.344A78.884,78.884,0,0,1,121.012,386.153Z" transform="translate(-29.28 -41.314)" fill="#ffb14a"/>
      <path id="Path_21832" data-name="Path 21832" d="M161.9,351.965a18.318,18.318,0,0,0-4.414-2.326,17.568,17.568,0,0,0-8.345-.308C148.295,353.719,150.453,357.318,161.9,351.965Z" transform="translate(-43.059 -23.59)" fill="#ffb882"/>
      <path id="Path_21833" data-name="Path 21833" d="M149.4,349.516c-.138.025-.284.045-.417.073-1.306,4.623.837,8.72,12.759,2.634-.16-.111-.322-.22-.487-.329C151.3,356.3,148.947,353.428,149.4,349.516Z" transform="translate(-42.902 -23.849)" fill="#f44e63"/>
      <path id="Path_21834" data-name="Path 21834" d="M153.48,338.3l-1,2.375s1.047,2.9,9.812,1.958l1.5-11.285Z" transform="translate(-44.73 -15.186)" fill="#ffb882"/>
      <rect id="Rectangle_2306" data-name="Rectangle 2306" width="19.906" height="2.143" transform="translate(61.864 349.235)" fill="#563a48"/>
      <rect id="Rectangle_2307" data-name="Rectangle 2307" width="27.357" height="50.863" rx="5.617" transform="translate(58.651 299.488)" fill="#f7deb0"/>
      <rect id="Rectangle_2308" data-name="Rectangle 2308" width="5.508" height="7.761" transform="translate(74.465 332.619)" fill="#e5c693"/>
      <path id="Path_21835" data-name="Path 21835" d="M87.5,299.488H66.984v26.277a2.481,2.481,0,0,0,2.481,2.481H89.98V301.97A2.481,2.481,0,0,0,87.5,299.488Z" transform="translate(-3.972 0)" fill="#fce6c3"/>
      <path id="Path_21836" data-name="Path 21836" d="M85.341,300.281v44.883a2.481,2.481,0,0,1-2.481,2.481H63.989a2.481,2.481,0,0,1-2.481-2.481V299.488h-.376a2.481,2.481,0,0,0-2.481,2.482v45.9a2.481,2.481,0,0,0,2.481,2.481H83.527a2.481,2.481,0,0,0,2.481-2.481v-45.9A2.471,2.471,0,0,0,85.341,300.281Z" transform="translate(0 0)" fill="#e5c693"/>
      <path id="Path_21837" data-name="Path 21837" d="M130.409,411.151l-.066,1.461c8.227,1.107,16.147,2.486,23.705,4.183l.066-1.726C147.342,412.147,130.409,411.151,130.409,411.151Z" transform="translate(-34.176 -53.23)" fill="#f89f5b"/>
      <path id="Path_21838" data-name="Path 21838" d="M148.243,411.757l-4.264-.474v3.144l4.264.474Z" transform="translate(-40.677 -53.293)" fill="#ffce55"/>
      <path id="Path_21839" data-name="Path 21839" d="M148.168,412.944l-2.567-.285v1.893l2.567.285Z" transform="translate(-41.45 -53.949)" fill="#f7deb0"/>
      <g id="Group_11269" data-name="Group 11269" transform="translate(96.167 357.921)">
        <path id="Path_21840" data-name="Path 21840" d="M161.037,414.7c.024.112.049.223.072.336.13.656.234,1.3.317,1.945q3.677.709,7.255,1.508l.066-1.727A38.225,38.225,0,0,0,161.037,414.7Z" transform="translate(-144.975 -412.841)" fill="#ffac48"/>
        <path id="Path_21841" data-name="Path 21841" d="M131.174,411.2c-.489-.034-.764-.05-.764-.05l-.066,1.461c.3.04.593.083.891.124Q131.18,411.956,131.174,411.2Z" transform="translate(-130.343 -411.151)" fill="#ffac48"/>
      </g>
      <path id="Path_21842" data-name="Path 21842" d="M177.545,418.454l-5.245-1.594s-.531,12.683,1.925,13.147S177.745,425.493,177.545,418.454Z" transform="translate(-54.154 -55.952)" fill="#f89f5b"/>
      <path id="Path_21843" data-name="Path 21843" d="M176.3,413.249c-.926-.017-.647,1.7-.568,3.892h.9C176.912,414.761,177.224,413.266,176.3,413.249Z" transform="translate(-55.764 -54.23)" fill="#723f4a"/>
      <path id="Path_21844" data-name="Path 21844" d="M180.77,412.114c-.926-.023-.647,2.3-.568,5.248h.9C181.384,414.152,181.7,412.137,180.77,412.114Z" transform="translate(-57.896 -53.689)" fill="#e23754"/>
      <path id="Path_21845" data-name="Path 21845" d="M176.14,418.689l-2.466-.678s-.25,7.786.905,7.931S176.233,422.982,176.14,418.689Z" transform="translate(-54.821 -56.501)" fill="#c2b38c"/>
      <path id="Path_21846" data-name="Path 21846" d="M181.092,420.151l-1.853-.469s-.376,7.3.593,7.437S181.08,424.177,181.092,420.151Z" transform="translate(-57.45 -57.297)" fill="#c2b38c"/>
      <path id="Path_21847" data-name="Path 21847" d="M138.009,500.534h-5.445a30.279,30.279,0,0,1,4.3-1.956C138.075,498.442,138.009,500.534,138.009,500.534Z" transform="translate(-35.235 -94.904)" fill="#f7deb0"/>
      <path id="Path_21848" data-name="Path 21848" d="M180.244,499.69h5.692s-3.685-2.75-4.5-2.879C180.175,496.611,180.244,499.69,180.244,499.69Z" transform="translate(-57.964 -94.06)" fill="#f7deb0"/>
      <path id="Path_21849" data-name="Path 21849" d="M158.005,372.327s6.242,12.085,6.707,12.218,9.984-12.686,6.2-20.189S158.005,372.327,158.005,372.327Z" transform="translate(-47.363 -29.944)" fill="#f89f5b"/>
      <path id="Path_21850" data-name="Path 21850" d="M174.461,364.4a3.31,3.31,0,0,0-2.217-2c1.171,6.252-4.23,14.289-6.792,17.372a37.447,37.447,0,0,0,2.81,4.818C168.726,384.724,178.246,371.906,174.461,364.4Z" transform="translate(-50.913 -29.991)" fill="#f89f5b"/>
      <path id="Path_21851" data-name="Path 21851" d="M159.429,341.242a56.847,56.847,0,0,0-6.346-.774l-3.243,2.164L148.833,345c-.127.013-.252.026-.377.041h0q-.3.036-.594.081l-.013,0c-.388.06-.757.132-1.1.214h0c-.215.051-.416.108-.61.167-2.1,2.586-1.6,7.1.7,7.6,8.563,1.843,9.805-3.734,13.924-4.544l-.035-.027c-.139-.106-.282-.21-.426-.315-.087-.063-.172-.126-.26-.188-.144-.1-.291-.2-.439-.3-.093-.063-.184-.126-.278-.188-.131-.086-.264-.169-.4-.253l-.111-.071-.232-.144-.093-.057.147-.014Z" transform="translate(-41.071 -19.535)" fill="#ff9566" opacity="0.6"/>
      <path id="Path_21852" data-name="Path 21852" d="M150.7,329.817a15.433,15.433,0,0,1,.79-7.894l3.227.186Z" transform="translate(-43.78 -10.695)" fill="#591d32"/>
      <path id="Path_21853" data-name="Path 21853" d="M161.73,310.56a16.416,16.416,0,0,0-5.628,4.93l5.325,2.846a9.272,9.272,0,0,0,1.062-.537c2.074-1.22,3.394-3.052,3.519-4.637C164.047,311.828,161.73,310.56,161.73,310.56Z" transform="translate(-46.455 -5.278)" fill="#4f8ec1"/>
      <path id="Path_21854" data-name="Path 21854" d="M147.981,333.4c1.579,1.41,7.138,1.612,8.682.914s5.378-8.267,5.229-9.611-7.666-4.493-9.113-4.831C150.969,319.453,148.151,330.189,147.981,333.4Z" transform="translate(-42.584 -9.713)" fill="#ffb882"/>
      <path id="Path_21855" data-name="Path 21855" d="M167.67,325.215l-1.2,6.972,1.295.4,2.839-2.39.132-3.305Z" transform="translate(-51.4 -12.264)" fill="#591d32"/>
      <path id="Path_21856" data-name="Path 21856" d="M168.715,336c.991-1.4,2.923-1.611,3.056-.131s-1.816,2.221-2.79,2.308S168.406,336.438,168.715,336Z" transform="translate(-52.301 -16.859)" fill="#ffb882"/>
      <path id="Path_21857" data-name="Path 21857" d="M170.044,336.758c.587-.828,1.732-.955,1.811-.077s-1.076,1.316-1.654,1.368S169.861,337.016,170.044,336.758Z" transform="translate(-53.003 -17.442)" fill="#db5b3e"/>
      <path id="Path_21858" data-name="Path 21858" d="M169.871,338c.438-.618,1.292-.712,1.352-.058s-.8.982-1.234,1.02S169.735,338.191,169.871,338Z" transform="translate(-52.946 -18.116)" fill="#ffb882"/>
      <g id="Group_11270" data-name="Group 11270" transform="translate(107.699 312.457)">
        <path id="Path_21859" data-name="Path 21859" d="M153.281,329.66c.177-.495.543-.8.816-.689s.347.609.169,1.1-.543.8-.814.689S153.1,330.156,153.281,329.66Z" transform="translate(-152.763 -326.501)" fill="#4f3131"/>
        <path id="Path_21860" data-name="Path 21860" d="M156.63,329.807c-.31-.321-2.313,3.428-2.311,4.012,0,.294,1.837.754,1.837.754S156.688,329.865,156.63,329.807Z" transform="translate(-153.304 -326.901)" fill="#ffb882"/>
        <path id="Path_21861" data-name="Path 21861" d="M156.219,329.981a16.3,16.3,0,0,0-2.042,3.887c0,.224,1.115.554,1.607.677-.013.1-.019.165-.019.165s-1.941-.405-1.936-.693C153.839,333.468,155.829,330.02,156.219,329.981Z" transform="translate(-153.07 -326.994)" fill="#ea7b59"/>
        <path id="Path_21862" data-name="Path 21862" d="M160.874,330.78c.139-.51.477-.849.757-.759s.4.576.259,1.085-.476.85-.757.761S160.737,331.289,160.874,330.78Z" transform="translate(-156.402 -327.006)" fill="#4f3131"/>
        <path id="Path_21863" data-name="Path 21863" d="M159.932,324.743c.376-.257,2.151.814,2.522,1.155s.161.748-.134,1.121-2.737-.081-3-.933A1.522,1.522,0,0,1,159.932,324.743Z" transform="translate(-155.677 -324.478)" fill="#591d32"/>
        <path id="Path_21864" data-name="Path 21864" d="M154.99,325.639c-.46.573-2.072.347-2.18-.023-.112-.389-.148-.8.273-.989s2.1-.55,2.253-.225A1.6,1.6,0,0,1,154.99,325.639Z" transform="translate(-152.549 -324.272)" fill="#591d32"/>
        <path id="Path_21865" data-name="Path 21865" d="M154.834,342.2c.026-.092.323-.1.662-.023s.593.217.566.309-.323.1-.662.024S154.808,342.295,154.834,342.2Z" transform="translate(-153.549 -332.783)" fill="#ea7b59"/>
        <path id="Path_21866" data-name="Path 21866" d="M156.436,340.6c.025-.109.038-.176.038-.176a6.9,6.9,0,0,1-4.094-.183,1.725,1.725,0,0,1,.04.228C153.473,340.906,155.762,341.053,156.436,340.6Z" transform="translate(-152.38 -331.885)" fill="#ea7b59"/>
      </g>
      <path id="Path_21867" data-name="Path 21867" d="M163.178,324.339l-.435-.238c-1.6-1.51-7.452-3.933-8.711-4.226-.4-.093-.842.351-1.3,1.135l-1.188-.069a15.345,15.345,0,0,0-.936,4.168c5.907-.083,11.306,2.327,14.339,4.008l-.261-.428,1.1.349a2.843,2.843,0,0,0-.259-3.419Z" transform="translate(-43.838 -9.713)" fill="#ffa271" opacity="0.6" style="mix-blend-mode: multiply;isolation: isolate"/>
      <path id="Path_21868" data-name="Path 21868" d="M146.629,312.821c-1.8.491-2.105,3.4,2.181,5.395,1.41-1.429,6.029.184,11.494,2.472C160.3,320.687,151.56,311.476,146.629,312.821Z" transform="translate(-41.345 -6.292)" fill="#34688c"/>
      <path id="Path_21869" data-name="Path 21869" d="M146.439,313.283c3.848-1.049,10.018,4.33,12.542,6.743.447.182.9.367,1.358.559,0,0-8.669-9.324-13.6-7.979a1.878,1.878,0,0,0-1.285,1.388A1.666,1.666,0,0,1,146.439,313.283Z" transform="translate(-41.38 -6.19)" fill="#6ba1bf"/>
      <path id="Path_21870" data-name="Path 21870" d="M77.327,423.177a2.331,2.331,0,1,0,2.331-2.331A2.331,2.331,0,0,0,77.327,423.177Z" transform="translate(-8.903 -57.852)" fill="#563a48"/>
      <path id="Path_21871" data-name="Path 21871" d="M79.015,423.981a1.447,1.447,0,1,0,1.447-1.447A1.448,1.448,0,0,0,79.015,423.981Z" transform="translate(-9.708 -58.657)" fill="#f7deb0"/>
      <path id="Path_21872" data-name="Path 21872" d="M80.462,423.361a1.442,1.442,0,0,1,1.38,1.034,1.425,1.425,0,0,0,.068-.413,1.447,1.447,0,0,0-2.895,0,1.424,1.424,0,0,0,.068.413A1.442,1.442,0,0,1,80.462,423.361Z" transform="translate(-9.708 -58.657)" fill="#e2bc7f"/>
      <path id="Path_21873" data-name="Path 21873" d="M80.91,424.885a.456.456,0,1,0,.456-.456A.456.456,0,0,0,80.91,424.885Z" transform="translate(-10.611 -59.56)" fill="#563a48"/>
      <g id="Group_11271" data-name="Group 11271" transform="translate(81.582 300.988)">
        <path id="Path_21874" data-name="Path 21874" d="M104.576,311.04v-8.647a.144.144,0,0,0-.091-.038h-2.015v8.685Z" transform="translate(-102.471 -302.355)" fill="#fff1dc"/>
        <path id="Path_21875" data-name="Path 21875" d="M102.471,329.772v17.834c0,1.17.219,2.118.489,2.118h1.128c.27,0,.489-.948.489-2.118V329.772Z" transform="translate(-102.471 -315.425)" fill="#fff1dc"/>
      </g>
      <g id="Group_11272" data-name="Group 11272" transform="translate(59.101 312.567)">
        <path id="Path_21876" data-name="Path 21876" d="M60.413,333.167v-8.647c-.013-.024-.026-.038-.039-.038h-.863v8.686Z" transform="translate(-59.511 -324.481)" fill="#f7deb0"/>
        <path id="Path_21877" data-name="Path 21877" d="M59.511,351.9v17.834a5.538,5.538,0,0,0,.209,2.118H60.2a5.538,5.538,0,0,0,.209-2.118V351.9Z" transform="translate(-59.511 -337.551)" fill="#f7deb0"/>
      </g>
      <rect id="Rectangle_2309" data-name="Rectangle 2309" width="4.812" height="7.068" transform="translate(74.813 332.656)" fill="#e85454"/>
      <path id="Path_21878" data-name="Path 21878" d="M94.252,362.871H92.525l-.946,7.068h1.727Z" transform="translate(-15.697 -30.215)" fill="#ff6161"/>
      <path id="Path_21879" data-name="Path 21879" d="M91.687,371.144a1.283,1.283,0,1,0,1.28-1.362A1.323,1.323,0,0,0,91.687,371.144Z" transform="translate(-15.748 -33.51)" fill="#563a48"/>
      <rect id="Rectangle_2310" data-name="Rectangle 2310" width="3.684" height="2.331" transform="translate(75.377 333.182)" fill="#563a48"/>
      <path id="Path_21880" data-name="Path 21880" d="M92.234,371.422a1,1,0,1,0,.994-1.058A1.027,1.027,0,0,0,92.234,371.422Z" transform="translate(-16.009 -33.787)" fill="#f7deb0"/>
      <rect id="Rectangle_2311" data-name="Rectangle 2311" width="3.162" height="1.88" transform="translate(75.638 333.408)" fill="#83c4dd"/>
      <path id="Path_21881" data-name="Path 21881" d="M83.532,299.488H61.137a2.479,2.479,0,0,0-2.475,2.367,2.469,2.469,0,0,1,1.573-.563H82.63a2.481,2.481,0,0,1,2.481,2.481v45.9c0,.038,0,.076-.006.114a2.475,2.475,0,0,0,.908-1.918v-45.9A2.481,2.481,0,0,0,83.532,299.488Z" transform="translate(-0.005 0)" fill="#fce6c3"/>
      <g id="Group_11273" data-name="Group 11273" transform="translate(81.581 335.95)">
        <path id="Path_21882" data-name="Path 21882" d="M119.3,378.225l-.97,6.09a2.5,2.5,0,0,1,.264-.049,5.869,5.869,0,0,0,4.936-3.918l.131-.406S120.559,379.741,119.3,378.225Z" transform="translate(-110.032 -373.484)" fill="#ffce55"/>
        <path id="Path_21883" data-name="Path 21883" d="M116.476,375.3c-.255-.342-.448-1.215-.838-2.061-.85-1.843-2-4.067-2.357-4.076a1.147,1.147,0,0,0-1.033.868c-.02.321,1.307,3.588.913,3.787-.657.331-2.091-.349-2.409-.165-.7.406.02,4.077.343,5.055s2.88,1.815,4.714.949C116.466,379.35,116.476,375.3,116.476,375.3Z" transform="translate(-106.276 -369.166)" fill="#ffce55"/>
        <path id="Path_21884" data-name="Path 21884" d="M108.961,376.58a16.932,16.932,0,0,1-2.6-.611,10.477,10.477,0,0,0-2.21-1.223c-.24.077-.993.6-.7.976a10.845,10.845,0,0,0,2.7,1.727,17.007,17.007,0,0,0,2.278.627C108.6,378.006,109.5,376.694,108.961,376.58Z" transform="translate(-102.906 -371.824)" fill="#ffce55"/>
        <path id="Path_21885" data-name="Path 21885" d="M108.292,381.131a17.114,17.114,0,0,1-2.717-.244,10.27,10.27,0,0,0-2.388-.927c-.241.113-.969.758-.627,1.1a10.567,10.567,0,0,0,2.945,1.366,17.176,17.176,0,0,0,2.388.3C108.054,382.63,108.849,381.168,108.292,381.131Z" transform="translate(-102.47 -374.306)" fill="#ffce55"/>
        <path id="Path_21886" data-name="Path 21886" d="M111.661,385.957a16.948,16.948,0,0,1-2.748.158,10.125,10.125,0,0,0-2.517-.588c-.226.151-.867.919-.477,1.216a10.432,10.432,0,0,0,3.133.951,16.948,16.948,0,0,0,2.428-.051C111.628,387.521,112.222,385.912,111.661,385.957Z" transform="translate(-104.056 -376.954)" fill="#ffce55"/>
      </g>
    </g>
  </g>
</svg>
