<svg xmlns="http://www.w3.org/2000/svg" xmlns:xlink="http://www.w3.org/1999/xlink" width="107.204" height="105.959" viewBox="0 0 107.204 105.959">
  <defs>
    <clipPath id="clip-path">
      <path id="Path_1472" data-name="Path 1472" d="M71.4,217.286a7.478,7.478,0,0,1,3.069-7.531c5.177-3.718,15.051-1.035,18.534,3.013,0,0,2.306,2.353,2.165,4.895Z" transform="translate(-71.268 -207.984)" fill="#454380"/>
    </clipPath>
  </defs>
  <g id="Group_11496" data-name="Group 11496" transform="translate(-12900.305 -10570.778)">
    <g id="Group_281" data-name="Group 281" transform="translate(12900.305 10570.778)">
      <g id="Group_240" data-name="Group 240" transform="translate(14.268 0)">
        <g id="Group_235" data-name="Group 235" transform="translate(50.177)">
          <g id="Group_233" data-name="Group 233">
            <g id="Group_230" data-name="Group 230" transform="translate(2.137 2.303)" opacity="0.63" style="mix-blend-mode: multiply;isolation: isolate">
              <g id="Group_229" data-name="Group 229">
                <path id="Path_1420" data-name="Path 1420" d="M286.956,84.509h31.717V49.47H286.956Z" transform="translate(-286.956 -49.47)" fill="#d3d3d3"/>
              </g>
            </g>
            <rect id="Rectangle_27" data-name="Rectangle 27" width="32.89" height="36.326" transform="translate(1.017 1.074)" fill="#fff"/>
            <g id="Group_232" data-name="Group 232">
              <g id="Group_231" data-name="Group 231">
                <path id="Path_1421" data-name="Path 1421" d="M317.241,82.945H282.317V44.472h34.924ZM283.92,81.229h31.717V46.189H283.92Z" transform="translate(-282.317 -44.472)" fill="#a2a0e6"/>
              </g>
            </g>
            <rect id="Rectangle_28" data-name="Rectangle 28" width="23.669" height="26.654" transform="translate(5.614 5.707)" fill="#ffce91"/>
          </g>
          <g id="Group_234" data-name="Group 234" transform="translate(7.937 8.371)">
            <circle id="Ellipse_38" data-name="Ellipse 38" cx="3.637" cy="3.637" r="3.637" fill="#f7a742"/>
            <circle id="Ellipse_39" data-name="Ellipse 39" cx="6.822" cy="6.822" r="6.822" transform="translate(6.206 7.688)" fill="#f7a742"/>
            <rect id="Rectangle_29" data-name="Rectangle 29" width="3.263" height="5.423" transform="translate(10.665 5.072) rotate(-90)" fill="#f8e5c9"/>
          </g>
        </g>
        <g id="Group_239" data-name="Group 239" transform="translate(0 11.682)">
          <g id="Group_238" data-name="Group 238" transform="translate(0 0)">
            <g id="Group_236" data-name="Group 236" transform="translate(27.727 6.526)">
              <path id="Path_1422" data-name="Path 1422" d="M150.766,62.556c0-2.17-1.83-3.567-4.087-3.567s-4.087,1.4-4.087,3.567a3.9,3.9,0,0,0,1.96,3.356h4.253A3.9,3.9,0,0,0,150.766,62.556Z" transform="translate(-142.593 -58.989)" fill="#2d2d2d"/>
            </g>
            <g id="Group_237" data-name="Group 237" transform="translate(0 13.412)">
              <rect id="Rectangle_30" data-name="Rectangle 30" width="42.917" height="2.119" fill="#fff"/>
            </g>
            <rect id="Rectangle_31" data-name="Rectangle 31" width="2.653" height="13.355" rx="0.878" transform="translate(5.864)" fill="#ff6f92"/>
            <rect id="Rectangle_32" data-name="Rectangle 32" width="2.653" height="13.355" rx="0.878" transform="translate(8.96)" fill="#ff6f92"/>
            <rect id="Rectangle_33" data-name="Rectangle 33" width="2.653" height="13.355" rx="0.878" transform="translate(11.992)" fill="#2d2d2d"/>
            <path id="Path_1423" data-name="Path 1423" d="M122.949,57.154,121.3,58.181a.36.36,0,0,1-.512-.148l-5.81-10.865a.423.423,0,0,1,.137-.553l1.648-1.027a.36.36,0,0,1,.512.148l5.81,10.865A.423.423,0,0,1,122.949,57.154Z" transform="translate(-99.949 -45.207)" fill="#ff6f92"/>
            <path id="Path_1424" data-name="Path 1424" d="M130.928,57.154l-1.648,1.028a.36.36,0,0,1-.512-.148l-5.81-10.865a.423.423,0,0,1,.137-.553l1.648-1.027a.36.36,0,0,1,.512.148l5.81,10.865A.423.423,0,0,1,130.928,57.154Z" transform="translate(-104.251 -45.207)" fill="#ff6f92"/>
          </g>
          <rect id="Rectangle_34" data-name="Rectangle 34" width="1.771" height="1.904" transform="translate(6.286 1.68)" fill="#fff"/>
          <rect id="Rectangle_35" data-name="Rectangle 35" width="1.771" height="0.489" transform="translate(9.401 11.798)" fill="#fff"/>
          <rect id="Rectangle_36" data-name="Rectangle 36" width="1.771" height="0.489" transform="translate(9.401 10.619)" fill="#fff"/>
        </g>
      </g>
      <g id="Group_280" data-name="Group 280" transform="translate(0 33.274)">
        <g id="Group_250" data-name="Group 250" transform="translate(31.167 23.362)">
          <g id="Group_244" data-name="Group 244" transform="translate(24.311 6.253)">
            <g id="Group_243" data-name="Group 243" transform="translate(7.138 31.397)">
              <path id="Path_1425" data-name="Path 1425" d="M210.755,219.247,209.9,213.1l4.422-.839.963,7.663-3.337.706Z" transform="translate(-209.429 -212.263)" fill="#f9b8b2"/>
              <g id="Group_242" data-name="Group 242" transform="translate(0 6.167)">
                <g id="Group_241" data-name="Group 241">
                  <path id="Path_1426" data-name="Path 1426" d="M209.865,226.717s3.331,1.346,4.879-.818l6.611,4.115-12.5,0Z" transform="translate(-208.855 -225.899)" fill="#09183d"/>
                  <path id="Path_1427" data-name="Path 1427" d="M221.362,236.086l-12.5,0-.007-1.094,12.5.005Z" transform="translate(-208.855 -230.876)" fill="#fff"/>
                  <path id="Path_1428" data-name="Path 1428" d="M221.333,228.106a.226.226,0,0,0,.093-.071A4.656,4.656,0,0,1,222.471,227a.208.208,0,0,0,.061-.3.235.235,0,0,0-.313-.058,5,5,0,0,0-1.16,1.137.208.208,0,0,0,.052.3A.235.235,0,0,0,221.333,228.106Z" transform="translate(-215.516 -226.29)" fill="#fff"/>
                  <path id="Path_1429" data-name="Path 1429" d="M223.767,229.305a.222.222,0,0,0,.093-.071,4.664,4.664,0,0,1,1.045-1.032.208.208,0,0,0,.06-.3.234.234,0,0,0-.312-.058,4.99,4.99,0,0,0-1.16,1.137.208.208,0,0,0,.052.3A.236.236,0,0,0,223.767,229.305Z" transform="translate(-216.85 -226.946)" fill="#fff"/>
                  <path id="Path_1430" data-name="Path 1430" d="M226.2,230.5a.223.223,0,0,0,.093-.071,4.675,4.675,0,0,1,1.045-1.032.208.208,0,0,0,.061-.3.235.235,0,0,0-.313-.058,5,5,0,0,0-1.16,1.137.208.208,0,0,0,.052.3A.234.234,0,0,0,226.2,230.5Z" transform="translate(-218.183 -227.603)" fill="#fff"/>
                </g>
              </g>
            </g>
            <path id="Path_1431" data-name="Path 1431" d="M201.659,142.846s5.342,18.714,5.585,34.189l-8.871,1.577s-.96-16.128-5.01-29.614l-.292-6.152Z" transform="translate(-193.072 -142.846)" fill="#f7a742"/>
          </g>
          <g id="Group_249" data-name="Group 249" transform="translate(0)">
            <g id="Group_247" data-name="Group 247" transform="translate(0 33.434)">
              <path id="Path_1432" data-name="Path 1432" d="M147.946,208.064l3.5-5.123,3.838,2.35-4.437,6.322-2.946-1.719Z" transform="translate(-144.021 -202.941)" fill="#f9b8b2"/>
              <g id="Group_246" data-name="Group 246" transform="translate(0 4.911)">
                <g id="Group_245" data-name="Group 245">
                  <path id="Path_1433" data-name="Path 1433" d="M143.9,213.8s1.562,3.236,4.162,2.673l2.13,7.491-9.253-8.4Z" transform="translate(-140.206 -213.8)" fill="#09183d"/>
                  <path id="Path_1434" data-name="Path 1434" d="M148.575,226.909l-9.253-8.4.73-.815,9.253,8.4Z" transform="translate(-139.322 -215.931)" fill="#fff"/>
                  <path id="Path_1435" data-name="Path 1435" d="M153.678,221.945a.226.226,0,0,0,.117.009,4.662,4.662,0,0,1,1.467-.062.208.208,0,0,0,.245-.18.235.235,0,0,0-.192-.253,5,5,0,0,0-1.623.063.208.208,0,0,0-.163.256A.236.236,0,0,0,153.678,221.945Z" transform="translate(-147.1 -217.975)" fill="#fff"/>
                  <path id="Path_1436" data-name="Path 1436" d="M154.675,224.469a.226.226,0,0,0,.117.009,4.654,4.654,0,0,1,1.467-.061.208.208,0,0,0,.245-.18.234.234,0,0,0-.192-.253,5,5,0,0,0-1.623.063.208.208,0,0,0-.163.256A.236.236,0,0,0,154.675,224.469Z" transform="translate(-147.646 -219.358)" fill="#fff"/>
                  <path id="Path_1437" data-name="Path 1437" d="M155.672,226.993a.226.226,0,0,0,.117.009,4.662,4.662,0,0,1,1.467-.061.208.208,0,0,0,.245-.18.234.234,0,0,0-.192-.253,5,5,0,0,0-1.623.063.208.208,0,0,0-.163.256A.236.236,0,0,0,155.672,226.993Z" transform="translate(-148.192 -220.74)" fill="#fff"/>
                </g>
              </g>
            </g>
            <g id="Group_248" data-name="Group 248" transform="translate(4.394)">
              <path id="Path_1438" data-name="Path 1438" d="M171.3,141.783s-3.5,12.778-14.793,26.411l-7.469-4.856s6.971-9.807,8.923-15.739,3.135-14.439,10.7-18.579l8.88,6.253Z" transform="translate(-149.036 -129.02)" fill="#f7a742"/>
              <line id="Line_1" data-name="Line 1" y1="1.966" x2="4.054" transform="translate(21.186 13.965)" fill="none" stroke="#de8420" stroke-miterlimit="10" stroke-width="0.704"/>
            </g>
          </g>
        </g>
        <g id="Group_257" data-name="Group 257" transform="translate(52.851 10.699)">
          <g id="Group_255" data-name="Group 255" transform="translate(17.67 8.942)">
            <g id="Group_251" data-name="Group 251">
              <path id="Path_1439" data-name="Path 1439" d="M232.928,134.288l-.846,8.459c-.093,1.3-.863,2.251-2.161,2.121h0a2.316,2.316,0,0,1-2.086-2.285l-.046-8.553Z" transform="translate(-227.13 -128.043)" fill="#f9b8b2"/>
              <path id="Path_1440" data-name="Path 1440" d="M232.966,129.1l.611-4.669a3.386,3.386,0,0,0-2.893-3.6h0a3.222,3.222,0,0,0-3.689,2.924l-.664,5.193Z" transform="translate(-226.331 -120.792)" fill="#fff"/>
            </g>
            <g id="Group_254" data-name="Group 254" transform="translate(0.76 12.605)">
              <path id="Path_1441" data-name="Path 1441" d="M230.451,148.679h0a2.23,2.23,0,0,0-2.43,2.442l2.684,10.948,3.049-.081L232.2,150.76A1.965,1.965,0,0,0,230.451,148.679Z" transform="translate(-228.011 -148.661)" fill="#f9b8b2"/>
              <g id="Group_252" data-name="Group 252" transform="translate(2.058 11.487)">
                <path id="Path_1442" data-name="Path 1442" d="M232.585,176.3a2.585,2.585,0,1,1,2.216,2.908A2.585,2.585,0,0,1,232.585,176.3Z" transform="translate(-232.561 -174.058)" fill="#f9b8b2"/>
                <path id="Path_1443" data-name="Path 1443" d="M240.314,178.686s1.07.5,1.354-.831a3,3,0,0,0-2.626-3.745Z" transform="translate(-236.111 -174.087)" fill="#f9b8b2"/>
              </g>
              <g id="Group_253" data-name="Group 253" transform="translate(2.058 11.487)">
                <path id="Path_1444" data-name="Path 1444" d="M232.585,176.3a2.585,2.585,0,1,1,2.216,2.908A2.585,2.585,0,0,1,232.585,176.3Z" transform="translate(-232.561 -174.058)" fill="#f9b8b2"/>
                <path id="Path_1445" data-name="Path 1445" d="M240.314,178.686s1.07.5,1.354-.831a3,3,0,0,0-2.626-3.745Z" transform="translate(-236.111 -174.087)" fill="#f9b8b2"/>
              </g>
            </g>
          </g>
          <g id="Group_256" data-name="Group 256">
            <path id="Path_1446" data-name="Path 1446" d="M196.689,105.519l4.531-4.5,2.033,1.521,6.361,6.652.99.7.932,1.429a.671.671,0,0,1-.355,1l-1.6.519c-1.242,1.615-3.275,3.975-5.733,4.732l-4.506,5.4s-11.743.446-12.079-7.914Z" transform="translate(-187.264 -101.022)" fill="#fff"/>
            <path id="Path_1447" data-name="Path 1447" d="M226.627,132.4s1.861-.476,3.819-3.382" transform="translate(-208.824 -116.357)" fill="none" stroke="#dcdcdc" stroke-miterlimit="10" stroke-width="0.704"/>
          </g>
        </g>
        <g id="Group_264" data-name="Group 264" transform="translate(68.84)">
          <g id="Group_260" data-name="Group 260" transform="translate(8.115)">
            <path id="Path_1448" data-name="Path 1448" d="M240.983,78.8a2.966,2.966,0,1,0,4.072-1.01A2.966,2.966,0,0,0,240.983,78.8Z" transform="translate(-240.557 -77.367)" fill="#452c14"/>
            <g id="Group_259" data-name="Group 259" transform="translate(0.185 3.159)">
              <path id="Path_1449" data-name="Path 1449" d="M246.115,88.143s.07-1.812-2.537-1.843-2.612,2.045-2.612,2.045Z" transform="translate(-240.966 -85.419)" fill="#fc4c77"/>
              <g id="Group_258" data-name="Group 258" transform="translate(1.99)">
                <path id="Path_1450" data-name="Path 1450" d="M250.052,87.533a2.7,2.7,0,0,1,2.28.211S250.44,89,249.7,87.839Z" transform="translate(-247.737 -86.009)" fill="#ff6f92"/>
                <path id="Path_1451" data-name="Path 1451" d="M247.077,85.644s.037-.614-1.7-1.293c0,0-.23,2.045,1.622,1.68h0" transform="translate(-245.366 -84.351)" fill="#ff6f92"/>
                <path id="Path_1452" data-name="Path 1452" d="M248.941,87.213a.408.408,0,1,0,.489-.306A.408.408,0,0,0,248.941,87.213Z" transform="translate(-247.318 -85.745)" fill="#ff6f92"/>
              </g>
            </g>
          </g>
          <g id="Group_261" data-name="Group 261" transform="translate(5.633 4.869)">
            <path id="Path_1453" data-name="Path 1453" d="M236.149,90.231c-1.637,2.267-1.447,5.747.82,7.385s5.184.264,7.39-1.455c2.34-1.823,1.127-5.433-1.14-7.071A5.065,5.065,0,0,0,236.149,90.231Z" transform="translate(-235.07 -88.132)" fill="#452c14"/>
          </g>
          <path id="Path_1454" data-name="Path 1454" d="M233.84,106.442l-2.155,1.69a1.616,1.616,0,0,1-2.488-.358h0c-.584-.756-1.436-1.32-.758-1.993l4.46-3.087Z" transform="translate(-225.669 -91.238)" fill="#f9b8b2"/>
          <path id="Path_1455" data-name="Path 1455" d="M236.4,109.005l-.265-4.2,2.322,2.595Z" transform="translate(-230.021 -92.395)" fill="#ea948f"/>
          <path id="Path_1456" data-name="Path 1456" d="M237.218,101.957h0a3.463,3.463,0,0,0,4.638.28l2.594-2.541a3.6,3.6,0,0,0,.135-5h0a3.918,3.918,0,0,0-5.317-.546L237.2,96.212A4.1,4.1,0,0,0,237.218,101.957Z" transform="translate(-229.967 -86.114)" fill="#f9b8b2"/>
          <g id="Group_262" data-name="Group 262" transform="translate(9.403 10.621)">
            <path id="Path_1457" data-name="Path 1457" d="M246.068,108.929l-.406.533-.377-.325" transform="translate(-244.435 -105.275)" fill="none" stroke="#1f120a" stroke-linecap="round" stroke-linejoin="round" stroke-width="0.552"/>
            <path id="Path_1458" data-name="Path 1458" d="M246.256,101.265s.651.511.421.77c0,0-.161.171-.718-.285s-.658-.623-.555-.829S245.972,101,246.256,101.265Z" transform="translate(-244.48 -100.85)" fill="#1f120a"/>
            <path id="Path_1459" data-name="Path 1459" d="M251.6,106.425s-.449-.517-.711-.317c0,0-.174.139.228.582s.6.517.76.426C252.059,107.011,251.832,106.649,251.6,106.425Z" transform="translate(-247.483 -103.705)" fill="#1f120a"/>
            <path id="Path_1460" data-name="Path 1460" d="M249.093,108.66a.311.311,0,1,0,.44,0A.311.311,0,0,0,249.093,108.66Z" transform="translate(-246.47 -105.079)" fill="#1f120a"/>
            <path id="Path_1461" data-name="Path 1461" d="M244.928,104.476a.329.329,0,1,0,.465,0A.329.329,0,0,0,244.928,104.476Z" transform="translate(-244.186 -102.785)" fill="#1f120a"/>
            <line id="Line_2" data-name="Line 2" x1="0.267" y1="0.272" transform="translate(0 4.281)" fill="none" stroke="#1f120a" stroke-linecap="round" stroke-linejoin="round" stroke-width="0.552"/>
          </g>
          <line id="Line_3" data-name="Line 3" x2="3.246" y2="2.351" transform="translate(2.771 14.542)" fill="#f9b8b2"/>
          <path id="Path_1462" data-name="Path 1462" d="M241.357,94.64s1.623-1.98,2.926-1.844,2.4,3.081,4.033,3.247a3.974,3.974,0,0,0-.721-3.508,10.9,10.9,0,0,0-3.851-2.1l-1.958.011-.6,2.506Z" transform="translate(-232.785 -84.522)" fill="#452c14"/>
          <g id="Group_263" data-name="Group 263" transform="translate(6.059 8.017)">
            <path id="Path_1463" data-name="Path 1463" d="M236.421,95.482a1.365,1.365,0,1,0,1.93.019A1.365,1.365,0,0,0,236.421,95.482Z" transform="translate(-236.012 -95.092)" fill="#f9b8b2"/>
            <path id="Path_1464" data-name="Path 1464" d="M239.045,97.965a.794.794,0,0,0-.067-1.259" transform="translate(-237.636 -95.976)" fill="none" stroke="#1f120a" stroke-linecap="round" stroke-linejoin="round" stroke-width="0.507"/>
          </g>
          <path id="Path_1465" data-name="Path 1465" d="M227.717,108.475a16.2,16.2,0,0,1,2.249,3.267s-3.886.2-7.35-7.356A30.005,30.005,0,0,1,227.717,108.475Z" transform="translate(-222.616 -92.166)" fill="#f9b8b2"/>
        </g>
        <g id="Group_279" data-name="Group 279" transform="translate(0 6.465)">
          <g id="Group_273" data-name="Group 273" transform="translate(0 3.883)">
            <g id="Group_267" data-name="Group 267" transform="translate(23.121)">
              <g id="Group_266" data-name="Group 266" transform="translate(21.992 4.827)">
                <line id="Line_4" data-name="Line 4" x1="54.255" y1="55.753" fill="none" stroke="#2d2d2d" stroke-miterlimit="10" stroke-width="2.818"/>
                <g id="Group_265" data-name="Group 265" transform="translate(43.455 55.236)">
                  <path id="Path_1466" data-name="Path 1466" d="M274.668,233.043h-6.456a1.978,1.978,0,0,0-1.978,1.978h10.1C276.331,233.929,275.761,233.043,274.668,233.043Z" transform="translate(-266.235 -233.043)" fill="#2d2d2d"/>
                  <path id="Path_1467" data-name="Path 1467" d="M289.162,233.043h-9.5a1.978,1.978,0,0,0-1.978,1.978h13.457A1.978,1.978,0,0,0,289.162,233.043Z" transform="translate(-272.506 -233.043)" fill="#515151"/>
                </g>
              </g>
              <path id="Path_1468" data-name="Path 1468" d="M144.053,105.616S135,94.957,127.961,103.672c-5.171,6.4-1.328,18.342.962,26.982,2.382,8.987,6.012,20.255-7.391,24.934" transform="translate(-121.532 -100.246)" fill="none" stroke="#2d2d2d" stroke-miterlimit="10" stroke-width="1.409"/>
            </g>
            <g id="Group_272" data-name="Group 272" transform="translate(0 48.729)">
              <g id="Group_270" data-name="Group 270">
                <path id="Path_1469" data-name="Path 1469" d="M119.17,219.68l1.838-.608,1.149,2.743-1.955.68Z" transform="translate(-97.117 -214.057)" fill="#6b69b3"/>
                <rect id="Rectangle_37" data-name="Rectangle 37" width="25.039" height="1.318" transform="translate(0 9.302)" fill="#fff"/>
                <g id="Group_269" data-name="Group 269" transform="translate(0.388)">
                  <path id="Path_1470" data-name="Path 1470" d="M71.4,217.286a7.478,7.478,0,0,1,3.069-7.531c5.177-3.718,15.051-1.035,18.534,3.013,0,0,2.306,2.353,2.165,4.895Z" transform="translate(-71.268 -207.984)" fill="#454380"/>
                  <g id="Group_268" data-name="Group 268" clip-path="url(#clip-path)">
                    <path id="Path_1471" data-name="Path 1471" d="M85.1,207.552s-3,4.018,3.141,4.31,13.367,0,13.367,0S93.792,205.945,85.1,207.552Z" transform="translate(-78.443 -207.596)" fill="#6b69b3"/>
                  </g>
                </g>
              </g>
              <g id="Group_271" data-name="Group 271" transform="translate(2.124 6.4)">
                <circle id="Ellipse_40" data-name="Ellipse 40" cx="3.501" cy="3.501" r="3.501" fill="#2d2d2d"/>
                <path id="Path_1473" data-name="Path 1473" d="M115.112,229.171a2.468,2.468,0,1,1-2.468-2.468A2.468,2.468,0,0,1,115.112,229.171Z" transform="translate(-94.315 -224.636)" fill="#2d2d2d"/>
              </g>
            </g>
          </g>
          <g id="Group_278" data-name="Group 278" transform="translate(47.679)">
            <g id="Group_275" data-name="Group 275" transform="translate(3.264)">
              <path id="Path_1474" data-name="Path 1474" d="M192.088,99.766,184.433,96.1a2.317,2.317,0,0,1-1.166-3.111h0a2.316,2.316,0,0,1,2.851-1.2l8.075,2.82Z" transform="translate(-183.045 -91.662)" fill="#f9b8b2"/>
              <g id="Group_274" data-name="Group 274" transform="translate(8.283 1.538)">
                <path id="Path_1475" data-name="Path 1475" d="M201.358,101.262l4.195,2.14a3.387,3.387,0,0,0,4.362-1.52h0a3.223,3.223,0,0,0-1.52-4.456l-4.671-2.365Z" transform="translate(-201.358 -95.062)" fill="#fff"/>
                <line id="Line_5" data-name="Line 5" x2="2.955" y2="1.324" transform="translate(2.673 7.575)" fill="none" stroke="#dcdcdc" stroke-miterlimit="10" stroke-width="0.704"/>
              </g>
            </g>
            <g id="Group_277" data-name="Group 277" transform="translate(0 0.184)">
              <path id="Path_1476" data-name="Path 1476" d="M184.07,92.138h0a2.144,2.144,0,0,0-2.678,2.033l-1.353,10.853,2.74.575,2.879-11.081A2.144,2.144,0,0,0,184.07,92.138Z" transform="translate(-178.135 -92.069)" fill="#f9b8b2"/>
              <g id="Group_276" data-name="Group 276" transform="translate(0 11.939)">
                <path id="Path_1477" data-name="Path 1477" d="M175.946,121.833a2.585,2.585,0,1,1,3.235,1.7A2.585,2.585,0,0,1,175.946,121.833Z" transform="translate(-175.83 -118.474)" fill="#f9b8b2"/>
                <path id="Path_1478" data-name="Path 1478" d="M182.935,122.2s1.179,0,.877-1.325a3,3,0,0,0-3.959-2.29Z" transform="translate(-178.033 -118.466)" fill="#f9b8b2"/>
              </g>
            </g>
          </g>
        </g>
      </g>
    </g>
  </g>
</svg>
