<svg id="Iconly_Bold_Edit" data-name="Iconly/Bold/Edit" xmlns="http://www.w3.org/2000/svg" width="10" height="10" viewBox="0 0 10 10">
  <g id="Edit" transform="translate(0 0)">
    <path id="Edit-2" data-name="Edit" d="M6.267,10a.569.569,0,0,1,0-1.137H9.439a.569.569,0,0,1,0,1.137Zm-5.8-.236L.029,7.848a1.184,1.184,0,0,1,.224-1L3.714,2.371a.174.174,0,0,1,.236-.03L5.406,3.5a.47.47,0,0,0,.36.1.525.525,0,0,0,.454-.58.585.585,0,0,0-.183-.353L4.622,1.535a.21.21,0,0,1-.036-.292L5.134.532A1.436,1.436,0,0,1,7.239.389l.82.651a1.7,1.7,0,0,1,.637.974,1.334,1.334,0,0,1-.271,1.135L3.543,9.46a1.17,1.17,0,0,1-.908.454L.689,9.938A.222.222,0,0,1,.471,9.765Z" fill="#fff"/>
  </g>
</svg>
