<svg xmlns="http://www.w3.org/2000/svg" width="78.722" height="28.535" viewBox="0 0 78.722 28.535">
  <g id="minisplit-svgrepo-com" transform="translate(0 -43.413)">
    <g id="Group_11745" data-name="Group 11745" transform="translate(0 43.413)">
      <path id="Path_24187" data-name="Path 24187" d="M7.38,72.592h3.1s.376-1.624.843-3.628,4.148-3.628,8.223-3.628H60.132c4.076,0,7.608,1.625,7.889,3.628l.507,3.628h2.814a7.381,7.381,0,0,0,7.38-7.38V51.437a7.361,7.361,0,0,0-5.447-7.093,8.788,8.788,0,0,1,.281,2.171v2.952A8.865,8.865,0,0,1,64.7,58.323H14.022a8.865,8.865,0,0,1-8.856-8.856V46.515a8.773,8.773,0,0,1,.28-2.171A7.361,7.361,0,0,0,0,51.437V65.212A7.38,7.38,0,0,0,7.38,72.592Z" transform="translate(0 -44.056)" fill="#3f1651"/>
      <path id="Path_24188" data-name="Path 24188" d="M32.189,54.729H82.863a5.909,5.909,0,0,0,5.9-5.9V45.874a5.817,5.817,0,0,0-.553-2.461H26.838a5.835,5.835,0,0,0-.553,2.461v2.952A5.911,5.911,0,0,0,32.189,54.729Zm-2.929-8.7H84.978a.738.738,0,1,1,0,1.476H29.26a.738.738,0,0,1,0-1.476Zm0,4.613H84.978a.738.738,0,1,1,0,1.476H29.26a.738.738,0,1,1,0-1.476Z" transform="translate(-18.167 -43.413)" fill="#3f1651"/>
      <path id="Path_24189" data-name="Path 24189" d="M94.685,120.992c-.216-1.494-3.7-2.705-7.773-2.705H50.26c-4.075,0-7.6,1.211-7.871,2.705L41.9,123.7h53.18Z" transform="translate(-28.957 -95.163)" fill="#3f1651"/>
    </g>
  </g>
</svg>
