<svg id="Iconly_Bold_Logout" data-name="Iconly/Bold/Logout" xmlns="http://www.w3.org/2000/svg" width="13.815" height="13.297" viewBox="0 0 13.815 13.297">
  <g id="Logout">
    <path id="Logout-2" data-name="Logout" d="M3,13.3a2.98,2.98,0,0,1-3-2.952V2.958A2.987,2.987,0,0,1,3.01,0h3.3a2.978,2.978,0,0,1,3,2.952V6.137H5.249a.512.512,0,1,0,0,1.024H9.308v3.178A2.987,2.987,0,0,1,6.3,13.3ZM11,8.942a.514.514,0,0,1,0-.725L12.06,7.161H9.308V6.137H12.06L11,5.079a.514.514,0,0,1,0-.725.508.508,0,0,1,.725-.007l1.942,1.934a.51.51,0,0,1,.153.366.493.493,0,0,1-.153.359L11.721,8.942a.506.506,0,0,1-.725,0Z" fill="#9c3587"/>
  </g>
</svg>
