<svg id="Iconly_Bold_Chat" data-name="Iconly/Bold/Chat" xmlns="http://www.w3.org/2000/svg" width="8.416" height="8.416" viewBox="0 0 8.416 8.416">
  <g id="Chat">
    <path id="Chat-2" data-name="Chat" d="M4.208,8.416a4.189,4.189,0,0,1-2.07-.548.925.925,0,0,0-.466-.178.511.511,0,0,0-.161.027l-.85.253a.317.317,0,0,1-.1.015.261.261,0,0,1-.21-.1.272.272,0,0,1-.04-.243L.6,6.7a.44.44,0,0,0-.03-.379A4.446,4.446,0,0,1,0,4.214,4.274,4.274,0,0,1,1.191,1.276,4.161,4.161,0,0,1,4.216,0a4.151,4.151,0,0,1,3,1.26A4.232,4.232,0,0,1,8.1,2.6a4.161,4.161,0,0,1,.32,1.6,4.266,4.266,0,0,1-.364,1.755,4.039,4.039,0,0,1-.957,1.327A4.311,4.311,0,0,1,4.208,8.416ZM6.139,3.679a.539.539,0,1,0,.539.539A.54.54,0,0,0,6.139,3.679Zm-1.948,0a.533.533,0,0,0-.53.535A.539.539,0,1,0,4.2,3.679H4.191Zm-1.932,0a.539.539,0,1,0,.539.539A.54.54,0,0,0,2.26,3.679Z" fill="#653780"/>
  </g>
</svg>
