<svg xmlns="http://www.w3.org/2000/svg" width="63.451" height="23" viewBox="0 0 63.451 23">
  <g id="minisplit-svgrepo-com" transform="translate(0 -43.413)">
    <g id="Group_11745" data-name="Group 11745" transform="translate(0 43.413)">
      <path id="Path_24187" data-name="Path 24187" d="M5.949,67.112h2.5s.3-1.309.68-2.924,3.343-2.924,6.628-2.924H48.468c3.285,0,6.132,1.31,6.359,2.924l.409,2.924H57.5a5.949,5.949,0,0,0,5.949-5.948v-11.1a5.934,5.934,0,0,0-4.39-5.717,7.083,7.083,0,0,1,.227,1.75v2.379a7.145,7.145,0,0,1-7.138,7.138H11.3a7.145,7.145,0,0,1-7.138-7.138V46.094a7.071,7.071,0,0,1,.226-1.75A5.933,5.933,0,0,0,0,50.061v11.1A5.948,5.948,0,0,0,5.949,67.112Z" transform="translate(0 -44.112)" fill="#653780"/>
      <path id="Path_24188" data-name="Path 24188" d="M31.044,52.534H71.888a4.763,4.763,0,0,0,4.759-4.759V45.4a4.688,4.688,0,0,0-.446-1.983H26.731a4.7,4.7,0,0,0-.446,1.983v2.379A4.764,4.764,0,0,0,31.044,52.534ZM28.683,45.52h44.91a.595.595,0,1,1,0,1.19H28.683a.595.595,0,0,1,0-1.19Zm0,3.718h44.91a.595.595,0,1,1,0,1.19H28.683a.595.595,0,1,1,0-1.19Z" transform="translate(-19.742 -43.413)" fill="#653780"/>
      <path id="Path_24189" data-name="Path 24189" d="M84.445,120.468c-.174-1.2-2.979-2.181-6.265-2.181H48.638c-3.284,0-6.126.976-6.345,2.181l-.4,2.181H84.761Z" transform="translate(-31.467 -99.648)" fill="#653780"/>
    </g>
  </g>
</svg>
