<svg xmlns="http://www.w3.org/2000/svg" width="105.659" height="106.142" viewBox="0 0 105.659 106.142">
  <g id="Group_11981" data-name="Group 11981" transform="translate(-62 -621.879)">
    <g id="Group_6978" data-name="Group 6978" transform="translate(62 621.879)">
      <path id="Path_8062" data-name="Path 8062" d="M436.208,347.226c.492-1.308,2.511-2.928,3.549-3.874,2.073,1.5,4.829,2.6,6.567,4.507l-.219,9.132c-.524.23-2.986-1.244-3.812-1.675a14.134,14.134,0,0,1-4.512-3.943C436.978,350.273,435.751,348.441,436.208,347.226Z" transform="translate(-395.613 -313.68)" fill="#e07f4f"/>
      <g id="Group_6929" data-name="Group 6929" transform="translate(31.972 24.402)">
        <path id="Path_8063" data-name="Path 8063" d="M373.956,307.649c.471,3.842,3.059,7.169,6.136,9.627a24.676,24.676,0,0,0,2.128,1.52l.2.128c.95.594,1.58,1.331,2.543.991a9.055,9.055,0,0,0,2.456-1.843c.238-.218.5-.473.757-.757,1.068-1.159,2.193-2.787,2.236-4.22a6.178,6.178,0,0,0,.082-.669c-.3-.379-.638-.783-.992-1.2-2.17-2.556-5.106-5.581-6.789-6.3Z" transform="translate(-373.956 -304.925)" fill="#f89f5b"/>
        <path id="Path_8064" data-name="Path 8064" d="M434.212,358.447l.2.128c.95.594,1.58,1.331,2.543.991a9.056,9.056,0,0,0,2.456-1.843c.238-.217.5-.473.757-.757,1.068-1.159,2.193-2.787,2.236-4.22a6.179,6.179,0,0,0,.082-.669c-.3-.379-.638-.783-.992-1.2a15.3,15.3,0,0,1-3.482,5.76c-.123.112-.259.239-.4.373a7.182,7.182,0,0,1-2.053,1.47A2.275,2.275,0,0,1,434.212,358.447Z" transform="translate(-425.948 -344.576)" fill="#e53f71"/>
        <path id="Path_8065" data-name="Path 8065" d="M418.7,371.1a24.691,24.691,0,0,0,2.128,1.52l.2.128c.95.594,1.58,1.331,2.543.991a9.056,9.056,0,0,0,2.456-1.843c.238-.217.5-.473.757-.757a5.293,5.293,0,0,1-2.559.044,3.6,3.6,0,0,1-1.066-.452,11.393,11.393,0,0,1-1.777-1.714c-.6-.622-1.786-1.686-2.4-1.713Z" transform="translate(-412.562 -358.753)" fill="#c7dde5" opacity="0.7" style="mix-blend-mode: multiply;isolation: isolate"/>
      </g>
      <path id="Path_8066" data-name="Path 8066" d="M465.636,302.517c.06.244.111.493.154.741.15.848.22,1.7.316,2.39a57.3,57.3,0,0,1,.471,5.757c.148,3.844,1.046,6.737,4.152,9.522,1.115,1,2.3.926,3.049-.185a2.71,2.71,0,0,0,.143-.243,19.9,19.9,0,0,0,1.072-3.021c.847-2.421-1.568-6.36-2.609-8.694a67.7,67.7,0,0,0-3.771-6.42Z" transform="translate(-421.09 -278.314)" fill="#ffa471"/>
      <g id="Group_6936" data-name="Group 6936" transform="translate(12.87 12.36)">
        <g id="Group_6930" data-name="Group 6930" transform="translate(15.283 11.613)">
          <path id="Path_8067" data-name="Path 8067" d="M346.611,301.94c-.1.129-.182.495-.356.37-.105-.076-.124-.337-.15-.506Z" transform="translate(-346.106 -301.804)" fill="#7f7f82"/>
          <path id="Path_8068" data-name="Path 8068" d="M352.032,303.4c-.1.129-.182.495-.356.37-.105-.076-.124-.338-.15-.506Z" transform="translate(-350.783 -303.062)" fill="#7f7f82"/>
          <path id="Path_8069" data-name="Path 8069" d="M357.452,304.856c-.1.129-.182.495-.356.37-.105-.076-.124-.338-.15-.506Z" transform="translate(-355.459 -304.32)" fill="#7f7f82"/>
          <path id="Path_8070" data-name="Path 8070" d="M362.872,306.314c-.1.129-.182.495-.355.37-.105-.076-.125-.338-.15-.506Z" transform="translate(-360.136 -305.578)" fill="#7f7f82"/>
          <path id="Path_8071" data-name="Path 8071" d="M368.292,307.772c-.1.129-.182.5-.355.37-.105-.076-.124-.337-.15-.506Z" transform="translate(-364.813 -306.836)" fill="#7f7f82"/>
        </g>
        <g id="Group_6931" data-name="Group 6931" transform="translate(16.037 8.413)">
          <path id="Path_8072" data-name="Path 8072" d="M373.289,284.7c.1-.129.182-.5.355-.37.105.076.124.337.15.506Z" transform="translate(-370.315 -283.5)" fill="#7f7f82"/>
          <path id="Path_8073" data-name="Path 8073" d="M367.869,283.237c.1-.129.182-.495.355-.37.105.076.124.338.15.506Z" transform="translate(-365.639 -282.241)" fill="#7f7f82"/>
          <path id="Path_8074" data-name="Path 8074" d="M362.448,281.779c.1-.129.182-.495.356-.37.105.076.125.338.15.506Z" transform="translate(-360.961 -280.983)" fill="#7f7f82"/>
          <path id="Path_8075" data-name="Path 8075" d="M357.028,280.321c.1-.129.182-.495.356-.37.105.076.124.338.15.506Z" transform="translate(-356.285 -279.725)" fill="#7f7f82"/>
          <path id="Path_8076" data-name="Path 8076" d="M351.608,278.863c.1-.129.182-.495.356-.37.105.076.124.338.15.506Z" transform="translate(-351.608 -278.467)" fill="#7f7f82"/>
        </g>
        <g id="Group_6932" data-name="Group 6932" transform="translate(6.223 6.435)">
          <path id="Path_8077" data-name="Path 8077" d="M294.116,268.9a1.477,1.477,0,0,0-1.043-1.81L281.946,264.1a1.477,1.477,0,0,0-1.81,1.043l-.038.143a1.477,1.477,0,0,0,1.043,1.81l11.127,2.993a1.477,1.477,0,0,0,1.81-1.043Z" transform="translate(-280.046 -264.048)" fill="#706f74"/>
          <path id="Path_8078" data-name="Path 8078" d="M315.174,276.612a1.063,1.063,0,0,0-.75-1.3l-8.007-2.154a1.063,1.063,0,0,0-1.3.75l-.028.1a1.063,1.063,0,0,0,.75,1.3l8.007,2.154a1.063,1.063,0,0,0,1.3-.75Z" transform="translate(-301.621 -271.875)" fill="#7f7f82"/>
        </g>
        <g id="Group_6933" data-name="Group 6933" transform="translate(11.504 7.106)">
          <rect id="Rectangle_2247" data-name="Rectangle 2247" width="4.649" height="2.118" transform="translate(0.475 4.736) rotate(-74.941)" fill="#706f74"/>
          <path id="Path_8079" data-name="Path 8079" d="M320.691,269.642a.559.559,0,0,0-.394-.685h0a.559.559,0,0,0-.685.395l-1.039,3.864a.559.559,0,0,0,.395.685h0a.559.559,0,0,0,.685-.395Z" transform="translate(-318.552 -268.938)" fill="#8f8e91"/>
          <path id="Path_8080" data-name="Path 8080" d="M337.264,274.1a.559.559,0,0,0-.395-.685h0a.559.559,0,0,0-.685.395l-1.04,3.864a.559.559,0,0,0,.395.685h0a.559.559,0,0,0,.685-.395Z" transform="translate(-332.853 -272.785)" fill="#8f8e91"/>
        </g>
        <path id="Path_8081" data-name="Path 8081" d="M242.408,226.836l.826-3.069a24.328,24.328,0,0,1-4.562-1.467c-.073-.037-.138-.074-.2-.109a1.033,1.033,0,0,1-.267-.211c-.687-.871.781-3.222.66-4.306a.569.569,0,0,0-.267-.462.772.772,0,0,0-.612-.046,1.824,1.824,0,0,0-.32.126,7.291,7.291,0,0,0-1.891,1.658,4.779,4.779,0,0,0-1.018,3.934,3.569,3.569,0,0,0,2.564,2.7C238.491,225.956,240.85,226.508,242.408,226.836Z" transform="translate(-234.671 -217.125)" fill="#706f74"/>
        <g id="Group_6934" data-name="Group 6934" transform="translate(2.188 5.35)">
          <path id="Path_8082" data-name="Path 8082" d="M259.218,261.2l-7.5-2.017a1.477,1.477,0,0,1-1.043-1.81l.038-.143a1.477,1.477,0,0,1,1.81-1.043l7.5,2.017Z" transform="translate(-250.627 -256.134)" fill="#706f74"/>
          <path id="Path_8083" data-name="Path 8083" d="M262.672,263.7l-7.386-1.987a1.063,1.063,0,0,1-.75-1.3l.028-.1a1.063,1.063,0,0,1,1.3-.75l7.386,1.987Z" transform="translate(-253.968 -259.055)" fill="#7f7f82"/>
        </g>
        <path id="Path_8084" data-name="Path 8084" d="M248.941,224.473l.556-.7a27.111,27.111,0,0,1-4.929-1.469c-.073-.037-.139-.074-.2-.109a.913.913,0,0,0-.249-1.208l.792-2.945q.013-.155.032-.309l-.183-.055a.569.569,0,0,0-.267-.462.772.772,0,0,0-.612-.046,1.824,1.824,0,0,0-.321.126,7.328,7.328,0,0,0-1.4,2.126c-.362.825-.907,1.933-.523,2.847a2.182,2.182,0,0,0,1.576,1.306C244.021,223.788,248.8,224.427,248.941,224.473Z" transform="translate(-240.569 -217.125)" fill="#5d5d5d" opacity="0.3" style="mix-blend-mode: multiply;isolation: isolate"/>
        <path id="Path_8085" data-name="Path 8085" d="M287.387,227.987l-1.32,5.129a14.206,14.206,0,0,0-1.393-.832,5.984,5.984,0,0,1-.9-.851,12.571,12.571,0,0,1,1.271-4.046Z" transform="translate(-277.027 -225.98)" fill="#8f8e91"/>
        <path id="Path_8086" data-name="Path 8086" d="M250.048,222.191a.913.913,0,0,0-.249-1.208l.871-3.24-.047-.014-.183-.055a.569.569,0,0,0-.267-.462.772.772,0,0,0-.612-.046c-.482,1.424-1.419,4.195-1.438,4.266a1.155,1.155,0,0,0,2.121.868C250.173,222.263,250.107,222.226,250.048,222.191Z" transform="translate(-246.245 -217.125)" fill="#605f63"/>
        <path id="Path_8087" data-name="Path 8087" d="M314.348,240.387c.333-1.24-1.977-2.39-3.811-2.823-.37-.074-26.4-7.524-28.279-8.03h0l-.027-.006-1.267,4.711-1.193-.321a5.343,5.343,0,0,1-.212.557s-.821,2.717-.26,3.916a2.4,2.4,0,0,0,1.167.949c1.462.694,3.738.959,4.053.15.494-1.269,1.168-4.007,1.168-4.007l3.164.815s-.82,1.577-.275,1.815c.724.316,2.1-1.2,3.062-1.3,4.009-.424,13.455,2.67,18.061,3.879.308.066.785.169,1.318.255C312.377,241.165,314.109,241.278,314.348,240.387Zm-1.415-.528c-.085.318-.679.434-1.327.26s-1.1-.573-1.017-.89.68-.434,1.327-.26S313.019,239.541,312.933,239.859Z" transform="translate(-273.008 -227.827)" fill="#ea521c"/>
        <path id="Path_8088" data-name="Path 8088" d="M314.348,240.387c.333-1.24-1.977-2.39-3.811-2.823-.37-.074-26.4-7.524-28.279-8.03h0l-.027-.006-1.267,4.711-1.193-.321a5.343,5.343,0,0,1-.212.557s-.821,2.717-.26,3.916a2.4,2.4,0,0,0,1.167.949c.007-.109.015-.215.024-.317a3.237,3.237,0,0,1,.048-.354,7.844,7.844,0,0,1,.656-2.017,5.414,5.414,0,0,1,3.394-2.581c3.389-1.235,6.656-.808,10.143-.174a37.779,37.779,0,0,1,11.513,4.032c1.355.762,2.8,1.641,4.205,2.614q.285.2.567.4C312.377,241.165,314.109,241.278,314.348,240.387Zm-3.759-1.159c.086-.318.68-.434,1.327-.26s1.1.573,1.017.891-.679.434-1.327.26S310.5,239.546,310.589,239.228Z" transform="translate(-273.008 -227.827)" fill="#ea521c" opacity="0.5" style="mix-blend-mode: multiply;isolation: isolate"/>
        <path id="Path_8089" data-name="Path 8089" d="M251.833,224.083a.911.911,0,0,0-.347-.976l.871-3.24-.047-.014-.183-.055-.7-.211s-1.336,3.947-1.356,4.023a.912.912,0,1,0,1.762.474Z" transform="translate(-247.932 -219.249)" fill="#7f7f82"/>
        <path id="Path_8090" data-name="Path 8090" d="M312.8,238.287c.125-.463.036-1.178-1.095-1.956a8.965,8.965,0,0,0-2.639-1.155c-.1-.026-.2-.051-.293-.074h-.008l-.072-.019c-.838-.225-7.385-2.092-13.717-3.9-6.658-1.9-13.543-3.86-14.473-4.111l-.043-.01-.273-.058-1.264,4.7-1.191-.32-.078.28a4.909,4.909,0,0,1-.2.517l-.008.017-.005.018c-.035.116-.847,2.84-.245,4.126.422.9,2.016,1.392,2.494,1.521a6.369,6.369,0,0,0,1.945.241c.893-.053,1.211-.4,1.32-.68.405-1.041.919-3.013,1.108-3.755l2.531.653a2.545,2.545,0,0,0-.29,1.541.577.577,0,0,0,.316.348.791.791,0,0,0,.111.039c.523.141,1.133-.251,1.779-.666a3.822,3.822,0,0,1,1.322-.654c2.475-.262,7.161.892,10.471,1.782,1.436.386,2.872.8,4.138,1.156,1.076.307,2.093.6,2.955.828l.391.1.013,0,.038.008a17.21,17.21,0,0,0,2.655.4C311.84,239.272,312.615,238.962,312.8,238.287Zm-.568-.153c-.131.488-1.127.515-1.709.488a13.782,13.782,0,0,1-1.908-.254c-.253-.049-.475-.1-.651-.134l-.032-.007-.381-.1c-.858-.231-1.873-.52-2.947-.826-1.269-.361-2.707-.771-4.147-1.159-3.355-.9-8.113-2.071-10.686-1.8a4.124,4.124,0,0,0-1.578.744c-.486.312-1.037.666-1.308.593l-.022-.007c-.012-.028-.067-.2.124-.74a5.939,5.939,0,0,1,.289-.672l.17-.328-3.81-.982-.071.289c-.007.027-.676,2.734-1.157,3.971-.132.338-1.194.453-2.565.085a6.321,6.321,0,0,1-1.19-.445,2.02,2.02,0,0,1-.924-.757c-.418-.893.048-2.949.27-3.689.02-.045.073-.168.125-.3l1.212.326,1.268-4.711c1.569.435,7.987,2.265,14.208,4.038,6.625,1.888,12.884,3.672,13.726,3.9l.1.026c.09.021.181.044.272.069a8.347,8.347,0,0,1,2.458,1.072C311.836,237.137,312.365,237.627,312.228,238.134Z" transform="translate(-271.172 -225.65)" fill="#ffbb4d"/>
        <g id="Group_6935" data-name="Group 6935" transform="translate(6.832 4.626)" opacity="0.6" style="mix-blend-mode: color-dodge;isolation: isolate">
          <path id="Path_8091" data-name="Path 8091" d="M288.294,257.386c-.654.531-1.873.059-2.566-.2a1.7,1.7,0,0,1-1.234-1.93,4.547,4.547,0,0,1,.452-1.752,7.512,7.512,0,0,0-.036,1.514c.094.975.51,1.286,1.489,1.5.752.163,1.675.34,2.119-.406s1.409-4.47,1.777-5.252C290.188,251.152,289.25,256.608,288.294,257.386Z" transform="translate(-284.486 -250.855)" fill="#ffbb4d"/>
        </g>
      </g>
      <path id="Path_8092" data-name="Path 8092" d="M266.258,280.712c.008.023.015.045.023.068a17.988,17.988,0,0,1,.665,3.29,10.584,10.584,0,0,0,2.191,5.79q.311.384.619.781.233.3.463.608c.283.38.56.768.829,1.164a19.291,19.291,0,0,1,2.737,5.591q.124.448.215.9c.386,1.942-.724,7.409-.665,8.238a8.992,8.992,0,0,0,1.667.565c.791.2,1.6.338,2.4.48s1.586.272,2.383.381a30.236,30.236,0,0,0,4.961.326,15.026,15.026,0,0,0,4.767-.828,10.9,10.9,0,0,0,1.069-.458c-.334-1.153-2.408-15.066-.776-17.675,2.755-4.4,3.15-8.7,2.243-10.173a6.263,6.263,0,0,0-2.239-1.871c-.5-.278-1.032-.558-1.549-.827-1.643-.854-3.157-1.59-3.247-1.728l-7.44-1.644c-.6,1.313-3.624,2.966-4.871,3.464-.069.027-.141.058-.216.091-.343.152-.754.361-1.2.6-.5.272-1.047.585-1.6.906h0c-1.168.68-2.354,1.394-3.151,1.813C266.435,280.624,266.343,280.67,266.258,280.712Z" transform="translate(-249.056 -253.575)" fill="#f89f5b"/>
      <g id="Group_6937" data-name="Group 6937" transform="translate(33.252 17.655)">
        <path id="Path_8093" data-name="Path 8093" d="M383.385,256.047l-.1.055a3.667,3.667,0,0,1,1.778-.094A1.361,1.361,0,0,0,383.385,256.047Z" transform="translate(-383.284 -255.734)" fill="#e07f4f"/>
        <path id="Path_8094" data-name="Path 8094" d="M396.252,257.732l-.006,0,0,0C396.267,257.746,396.267,257.745,396.252,257.732Z" transform="translate(-394.468 -257.456)" fill="#ffa471"/>
      </g>
      <g id="Group_6947" data-name="Group 6947" transform="translate(22.187)">
        <g id="Group_6938" data-name="Group 6938" transform="translate(5.027 14.985)">
          <path id="Path_8095" data-name="Path 8095" d="M348.52,243.354a49.362,49.362,0,0,1-2,4.9l-.317-.287a9.055,9.055,0,0,0-.92-.772c-.1.04-.744.5-1.486,1.048l-.121.09-.142-.161c-.848-.969-1.805-2.193-2.619-3.243-.723-.933-1.334-1.73-1.653-2.091.119-.231.283-.592.459-1.031.114-.282.233-.6.349-.927a12.527,12.527,0,0,0,.757-3.285,1.749,1.749,0,0,0-.341-1.331l.876.195.864.192,5.542,1.231a6.9,6.9,0,0,0-.277,4.28A1.821,1.821,0,0,0,348.52,243.354Z" transform="translate(-339.263 -236.266)" fill="#ffa471"/>
          <path id="Path_8096" data-name="Path 8096" d="M349.984,246.2c-.2.75-.286,2.394-.892,2.989a9.051,9.051,0,0,0-.92-.772c-.1.04-.744.5-1.486,1.048q-.136-.031-.263-.071c-.848-.969-1.805-2.193-2.619-3.243-.448-1.04-.807-2.143-1.195-3.121.114-.282.233-.6.349-.927a12.528,12.528,0,0,0,.757-3.285l.536-1.137.864.192c0,1.873-.329,3.916.224,5.745C345.934,245.592,347.737,248.415,349.984,246.2Z" transform="translate(-342.15 -237.49)" fill="#e07f4f"/>
        </g>
        <g id="Group_6946" data-name="Group 6946" transform="translate(0)">
          <path id="Path_8097" data-name="Path 8097" d="M308.737,172.1c-.219.4-5.763,4.259-6.114,6.731-.2,1.439,1.82.843,2.525.621a40.734,40.734,0,0,0,4.488-2.12Z" transform="translate(-302.608 -165.912)" fill="#21597c"/>
          <g id="Group_6939" data-name="Group 6939" transform="translate(14.455 9.688)">
            <path id="Path_8098" data-name="Path 8098" d="M408.007,198.848c.463-1.207,1.271-1.507,1.693-.909a3.255,3.255,0,0,1,.324,1.829c-.01.531-.447,1.617-.985,1.609-.421-.007-.629-.524-.837-.953Z" transform="translate(-408.007 -197.641)" fill="#e07f4f"/>
            <path id="Path_8099" data-name="Path 8099" d="M409.02,202.159c.136-.887,1.6-1.826,1.556-.328l-.031.005c-.044-1.242-1.64-.215-1.1.948.713-.106.654.816.148.644A1.353,1.353,0,0,1,409.02,202.159Z" transform="translate(-408.873 -200.576)" fill="#c15f33"/>
          </g>
          <path id="Path_8100" data-name="Path 8100" d="M342,158.259a2.445,2.445,0,0,1-.371.98,5.181,5.181,0,0,1-3.214,1.264,8.132,8.132,0,0,1-3.905-1.263c-2.325-1.385-1.962-4.163-2.36-6.394-.228-1.284-.4-1.81-.695-3.05v-.005c-.04-.165-.106-.408-.177-.684a7.29,7.29,0,0,1-.309-1.763,9.937,9.937,0,0,1,1.568-1.794,11.738,11.738,0,0,1,2.175-1.511,13.277,13.277,0,0,1,3.571-1.159c1.029-.14,3.178,2.152,3.178,2.152C343.288,147.473,342.688,155.425,342,158.259Z" transform="translate(-327.079 -140.697)" fill="#ffa471"/>
          <path id="Path_8101" data-name="Path 8101" d="M356.383,184.7c-1.36.1-1.31,2.376-1.339,2.866,0,0,2.233-.619,2.463-.188C357.483,187.261,357.682,184.6,356.383,184.7Z" transform="translate(-347.853 -176.786)" fill="#e07f4f"/>
          <path id="Path_8102" data-name="Path 8102" d="M357.251,198.85a1,1,0,0,0-.641-.286,1.055,1.055,0,0,0-.514,0c-1.245.52-1.354,1.635.346,1.527.428-.027,1-.187,1.105-.686C357.6,199.166,357.4,199.008,357.251,198.85Z" transform="translate(-347.955 -188.722)" fill="#fff"/>
          <g id="Group_6940" data-name="Group 6940" transform="translate(7.658 9.713)">
            <path id="Path_8103" data-name="Path 8103" d="M359.475,198.693c-.034.461-.29.818-.572.8s-.483-.411-.45-.872.29-.818.572-.8S359.509,198.232,359.475,198.693Z" transform="translate(-358.45 -197.82)" fill="#2d140d"/>
            <path id="Path_8104" data-name="Path 8104" d="M360.284,202.966c-.008.11-.076.2-.153.189s-.131-.1-.123-.209.076-.2.153-.189S360.292,202.856,360.284,202.966Z" transform="translate(-359.794 -202.079)" fill="#fff"/>
          </g>
          <path id="Path_8105" data-name="Path 8105" d="M354.836,180.264c-.014.138-.087.254-.094.379,0-.01-.071-.291-.095-.394-.251.153-1.006.615-1.032.638-.167.146-.12.879-.12.879a3.728,3.728,0,0,1,2.486-.715c.067-.352.186-.74.289-1.085A2.816,2.816,0,0,0,354.836,180.264Z" transform="translate(-346.511 -172.697)" fill="#562818"/>
          <path id="Path_8106" data-name="Path 8106" d="M393.651,176.987c.049.13.148.224.187.343,0-.009-.005-.3-.008-.4.282.084,1.315.383,1.345.4.167.105.153.774.153.774a3.728,3.728,0,0,0-2.586-.062c-.154-.323-.368-.669-.554-.976A2.816,2.816,0,0,1,393.651,176.987Z" transform="translate(-379.902 -170.076)" fill="#562818"/>
          <path id="Path_8107" data-name="Path 8107" d="M358.046,203.482l-.177-.235c-.307,1.209-1.58.835-2.208.592a1.79,1.79,0,0,0,1.659.516,1.731,1.731,0,0,0,.61-.32A.5.5,0,0,0,358.046,203.482Z" transform="translate(-348.385 -192.79)" fill="#e07f4f"/>
          <path id="Path_8108" data-name="Path 8108" d="M342,174.44a2.445,2.445,0,0,1-.371.98,5.181,5.181,0,0,1-3.214,1.264,8.133,8.133,0,0,1-3.905-1.263c-2.325-1.385-1.962-4.163-2.36-6.394-.228-1.284-.4-1.81-.695-3.05v-.005c-.04-.165-.106-.408-.177-.684a7.29,7.29,0,0,1-.309-1.763,9.935,9.935,0,0,1,1.568-1.794l2.888-.1a15.179,15.179,0,0,0-1.712,6.319c-.031,1.175,1.4,1.159,1.769,2.288.249.761-.925,3.583-.351,4.131a4.862,4.862,0,0,0,1.271.84c.528.242.577.144,1.059-.121a1.8,1.8,0,0,1,2.368.5,16.387,16.387,0,0,0,1.77-.842A3.951,3.951,0,0,0,342,174.44Z" transform="translate(-327.079 -156.878)" fill="#e07f4f"/>
          <path id="Path_8109" data-name="Path 8109" d="M357.544,197.45l-.026.007c-.532-1.235-1.821-1.023-2.474-.051C355.341,195.617,357.417,195.7,357.544,197.45Z" transform="translate(-347.853 -186.624)" fill="#2d140d"/>
          <path id="Path_8110" data-name="Path 8110" d="M396.623,185.39c1.363.041,1.417,2.314,1.468,2.8,0,0-2.259-.517-2.469-.076C395.64,188,395.321,185.352,396.623,185.39Z" transform="translate(-382.847 -177.382)" fill="#e07f4f"/>
          <path id="Path_8111" data-name="Path 8111" d="M396.436,199.484a1,1,0,0,1,.627-.315,1.053,1.053,0,0,1,.514-.019c1.268.462,1.427,1.572-.276,1.541-.429-.008-1.009-.142-1.135-.635C396.1,199.815,396.291,199.649,396.436,199.484Z" transform="translate(-383.323 -189.232)" fill="#fff"/>
          <g id="Group_6941" data-name="Group 6941" transform="translate(13.311 9.819)">
            <path id="Path_8112" data-name="Path 8112" d="M399.667,199.426c0,.462.224.839.507.841s.514-.372.517-.834-.224-.839-.507-.84S399.67,198.963,399.667,199.426Z" transform="translate(-399.667 -198.592)" fill="#2d140d"/>
            <path id="Path_8113" data-name="Path 8113" d="M404.1,203.338c0,.11.061.2.137.2s.139-.089.14-.2-.061-.2-.137-.2S404.1,203.228,404.1,203.338Z" transform="translate(-403.489 -202.515)" fill="#fff"/>
          </g>
          <path id="Path_8114" data-name="Path 8114" d="M395.605,204.46l.166-.243c.361,1.194,1.617.762,2.232.49a1.789,1.789,0,0,1-1.633.592,1.73,1.73,0,0,1-.624-.292A.5.5,0,0,1,395.605,204.46Z" transform="translate(-382.832 -193.627)" fill="#e07f4f"/>
          <path id="Path_8115" data-name="Path 8115" d="M395.564,198.139l.026.006c.476-1.258,1.772-1.105,2.47-.164C397.682,196.208,395.611,196.386,395.564,198.139Z" transform="translate(-382.815 -187.171)" fill="#2d140d"/>
          <path id="Path_8116" data-name="Path 8116" d="M343.148,154.61a1.187,1.187,0,0,0-.547-.876c-1.095-.547-3.023-2.144-4.258-2.05-1.117.085-1.641,1.8-2.65,2.293a13.757,13.757,0,0,0-1.619.84c-.259.172-.667.63-.855.7L332,156.2a9.3,9.3,0,0,1,.245,1.161,11.581,11.581,0,0,0,.346,1.2c.132.39.2.8.31,1.188.051.176.091.348.145.518.073.23.066.318.31.34.2.019.674,0,.881-.007-.216-1.454.16-3.828,1.544-4.734.678-.444,1.006-.263,1.772-.467a12.841,12.841,0,0,1,2.86-.393,4.293,4.293,0,0,1,2.9.645C343.416,155.368,343.213,154.888,343.148,154.61Z" transform="translate(-327.97 -148.295)" fill="#562818"/>
          <path id="Path_8117" data-name="Path 8117" d="M330.627,129.937c-.755,2.067-.717,4.675-.241,5.154a48.39,48.39,0,0,0,11.065-1.835C340.125,124.21,331.8,126.739,330.627,129.937Zm4.3,3.3a2.1,2.1,0,0,1,1.764-2.415,1.951,1.951,0,0,1,1.661.586,2.485,2.485,0,0,1,.565,1.256Z" transform="translate(-326.279 -127)" fill="#2a6c9e"/>
          <g id="Group_6943" data-name="Group 6943" transform="translate(7.386 5.668)">
            <g id="Group_6942" data-name="Group 6942">
              <path id="Path_8118" data-name="Path 8118" d="M369.26,182.2c.027,0,.054-.007.079-.012Z" transform="translate(-367.505 -180.283)" fill="#1d5577"/>
              <path id="Path_8119" data-name="Path 8119" d="M361.712,168.325c-.7.077-3.868.541-3.868.541-.426.078-1.607.284-1.344.985.21.561,1.237.459,1.717.387-.488.055-1.24-.255-.72-.735C357.857,169.173,360.738,168.7,361.712,168.325Z" transform="translate(-356.462 -168.325)" fill="#1d5577"/>
            </g>
          </g>
          <path id="Path_8120" data-name="Path 8120" d="M350.342,210.549c-.277-.111-2.27,1.554-5.686.793-1.143-.255-3.589-1.6-3.65-2.954l-.675.966c-.315,1.546-.7,4.262.234,5.655a10.342,10.342,0,0,0,4.776,3.228c1.423.381,3.7-.728,4.542-2.427C350.943,213.684,350.346,211.463,350.342,210.549Z" transform="translate(-334.852 -197.226)" fill="#562818"/>
          <path id="Path_8121" data-name="Path 8121" d="M364.655,232.236c-.478-.415-.984-.022-1.406.273a3.794,3.794,0,0,1-3.386.206c-.559-.165-1.084-.65-1.671-.69s-1.027,1.02-.539,1.511c0,0,3.621,4.024,6.925.063A.977.977,0,0,0,364.655,232.236Z" transform="translate(-349.925 -217.621)" fill="#ffa471"/>
          <g id="Group_6944" data-name="Group 6944" transform="translate(10.391 10.148)">
            <path id="Path_8122" data-name="Path 8122" d="M380.258,200.994c-.451,1.049.286,3.558-.35,3.651a3.835,3.835,0,0,0-1.532.457,1.823,1.823,0,0,0,2.289,0C380.952,204.84,380.123,202.275,380.258,200.994Z" transform="translate(-378.376 -200.994)" fill="#e07f4f"/>
          </g>
          <path id="Path_8123" data-name="Path 8123" d="M383.262,249.858a13.064,13.064,0,0,0-.484-1.22,2.011,2.011,0,0,1-.462.032,4.861,4.861,0,0,1-.351,1.309Z" transform="translate(-371.082 -231.956)" fill="#562818"/>
          <path id="Path_8124" data-name="Path 8124" d="M365.367,233.748a1.654,1.654,0,0,1-.4.461q-.129.06-.255.112a.317.317,0,0,1-.05,0l.02.01c-1.811.752-3.052.454-4.84-.234l.009,0-.028,0-.119-.046a1.383,1.383,0,0,1-.47-.622,1.012,1.012,0,0,0-.427.891c.166-.286.345-.338.577-.268.457.353,2.637,2.619,4,1.309a2.393,2.393,0,0,1-2.238-.435,4.352,4.352,0,0,0,3.809-.537c.336-.1.559-.072.71.306A1.012,1.012,0,0,0,365.367,233.748Z" transform="translate(-351.097 -218.829)" fill="#e07f4f"/>
          <g id="Group_6945" data-name="Group 6945" transform="translate(3.391 10.206)">
            <path id="Path_8125" data-name="Path 8125" d="M329.831,202.741c-.418-1.355-1.79-1.636-2.249-1a2.493,2.493,0,0,0-.133,1.853c.1.53.847,1.58,1.553,1.529.553-.04.744-.574.948-1.018A7.091,7.091,0,0,0,329.831,202.741Z" transform="translate(-327.336 -201.415)" fill="#e07f4f"/>
            <path id="Path_8126" data-name="Path 8126" d="M332.066,205.742c-.32-.875-2.4-1.7-2.1-.2l.041,0c-.141-1.244,2.123-.346,1.6.859-.955-.049-.73.867-.092.655A1.142,1.142,0,0,0,332.066,205.742Z" transform="translate(-329.58 -204.261)" fill="#c15f33"/>
          </g>
        </g>
      </g>
      <path id="Path_8127" data-name="Path 8127" d="M339.9,275.717c-.1.042-.816.55-1.606,1.138a26.294,26.294,0,0,0-2.174,1.738,14.822,14.822,0,0,0-1.291-4.156,12.546,12.546,0,0,0-1.805-2.562,22.344,22.344,0,0,0,1.7-2.555C335.642,270.587,339.9,275.717,339.9,275.717Z" transform="translate(-306.666 -249.801)" fill="#fff"/>
      <path id="Path_8128" data-name="Path 8128" d="M387.279,280.585c-.61.76-1.032,4.96-1.146,6.27-.306-.318-1.057-1.026-1.729-1.638a13.486,13.486,0,0,0-1.238-1.059,30.31,30.31,0,0,1,2.208-5.033l.017-.024C385.764,279.905,386.677,279.912,387.279,280.585Z" transform="translate(-349.93 -258.242)" fill="#fff"/>
      <g id="Group_6950" data-name="Group 6950" transform="translate(42.525 18.777)">
        <g id="Group_6949" data-name="Group 6949" transform="translate(0)">
          <path id="Path_8129" data-name="Path 8129" d="M460.117,264.885c.431-1.243,1.613-1.4,1.56.135.609-1.217,1.474-.689,1.025.523.194-.357.525-.936.961-.742.476.211.415.977.285,1.355.234-.209.513-.516.772-.363.573.34.219,1.056.14,1.51l-.261.513c-.287.7-.871.04-.957-.411-.388,1.085-.979-.23-.95-.769-.172.368-.305.975-.842.676-.323-.18-.437-.995-.478-1.292-.287.24-.758.758-1.135.505C459.833,266.254,459.98,265.279,460.117,264.885Z" transform="translate(-458.73 -263.909)" fill="#ffa471"/>
          <g id="Group_6948" data-name="Group 6948" transform="translate(0 1.254)">
            <path id="Path_8130" data-name="Path 8130" d="M468.344,311.081l.012-.02C468.364,311.108,468.361,311.122,468.344,311.081Z" transform="translate(-465.952 -305.848)" fill="#ffa471"/>
            <path id="Path_8131" data-name="Path 8131" d="M450.92,275.965c.084-.265.35-2.486.445-2.706.4-.925,1.234,1.514,1.262,1.933,1.275-.025,2.567,2.426,1.858,3l-1.178.074C453.284,278.125,450.67,276.759,450.92,275.965Z" transform="translate(-450.903 -273.052)" fill="#ffa471"/>
          </g>
        </g>
      </g>
      <path id="Path_8132" data-name="Path 8132" d="M466.762,308.885c.15.848.22,1.7.316,2.39a57.279,57.279,0,0,1,.471,5.757c.148,3.844.69,6.905,3.8,9.69a2.227,2.227,0,0,0,3.4-.353,2.714,2.714,0,0,0,.143-.243.676.676,0,0,1-.512-.251c-.292-.375.056-1.047-.032-1.488-1.565,2.359-3.433-.847-4.233-2.406a17.759,17.759,0,0,1-1.717-6.664C468.213,313.445,467.72,310.105,466.762,308.885Z" transform="translate(-422.062 -283.94)" fill="#e07f4f"/>
      <g id="Group_6964" data-name="Group 6964" transform="translate(21.797 23.49)">
        <g id="Group_6956" data-name="Group 6956" transform="translate(8.809 26.345)">
          <g id="Group_6951" data-name="Group 6951" transform="translate(12.572 47.542)">
            <path id="Path_8133" data-name="Path 8133" d="M474.24,837.138a.216.216,0,0,1,.13-.112Z" transform="translate(-471.693 -837.026)" fill="#2f6c81"/>
            <path id="Path_8134" data-name="Path 8134" d="M458.214,837.843c-.427.741.531,4.781.691,5.584a13.333,13.333,0,0,1-1.988.306,18.649,18.649,0,0,1-1.251-3.705Z" transform="translate(-455.667 -837.731)" fill="#ffa471"/>
          </g>
          <g id="Group_6953" data-name="Group 6953" transform="translate(0)">
            <path id="Path_8135" data-name="Path 8135" d="M364.6,496.585a4.54,4.54,0,0,0,.439,2.1c.178.379.391.743.6,1.239a8.091,8.091,0,0,1,.351,1.009c.074.265.176.6.3.985q.055.17.116.354c.057.171.117.352.18.54.116.345.244.718.38,1.113.118.342.242.7.371,1.075l.006.016.088.255c.3.866.625,1.8.957,2.774l.138.405.2.586.05.148q.15.443.3.891l.05.149c.149.448.3.9.442,1.348l.049.15.016.05.12.376.055.172.047.148c.032.1.063.2.094.3.041.131.082.261.122.392q.146.47.285.932.085.281.167.56.15.51.287,1l.039.138q.152.55.286,1.073l.033.13c.079.31.151.611.218.9.014.063.028.125.042.187l.007.031q.024.108.047.213c.023.109.045.216.066.322.006.027.011.054.016.08q.041.208.076.406c0,.022.008.045.012.066l.01.059c.006.036.012.071.017.105.009.054.017.107.026.159q.031.2.055.392l.01.087q.013.112.024.218c0,.03.006.059.008.089s0,.059.007.089,0,.048.005.072,0,.021,0,.032,0,.051,0,.076c0,.051,0,.1.006.15.055,1.81-.112,6.077.029,7.914.1,1.324,3.006,8.636,5.3,13.115H380.4c-.216-2.281-.46-5.126-.785-7.819-.061-.5-.124-1-.191-1.486a26.275,26.275,0,0,0-1.4-6.238,22.611,22.611,0,0,1-1.35-4.639,16.283,16.283,0,0,1-.246-1.841c-.169-2.588-.815-12.251-1.4-19.871-.2-2.643-.4-5.041-.571-6.812a8.8,8.8,0,0,0-.6-2.683l-5.86,1.353-3.254.751C365.1,493.4,364.593,495.483,364.6,496.585Z" transform="translate(-364.516 -490.375)" fill="#9c3587"/>
            <g id="Group_6952" data-name="Group 6952" transform="translate(0 5.726)">
              <path id="Path_8136" data-name="Path 8136" d="M363.995,532.143l.189.027C364.1,532.12,364.036,532.108,363.995,532.143Z" transform="translate(-363.995 -532.123)" fill="#21484f"/>
            </g>
          </g>
          <g id="Group_6955" data-name="Group 6955" transform="translate(13.033 52.307)">
            <path id="Path_8137" data-name="Path 8137" d="M465.993,875.239l-5.486-.017c-.017-.191-.035-.485-.048-.749-.011-.217-.018-.414-.018-.515a4.461,4.461,0,0,1,.2-1.921c.092-.191.475-.246.794-.259a4.3,4.3,0,0,1,.461.008l0-.005a1.308,1.308,0,0,1,1.165.667c.1.15.193.321.3.5q.044.073.091.149a.506.506,0,0,0,.058.076,1.537,1.537,0,0,0,.626.337c.165.056.344.106.522.158.538.156,1.074.321,1.213.668C465.931,874.463,466.3,875.087,465.993,875.239Z" transform="translate(-460.239 -871.775)" fill="#141d1e"/>
            <path id="Path_8138" data-name="Path 8138" d="M459.049,893.776a.4.4,0,0,1-.021-.126.451.451,0,0,1,.469-.43h5.242a.451.451,0,0,1,.469.43.4.4,0,0,1-.021.126Z" transform="translate(-459.028 -890.279)" fill="#080c0c"/>
            <path id="Path_8139" data-name="Path 8139" d="M474.677,880.581h-1.2a.112.112,0,1,1,0-.225h1.052q.044.073.091.149A.5.5,0,0,0,474.677,880.581Z" transform="translate(-471.397 -879.179)" fill="#3d4444"/>
            <path id="Path_8140" data-name="Path 8140" d="M479.786,884.61a.112.112,0,0,1-.1.067h-1.618a.112.112,0,0,1,0-.225h1.2C479.428,884.508,479.607,884.558,479.786,884.61Z" transform="translate(-475.358 -882.714)" fill="#3d4444"/>
            <g id="Group_6954" data-name="Group 6954" transform="translate(0.192 0.003)">
              <path id="Path_8141" data-name="Path 8141" d="M460.44,873.976c0,.1.007.3.018.516.013.264.031.558.048.749h2.611a1.555,1.555,0,0,0-.472-.329,3.924,3.924,0,0,1-1.3-.86,1.947,1.947,0,0,1-.379-1.474,1.323,1.323,0,0,1,.469-.781c-.319.012-.7.068-.794.259A4.457,4.457,0,0,0,460.44,873.976Z" transform="translate(-460.431 -871.796)" fill="#080c0c"/>
            </g>
          </g>
        </g>
        <g id="Group_6957" data-name="Group 6957" transform="translate(2.337 74.296)">
          <path id="Path_8142" data-name="Path 8142" d="M316.956,840.081a.217.217,0,0,0-.154-.076Z" transform="translate(-316.802 -840.005)" fill="#2f6c81"/>
          <path id="Path_8143" data-name="Path 8143" d="M317.927,840.556c.6.61.687,4.762.734,5.579a13.3,13.3,0,0,0,2-.2,18.66,18.66,0,0,0,.28-3.9Z" transform="translate(-317.773 -840.48)" fill="#ffa471"/>
        </g>
        <g id="Group_6959" data-name="Group 6959" transform="translate(0 78.501)">
          <path id="Path_8144" data-name="Path 8144" d="M306.931,872.852c0,.1-.007.3-.018.515-.013.264-.031.558-.048.749h-4.99c-.3-.152,0-.736.051-.86.271-.678,1.624-.683,1.986-1.261.151-.241.268-.462.393-.653a1.308,1.308,0,0,1,1.165-.667l0,.005a4.261,4.261,0,0,1,.461-.008c.319.012.7.068.794.259A4.461,4.461,0,0,1,306.931,872.852Z" transform="translate(-301.47 -870.669)" fill="#141d1e"/>
          <path id="Path_8145" data-name="Path 8145" d="M305.4,892.669a.43.43,0,0,0-.411-.556h-4.8a.43.43,0,0,0-.43.43.425.425,0,0,0,.019.126Z" transform="translate(-299.761 -889.172)" fill="#080c0c"/>
          <path id="Path_8146" data-name="Path 8146" d="M321.349,879.362a.113.113,0,0,1-.112.113h-1.618a.113.113,0,0,1-.112-.113h0a.112.112,0,0,1,.112-.112h1.618a.112.112,0,0,1,.112.112Z" transform="translate(-316.798 -878.073)" fill="#3d4444"/>
          <path id="Path_8147" data-name="Path 8147" d="M317.908,883.622a.112.112,0,0,1-.112.112h-1.618a.112.112,0,0,1-.112-.112h0a.112.112,0,0,1,.112-.112H317.8a.112.112,0,0,1,.112.112Z" transform="translate(-313.829 -881.749)" fill="#3d4444"/>
          <g id="Group_6958" data-name="Group 6958" transform="translate(2.784 0.003)">
            <path id="Path_8148" data-name="Path 8148" d="M322.734,872.87c0,.1-.007.3-.018.515-.013.264-.031.558-.048.749h-2.611a1.552,1.552,0,0,1,.471-.329,3.919,3.919,0,0,0,1.3-.86,1.946,1.946,0,0,0,.379-1.474,1.323,1.323,0,0,0-.469-.781c.319.012.7.068.794.259A4.461,4.461,0,0,1,322.734,872.87Z" transform="translate(-320.057 -870.69)" fill="#080c0c"/>
          </g>
        </g>
        <path id="Path_8149" data-name="Path 8149" d="M306.628,549.424h3.179c.464-2.69.979-5.792,1.247-8.482.08-.808.139-1.579.167-2.29a14.315,14.315,0,0,0-.092-2.63,29.382,29.382,0,0,1,.482-7.315c.019-.1.038-.2.057-.287.324-1.553,1.105-5.615,1.975-10.225.475-2.516.976-5.195,1.444-7.719.2-1.086.4-2.143.58-3.146l.147-.8c.463-2.525.843-4.639,1.057-5.9.118-.693.185-1.128.19-1.231l-.57-.009-8.258-.127-.554-.008c.105.977-.946,2.872-1.237,3.939q-.131.481-.244.966a23.732,23.732,0,0,0-.626,4.46v0q-.018.436-.017.873c0,3.225,2.409,14.647,1.393,18.789-.432,1.764-1.647,7.39-2,9.2C304.694,538.764,305.988,544.613,306.628,549.424Z" transform="translate(-304.207 -471.69)" fill="#9c3587"/>
        <g id="Group_6962" data-name="Group 6962" transform="translate(1.356 9.33)">
          <g id="Group_6961" data-name="Group 6961">
            <g id="Group_6960" data-name="Group 6960">
              <path id="Path_8150" data-name="Path 8150" d="M309.656,393.906v0q.013.778.045,1.616a3.034,3.034,0,0,0,1.92-.252c2.453-1.048,5.093-4.3,7.457-3.686q.41.106.822.228a32.919,32.919,0,0,1,4.079,1.529c1.209.542,2.3-.23,3.626-.312.113-5.892.907-22.435-.113-26.287-4.079-1.133-13.787.307-14.939.244.087.525.184,1.067.274,1.623a17.666,17.666,0,0,1,.281,4.479,2.821,2.821,0,0,1-1.224,2.408,1.52,1.52,0,0,1-1.9-.624l.737,5.015C310.721,382.649,309.525,386.108,309.656,393.906Z" transform="translate(-309.646 -366.307)" fill="#9c3587"/>
            </g>
          </g>
        </g>
        <path id="Path_8151" data-name="Path 8151" d="M306.628,448.917h3.179c.464-2.69.979-5.792,1.247-8.482.08-.808.139-1.579.167-2.29a6.545,6.545,0,0,1-2.707-5.773c-.151.287-.462.6-.577.842-.106-1.273.493-2.042.763-3.119a15.582,15.582,0,0,0,.11-3.516,96.259,96.259,0,0,0-.94-14.5c-.127-.835-.241-1.707-.331-2.6a27.355,27.355,0,0,1,.7-10.723q.14-.438.307-.859a12.3,12.3,0,0,0,2.218.554,5.238,5.238,0,0,0-1.443-1.638c.87-.022,2.076-.017,2.651-.719-1.32-.286-2.99-.148-3.467-1.4a12.907,12.907,0,0,1,.016-2.107c.1-.947.227-.706.71-1.548,1.347-2.351.794-6.211-.415-8.271l-.066.045a17.669,17.669,0,0,1,.281,4.479A2.821,2.821,0,0,1,307.8,389.7a1.52,1.52,0,0,1-1.9-.624l.737,5.015c0,2.762-1.2,6.221-1.065,14.019v0q-.018.436-.017.873c0,3.225,2.409,14.647,1.393,18.789-.432,1.764-1.647,7.39-2,9.2C304.694,438.257,305.988,444.106,306.628,448.917Z" transform="translate(-304.207 -371.183)" fill="#653780"/>
        <g id="Group_6963" data-name="Group 6963" transform="translate(0.429)">
          <path id="Path_8152" data-name="Path 8152" d="M308.326,311.3l-1.319.082a28.064,28.064,0,0,0-1.619-6.364,16.822,16.822,0,0,0-2.5-4.8c.449-.244.86-.453,1.2-.6a19.371,19.371,0,0,1,2.538,4.944A29.24,29.24,0,0,1,308.326,311.3Z" transform="translate(-302.887 -299.434)" fill="#653780"/>
          <path id="Path_8153" data-name="Path 8153" d="M428.286,309.446,427,309.138a28.042,28.042,0,0,0,.317-6.559,20.375,20.375,0,0,0-.635-4.3c.517.269,1.047.55,1.55.827a25.024,25.024,0,0,1,.405,3.4A29.211,29.211,0,0,1,428.286,309.446Z" transform="translate(-409.705 -298.278)" fill="#653780"/>
          <path id="Path_8154" data-name="Path 8154" d="M335.223,375.52a.566.566,0,1,1-.566-.566A.566.566,0,0,1,335.223,375.52Z" transform="translate(-329.811 -364.438)" fill="#16445b"/>
          <path id="Path_8155" data-name="Path 8155" d="M431.045,371.39a.566.566,0,1,1-.567-.566A.566.566,0,0,1,431.045,371.39Z" transform="translate(-412.491 -360.875)" fill="#16445b"/>
        </g>
        <path id="Path_8156" data-name="Path 8156" d="M360.44,391.569v3.286c.51.093,2.33-.225,3.039.121a2.688,2.688,0,0,1,1.284,1.171,8.261,8.261,0,0,1,1.058-1.246,13.248,13.248,0,0,1,2.777-.159c.567-1.02.567-1.926.329-3.6C367.535,391.176,362.933,391.343,360.44,391.569Z" transform="translate(-352.118 -378.404)" fill="#2992cc"/>
        <path id="Path_8157" data-name="Path 8157" d="M359.483,543.766a16.058,16.058,0,0,1,.861,5.5c-.134,1.649-.465,3.171-.523,4.781.475-2.516.976-5.195,1.444-7.719.116.345.244.718.38,1.113.118.342.242.7.371,1.075l.006.016.088.255c.3.866.625,1.8.957,2.774l.138.405.2.586.05.148q.15.443.3.891l.05.149c.149.448.3.9.442,1.348l.049.15.016.05.12.376.055.172.047.148c.032.1.063.2.094.3.041.131.082.261.122.392q.146.47.285.932.085.282.167.56.15.51.287,1c.013.046.026.092.039.138q.152.551.286,1.073c.011.043.022.087.033.13q.118.465.218.9c.014.063.028.125.042.187l.007.031q.024.108.047.213c.023.109.045.216.067.322l.016.08q.041.208.076.406c0,.022.008.045.012.067l.01.059c.006.035.012.071.017.105.009.054.017.107.026.159q.031.2.055.392l.01.086q.013.112.024.218c0,.03.006.06.008.089s0,.059.007.089,0,.048.005.072,0,.021,0,.032,0,.051,0,.076c0,.051,0,.1.006.15.055,1.81-.112,6.077.029,7.914.1,1.324,3.006,8.636,5.3,13.115h3.245c-.216-2.281-.46-5.126-.785-7.819a5.816,5.816,0,0,1-5.1-3.156c-1.548-2.9-1.33-5.969-1.147-9.16a4.354,4.354,0,0,1,1.1.073c-.5-.6-1.253-.873-1.569-1.563a10.808,10.808,0,0,1-.371-2.719c-.259-1.721-.559-3.38-.878-5.1a65.294,65.294,0,0,0-2.824-9.945c.527-.053.934.087,1.452.068A12.41,12.41,0,0,0,362.6,544.7c.321-.626,2.889-3.008,3.257-3.9-.895.621-4.3,3.026-4.3,3.026-.152-.057-2.479-.741-3.126-1.037C358.754,543.095,359.119,543.422,359.483,543.766Z" transform="translate(-350.385 -507.537)" fill="#653780"/>
      </g>
      <g id="Group_6973" data-name="Group 6973" transform="translate(0 29.81)">
        <path id="Path_8158" data-name="Path 8158" d="M220.152,374.812q0,.147.008.294c0,.062,0,.124,0,.186a14.607,14.607,0,0,0,2.472.479c.078,0,.157,0,.237,0q.185-.006.38-.031c.015-.061.033-.127.051-.2.039-.149.085-.316.136-.5.693-2.479,2.376-7.8,2.712-9.641.376-2.06.256-5.286,1.116-6.967.335-.654.917-1.882,1.578-3.31.245-.529.5-1.085.758-1.65,1.248-2.74,2.545-5.687,2.911-6.692l-7.841-2.419c-2.282,2.03-2.911,7.667-3.345,10.886-.253,1.876.059,3.662-.5,5.6a23.474,23.474,0,0,0-.979,5.881C219.792,369.416,220.069,372.176,220.152,374.812Z" transform="translate(-209.007 -344.363)" fill="#ffa471"/>
        <path id="Path_8159" data-name="Path 8159" d="M237.585,570.295c.491.189,1.124,1.825,1.207,2.269.066.353,0,.722.052,1.079.047.326.247.675.286,1.02.053.465.1.491-.453.379a2.411,2.411,0,0,1-.839-.4,4.589,4.589,0,0,1-1.2-1.572Z" transform="translate(-223.498 -539.309)" fill="#e07f4f"/>
        <g id="Group_6971" data-name="Group 6971" transform="translate(0 33.972)">
          <path id="Path_8160" data-name="Path 8160" d="M204.814,593.432l.006.033h.04Zm-6.45.467v4.248c0,.055,0,.109.007.163a1.834,1.834,0,0,0,1.824,1.669h5.891a1.834,1.834,0,0,0,1.824-1.669c0-.054.007-.108.007-.163V593.9a1.834,1.834,0,0,0-1.832-1.832h-5.94A1.834,1.834,0,0,0,198.364,593.9Zm1.4,0a.435.435,0,0,1,.338-.423.427.427,0,0,1,.1-.011h5.912a.435.435,0,0,1,.413.434v4.248a.427.427,0,0,1-.032.163.434.434,0,0,1-.4.272H200.2a.434.434,0,0,1-.434-.434Z" transform="translate(-190.473 -592.068)" fill="#14333f"/>
          <g id="Group_6970" data-name="Group 6970" transform="translate(0 3.475)">
            <g id="Group_6965" data-name="Group 6965" transform="translate(0.381 2.768)">
              <path id="Path_8161" data-name="Path 8161" d="M143.607,638.718v12.124a1.161,1.161,0,0,0,1.187,1.133h24.1a1.161,1.161,0,0,0,1.187-1.133V638.718a1.161,1.161,0,0,0-1.187-1.133h-24.1A1.161,1.161,0,0,0,143.607,638.718Z" transform="translate(-143.607 -637.585)" fill="#a3343f"/>
              <path id="Path_8162" data-name="Path 8162" d="M143.607,638.718v12.124a1.161,1.161,0,0,0,1.187,1.133h18.284a1.161,1.161,0,0,0,1.187-1.133V638.718a1.161,1.161,0,0,0-1.187-1.133H144.794A1.161,1.161,0,0,0,143.607,638.718Z" transform="translate(-143.607 -637.585)" fill="#c0434b"/>
            </g>
            <g id="Group_6966" data-name="Group 6966" transform="translate(0.381)">
              <path id="Path_8163" data-name="Path 8163" d="M143.607,622.849V618.59a1.187,1.187,0,0,1,1.187-1.187h24.1a1.187,1.187,0,0,1,1.187,1.187v4.259Z" transform="translate(-143.607 -617.403)" fill="#a3343f"/>
              <path id="Path_8164" data-name="Path 8164" d="M143.607,618.59v4.259h20.7V618.59a1.188,1.188,0,0,0-1.19-1.187H144.8A1.188,1.188,0,0,0,143.607,618.59Z" transform="translate(-143.607 -617.403)" fill="#c0434b"/>
            </g>
            <rect id="Rectangle_2248" data-name="Rectangle 2248" width="3.909" height="12.343" transform="translate(8.703 4.872)" fill="#c0434b" opacity="0.4" style="mix-blend-mode: color-dodge;isolation: isolate"/>
            <path id="Path_8165" data-name="Path 8165" d="M253.037,654.159h1.576a.249.249,0,0,1,.232.262v2.8a.249.249,0,0,1-.232.262h-1.576a.249.249,0,0,1-.232-.262v-2.8A.249.249,0,0,1,253.037,654.159Z" transform="translate(-237.448 -649.118)" fill="#a3343f"/>
            <path id="Path_8166" data-name="Path 8166" d="M165.773,654.3h1.576a.249.249,0,0,1,.232.262v2.8a.249.249,0,0,1-.232.262h-1.576a.249.249,0,0,1-.232-.262v-2.8A.249.249,0,0,1,165.773,654.3Z" transform="translate(-162.152 -649.237)" fill="#a3343f"/>
            <path id="Path_8167" data-name="Path 8167" d="M165.5,620.6s-18.219-.135-18.521-.059a.849.849,0,0,0-.642.944v2.455s.189-2.53.642-2.908S165.5,620.6,165.5,620.6Z" transform="translate(-145.581 -620.091)" fill="#e55368"/>
            <g id="Group_6967" data-name="Group 6967" transform="translate(0 4.491)">
              <path id="Path_8168" data-name="Path 8168" d="M140.828,650.717a.567.567,0,0,0,.567.566H167.83a.566.566,0,0,0,0-1.133H141.395A.567.567,0,0,0,140.828,650.717Z" transform="translate(-140.828 -650.15)" fill="#bc3f51"/>
              <path id="Path_8169" data-name="Path 8169" d="M140.828,650.717a.6.6,0,0,0,.626.566H161.8a.6.6,0,0,0,.626-.566.538.538,0,0,0-.184-.4.656.656,0,0,0-.442-.166H141.453A.6.6,0,0,0,140.828,650.717Z" transform="translate(-140.828 -650.15)" fill="#d14a57"/>
            </g>
            <g id="Group_6968" data-name="Group 6968" transform="translate(14.992 4.888)">
              <path id="Path_8170" data-name="Path 8170" d="M252.827,656.1a.249.249,0,0,0,.232.263h1.208a.249.249,0,0,0,.232-.263v-2.8a.249.249,0,0,0-.232-.262h-1.208a.249.249,0,0,0-.232.262Z" transform="translate(-252.459 -653.042)" fill="#aaaeaf"/>
              <path id="Path_8171" data-name="Path 8171" d="M250.145,656.1a.249.249,0,0,0,.232.263h1.208a.249.249,0,0,0,.232-.263v-2.8a.249.249,0,0,0-.232-.262h-1.208a.249.249,0,0,0-.232.262Z" transform="translate(-250.145 -653.042)" fill="#cecece"/>
              <path id="Path_8172" data-name="Path 8172" d="M252.342,658.422a.322.322,0,0,0,.3.34h0a.322.322,0,0,0,.3-.34v-1.737a.322.322,0,0,0-.3-.34h0a.322.322,0,0,0-.3.34Z" transform="translate(-252.041 -655.892)" fill="#ddd"/>
            </g>
            <g id="Group_6969" data-name="Group 6969" transform="translate(3.025 4.907)">
              <path id="Path_8173" data-name="Path 8173" d="M165.563,656.24a.249.249,0,0,0,.232.262H167a.249.249,0,0,0,.232-.262v-2.8a.249.249,0,0,0-.232-.262H165.8a.249.249,0,0,0-.232.262Z" transform="translate(-165.195 -653.179)" fill="#aaaeaf"/>
              <path id="Path_8174" data-name="Path 8174" d="M162.882,656.24a.249.249,0,0,0,.232.262h1.208a.249.249,0,0,0,.232-.262v-2.8a.249.249,0,0,0-.232-.262h-1.208a.249.249,0,0,0-.232.262Z" transform="translate(-162.882 -653.179)" fill="#cecece"/>
              <path id="Path_8175" data-name="Path 8175" d="M165.079,658.561a.322.322,0,0,0,.3.34h0a.322.322,0,0,0,.3-.34v-1.737a.322.322,0,0,0-.3-.34h0a.322.322,0,0,0-.3.34Z" transform="translate(-164.778 -656.031)" fill="#ddd"/>
            </g>
          </g>
        </g>
        <path id="Path_8176" data-name="Path 8176" d="M210.966,569.269c.906,1.36,5.023,1.331,4.713-.184-.141-.687-.974-2.061.555-1.855a10.523,10.523,0,0,0-.508-2.146l-.09-.157c-.121-.21-.242-.414-.355-.61-.09-.157-.175-.311-.25-.459h-.452l-1.738,0a2.262,2.262,0,0,0-.23.2q-.066.072-.129.146a6.442,6.442,0,0,0-1.451,3.358A10.029,10.029,0,0,0,210.966,569.269Z" transform="translate(-201.338 -533.749)" fill="#ffa471"/>
        <g id="Group_6972" data-name="Group 6972" transform="translate(9.618 9.497)">
          <path id="Path_8177" data-name="Path 8177" d="M259.464,461.111l.005,0,0,0C259.437,461.144,259.436,461.143,259.464,461.111Z" transform="translate(-252.794 -454.597)" fill="#e07f4f"/>
          <path id="Path_8178" data-name="Path 8178" d="M210.966,439.635c.906,1.36,5.023,1.331,4.713-.184-.141-.687-.974-2.061.555-1.855a10.526,10.526,0,0,0-.508-2.146l-.09-.157c.039-.149.085-.316.136-.5.693-2.479,2.376-7.8,2.712-9.641.376-2.06.256-5.286,1.116-6.967.335-.654.917-1.882,1.578-3.31l-1.374-1.264c-.3,1.239-.239,2.559-.6,3.776a8.174,8.174,0,0,1-1.572,2.74c1.354.377-.162,6.287-.336,7.289a24.11,24.11,0,0,1-2.324,7.117,2.35,2.35,0,0,0,.208.925l.026.061c.111.249.326.665.223.906-.148.345-.615.219-.744.465-.328.623.279,1.6-.185,2.309-.439.672-1,.256-1.187-.408-.356.995-.969.417-1.194-.249-.079.677-.644.253-.866-.062a1.479,1.479,0,0,1-.219-.559A10.029,10.029,0,0,0,210.966,439.635Z" transform="translate(-210.956 -413.612)" fill="#e07f4f"/>
        </g>
      </g>
      <g id="Group_6975" data-name="Group 6975" transform="translate(11.774 24.985)">
        <g id="Group_6974" data-name="Group 6974" transform="translate(0)">
          <path id="Path_8179" data-name="Path 8179" d="M226.768,323.23a1.461,1.461,0,0,0,.21.365,2.388,2.388,0,0,0,.375.343,16.509,16.509,0,0,0,5.571,2.692q.262.059.519.1l.131.019c.076.011.151.02.226.027a3.63,3.63,0,0,0,2.025-.284,18.619,18.619,0,0,1,.474-1.813c.17-.542.369-1.1.6-1.648a17.848,17.848,0,0,1,1.071-2.19,10.3,10.3,0,0,1,2.3-2.827l-4.192-8.838q-.276.1-.54.2h0a12,12,0,0,0-3.151,1.813c-.085.068-.169.138-.252.208-2.929,2.495-4.189,6.108-5.008,9.472-.01.04-.02.08-.03.119C226.861,321.859,226.509,322.564,226.768,323.23Z" transform="translate(-226.677 -309.177)" fill="#f89f5b"/>
          <path id="Path_8180" data-name="Path 8180" d="M236.3,399a18.62,18.62,0,0,0-.474,1.813,3.811,3.811,0,0,1-2.251.257l-.131-.019a15.041,15.041,0,0,1-6.465-3.136,1.464,1.464,0,0,1-.21-.365c-.259-.666.093-1.371.321-2.241,1.3,1,4.949,3.241,7.527,3.675l.01,0A4.582,4.582,0,0,0,236.3,399Z" transform="translate(-226.676 -383.496)" fill="#e53f71"/>
        </g>
        <path id="Path_8181" data-name="Path 8181" d="M276.967,384.051c.076.011.151.02.226.027a3.629,3.629,0,0,0,2.025-.284,18.617,18.617,0,0,1,.474-1.813c.17-.542.369-1.1.6-1.648,1.18,1.736,1.172,2.61,2.065,3.073.143.074.6.227.6.227.36-.713-.538-3.09-1.6-5.49-.257-.581-.515-1.113-.756-1.548a4.518,4.518,0,0,0-.694-1.01,6.224,6.224,0,0,1,.341,1.812,11.931,11.931,0,0,1-.016,1.42,2.012,2.012,0,0,0-.526-.2,2.66,2.66,0,0,0-.712-.053c-.241.01-.494.038-.77.061.215.14.342.347.651.453a11.588,11.588,0,0,1-.855,2.884l0,.008-.048.112A16.287,16.287,0,0,1,276.967,384.051Z" transform="translate(-270.07 -366.477)" fill="#c7dde5" opacity="0.7" style="mix-blend-mode: multiply;isolation: isolate"/>
      </g>
      <g id="Group_6977" data-name="Group 6977" transform="translate(20.304 55.017)">
        <path id="Path_8182" data-name="Path 8182" d="M288.875,537.062a20.2,20.2,0,0,0,6.114,2.291,9.5,9.5,0,0,0,1.946.11,80.8,80.8,0,0,0,1.661-8.132,30.3,30.3,0,0,0,11.227-.8l-.042-1.028-.009-.225c-2.239,1.388-14.952.341-17.981-1.121A61.1,61.1,0,0,0,288.875,537.062Z" transform="translate(-288.875 -528.159)" fill="#ffbb4d"/>
        <path id="Path_8183" data-name="Path 8183" d="M308.7,541.78a1.7,1.7,0,0,0,.176.143,7.809,7.809,0,0,0,2.442.9,16.067,16.067,0,0,0,2.02.324l.138.012c.132.011.259.019.382.025s.253.009.37.009c.075,0,.147,0,.217,0l-.015-.414c-.2.007-.414,0-.645-.008l-.216-.014-.055,0a12.1,12.1,0,0,1-4.228-1.059h0c-.057-.033-.109-.066-.156-.1a1.323,1.323,0,0,1-.144-.115l-.043.046-.12.129Z" transform="translate(-305.977 -539.65)" fill="#e2921e"/>
        <path id="Path_8184" data-name="Path 8184" d="M293.093,537.542a5.373,5.373,0,0,1-1.419-3.222,4.867,4.867,0,0,1,3.044-4.2,2.8,2.8,0,0,1,1.028-.323c.37-.005,9.894,1.581,14.035-.3l-.009-.225c-2.239,1.388-14.952.341-17.981-1.121a61.1,61.1,0,0,0-2.916,8.9,20.2,20.2,0,0,0,6.114,2.291l-.075-.056A10.14,10.14,0,0,1,293.093,537.542Z" transform="translate(-288.875 -528.159)" fill="#e2921e" opacity="0.5" style="mix-blend-mode: multiply;isolation: isolate"/>
        <g id="Group_6976" data-name="Group 6976" transform="translate(0.473 2.074)">
          <path id="Path_8185" data-name="Path 8185" d="M292.575,549.839c.326-.022.931-1.75,1.1-2.062-.167.432-1.184,3.215-.28,3.283.323.024.665-.821.945-1.7.253-.793.454-1.61.541-1.826-.066.453-.421,1.611-.467,2.162a2.963,2.963,0,0,0,.278,1.547.248.248,0,0,0,.192.1c.152,0,.3-.159.445-.408a11.133,11.133,0,0,0,.846-2.625c0-.009,0-.017.005-.025.078-.356.128-.633.143-.746a3.371,3.371,0,0,1-.122.849l-.016.067a5.575,5.575,0,0,0-.273,1.646c.026.226.165.837.421.88a.194.194,0,0,0,.05,0,.39.39,0,0,0,.287-.221,3.131,3.131,0,0,0,.2-.426,13.954,13.954,0,0,0,.691-2.393l.014-.058c.106-.462.217-.921.358-1.363-.043.465.055,1.947.478,2.161.277.139.429-.033.512-.318a5.213,5.213,0,0,0,.095-1.308c0-.01,0-.019,0-.028a16.215,16.215,0,0,1-.06-2.125,1.014,1.014,0,0,1,.077-.252c.01-.022.021-.044.032-.066a2.939,2.939,0,0,1,.171-.281l-.049,0-.212-.019a10.4,10.4,0,0,1-3.507-.913h0c-.05-.029-.1-.058-.137-.087l-.065.086-.155.2q-.074.1-.146.2a16.6,16.6,0,0,0-2.068,3.8C292.783,547.85,291.908,549.883,292.575,549.839Z" transform="translate(-292.327 -543.28)" fill="#c9c1b9"/>
          <path id="Path_8186" data-name="Path 8186" d="M307,549.364c0,.6.043,1.7.352,1.883a.2.2,0,0,0,.195,0c.295-.141.214-1.97.255-2.323a12.7,12.7,0,0,0,.186,2.01c.137.7.371,1.268.773,1.141.212-.067.28-.519.281-1.093,0-.87-.154-2.018-.2-2.528,0-.057-.008-.105-.01-.145,0-.021,0-.039,0-.055,0,.009,0,.019.007.029.007.031.014.066.021.1.1.518.194,1.566.342,2.048a3.2,3.2,0,0,0,.127.326c.205.465.6,1.159.919,1.025.582-.243.149-2.962-.029-3.845-.02-.1-.037-.176-.049-.223a1.533,1.533,0,0,1,.062.165,16.7,16.7,0,0,0,.507,2.366c.108.2.465.716.718.661.278-.06.252-.539.259-.8a10.35,10.35,0,0,0-.135-1.749c-.106-.733-.244-1.466-.294-2.188a5.321,5.321,0,0,0,.389.88c.255.468.585.926.858.949.757.065.123-1.33-.051-1.761s-.563-1.119-.757-1.66a2.471,2.471,0,0,1-.087-.291l0-.013a10.4,10.4,0,0,1-3.507-.913h0c-.05-.029-.1-.058-.137-.087l-.065.086-.155.2q-.074.1-.146.2c-.024.369-.042.685-.051.717a16.584,16.584,0,0,0-.572,4.533C307,549.076,307,549.2,307,549.364Z" transform="translate(-304.987 -543.28)" fill="#eae3da"/>
        </g>
      </g>
    </g>
    <g id="Group_7001" data-name="Group 7001" transform="translate(-128.221 -25.074)">
      <g id="Group_7000" data-name="Group 7000" transform="translate(244.922 685.639)">
        <g id="Group_6999" data-name="Group 6999">
          <g id="Group_6981" data-name="Group 6981" transform="translate(22.46 31.094)">
            <rect id="Rectangle_2249" data-name="Rectangle 2249" width="6.556" height="20.109" fill="#c9bdad"/>
            <path id="Path_8187" data-name="Path 8187" d="M797.642,603.2v20.109h4.865a18.6,18.6,0,0,1-2.985-8,42.094,42.094,0,0,1-.586-9.01c.039-.876.044-2.028.164-3.1Z" transform="translate(-797.642 -603.2)" fill="#c9bdad" opacity="0.4" style="mix-blend-mode: multiply;isolation: isolate"/>
          </g>
          <g id="Group_6983" data-name="Group 6983" transform="translate(19.996 26.044)">
            <path id="Path_8188" data-name="Path 8188" d="M781.465,573.212v1.377a3.178,3.178,0,0,0,3.178,3.178h5.3a3.178,3.178,0,0,0,3.178-3.178v-1.377a3.181,3.181,0,0,0-2.7-3.142,3.079,3.079,0,0,0-.477-.036h-5.3a3.081,3.081,0,0,0-.477.036,3.182,3.182,0,0,0-2.7,3.142Z" transform="translate(-781.465 -570.034)" fill="#e2cbaa"/>
            <g id="Group_6982" data-name="Group 6982" transform="translate(1.007)">
              <path id="Path_8189" data-name="Path 8189" d="M840.255,570.27v5.155a.848.848,0,1,0,1.7,0v-4.332A3.153,3.153,0,0,0,840.255,570.27Z" transform="translate(-832.309 -570.234)" fill="#ccb596"/>
              <path id="Path_8190" data-name="Path 8190" d="M822.862,570.034v5.191a.848.848,0,1,0,1.7,0v-5.191Z" transform="translate(-817.565 -570.034)" fill="#ccb596"/>
              <path id="Path_8191" data-name="Path 8191" d="M805.469,570.034v5.191a.848.848,0,1,0,1.7,0v-5.191Z" transform="translate(-802.82 -570.034)" fill="#ccb596"/>
              <path id="Path_8192" data-name="Path 8192" d="M788.075,571.093v4.332a.848.848,0,1,0,1.7,0V570.27A3.152,3.152,0,0,0,788.075,571.093Z" transform="translate(-788.075 -570.234)" fill="#ccb596"/>
            </g>
          </g>
          <path id="Path_8193" data-name="Path 8193" d="M663.085,486.259v5.619a9.934,9.934,0,0,0,9.933,9.933h27.67a9.935,9.935,0,0,0,9.933-9.933v-5.619Z" transform="translate(-661.115 -472.972)" fill="#dfebee"/>
          <path id="Path_8194" data-name="Path 8194" d="M789.886,735.28v2.186h.764v6.62a3.694,3.694,0,0,0,6.309,2.612,3.654,3.654,0,0,0,1.083-2.612v-6.62h.764V735.28Z" transform="translate(-768.607 -684.074)" fill="#e2cbaa"/>
          <rect id="Rectangle_2250" data-name="Rectangle 2250" width="4.76" height="4.079" transform="translate(17.7 45.392)" fill="#c9bdad"/>
          <path id="Path_8195" data-name="Path 8195" d="M704.223,762.392h4.257l-.739-1.23h-2.78Z" transform="translate(-695.989 -706.014)" fill="#fff2e3"/>
          <path id="Path_8196" data-name="Path 8196" d="M704.223,769.24h4.257l-.739,1.232h-2.78Z" transform="translate(-695.989 -712.863)" fill="#ddd3ca"/>
          <path id="Path_8197" data-name="Path 8197" d="M704.223,778.56h4.257l-.739-1.23h-2.78Z" transform="translate(-695.989 -719.721)" fill="#fff2e3"/>
          <g id="Group_6987" data-name="Group 6987" transform="translate(20.208 8.802)">
            <path id="Path_8198" data-name="Path 8198" d="M785.987,465.82a.772.772,0,0,1-.772.772h-1.589a.772.772,0,0,1-.772-.772h0a.772.772,0,0,1,.772-.771h1.589a.772.772,0,0,1,.772.771Z" transform="translate(-782.854 -463.794)" fill="#a3a6a8"/>
            <g id="Group_6986" data-name="Group 6986" transform="translate(1.183)">
              <path id="Path_8199" data-name="Path 8199" d="M800.186,466.363a.749.749,0,1,1-.007-1.06A.749.749,0,0,1,800.186,466.363Z" transform="translate(-797.643 -463.826)" fill="#d6d6d6"/>
              <g id="Group_6984" data-name="Group 6984" transform="translate(0.019)">
                <path id="Path_8200" data-name="Path 8200" d="M805.351,457.681a.514.514,0,1,0-.879-.339l-.92.932a.35.35,0,0,0,.5.491l.921-.932A.512.512,0,0,0,805.351,457.681Z" transform="translate(-801.516 -456.806)" fill="#d6d6d6"/>
                <path id="Path_8201" data-name="Path 8201" d="M790.9,470.847a.514.514,0,1,0,.879.339l.92-.932a.35.35,0,0,0-.5-.491l-.92.932A.513.513,0,0,0,790.9,470.847Z" transform="translate(-790.748 -467.701)" fill="#d6d6d6"/>
              </g>
              <g id="Group_6985" data-name="Group 6985" transform="translate(0 0.072)">
                <path id="Path_8202" data-name="Path 8202" d="M804.666,471.881a.514.514,0,1,0,.339-.879l-.932-.92a.35.35,0,1,0-.491.5l.932.92A.511.511,0,0,0,804.666,471.881Z" transform="translate(-801.521 -468.047)" fill="#d6d6d6"/>
                <path id="Path_8203" data-name="Path 8203" d="M791.5,457.427a.514.514,0,1,0-.339.879l.932.92a.35.35,0,1,0,.491-.5l-.932-.92A.512.512,0,0,0,791.5,457.427Z" transform="translate(-790.625 -457.279)" fill="#d6d6d6"/>
              </g>
              <path id="Path_8204" data-name="Path 8204" d="M801.655,467.515a.479.479,0,1,1,0-.678A.479.479,0,0,1,801.655,467.515Z" transform="translate(-799.28 -465.192)" fill="#c0434b"/>
            </g>
          </g>
          <path id="Path_8205" data-name="Path 8205" d="M704.223,785.409h4.257l-.739,1.232h-2.78Z" transform="translate(-695.989 -726.57)" fill="#ddd3ca"/>
          <path id="Path_8206" data-name="Path 8206" d="M704.223,794.727h4.257l-.739-1.228h-2.78Z" transform="translate(-695.989 -733.428)" fill="#fff2e3"/>
          <path id="Path_8207" data-name="Path 8207" d="M704.223,801.565h4.257l-.739,1.234h-2.78Z" transform="translate(-695.989 -740.266)" fill="#ddd3ca"/>
          <path id="Path_8208" data-name="Path 8208" d="M704.223,810.9h4.257l-.739-1.228h-2.78Z" transform="translate(-695.989 -747.135)" fill="#fff2e3"/>
          <path id="Path_8209" data-name="Path 8209" d="M704.223,817.734h4.257l-.739,1.233h-2.78Z" transform="translate(-695.989 -753.973)" fill="#ddd3ca"/>
          <path id="Path_8210" data-name="Path 8210" d="M704.223,827.06h4.257l-.739-1.229h-2.78Z" transform="translate(-695.989 -760.837)" fill="#fff2e3"/>
          <path id="Path_8211" data-name="Path 8211" d="M704.223,833.9h4.257l-.739,1.233h-2.78Z" transform="translate(-695.989 -767.68)" fill="#ddd3ca"/>
          <path id="Path_8212" data-name="Path 8212" d="M755.989,695.471l.709,4.5.874-.8V696.1Z" transform="translate(-739.872 -650.327)" fill="#fff2e3"/>
          <path id="Path_8213" data-name="Path 8213" d="M747.368,696.585l.973,2.98,1.048.4-.709-4.5h-.007l-1.3,1.113Z" transform="translate(-732.564 -650.327)" fill="#ddd3ca"/>
          <path id="Path_8214" data-name="Path 8214" d="M736.608,702.782l2.05,4.03.561-1.043v-.007l-.973-2.98Z" transform="translate(-723.442 -656.525)" fill="#fff2e3"/>
          <path id="Path_8215" data-name="Path 8215" d="M730.869,704.23l1.874,2.582h1.05l-2.05-4.03Z" transform="translate(-718.577 -656.525)" fill="#ddd3ca"/>
          <path id="Path_8216" data-name="Path 8216" d="M720.581,712.757l3.214,3.214.227-1.1-1.874-2.582Z" transform="translate(-709.856 -664.585)" fill="#fff2e3"/>
          <path id="Path_8217" data-name="Path 8217" d="M718.113,716.992V717l2.568,1.866h.007l1.015-.284v-.008l-3.214-3.214h-.007Z" transform="translate(-707.763 -667.187)" fill="#ddd3ca"/>
          <path id="Path_8218" data-name="Path 8218" d="M709.762,727.073v.007l3.888,1.98L713.6,728l-2.568-1.866Z" transform="translate(-700.684 -676.317)" fill="#fff2e3"/>
          <path id="Path_8219" data-name="Path 8219" d="M709.762,732.368l.241,1.667,2.8.908.844-.6Z" transform="translate(-700.684 -681.605)" fill="#ddd3ca"/>
          <path id="Path_8220" data-name="Path 8220" d="M704.223,744.537l4.257.674-.369-.987-2.8-.908Z" transform="translate(-695.989 -690.886)" fill="#fff2e3"/>
          <path id="Path_8221" data-name="Path 8221" d="M704.223,751.336l.745,1.5h2.773l.739-.822Z" transform="translate(-695.989 -697.685)" fill="#ddd3ca"/>
          <path id="Path_8222" data-name="Path 8222" d="M794.894,749.635v6.62a3.7,3.7,0,0,0,3.7,3.7,1.175,1.175,0,0,0,.178-.009,4.332,4.332,0,0,1-2.018-3.67V751.6l5.538-.709v-1.254Z" transform="translate(-772.853 -696.243)" fill="#c9bdad" opacity="0.4" style="mix-blend-mode: multiply;isolation: isolate"/>
          <g id="Group_6991" data-name="Group 6991" transform="translate(17.805 0)">
            <g id="Group_6990" data-name="Group 6990">
              <g id="Group_6988" data-name="Group 6988">
                <path id="Path_8223" data-name="Path 8223" d="M773.547,403.265c.036-.986-.33-2.708-1.6-2.3-.835.265-.975,1.563-1.094,2.2a14.89,14.89,0,0,0,.822,6.984h-4.521c-.066-3.105-.422-7.057,1.4-9.435,2.524-3.3,6.314-1.428,6.252,2.356A5.227,5.227,0,0,0,773.547,403.265Z" transform="translate(-767.077 -399)" fill="#bbbdbf"/>
              </g>
              <g id="Group_6989" data-name="Group 6989" transform="translate(2.489 1.9)">
                <path id="Path_8224" data-name="Path 8224" d="M784.4,420.719h1.129a14.894,14.894,0,0,1-.822-6.984c.108-.569.231-1.669.856-2.082a.939.939,0,0,0-.891-.116c-.835.265-.975,1.563-1.094,2.2A14.881,14.881,0,0,0,784.4,420.719Z" transform="translate(-783.423 -411.478)" fill="#a3a6a8"/>
              </g>
              <path id="Path_8225" data-name="Path 8225" d="M806.454,422.054a.492.492,0,0,0,.492.492H808.2a.492.492,0,0,0,.492-.492h0a.493.493,0,0,0-.492-.493h-1.254a.493.493,0,0,0-.492.493Z" transform="translate(-800.458 -418.126)" fill="#bbbdbf"/>
            </g>
            <path id="Path_8226" data-name="Path 8226" d="M793.467,402.453l.167.006.191,0,.248.029a.738.738,0,0,1,.14.025l.149.032a.967.967,0,0,1,.154.046c.052.018.106.033.159.054a2.783,2.783,0,0,1,.631.375,3.723,3.723,0,0,1,.87,1.066c.088.163.152.3.194.4l.063.155s0-.063,0-.167a2.461,2.461,0,0,0-.06-.46,2.541,2.541,0,0,0-.249-.65,2.249,2.249,0,0,0-.554-.671,2.068,2.068,0,0,0-.792-.387c-.067-.014-.133-.021-.2-.03a1,1,0,0,0-.184-.015l-.171,0a.786.786,0,0,0-.155.014c-.1.017-.186.034-.261.049s-.137.046-.189.064C793.521,402.431,793.467,402.453,793.467,402.453Z" transform="translate(-789.448 -401.765)" fill="#d6d6d6"/>
          </g>
          <g id="Group_6995" data-name="Group 6995" transform="translate(13.534 8.484)">
            <path id="Path_8227" data-name="Path 8227" d="M752.628,463.734a.772.772,0,0,0,.771.772h1.589a.772.772,0,0,0,.772-.772h0a.772.772,0,0,0-.772-.772H753.4a.771.771,0,0,0-.771.772Z" transform="translate(-750.556 -461.707)" fill="#a3a6a8"/>
            <g id="Group_6994" data-name="Group 6994">
              <path id="Path_8228" data-name="Path 8228" d="M747.523,464.276a.749.749,0,1,0,.007-1.06A.749.749,0,0,0,747.523,464.276Z" transform="translate(-746.046 -461.739)" fill="#d6d6d6"/>
              <g id="Group_6992" data-name="Group 6992" transform="translate(0.02)">
                <path id="Path_8229" data-name="Path 8229" d="M739.3,455.594a.514.514,0,1,1,.879-.339l.92.932a.35.35,0,0,1-.5.491l-.92-.932A.512.512,0,0,1,739.3,455.594Z" transform="translate(-739.151 -454.719)" fill="#d6d6d6"/>
                <path id="Path_8230" data-name="Path 8230" d="M753.754,468.76a.514.514,0,1,1-.879.339l-.92-.932a.349.349,0,1,1,.5-.491l.92.932A.511.511,0,0,1,753.754,468.76Z" transform="translate(-749.92 -465.614)" fill="#d6d6d6"/>
              </g>
              <g id="Group_6993" data-name="Group 6993" transform="translate(0 0.072)">
                <path id="Path_8231" data-name="Path 8231" d="M739.9,469.795a.514.514,0,1,1-.339-.879l.932-.92a.35.35,0,0,1,.491.5l-.932.92A.512.512,0,0,1,739.9,469.795Z" transform="translate(-739.023 -465.96)" fill="#d6d6d6"/>
                <path id="Path_8232" data-name="Path 8232" d="M753.065,455.341a.514.514,0,1,1,.339.879l-.932.92a.35.35,0,1,1-.491-.5l.932-.921A.512.512,0,0,1,753.065,455.341Z" transform="translate(-749.919 -455.193)" fill="#d6d6d6"/>
              </g>
              <path id="Path_8233" data-name="Path 8233" d="M749.061,465.428a.479.479,0,1,0,0-.678A.479.479,0,0,0,749.061,465.428Z" transform="translate(-747.416 -463.106)" fill="#3c9dbf"/>
            </g>
          </g>
          <rect id="Rectangle_2251" data-name="Rectangle 2251" width="47.536" height="2.331" transform="translate(1.97 13.754)" fill="#dfebee" opacity="0.5" style="mix-blend-mode: multiply;isolation: isolate"/>
          <g id="Group_6996" data-name="Group 6996" transform="translate(0 11.106)">
            <path id="Path_8234" data-name="Path 8234" d="M650.145,473.524a1.59,1.59,0,0,0,1.589,1.589h47.78c.046,0,.092,0,.138-.006a1.589,1.589,0,0,0-.138-3.172h-47.78A1.59,1.59,0,0,0,650.145,473.524Z" transform="translate(-650.145 -471.935)" fill="#dfebee"/>
            <path id="Path_8235" data-name="Path 8235" d="M725.285,475.141a.424.424,0,0,0,.424.424h36.656a.424.424,0,0,0,.424-.424h0a.424.424,0,0,0-.424-.424H725.709a.424.424,0,0,0-.424.424Z" transform="translate(-713.843 -474.293)" fill="#f0fcff"/>
          </g>
          <path id="Path_8236" data-name="Path 8236" d="M650.145,473.524a1.59,1.59,0,0,0,1.589,1.589h.381v4.622a9.934,9.934,0,0,0,9.933,9.933H673.26l-.55-.253c-4.545-2.1-8.253-5.472-9.775-10.229a14.2,14.2,0,0,1-.514-2.273c-.088-.6-.147-1.2-.194-1.8-.015-.176-2.018-.848-2.018-1.589,0-1.276,1.79-1.527,1.784-1.589H651.734A1.59,1.59,0,0,0,650.145,473.524Z" transform="translate(-650.145 -460.829)" fill="#dfebee" opacity="0.5" style="mix-blend-mode: multiply;isolation: isolate"/>
          <g id="Group_6997" data-name="Group 6997" transform="translate(20.509 50.905)">
            <path id="Path_8237" data-name="Path 8237" d="M784.832,734.749a1.448,1.448,0,0,0,1.448,1.448h7.573a1.448,1.448,0,0,0,1.448-1.448h0a1.448,1.448,0,0,0-1.448-1.448H786.28a1.448,1.448,0,0,0-1.448,1.448Z" transform="translate(-784.832 -733.301)" fill="#e2cbaa"/>
            <path id="Path_8238" data-name="Path 8238" d="M798,737.5a.3.3,0,0,0,.3.3h7.128a.3.3,0,0,0,.3-.3h0a.3.3,0,0,0-.3-.3H798.3a.3.3,0,0,0-.3.3Z" transform="translate(-795.993 -736.607)" fill="#efd8b9"/>
          </g>
          <g id="Group_6998" data-name="Group 6998" transform="translate(24.542 33.788)">
            <path id="Path_8239" data-name="Path 8239" d="M811.584,620.893h4.062c.915,2.69,3.187,10.9.914,10.78-2.577-.132-.227-4.345-1.107-5.536-.25.406.371,2.436-.116,2.389-1.184-.113-.028-3.044-.435-3.447-.832,1.092-.633,3.1-.783,4.474-.078.707.04,1.76-.917,1.711s-.963-1.312-.889-1.973c.151-1.352,1.371-2.42,1.413-3.8.026-.846-.423-1.084-.557-1.8-.123-.658.44-1.473-.335-1.717-.381.41-.891,3.562-1.467,1.946-.224-.627.366-1.245.392-1.835A6.892,6.892,0,0,0,811.584,620.893Z" transform="translate(-811.315 -620.893)" fill="#80c0ff"/>
            <path id="Path_8240" data-name="Path 8240" d="M831.968,689.914c-1.929-.746-.641-3.927-.4-5.253.079-.426.2-1.246.281-2.147C831.885,684.992,833.06,687.975,831.968,689.914Z" transform="translate(-827.938 -673.13)" fill="#80c0ff"/>
            <path id="Path_8241" data-name="Path 8241" d="M816.661,714.789c-1.929-.746-.642-3.928-.4-5.253.079-.426.2-1.246.281-2.148C816.578,709.867,817.753,712.85,816.661,714.789Z" transform="translate(-814.962 -694.217)" fill="#80c0ff"/>
            <path id="Path_8242" data-name="Path 8242" d="M823.632,670.231c-.785-.373-.145-1.666,0-2.214.047-.176.124-.516.185-.891C823.753,668.166,824.151,669.453,823.632,670.231Z" transform="translate(-821.432 -660.086)" fill="#aedaff"/>
            <path id="Path_8243" data-name="Path 8243" d="M837.342,626.218c-.859-.13-.62-1.553-.64-2.119-.007-.182-.031-.53-.08-.907C836.86,624.206,837.614,625.323,837.342,626.218Z" transform="translate(-832.768 -622.842)" fill="#aedaff"/>
            <path id="Path_8244" data-name="Path 8244" d="M817.509,728.4c-.785-.373-.145-1.667,0-2.214.046-.176.124-.516.185-.891C817.629,726.335,818.028,727.622,817.509,728.4Z" transform="translate(-816.241 -709.398)" fill="#aedaff"/>
            <path id="Path_8245" data-name="Path 8245" d="M833.582,700.847c-.785-.373-.145-1.666,0-2.214.046-.176.124-.516.185-.891C833.7,698.782,834.1,700.069,833.582,700.847Z" transform="translate(-829.867 -686.04)" fill="#aedaff"/>
            <path id="Path_8246" data-name="Path 8246" d="M845.829,670.231c-.785-.373-.145-1.666,0-2.214.046-.176.124-.516.185-.891C845.949,668.166,846.347,669.453,845.829,670.231Z" transform="translate(-840.248 -660.086)" fill="#aedaff"/>
          </g>
        </g>
        <path id="Path_8247" data-name="Path 8247" d="M919.014,509.206s1.967,9.964-8.26,10.619C913.507,517.859,919.149,513.113,919.014,509.206Z" transform="translate(-871.071 -492.425)" fill="#f0fcff"/>
      </g>
    </g>
  </g>
</svg>
