<svg xmlns="http://www.w3.org/2000/svg" width="232.791" height="234.31" viewBox="0 0 232.791 234.31">
  <g id="Questions-cuate" transform="translate(-38.37 -35.177)">
    <g id="freepik--background-complete--inject-26" transform="translate(41.312 35.679)">
      <rect id="Rectangle_4008" data-name="Rectangle 4008" width="91.646" height="4.02" transform="translate(98.746 50.809) rotate(180)" fill="#ebebeb"/>
      <rect id="Rectangle_4009" data-name="Rectangle 4009" width="4.02" height="13.293" transform="translate(89.583 50.814)" fill="#ebebeb"/>
      <rect id="Rectangle_4010" data-name="Rectangle 4010" width="4.02" height="4.108" transform="translate(89.583 50.814)" fill="#dbdbdb"/>
      <rect id="Rectangle_4011" data-name="Rectangle 4011" width="4.02" height="13.293" transform="translate(12.232 50.814)" fill="#ebebeb"/>
      <rect id="Rectangle_4012" data-name="Rectangle 4012" width="4.02" height="4.108" transform="translate(12.232 50.814)" fill="#dbdbdb"/>
      <rect id="Rectangle_4013" data-name="Rectangle 4013" width="25.613" height="6.451" transform="translate(81.636 21.18) rotate(90)" fill="#c7c7c7"/>
      <rect id="Rectangle_4014" data-name="Rectangle 4014" width="2.816" height="6.451" transform="translate(81.636 19.811) rotate(90)" fill="#dbdbdb"/>
      <rect id="Rectangle_4015" data-name="Rectangle 4015" width="1.045" height="6.451" transform="translate(81.636 26.229) rotate(90)" fill="#dbdbdb"/>
      <rect id="Rectangle_4016" data-name="Rectangle 4016" width="2.816" height="7.254" transform="translate(81.636 40.617) rotate(90)" fill="#dbdbdb"/>
      <rect id="Rectangle_4017" data-name="Rectangle 4017" width="29.881" height="4.51" transform="translate(75.184 16.912) rotate(90)" fill="#dbdbdb"/>
      <rect id="Rectangle_4018" data-name="Rectangle 4018" width="11.489" height="2.706" transform="translate(74.304 19.723) rotate(90)" fill="#ebebeb"/>
      <rect id="Rectangle_4019" data-name="Rectangle 4019" width="29.881" height="4.51" transform="matrix(-0.711, 0.703, -0.703, -0.711, 63.031, 25.796)" fill="#c7c7c7"/>
      <rect id="Rectangle_4020" data-name="Rectangle 4020" width="11.489" height="2.706" transform="matrix(-0.711, 0.703, -0.703, -0.711, 54.29, 33.145)" fill="#dbdbdb"/>
      <rect id="Rectangle_4021" data-name="Rectangle 4021" width="22.693" height="7.656" transform="translate(70.68 24.101) rotate(90)" fill="#a6a6a6"/>
      <rect id="Rectangle_4022" data-name="Rectangle 4022" width="2.117" height="7.656" transform="translate(70.68 42.278) rotate(90)" fill="#c7c7c7"/>
      <rect id="Rectangle_4023" data-name="Rectangle 4023" width="0.819" height="7.656" transform="translate(70.68 40.067) rotate(90)" fill="#c7c7c7"/>
      <rect id="Rectangle_4024" data-name="Rectangle 4024" width="21.329" height="5.285" transform="translate(86.927 25.47) rotate(90)" fill="#a6a6a6"/>
      <rect id="Rectangle_4025" data-name="Rectangle 4025" width="1.985" height="5.285" transform="translate(86.927 42.548) rotate(90)" fill="#c7c7c7"/>
      <rect id="Rectangle_4026" data-name="Rectangle 4026" width="1.985" height="5.285" transform="translate(86.927 29.865) rotate(90)" fill="#c7c7c7"/>
      <rect id="Rectangle_4027" data-name="Rectangle 4027" width="0.77" height="5.285" transform="translate(86.921 33.214) rotate(90)" fill="#c7c7c7"/>
      <path id="Path_23672" data-name="Path 23672" d="M89.9,71.479c4.51,4.4,5.269,11.253,4.317,17.237,0,.132-.236.1-.236-.033,0-1.358.044-2.711.038-4.053a.465.465,0,0,0-.072-.182A9.091,9.091,0,0,1,91.013,81.3a42.357,42.357,0,0,1-1.622-4.7c-.055-.148.1-.1.2-.028,2.75,2.024,3.619,4.2,4.4,7.111a24.442,24.442,0,0,0-.479-4.532,15.449,15.449,0,0,0-3.74-7.546.088.088,0,0,1,.121-.121Z" transform="translate(-64.267 -52.01)" fill="#a6a6a6"/>
      <path id="Path_23673" data-name="Path 23673" d="M85.428,69.111c-.781,0-1.265,1.265-1.87,1.65a.583.583,0,0,1-.858-.138c-.6-.836.225-1.864,1-2.442a8.464,8.464,0,0,1-1.606.693.55.55,0,0,1-.726-.435c-.264-1.138,1.166-1.65,2.15-1.65-.479-.33-1.842-1.226-1.1-1.65s2.337.841,2.854,1.265a4.036,4.036,0,0,1,1.721,2.53C87.018,70.046,86.022,69.347,85.428,69.111Z" transform="translate(-60.646 -49.124)" fill="#dbdbdb"/>
      <path id="Path_23674" data-name="Path 23674" d="M86.556,70.136c-.99-.456-2.9.2-3.058-.181-.33-.764,1.193-1.287,2.018-1.391-.759-.2-2.2-.55-2.167-1.259.055-.891,2.227-.127,3.327.715,1.38,1.061,1.375,2.09,1.144,2.293C87.508,70.593,86.721,70.208,86.556,70.136Z" transform="translate(-61.553 -49.957)" fill="#ebebeb"/>
      <path id="Path_23675" data-name="Path 23675" d="M104.77,70.677c-4.675,4.24-5.692,11.038-4.95,17.05,0,.137.231.11.237,0,.049-1.358.06-2.711.115-4.053l.077-.181a9.02,9.02,0,0,0,3.047-3.03,42.332,42.332,0,0,0,1.8-4.636c.061-.148-.1-.11-.2-.038-2.821,1.919-3.778,4.064-4.675,6.941a24.364,24.364,0,0,1,.649-4.51,15.45,15.45,0,0,1,4.037-7.4.1.1,0,0,0-.137-.138Z" transform="translate(-68.867 -51.641)" fill="#a6a6a6"/>
      <path id="Path_23676" data-name="Path 23676" d="M109.24,68.413c.775.055,1.215,1.314,1.8,1.7a.583.583,0,0,0,.863-.1c.633-.814-.154-1.875-.9-2.48a8.7,8.7,0,0,0,1.578.8.55.55,0,0,0,.742-.407c.3-1.133-1.1-1.694-2.084-1.754.484-.313,1.881-1.16,1.177-1.65s-2.354.764-2.9,1.177a4.02,4.02,0,0,0-1.809,2.458C107.618,69.287,108.635,68.627,109.24,68.413Z" transform="translate(-72.511 -48.833)" fill="#dbdbdb"/>
      <path id="Path_23677" data-name="Path 23677" d="M108.954,69.442c1.012-.412,2.887.308,3.063-.06.358-.748-1.144-1.331-1.958-1.463.764-.176,2.2-.451,2.2-1.182,0-.891-2.2-.209-3.349.594-1.419,1.006-1.452,2.029-1.232,2.244C107.986,69.876,108.789,69.524,108.954,69.442Z" transform="translate(-72.456 -49.692)" fill="#ebebeb"/>
      <path id="Path_23678" data-name="Path 23678" d="M97.3,78.085a45.1,45.1,0,0,1-1.452,6.7.166.166,0,1,1-.324-.066c.308-2.068.869-4.1,1.171-6.16a30.887,30.887,0,0,0,.363-6.33c-.2-3.481-1.144-7.188-3.415-9.9-.049-.066.055-.16.1-.1,4.554,5.307,3.85,11.814,3.85,12.4.644-2.2,1.309-4.713,3.745-6.952.1-.1.187-.049.17.115-.435,4.07-1.567,6.2-3.932,8.376C97.484,76.8,97.4,77.447,97.3,78.085Z" transform="translate(-66.178 -47.846)" fill="#a6a6a6"/>
      <path id="Path_23679" data-name="Path 23679" d="M90.36,58.9c-.819-.363-1.947.676-2.75.748a.671.671,0,0,1-.819-.55c-.2-1.166,1.171-1.826,2.26-2.035a10.109,10.109,0,0,1-2.04-.039.649.649,0,0,1-.55-.819c.3-1.314,2.04-1.1,3.074-.654-.33-.55-1.292-2.2-.319-2.293s2,2.046,2.326,2.75c.484,1.034.968,2.458.511,3.487C91.542,60.672,90.86,59.445,90.36,58.9Z" transform="translate(-62.943 -43.814)" fill="#dbdbdb"/>
      <path id="Path_23680" data-name="Path 23680" d="M91.3,60.168c-.8-.962-3.107-1.248-3.085-1.721.044-.957,1.886-.737,2.794-.429-.682-.594-2.024-1.65-1.611-2.4.506-.9,2.37.99,3.091,2.42.9,1.8.374,2.854.033,2.953C92.049,61.125,91.427,60.333,91.3,60.168Z" transform="translate(-63.741 -44.774)" fill="#ebebeb"/>
      <path id="Path_23681" data-name="Path 23681" d="M97.4,93.276l2.007,15.334H87.19c.253-1.358,2.524-15.35,2.524-15.35Z" transform="translate(-63.282 -61.817)" fill="#dbdbdb"/>
      <path id="Path_23682" data-name="Path 23682" d="M368.445,82.69a11.126,11.126,0,0,1,1.782-3.921,6.9,6.9,0,0,1,3.883-2.4c.55-.165,1.194-.341,1.969-.55a14.517,14.517,0,0,0,2.332-.781,7.6,7.6,0,0,0,2.1-1.336,4.142,4.142,0,0,0,1.26-2.139,3.883,3.883,0,0,0,.06-1.82,4.091,4.091,0,0,0-.66-1.507,4.208,4.208,0,0,0-1.232-1.133,5.561,5.561,0,0,0-1.595-.671,4.884,4.884,0,0,0-1.98-.094,6.688,6.688,0,0,0-1.738.506,7.545,7.545,0,0,0-1.518.908,14.25,14.25,0,0,0-1.238,1.056l-3.355-3.85a9.35,9.35,0,0,1,2.255-2.167,10.148,10.148,0,0,1,2.75-1.314,11.17,11.17,0,0,1,3.069-.467,12.1,12.1,0,0,1,3.185.379,12.694,12.694,0,0,1,3.371,1.391,9.163,9.163,0,0,1,2.7,2.42,8.685,8.685,0,0,1,1.518,3.437,9.592,9.592,0,0,1-.187,4.4,9.292,9.292,0,0,1-1.012,2.552,7.584,7.584,0,0,1-1.529,1.826,9.258,9.258,0,0,1-1.964,1.292,17.888,17.888,0,0,1-2.371.94c-.72.22-1.43.418-2.139.6a11.5,11.5,0,0,0-1.991.715,5.72,5.72,0,0,0-1.65,1.133,3.949,3.949,0,0,0-.99,1.859ZM365.8,93.6l1.623-6.446,5.186,1.3L370.986,94.9Z" transform="translate(-188.657 -47.303)" fill="#ebebeb"/>
      <path id="Path_23683" data-name="Path 23683" d="M65.32,311.16a8.189,8.189,0,0,1,.088,3.173,5.2,5.2,0,0,1-1.782,2.849c-.308.281-.687.611-1.138.985a10.417,10.417,0,0,0-1.293,1.27A5.55,5.55,0,0,0,60.233,321a3.063,3.063,0,0,0-.143,1.826,2.949,2.949,0,0,0,.55,1.232,3.064,3.064,0,0,0,.924.786,3.142,3.142,0,0,0,1.182.346,4.126,4.126,0,0,0,1.276-.066,3.652,3.652,0,0,0,1.336-.55,4.836,4.836,0,0,0,.99-.9,5.763,5.763,0,0,0,.715-1.1,9.415,9.415,0,0,0,.478-1.1l3.465,1.452a6.93,6.93,0,0,1-.8,2.167,7.4,7.4,0,0,1-1.408,1.765,8,8,0,0,1-1.886,1.3,9.019,9.019,0,0,1-2.233.776,9.35,9.35,0,0,1-2.684.17,6.777,6.777,0,0,1-2.568-.731,6.474,6.474,0,0,1-2.123-1.793,7.1,7.1,0,0,1-1.292-2.975,6.732,6.732,0,0,1-.154-2.018,5.5,5.5,0,0,1,.424-1.705,6.507,6.507,0,0,1,.885-1.49,12.649,12.649,0,0,1,1.265-1.4c.407-.374.814-.737,1.226-1.1a8.7,8.7,0,0,0,1.1-1.1,4.147,4.147,0,0,0,.671-1.281,2.888,2.888,0,0,0,.055-1.557Zm-1.771-8.09,1.006,4.8-3.85.809-1.006-4.8Z" transform="translate(-49.172 -156.232)" fill="#ebebeb"/>
      <path id="Path_23684" data-name="Path 23684" d="M381.353,223.15a8.249,8.249,0,0,1,1.4,2.849,5.214,5.214,0,0,1-.456,3.338c-.16.385-.368.841-.621,1.369a10.019,10.019,0,0,0-.649,1.694,5.539,5.539,0,0,0-.226,1.82,3.113,3.113,0,0,0,.627,1.721,2.881,2.881,0,0,0,1.012.886,3.025,3.025,0,0,0,1.171.33,3.059,3.059,0,0,0,1.221-.17,4.253,4.253,0,0,0,1.127-.594,3.565,3.565,0,0,0,.985-1.056,4.752,4.752,0,0,0,.55-1.232,6.015,6.015,0,0,0,.193-1.293,10.436,10.436,0,0,0,0-1.193l3.751-.121a6.805,6.805,0,0,1,.176,2.3,7.557,7.557,0,0,1-.55,2.2,8.2,8.2,0,0,1-1.177,1.969,9.074,9.074,0,0,1-1.7,1.65,9.317,9.317,0,0,1-2.376,1.27,6.8,6.8,0,0,1-2.64.4,6.517,6.517,0,0,1-2.673-.742,7.15,7.15,0,0,1-2.414-2.172,6.749,6.749,0,0,1-.979-1.771,5.444,5.444,0,0,1-.325-1.727,6.57,6.57,0,0,1,.181-1.727,13.205,13.205,0,0,1,.578-1.793c.214-.512.429-1.012.66-1.5a8.251,8.251,0,0,0,.55-1.469,4.252,4.252,0,0,0,.121-1.457,2.893,2.893,0,0,0-.6-1.435Zm-4.95-6.6,2.909,3.943-3.173,2.343-2.909-3.943Z" transform="translate(-192.001 -117.298)" fill="#ebebeb"/>
      <path id="Path_23685" data-name="Path 23685" d="M417.991,194.98a8.948,8.948,0,0,1,.627-3.437,5.676,5.676,0,0,1,2.574-2.656c.39-.237.875-.5,1.447-.8a11.336,11.336,0,0,0,1.65-1.072,5.929,5.929,0,0,0,1.386-1.463,3.366,3.366,0,0,0,.55-1.936,3.179,3.179,0,0,0-1.133-2.5,3.349,3.349,0,0,0-1.188-.643,4.614,4.614,0,0,0-1.386-.215,4.076,4.076,0,0,0-1.562.291,5.584,5.584,0,0,0-1.27.743,6.143,6.143,0,0,0-1.018,1.017,10.9,10.9,0,0,0-.759,1.072l-3.4-2.343a7.645,7.645,0,0,1,1.348-2.15,8.37,8.37,0,0,1,1.914-1.578,9.1,9.1,0,0,1,2.326-.979,10.01,10.01,0,0,1,2.574-.33,10.253,10.253,0,0,1,2.931.429,7.408,7.408,0,0,1,2.6,1.37,7.151,7.151,0,0,1,1.875,2.4,7.893,7.893,0,0,1,.765,3.5,7.651,7.651,0,0,1-.292,2.2,6.287,6.287,0,0,1-.841,1.738,7.228,7.228,0,0,1-1.287,1.4,14.418,14.418,0,0,1-1.683,1.21c-.517.314-1.039.616-1.562.9a9.47,9.47,0,0,0-1.424.957,4.564,4.564,0,0,0-1.051,1.21,3.151,3.151,0,0,0-.412,1.65Zm.077,9.1v-5.39H422.4v5.39Z" transform="translate(-210.577 -99.05)" fill="#ebebeb"/>
      <path id="Path_23686" data-name="Path 23686" d="M169.226,251.147a8.976,8.976,0,0,1-.1-3.492,5.67,5.67,0,0,1,1.969-3.129c.336-.313.748-.671,1.249-1.1a12.563,12.563,0,0,0,1.419-1.4,6.237,6.237,0,0,0,1.051-1.721,3.355,3.355,0,0,0,.154-2.007,3.218,3.218,0,0,0-.6-1.353,3.3,3.3,0,0,0-1.023-.825,3.366,3.366,0,0,0-1.3-.385,4.747,4.747,0,0,0-1.4.077,4.1,4.1,0,0,0-1.468.611,5.539,5.539,0,0,0-1.1.99,6.359,6.359,0,0,0-.781,1.2,10.717,10.717,0,0,0-.55,1.21L163,238.222a7.635,7.635,0,0,1,.874-2.382,8.123,8.123,0,0,1,1.545-1.941,8.867,8.867,0,0,1,2.068-1.441,10.291,10.291,0,0,1,2.453-.858,10.406,10.406,0,0,1,2.953-.187,7.469,7.469,0,0,1,2.822.8,7.034,7.034,0,0,1,2.332,1.964,8.64,8.64,0,0,1,1.606,5.5,6.181,6.181,0,0,1-.462,1.87,7.3,7.3,0,0,1-.968,1.65,15.273,15.273,0,0,1-1.392,1.534c-.445.413-.891.814-1.342,1.2a9.7,9.7,0,0,0-1.2,1.232,4.779,4.779,0,0,0-.781,1.4,3.234,3.234,0,0,0-.055,1.71Zm1.963,8.882-1.1-5.269,4.24-.9,1.1,5.274Z" transform="translate(-97.397 -123.972)" fill="#ebebeb"/>
      <path id="Path_23687" data-name="Path 23687" d="M414.668,339.629l7.348-.154,3.619-.06c1.2-.027,2.4,0,3.6-.033l-.242.247-.033-6.154.275.275-7.3-.033c-2.425,0-4.851-.066-7.282-.094l.154-.148c0,1.007-.049,2.018-.077,3.047Zm0,0-.077-3.047c0-1.023-.06-2.062-.071-3.107v-.148h.148c2.431-.027,4.857-.088,7.282-.094l7.282-.033h.275v6.677h-.247c-1.227,0-2.458,0-3.679-.033l-3.663-.06Z" transform="translate(-210.582 -169.791)" fill="#ebebeb"/>
      <path id="Path_23688" data-name="Path 23688" d="M429.439,353.739l7.348-.154,3.619-.06c1.2-.028,2.4,0,3.6-.033l-.242.248-.027-6.154.269.275-7.282-.033c-2.425,0-4.851-.066-7.282-.094l.154-.148c0,1.007-.05,2.019-.072,3.047Zm0,0-.077-3.047c0-1.023-.06-2.062-.072-3.107v-.148h.148c2.431-.027,4.856-.088,7.282-.094L444,347.31h.28v.275l-.033,6.154v.247h-.27c-1.227,0-2.453,0-3.68-.033l-3.663-.061Z" transform="translate(-217.228 -176.14)" fill="#ebebeb"/>
      <path id="Path_23689" data-name="Path 23689" d="M399.879,353.739l7.348-.154,3.619-.06c1.2-.028,2.4,0,3.6-.033l-.242.248-.022-6.155.275.275-7.282-.033c-2.425,0-4.856-.066-7.282-.094l.149-.149c0,1.007-.044,2.019-.072,3.047Zm0,0-.077-3.047c-.027-1.023-.061-2.062-.072-3.107v-.148h.149c2.426-.027,4.856-.088,7.282-.094l7.282-.033h.275v.275l.011,6.154v.247h-.242c-1.227,0-2.458,0-3.679-.033l-3.663-.061Z" transform="translate(-203.926 -176.14)" fill="#ebebeb"/>
      <path id="Path_23690" data-name="Path 23690" d="M58.6,353.739l7.342-.154,3.619-.06c1.2-.028,2.4,0,3.6-.033l-.247.248-.028-6.154.275.275-7.265-.033c-2.431,0-4.856-.066-7.282-.094l.148-.149c0,1.007-.049,2.019-.071,3.047Zm0,0-.082-3.047c0-1.023-.061-2.062-.072-3.107v-.148H58.6c2.425-.027,4.851-.088,7.282-.094l7.282-.033h.275v.275l-.033,6.154v.247h-.242c-1.226,0-2.458,0-3.685-.033l-3.663-.061Z" transform="translate(-50.349 -176.14)" fill="#ebebeb"/>
      <path id="Path_23691" data-name="Path 23691" d="M58.6,42.514l7.342-.154,3.619-.066h3.6l-.247.248-.028-6.154.275.27L65.9,36.59c-2.431,0-4.856-.06-7.282-.088l.148-.148c0,1.006-.049,2.018-.071,3.041Zm0,0-.082-3.047c0-1.028-.061-2.068-.072-3.107v-.148H58.6c2.425,0,4.851-.088,7.282-.088l7.282-.033h.275v.28l-.033,6.154v.242h-.242c-1.226,0-2.458,0-3.685-.028l-3.663-.1Z" transform="translate(-50.349 -36.09)" fill="#ebebeb"/>
      <path id="Path_23692" data-name="Path 23692" d="M43.874,56.624l7.342-.154,3.619-.066h3.6l-.247.248V50.5l.275.27-7.331-.061c-2.431,0-4.856-.066-7.26-.066l.148-.148c0,1.006-.049,2.018-.071,3.041Zm0,0-.083-3.047c0-1.028-.061-2.068-.072-3.107v-.148h.154c2.425,0,4.851-.088,7.282-.088l7.282-.033h.275v.28l-.033,6.154v.242H54.753l-3.663-.066Z" transform="translate(-43.72 -42.44)" fill="#ebebeb"/>
      <path id="Path_23693" data-name="Path 23693" d="M429.439,42.519l7.348-.154,3.619-.061c1.2,0,2.4,0,3.6-.033l-.242.247-.027-6.154.269.275-7.282-.05c-2.425,0-4.851-.06-7.282-.088l.154-.148c0,1.006-.05,2.018-.072,3.041Zm0,0-.077-3.047c0-1.028-.06-2.062-.072-3.107v-.148h.148c2.431-.028,4.856-.083,7.282-.088l7.26-.039h.28v.275l-.027,6.154v.247H440.3l-3.663-.06Z" transform="translate(-217.228 -36.09)" fill="#ebebeb"/>
      <path id="Path_23694" data-name="Path 23694" d="M274.069,192.618l-7.342.154-3.619.06c-1.2.028-2.4,0-3.6.033l.247-.247.028,6.154-.275-.275,7.282.038c2.431,0,4.856.061,7.282.088l-.148.149c0-1.007.049-2.018.072-3.041Zm0,0,.082,3.047c0,1.029.061,2.062.072,3.107v.148h-.154c-2.425,0-4.851.082-7.282.088l-7.282.033h-.275v-.28l.033-6.154v-.247h.242c1.227,0,2.458,0,3.685.027l3.663.061Z" transform="translate(-140.7 -106.412)" fill="#ebebeb"/>
      <path id="Path_23695" data-name="Path 23695" d="M259.294,178.513l-7.342.154-3.619.061c-1.2,0-2.4,0-3.6.033l.248-.247.027,6.154-.275-.275,7.282.038c2.425,0,4.856.061,7.282.088l-.148.148c0-1.007.044-2.018.071-3.041Zm0,0,.077,3.047c.027,1.028.066,2.062.071,3.107v.148h-.154c-2.425.027-4.856.082-7.282.088l-7.282.033h-.275v-.275l.033-6.154v-.247h.27c1.226,0,2.458,0,3.685.027l3.663.061Z" transform="translate(-134.049 -100.067)" fill="#ebebeb"/>
    </g>
    <g id="freepik--Floor--inject-26" transform="translate(38.37 240.789)">
      <path id="Path_23696" data-name="Path 23696" d="M38.37,409.3l29.1-.132,29.1-.049,58.2-.094,58.2.094,29.1.049,29.1.132-29.1.137-29.1.05-58.2.088-58.2-.088-29.1-.05Z" transform="translate(-38.37 -409.02)" fill="#263238"/>
    </g>
    <g id="freepik--Shadow--inject-26" transform="translate(55.552 250.172)">
      <ellipse id="Ellipse_2381" data-name="Ellipse 2381" cx="99.214" cy="9.658" rx="99.214" ry="9.658" transform="translate(0 0)" fill="#ebebeb"/>
    </g>
    <g id="freepik--Plant--inject-26" transform="translate(204.056 162.386)">
      <path id="Path_23697" data-name="Path 23697" d="M412.5,296.364c-2.09-2.046-4.79-4.521-7.986-3.635-3,.831-4.152,4.108-4.691,6.842-.693,3.525-1.232,7.078-1.793,10.626s-1.1,7.15-1.611,10.752q-.44,3.036-.858,6.077-.215,1.518-.424,3.036c-.137,1-.3,1.991-.357,2.992a.28.28,0,0,0,.55.06c.39-1.689.55-3.448.8-5.159s.5-3.454.748-5.175c.5-3.426,1.023-6.847,1.534-10.274s1.05-6.842,1.6-10.263c.462-2.9.682-6.506,3.25-8.42a4.989,4.989,0,0,1,4.813-.451,14.505,14.505,0,0,1,4.367,3.058C412.5,296.469,412.556,296.408,412.5,296.364Z" transform="translate(-364.442 -278.203)" fill="#263238"/>
      <path id="Path_23698" data-name="Path 23698" d="M416.106,290.749s-4.273-1.535-6.38,1.578.412,11.044,19.855,15.515a54.8,54.8,0,0,0-4.675-17.572C420.737,281.18,413.306,284.622,416.106,290.749Z" transform="translate(-370.891 -274.678)" fill="#e53f71"/>
      <path id="Path_23699" data-name="Path 23699" d="M432.361,311.251a15,15,0,0,0-.979-1.573c-.324-.5-.654-1-.984-1.5-.247-.374-.506-.748-.759-1.1a.8.8,0,0,1,.033-.275l.066-.506c.049-.363.1-.732.154-1.1s.116-.72.187-1.1a5.653,5.653,0,0,1,.253-1.144c0-.06-.077-.088-.083,0a4.339,4.339,0,0,1-.176.649l-.132.49c-.094.368-.181.737-.264,1.1s-.143.688-.2,1.029c-.028.171-.05.335-.072.5-.347-.495-.7-.984-1.067-1.463-1.034-1.358-2.123-2.667-3.256-3.949v-.033a35.177,35.177,0,0,1,.506-6.05c0-.055-.066-.088-.082-.033a20.987,20.987,0,0,0-.726,5.813c-.4-.451-.814-.9-1.226-1.348-.952-1.017-1.914-2.024-2.9-3-.039-.039-.1,0-.066.06,1.65,1.765,3.2,3.6,4.713,5.472a33.406,33.406,0,0,0-3.558.132c-1.315.094-2.623.264-3.932.446-.061,0-.044.094,0,.088a34.718,34.718,0,0,1,3.927-.352c1.27-.055,2.53,0,3.8,0q1.232,1.518,2.426,3.069H426.9c-.594,0-1.182.055-1.771.1a26.305,26.305,0,0,0-3.591.55.044.044,0,1,0,0,.088c1.194-.137,2.392-.247,3.591-.291H427.8a1.1,1.1,0,0,0,.49-.044q.781,1.018,1.562,2.04.619.825,1.221,1.65c.4.55.781,1.182,1.232,1.71C432.322,311.345,432.383,311.3,432.361,311.251Z" transform="translate(-374.787 -279.384)" fill="#263238"/>
      <path id="Path_23700" data-name="Path 23700" d="M421.768,303.634a13.135,13.135,0,0,0-2.079-.1c-.693,0-1.391,0-2.084.044a.044.044,0,0,0,0,.088c.7-.055,1.408-.066,2.112-.055s1.364.077,2.04.055C421.79,303.667,421.79,303.639,421.768,303.634Z" transform="translate(-374.694 -283.145)" fill="#263238"/>
      <path id="Path_23701" data-name="Path 23701" d="M436.049,304.909c.077-.665.16-1.331.3-1.985a.044.044,0,1,0-.088,0c-.1.654-.226,1.3-.319,1.958-.049.324-.093.655-.137.979a4.815,4.815,0,0,0-.077.929.06.06,0,0,0,.115,0,5.853,5.853,0,0,0,.1-.93C435.972,305.542,436.01,305.223,436.049,304.909Z" transform="translate(-382.87 -282.854)" fill="#263238"/>
      <path id="Path_23702" data-name="Path 23702" d="M433.438,293.167c-.171.649-.341,1.3-.456,1.958-.06.335-.116.671-.16,1.006a4.22,4.22,0,0,0-.066.984.028.028,0,0,0,.055,0,5.343,5.343,0,0,0,.148-.935c.044-.324.094-.644.148-.968.121-.676.242-1.347.413-2.013C433.526,293.145,433.438,293.112,433.438,293.167Z" transform="translate(-381.529 -278.47)" fill="#263238"/>
      <path id="Path_23703" data-name="Path 23703" d="M380.169,345.543c-.11-1.221-.231-2.448-.357-3.668q-.39-3.63-.874-7.254c-.325-2.4-.633-4.818-1.023-7.216a17.513,17.513,0,0,0-.742-3.3,3.107,3.107,0,0,0-1.815-2.051c-2.288-.786-3.85,1.584-4.752,3.261-.027.049.044.088.077.044.55-.8,2.079-3.025,3.817-2.92,1.166.066,2.1.9,2.662,3.806,1.4,7.254,2.656,22,2.8,22.94.077.511.434.49.44-.061C380.384,347.947,380.246,346.742,380.169,345.543Z" transform="translate(-353.561 -291.412)" fill="#263238"/>
      <path id="Path_23704" data-name="Path 23704" d="M363.467,322.822s2-7.062-2.42-3.531c-7.359,5.879-7.617,18.645-7.617,18.645s13.079-7.6,14.7-12.606C370.557,317.883,363.467,322.822,363.467,322.822Z" transform="translate(-345.835 -289.794)" fill="#e53f71"/>
      <path id="Path_23705" data-name="Path 23705" d="M366.608,329.255c-1.023.209-2.068.346-3.1.495l-1.474.209c-.33.044-.665.077-1,.116.973-1.342,1.958-2.678,2.893-4.048a.055.055,0,1,0-.088-.066,29.935,29.935,0,0,0-2.2,2.524l-.583-1.65c-.22-.632-.462-1.26-.621-1.914,0-.055-.1,0-.082.027.176.643.3,1.309.478,1.958s.358,1.243.578,1.853c-.479.622-.94,1.259-1.386,1.9-.225-.638-.506-1.254-.7-1.9,0-.055-.1-.027-.088,0,.237.721.363,1.463.583,2.2-.3.44-.6.88-.885,1.32-.55.819-1.029,1.65-1.513,2.486a.193.193,0,0,0-.116.2c-.825,1.43-1.611,2.876-2.387,4.34a.044.044,0,1,0,.077.044c.776-1.446,1.65-2.854,2.535-4.235h0a1.7,1.7,0,0,1,.429-.082l.451-.1c.335-.072.671-.16,1.006-.242.666-.165,1.32-.325,2-.44.055,0,.028-.094,0-.083-.792.149-1.584.242-2.387.33-.379.044-.753.094-1.127.154h-.055q.7-1.067,1.43-2.123c.473-.687.962-1.37,1.452-2.052.456-.06.9-.181,1.353-.264l1.518-.3c1.012-.2,2.024-.429,3.041-.594C366.691,329.354,366.663,329.244,366.608,329.255Z" transform="translate(-346.5 -292.762)" fill="#263238"/>
      <path id="Path_23706" data-name="Path 23706" d="M361.43,332.642c-.06-.187-.115-.374-.176-.55a11.06,11.06,0,0,1-.3-1.188c0-.055-.094-.027-.083,0,.088.4.182.8.27,1.193a7.148,7.148,0,0,0,.341,1.172.082.082,0,0,0,.154-.044C361.573,333.038,361.491,332.84,361.43,332.642Z" transform="translate(-349.182 -295.45)" fill="#263238"/>
      <path id="Path_23707" data-name="Path 23707" d="M375.651,329.85c-.594.088-1.193.132-1.8.187s-1.194.132-1.793.225c-.033,0-.033.055,0,.049.6-.039,1.2-.088,1.8-.165s1.194-.165,1.8-.209C375.712,329.932,375.706,329.844,375.651,329.85Z" transform="translate(-354.207 -294.99)" fill="#263238"/>
      <path id="Path_23708" data-name="Path 23708" d="M386.623,317.358c-.236-5.2-.55-10.389-1.1-15.565-.258-2.579-.55-5.153-.913-7.7a54.136,54.136,0,0,0-1.49-7.474,14.388,14.388,0,0,0-2.486-5.269,5.659,5.659,0,0,0-5.027-2.2,10.19,10.19,0,0,0-5.692,3.272c-1.776,1.749-3.4,3.657-5.049,5.5-.418.473-.831.952-1.243,1.43-.033.044.027.1.066.06,1.611-1.848,3.3-3.646,5.032-5.362,1.617-1.59,3.3-3.3,5.5-3.982a5.753,5.753,0,0,1,3.212-.077,5.1,5.1,0,0,1,2.2,1.391,11.444,11.444,0,0,1,2.475,4.807,83.225,83.225,0,0,1,2.414,14.723c.517,4.933.885,10.037,1.138,15.075s.451,10.125.941,15.174c.06.621.138,1.243.22,1.864.049.413.7.418.665,0C387.1,327.8,386.854,322.583,386.623,317.358Z" transform="translate(-350.417 -272.164)" fill="#263238"/>
      <path id="Path_23709" data-name="Path 23709" d="M358.842,280.05s2.97-5.5-.55-7.26-15.246,11.341-18.672,30.5c0,0,18.958-8.387,25.4-16.747S364.166,276.349,358.842,280.05Z" transform="translate(-339.62 -269.242)" fill="#e53f71"/>
      <path id="Path_23710" data-name="Path 23710" d="M364.031,289.747c-2.128,0-4.257-.16-6.385-.149l1.2-1.369a19.214,19.214,0,0,0,1.65-1.936c.027-.044-.033-.1-.077-.072a14.436,14.436,0,0,0-1.611,1.617c-.55.55-1.067,1.133-1.6,1.705-.814.885-1.611,1.776-2.409,2.678V288.7c0-1.463,0-2.937.11-4.4,0-.055-.083-.055-.088,0-.1,1.474-.253,2.937-.324,4.4-.033.726-.05,1.447-.061,2.173V292.6c-.121.143-.253.28-.374.418-1.7,1.947-3.3,3.954-4.895,6a1.428,1.428,0,0,0-.027-.341c0-.225-.049-.451-.072-.677-.055-.49-.121-.973-.2-1.463s-.137-.913-.214-1.37-.215-1.028-.253-1.545a.044.044,0,1,0-.082,0,14.907,14.907,0,0,1,.176,1.562l.132,1.408c.039.467.083.935.132,1.408l.066.677a2.334,2.334,0,0,0,.044.335.55.55,0,0,0,.088.27l-.808,1.056c-1.1,1.424-2.134,2.866-3.19,4.3-.033.044.033.1.066.06,1-1.3,2.029-2.585,3.069-3.85.781.033,1.578-.027,2.359-.038s1.65,0,2.464,0a.044.044,0,0,0,0-.088c-.825,0-1.65.028-2.469.033s-1.512-.033-2.26,0c.913-1.1,1.842-2.2,2.75-3.327l1.078-1.21a5,5,0,0,0,.951.033h1.1c.7,0,1.4,0,2.1-.027,1.447,0,2.893-.072,4.339-.077a.044.044,0,1,0,0-.082c-1.452,0-2.9-.082-4.345-.121-.7,0-1.4-.039-2.106-.049h-1.749l2.392-2.832a.132.132,0,0,0,.044-.049c.776-.919,1.551-1.831,2.337-2.75.11-.121.22-.242.324-.369,2.2.066,4.4-.077,6.6-.033C364.091,289.835,364.091,289.747,364.031,289.747Z" transform="translate(-342.02 -274.472)" fill="#263238"/>
      <path id="Path_23711" data-name="Path 23711" d="M377.206,301.09h-.517a.039.039,0,1,0,0,.077h.512a.044.044,0,0,0,.005-.077Z" transform="translate(-356.284 -282.048)" fill="#263238"/>
      <path id="Path_23712" data-name="Path 23712" d="M372.258,301.031c-.682,0-1.364,0-2.046-.044l-1.017-.011a3.929,3.929,0,0,0-.951,0,.033.033,0,0,0,0,.066,3.709,3.709,0,0,0,.957.066h3.069C372.319,301.119,372.319,301.031,372.258,301.031Z" transform="translate(-352.486 -281.984)" fill="#263238"/>
      <path id="Path_23713" data-name="Path 23713" d="M361.306,312.43a27.56,27.56,0,0,0-4.2-.379v.027c1.4.132,2.788.209,4.174.434C361.339,312.523,361.361,312.435,361.306,312.43Z" transform="translate(-347.491 -286.98)" fill="#263238"/>
      <path id="Path_23714" data-name="Path 23714" d="M353.942,299.371a2.723,2.723,0,0,0-.044-.363c-.033-.275-.077-.55-.121-.819-.082-.522-.171-1.039-.27-1.562,0-.044-.093-.033-.088,0,.066.55.127,1.073.176,1.611l.066.792a2.26,2.26,0,0,0,.1.748.1.1,0,0,0,.187-.027,1.066,1.066,0,0,0-.011-.38Z" transform="translate(-345.83 -280.027)" fill="#263238"/>
      <path id="Path_23715" data-name="Path 23715" d="M398.967,270.973c-.682-1.265-1.545-2.931-3.239-2.827-1.4.088-2.03,1.513-2.327,2.695a56.588,56.588,0,0,0-1.166,11.236c-.385,7.9-.726,15.812-.776,23.727v6.6c0,2.238,0,4.488.154,6.721a.165.165,0,1,0,.33,0c0-1.914-.055-3.85-.061-5.742s0-3.734.033-5.6q.093-5.67.3-11.341c.143-3.756.308-7.513.467-11.269.077-1.875.159-3.756.242-5.632s.16-3.635.368-5.445c.116-1.017.264-2.029.479-3.025a4.185,4.185,0,0,1,.874-2.029,1.9,1.9,0,0,1,2.469-.176,5.213,5.213,0,0,1,1.754,2.2.064.064,0,1,0,.094-.088Z" transform="translate(-362.948 -267.221)" fill="#263238"/>
      <path id="Path_23716" data-name="Path 23716" d="M401.323,269.615s-1.391-4.917,1.688-2.458c5.126,4.092,5.307,13,5.307,13s-9.113-5.291-10.246-8.8C396.384,266.172,401.323,269.615,401.323,269.615Z" transform="translate(-365.765 -266.468)" fill="#e53f71"/>
      <path id="Path_23717" data-name="Path 23717" d="M408.262,279.4c-.083-.137-.171-.269-.259-.407a2.651,2.651,0,0,0,0-.418c0-.209,0-.424,0-.633a11.794,11.794,0,0,1,.044-1.249.044.044,0,0,0-.088,0c0,.407-.038.82-.049,1.227v.875c-.358-.55-.726-1.1-1.1-1.65-.11-.159-.225-.314-.335-.468a8.7,8.7,0,0,1-.027-1.606c0-.55,0-1.144.033-1.716a.044.044,0,0,0-.088,0c0,.594-.044,1.188-.077,1.782a10.863,10.863,0,0,0-.033,1.271c-.88-1.194-1.815-2.349-2.75-3.5a.043.043,0,0,0-.066.055c.583.742,1.144,1.5,1.694,2.271-1.072-.253-2.161-.4-3.25-.55-.055,0-.077.077,0,.088,1.155.176,2.288.462,3.426.715h0c.435.616.869,1.232,1.293,1.854l.517.759H407.1l-.357-.049-.759-.066c-.522-.044-1.051-.072-1.578-.1-.055,0-.05.088,0,.088a14.49,14.49,0,0,1,1.546.1l.819.1.352.044h.1c.292.429.589.858.874,1.287.517.765.979,1.578,1.523,2.31a.044.044,0,0,0,.072-.044,23.056,23.056,0,0,0-1.436-2.376Z" transform="translate(-367.628 -269.359)" fill="#263238"/>
      <path id="Path_23718" data-name="Path 23718" d="M409.291,273.113v-.578a8.812,8.812,0,0,1,.049-1.2.044.044,0,1,0-.082,0c0,.4-.044.8-.066,1.194v.875a.989.989,0,0,0,0,.286.039.039,0,0,0,.077,0,.847.847,0,0,0,0-.264Z" transform="translate(-370.923 -268.63)" fill="#263238"/>
      <path id="Path_23719" data-name="Path 23719" d="M405.552,278.14c-.341-.06-.687-.077-1.029-.1s-.748-.066-1.1-.116a.044.044,0,1,0,0,.088c.72.044,1.435.176,2.156.2C405.586,278.212,405.591,278.146,405.552,278.14Z" transform="translate(-368.312 -271.622)" fill="#263238"/>
      <path id="Path_23720" data-name="Path 23720" d="M412.515,278.332c.027.039,0,.148,0,.193v.847a.771.771,0,0,0,0,.3h.033a.314.314,0,0,0,0-.143,1.479,1.479,0,0,1,0-.159v-1.034C412.548,278.293,412.46,278.249,412.515,278.332Z" transform="translate(-372.415 -271.786)" fill="#263238"/>
      <path id="Path_23721" data-name="Path 23721" d="M392.669,318.045c-1.914-1.435-3.635-3.5-6.215-3.608-2.129-.082-3.619,1.518-4.471,3.3a19.062,19.062,0,0,0-1.039,2.943q-.578,2.013-1.1,4.053-1,4.009-1.705,8.085c-.258,1.512-.5,3.03-.693,4.554a39.015,39.015,0,0,0-.445,4.664.242.242,0,0,0,.479.055c.258-1.276.368-2.59.55-3.877s.385-2.59.6-3.877q.66-3.85,1.529-7.7c.55-2.415,1.1-4.862,1.865-7.21.55-1.683,1.452-3.646,3.272-4.251,2.75-.918,5.274,1.419,7.3,2.942C392.653,318.144,392.713,318.078,392.669,318.045Z" transform="translate(-356.441 -288.053)" fill="#263238"/>
      <path id="Path_23722" data-name="Path 23722" d="M396.473,313.444s-1.771-5.043.786-6.05c3.85-1.479,13.849,9.806,11.885,27.1a98.526,98.526,0,0,1-13.458-9.064c-5.72-4.8-7.15-11.066-4.658-12.683S396.473,313.444,396.473,313.444Z" transform="translate(-362.225 -284.826)" fill="#e53f71"/>
      <path id="Path_23723" data-name="Path 23723" d="M412.139,335.157a13.247,13.247,0,0,0-.93-1.743c-.33-.594-.66-1.182-1-1.766-.665-1.138-1.326-2.277-2.008-3.41l-.335-.55a1.322,1.322,0,0,1,.039-.2l.115-.5c.088-.374.154-.754.22-1.133.143-.737.27-1.485.467-2.2,0-.049-.072-.066-.082,0-.16.737-.4,1.469-.611,2.2-.11.357-.225.709-.319,1.072l-.1.368c-.819-1.347-1.65-2.689-2.563-3.987a1.838,1.838,0,0,0,.093-.55c.027-.253.055-.506.088-.759.066-.55.132-1.138.214-1.7.165-1.1.33-2.2.605-3.3,0-.055-.071-.071-.082,0-.281,1.1-.578,2.2-.786,3.3-.1.55-.2,1.1-.27,1.65-.033.275-.066.55-.094.825a.656.656,0,0,1-.033.247c-.275-.39-.55-.786-.842-1.166-.885-1.166-1.8-2.3-2.75-3.432-.033-.044-.11,0-.072.049a61.263,61.263,0,0,1,4.356,6.358l.753,1.226-.253-.033c-.324-.044-.649-.06-.973-.094l-1.958-.171c-1.3-.1-2.612-.181-3.91-.319-.055,0-.071.077,0,.082,1.32.154,2.629.363,3.944.55.649.093,1.292.181,1.941.264a7.742,7.742,0,0,0,1.49.148c.512.836,1.029,1.65,1.54,2.5h-4.73c-.06,0-.049.082,0,.082.852,0,1.7.055,2.552.1l1.21.072.605.044a1.216,1.216,0,0,0,.55,0l1.309,2.123c.4.655.809,1.3,1.221,1.952a15.948,15.948,0,0,0,1.314,1.969C412.09,335.24,412.161,335.212,412.139,335.157Z" transform="translate(-366.374 -289.182)" fill="#263238"/>
      <path id="Path_23724" data-name="Path 23724" d="M415.437,324.616a12.147,12.147,0,0,1-.346,1.65c-.143.55-.3,1.1-.484,1.65a.055.055,0,1,0,.1.033c.171-.55.324-1.1.456-1.65s.22-1.1.357-1.677a.044.044,0,1,0-.088-.005Z" transform="translate(-373.362 -292.617)" fill="#263238"/>
      <path id="Path_23725" data-name="Path 23725" d="M401.367,330.183a.682.682,0,0,0-.423-.16l-.731-.1c-.451-.061-.908-.11-1.358-.165-.946-.11-1.886-.2-2.832-.319-.055,0-.071.077,0,.082.891.11,1.777.248,2.667.363l1.3.171.632.066a2.2,2.2,0,0,1,.715.126.039.039,0,0,0,.027-.066Z" transform="translate(-364.979 -294.806)" fill="#263238"/>
      <path id="Path_23726" data-name="Path 23726" d="M413.8,344.566c-.445-.039-.9-.055-1.342-.066h-1a2.2,2.2,0,0,1-.423,0c-.061,0-.066.094,0,.082a1.908,1.908,0,0,1,.4,0h.352l.671.044c.445.028.9.055,1.342.055C413.847,344.66,413.853,344.566,413.8,344.566Z" transform="translate(-371.734 -301.583)" fill="#263238"/>
      <path id="Path_23727" data-name="Path 23727" d="M420.842,339.219l.148-.759c.088-.5.181-1,.275-1.5a.044.044,0,0,0-.088,0l-.33,1.457c-.055.242-.11.484-.16.726a1.511,1.511,0,0,1-.072.341.978.978,0,0,0-.039.357.055.055,0,0,0,.1.028A1.791,1.791,0,0,0,420.842,339.219Z" transform="translate(-376.05 -298.172)" fill="#263238"/>
      <path id="Path_23728" data-name="Path 23728" d="M373.4,361.1l.539,6.132,1.831,20.7h16.208l2.288-20.7.677-6.132Z" transform="translate(-354.821 -309.053)" fill="#37474f"/>
      <path id="Path_23729" data-name="Path 23729" d="M373.4,361.1l.539,6.132h20.328l.677-6.132Z" transform="translate(-354.821 -309.053)" fill="#263238"/>
      <rect id="Rectangle_4028" data-name="Rectangle 4028" width="24.755" height="4.972" transform="translate(41.728 55.352) rotate(180)" fill="#37474f"/>
    </g>
    <g id="freepik--question-mark--inject-26" transform="translate(107.207 63.091)">
      <path id="Path_23730" data-name="Path 23730" d="M194.6,216.939a62.058,62.058,0,0,1,4.312-23.721q4.312-10.521,17.787-18.331,4.048-2.425,9.977-5.5a80.474,80.474,0,0,0,11.588-7.414,42.349,42.349,0,0,0,9.57-10.1,23.3,23.3,0,0,0,3.91-13.348,22.044,22.044,0,0,0-2.145-10,22.885,22.885,0,0,0-5.659-7.276,23.573,23.573,0,0,0-8.25-4.449,31.9,31.9,0,0,0-9.57-1.479,27.808,27.808,0,0,0-10.747,2,36.789,36.789,0,0,0-8.756,5.12,42.933,42.933,0,0,0-7.012,7.012,76.9,76.9,0,0,0-5.252,7.408H190.3l-19.4-16.17a52.343,52.343,0,0,1,9.3-14.85,57.067,57.067,0,0,1,13.2-10.917,61.858,61.858,0,0,1,16.054-6.7,69.173,69.173,0,0,1,17.792-2.293,70.7,70.7,0,0,1,20.218,2.964,51.38,51.38,0,0,1,17.924,9.438,48.95,48.95,0,0,1,12.941,16.577q4.983,10.109,4.983,24.128a52.117,52.117,0,0,1-2.019,15.229,42.468,42.468,0,0,1-5.8,12,50.539,50.539,0,0,1-8.893,9.7,101.907,101.907,0,0,1-11.594,8.354q-5.4,3.245-10.78,6.2a64.9,64.9,0,0,0-9.839,6.6,32.185,32.185,0,0,0-7.282,8.36,21.908,21.908,0,0,0-2.827,11.456Zm.55,62.8v-37.2h29.92v37.2Z" transform="translate(-166.847 -85.93)" fill="#e53f71"/>
      <g id="Group_11633" data-name="Group 11633" transform="translate(4.053 0)" opacity="0.2">
        <path id="Path_23731" data-name="Path 23731" d="M194.6,216.939a62.058,62.058,0,0,1,4.312-23.721q4.312-10.521,17.787-18.331,4.048-2.425,9.977-5.5a80.474,80.474,0,0,0,11.588-7.414,42.349,42.349,0,0,0,9.57-10.1,23.3,23.3,0,0,0,3.91-13.348,22.044,22.044,0,0,0-2.145-10,22.885,22.885,0,0,0-5.659-7.276,23.573,23.573,0,0,0-8.25-4.449,31.9,31.9,0,0,0-9.57-1.479,27.808,27.808,0,0,0-10.747,2,36.789,36.789,0,0,0-8.756,5.12,42.933,42.933,0,0,0-7.012,7.012,76.9,76.9,0,0,0-5.252,7.408H190.3l-19.4-16.17a52.343,52.343,0,0,1,9.3-14.85,57.067,57.067,0,0,1,13.2-10.917,61.858,61.858,0,0,1,16.054-6.7,69.173,69.173,0,0,1,17.792-2.293,70.7,70.7,0,0,1,20.218,2.964,51.38,51.38,0,0,1,17.924,9.438,48.95,48.95,0,0,1,12.941,16.577q4.983,10.109,4.983,24.128a52.117,52.117,0,0,1-2.019,15.229,42.468,42.468,0,0,1-5.8,12,50.539,50.539,0,0,1-8.893,9.7,101.907,101.907,0,0,1-11.594,8.354q-5.4,3.245-10.78,6.2a64.9,64.9,0,0,0-9.839,6.6,32.185,32.185,0,0,0-7.282,8.36,21.908,21.908,0,0,0-2.827,11.456Zm.55,62.8v-37.2h29.92v37.2Z" transform="translate(-170.9 -85.93)"/>
      </g>
      <path id="Path_23732" data-name="Path 23732" d="M187.251,216.939a62.059,62.059,0,0,1,4.312-23.721q4.312-10.521,17.792-18.331,4.042-2.425,9.971-5.5a80.223,80.223,0,0,0,11.594-7.414,42.449,42.449,0,0,0,9.57-10.1,23.336,23.336,0,0,0,3.9-13.348,22.044,22.044,0,0,0-2.156-9.971,22.886,22.886,0,0,0-5.659-7.276,23.573,23.573,0,0,0-8.25-4.449,31.9,31.9,0,0,0-9.57-1.479,27.764,27.764,0,0,0-10.752,1.974,36.85,36.85,0,0,0-8.761,5.12,42.9,42.9,0,0,0-7.007,7.012,77,77,0,0,0-5.258,7.408L163.53,120.69a52.25,52.25,0,0,1,9.3-14.85,56.924,56.924,0,0,1,13.2-10.917,61.89,61.89,0,0,1,16.049-6.7,69.128,69.128,0,0,1,17.809-2.293,70.669,70.669,0,0,1,20.218,2.964,51.33,51.33,0,0,1,17.924,9.438,48.894,48.894,0,0,1,12.941,16.577q4.983,10.109,4.988,24.128a52.112,52.112,0,0,1-2.024,15.229,42.352,42.352,0,0,1-5.819,12,50.537,50.537,0,0,1-8.893,9.7,100.93,100.93,0,0,1-11.594,8.354q-5.384,3.245-10.78,6.2a64.9,64.9,0,0,0-9.839,6.6,32.164,32.164,0,0,0-7.276,8.36,21.944,21.944,0,0,0-2.832,11.456Zm.55,62.8v-37.2h29.887v37.2Z" transform="translate(-163.53 -85.93)" fill="#e53f71"/>
    </g>
    <g id="freepik--Character--inject-26" transform="translate(51.797 71.774)">
      <path id="Path_23733" data-name="Path 23733" d="M154.222,416.14c-1.171.374-34.573-.055-35.832-.88-.484-.308-.7-5.175-.8-11.071v-.181c0-1.216-.039-2.469-.044-3.734v-.523c-.044-8.5.088-17.33.088-17.33l22.346.226-.676,17.143-.027.682-.137,3.553v.363s12.7,5.907,13.992,6.952S155.393,415.766,154.222,416.14Z" transform="translate(-87.421 -228.035)" fill="#ad6359"/>
      <path id="Path_23734" data-name="Path 23734" d="M154.229,430.32c-1.171.374-34.573-.055-35.832-.88-.484-.308-.7-5.175-.8-11.071v-.181c0-1.215-.038-2.469-.044-3.734v-.523l21.763.06-.027.682-.138,3.553v.363s12.694,5.885,13.986,6.93S155.4,429.946,154.229,430.32Z" transform="translate(-87.428 -242.215)" fill="#ebebeb"/>
      <path id="Path_23735" data-name="Path 23735" d="M154.27,433.8c-.72.231-13.662.154-23.793-.132-6.325-.171-11.55-.435-12.039-.748s-.7-5.038-.8-10.824v-.435l21.554.044v.363s12.716,5.885,14,6.935S155.441,433.424,154.27,433.8Z" transform="translate(-87.469 -245.693)" fill="#e53f71"/>
      <path id="Path_23736" data-name="Path 23736" d="M155.8,441.038c-5.632-.209-28.352-.55-33.935-.313-.044,0-.044.033,0,.038,5.577.33,28.3.468,33.929.369C155.913,441.131,155.913,441.043,155.8,441.038Z" transform="translate(-89.354 -254.236)" fill="#263238"/>
      <path id="Path_23737" data-name="Path 23737" d="M155.717,421.75c-2.2-.44-4.922-.138-6.638,1.419-.066.061,0,.154.093.132a31.418,31.418,0,0,1,6.534-1.271.143.143,0,0,0,.011-.28Z" transform="translate(-101.604 -245.651)" fill="#263238"/>
      <path id="Path_23738" data-name="Path 23738" d="M158.607,423.54c-2.2-.44-4.922-.138-6.638,1.419-.066.061,0,.154.094.132a31.349,31.349,0,0,1,6.512-1.27.143.143,0,0,0,.033-.281Z" transform="translate(-102.904 -246.456)" fill="#263238"/>
      <path id="Path_23739" data-name="Path 23739" d="M161.487,425.329c-2.2-.44-4.922-.137-6.638,1.419-.066.061,0,.154.094.132a31.418,31.418,0,0,1,6.534-1.265.143.143,0,0,0,.011-.286Z" transform="translate(-104.2 -247.262)" fill="#263238"/>
      <path id="Path_23740" data-name="Path 23740" d="M160.883,412.592c-.858-1.21-2.486-.687-3.421.077a11.8,11.8,0,0,0-3.476,5.032.055.055,0,0,0,.049.077.272.272,0,0,0,.346.28c1.837-.655,3.883-1.1,5.467-2.321C160.773,415.04,161.692,413.742,160.883,412.592Zm-3.921,3.9c-.9.346-1.8.643-2.684,1.018.682-.979,1.314-1.98,2.1-2.893a14.229,14.229,0,0,1,1.188-1.254c.671-.589,3.3-1.831,2.871.594C160.2,415.3,158.034,416.09,156.962,416.5Z" transform="translate(-103.822 -241.289)" fill="#263238"/>
      <path id="Path_23741" data-name="Path 23741" d="M142.235,418.073c1.815.8,3.916.792,5.857,1.007a.289.289,0,0,0,.27-.358.061.061,0,0,0,.033-.088,11.89,11.89,0,0,0-4.543-4.1c-1.1-.55-2.794-.66-3.344.715S141.173,417.606,142.235,418.073Zm-.979-1.595c-.968-2.26,1.875-1.65,2.656-1.232a11.882,11.882,0,0,1,1.446.946,34.147,34.147,0,0,1,2.706,2.332c-.946-.165-1.9-.242-2.849-.374-1.133-.148-3.4-.423-3.949-1.672Z" transform="translate(-97.698 -242.316)" fill="#263238"/>
      <path id="Path_23742" data-name="Path 23742" d="M130.5,434.022c-6.325-.171-11.55-.434-12.039-.748s-.7-5.038-.8-10.824C120.245,424.766,126.691,430.513,130.5,434.022Z" transform="translate(-87.478 -246.049)" fill="#263238"/>
      <path id="Path_23743" data-name="Path 23743" d="M105.24,207.48s5.016,56.441,5.83,60.747c.193.984.308,6.319.385,13.172.17,14.965.071,41.948.071,41.948h23.545s-.7-46.75-1.743-55.357-7.7-60.5-7.7-60.5Z" transform="translate(-81.889 -149.311)" fill="#37474f"/>
      <path id="Path_23744" data-name="Path 23744" d="M139.846,410.553c-3.674-.077-2.618-.1-6.292-.143-1.8,0-13.612-.115-15.3.16a.038.038,0,1,0,0,.077c1.683.275,13.5.176,15.3.154,3.674-.033,2.618-.06,6.292-.138a.055.055,0,1,0,0-.11Z" transform="translate(-87.73 -240.62)" fill="#263238"/>
      <path id="Path_23745" data-name="Path 23745" d="M118.432,294.7q-.044-5.126-.077-10.246c0-3.3,0-6.6-.176-9.9-.319-6.693-1.65-13.271-2.64-19.888s-1.771-13.26-2.5-19.91c-.819-7.458-1.54-14.932-2.3-22.4,0-.049-.088-.049-.082,0,1.1,13.332,2.348,26.658,4.191,39.908q.693,4.95,1.507,9.867c.55,3.3,1.1,6.644,1.358,10s.3,6.6.33,9.9q.061,5.126.1,10.241c.071,7.579.143,19.25.22,26.829a.115.115,0,0,0,.226,0C118.542,312.31,118.482,301.459,118.432,294.7Z" transform="translate(-84.323 -151.49)" fill="#263238"/>
      <path id="Path_23746" data-name="Path 23746" d="M96.21,207.48s9.982,56.441,10.8,60.747c.193.984.308,6.319.385,13.172h0l11.253-73.919Z" transform="translate(-77.825 -149.311)" fill="#263238"/>
      <path id="Path_23747" data-name="Path 23747" d="M105.088,417.686c-1.193.292-34.485-2.508-35.684-3.415-.462-.341-.335-5.214,0-11.1v-.187c.066-1.21.137-2.458.226-3.723l.033-.55c.55-8.486,1.314-17.281,1.314-17.281l22.269,1.837-1.886,17.05-.071.677L90.9,404.53l-.038.363s12.259,6.77,13.475,7.909S106.281,417.394,105.088,417.686Z" transform="translate(-65.627 -227.59)" fill="#ad6359"/>
      <path id="Path_23748" data-name="Path 23748" d="M105.088,431.825c-1.193.292-34.485-2.508-35.684-3.415-.462-.341-.335-5.214,0-11.1v-.187c.066-1.21.137-2.458.226-3.724l.033-.55,21.7,1.6-.071.677-.385,3.536-.038.363s12.259,6.77,13.475,7.909S106.281,431.533,105.088,431.825Z" transform="translate(-65.627 -241.729)" fill="#ebebeb"/>
      <path id="Path_23749" data-name="Path 23749" d="M105.088,435.321c-1.193.292-34.485-2.508-35.684-3.415-.462-.341-.335-5.214,0-11.1v-.187l21.5,1.568-.038.363s12.259,6.77,13.475,7.909S106.281,435.03,105.088,435.321Z" transform="translate(-65.627 -245.225)" fill="#e53f71"/>
      <path id="Path_23750" data-name="Path 23750" d="M106.3,442.717c-5.6-.611-28.242-2.535-33.825-2.717-.044,0-.049.033,0,.039,5.533.726,28.193,2.469,33.819,2.75C106.428,442.816,106.439,442.75,106.3,442.717Z" transform="translate(-67.127 -253.946)" fill="#263238"/>
      <path id="Path_23751" data-name="Path 23751" d="M107.537,423.663c-2.2-.594-4.9-.484-6.721.946-.071.055,0,.159.082.143a31.05,31.05,0,0,1,6.6-.808.143.143,0,0,0,.038-.28Z" transform="translate(-79.884 -246.442)" fill="#263238"/>
      <path id="Path_23752" data-name="Path 23752" d="M110.294,425.653c-2.2-.594-4.906-.484-6.726.946-.066.055,0,.159.082.143a31.1,31.1,0,0,1,6.6-.808.143.143,0,0,0,.044-.28Z" transform="translate(-81.124 -247.337)" fill="#263238"/>
      <path id="Path_23753" data-name="Path 23753" d="M113.045,427.643c-2.2-.594-4.906-.484-6.726.946-.066.055,0,.16.088.143a31,31,0,0,1,6.6-.809.143.143,0,0,0,.038-.28Z" transform="translate(-82.362 -248.233)" fill="#263238"/>
      <path id="Path_23754" data-name="Path 23754" d="M113.055,414.954c-.764-1.271-2.425-.869-3.415-.171a11.786,11.786,0,0,0-3.85,4.774c0,.044,0,.072.044.082a.275.275,0,0,0,.324.3c1.875-.523,3.954-.847,5.615-1.931C112.786,417.358,113.792,416.153,113.055,414.954Zm-4.185,3.613c-.918.28-1.842.512-2.75.825a35.07,35.07,0,0,1,2.293-2.75,12.775,12.775,0,0,1,1.276-1.166c.709-.55,3.415-1.6,2.821.792-.313,1.331-2.535,1.969-3.63,2.3Z" transform="translate(-82.136 -242.304)" fill="#263238"/>
      <path id="Path_23755" data-name="Path 23755" d="M94.344,418.9c1.754.929,3.85,1.067,5.769,1.413.2.039.319-.165.3-.33a.061.061,0,0,0,.033-.088,11.77,11.77,0,0,0-4.24-4.4c-1.045-.611-2.75-.858-3.382.473S93.321,418.356,94.344,418.9Zm-.863-1.65c-.808-2.327,1.985-1.518,2.75-1.045a12.794,12.794,0,0,1,1.375,1.051,34.223,34.223,0,0,1,2.535,2.519c-.935-.231-1.875-.38-2.816-.55-1.133-.269-3.388-.7-3.844-1.985Z" transform="translate(-76.218 -242.697)" fill="#263238"/>
      <path id="Path_23756" data-name="Path 23756" d="M91.223,324.587l-23.523-1s6.424-51.623,6.539-54.807c.308-8.25,5.78-61.374,5.78-61.374h28.732s-1.815,12.27-4.911,20.047a35.837,35.837,0,0,0-6.011,2.75s-2.695,35.139-2.794,39.523C94.815,278.409,91.223,324.587,91.223,324.587Z" transform="translate(-64.995 -149.28)" fill="#37474f"/>
      <path id="Path_23757" data-name="Path 23757" d="M91.662,411.852c-3.663-.231-2.607-.215-6.281-.407-1.793-.093-13.6-.693-15.284-.49-.038,0-.038.066,0,.077,1.65.346,13.48.748,15.273.8,3.674.121,2.623.049,6.3.126a.055.055,0,1,0-.005-.11Z" transform="translate(-66.061 -240.857)" fill="#263238"/>
      <path id="Path_23758" data-name="Path 23758" d="M84.912,213.11c-1.067,13.381-2.161,26.768-3.388,40.15s-2.662,26.818-4.4,40.177c-.973,7.452-2.073,17.963-3.234,25.4,0,.049.066.072.077,0,2.37-13.2,4.114-29.612,5.593-42.949s2.695-26.713,3.778-40.089c.61-7.568,1.16-15.141,1.743-22.709C85.088,213.017,84.95,213.017,84.912,213.11Z" transform="translate(-67.781 -151.812)" fill="#263238"/>
      <path id="Path_23759" data-name="Path 23759" d="M129.477,242.91a44.417,44.417,0,0,0-7.034,3.3.079.079,0,1,0,.066.143c2.37-1.017,4.785-1.991,7.095-3.14a.164.164,0,0,0-.126-.3Z" transform="translate(-89.609 -165.249)" fill="#263238"/>
      <path id="Path_23760" data-name="Path 23760" d="M132.689,213.294c0-.082-.148-.1-.148,0,0,2.81-.16,5.285-.4,7.92-.11,1.221-1.1,7.964-3.212,7.474-.352-.082-.55-.434-.589-.968a8.108,8.108,0,0,1,.281-2.068c.231-1.413.424-2.827.55-4.257a38.7,38.7,0,0,0-.088-7.98.071.071,0,0,0-.137,0,73.077,73.077,0,0,1-.644,11c-.264,1.754-1.149,4.4.688,4.664s3.08-4.147,3.3-5.357A40.271,40.271,0,0,0,132.689,213.294Z" transform="translate(-92.067 -151.897)" fill="#263238"/>
      <path id="Path_23761" data-name="Path 23761" d="M129.36,241.526a10.45,10.45,0,0,0-.473,1.4,3.069,3.069,0,0,0-.2,1.15c0,.077.1.082.143.033a4.07,4.07,0,0,0,.495-1.1c.16-.435.33-.864.479-1.3a.239.239,0,0,0-.445-.176Z" transform="translate(-92.441 -164.564)" fill="#263238"/>
      <path id="Path_23762" data-name="Path 23762" d="M105.483,216.623a3.58,3.58,0,0,0-.088-.874.049.049,0,0,0-.088,0,3.849,3.849,0,0,0-.1.759,8.591,8.591,0,0,1-.1.869,12.743,12.743,0,0,1-.308,1.766,6.264,6.264,0,0,1-1.617,2.9,8.349,8.349,0,0,1-2.75,1.8,31.136,31.136,0,0,1-3.47,1.007.044.044,0,1,0,0,.088,10.1,10.1,0,0,0,3.795-.748,8.167,8.167,0,0,0,2.854-1.82,6.341,6.341,0,0,0,1.65-2.987,9.136,9.136,0,0,0,.231-1.771A8.5,8.5,0,0,0,105.483,216.623Z" transform="translate(-78.144 -153.02)" fill="#263238"/>
      <path id="Path_23763" data-name="Path 23763" d="M151.848,118.78c1.771,2.139,3.7,7.92,3.624,9.5s-9.8,5.164-11.176,4.306-6.787-8.5-6.836-11.335S150.011,116.569,151.848,118.78Z" transform="translate(-96.388 -108.956)" fill="#ad6359"/>
      <path id="Path_23764" data-name="Path 23764" d="M132.708,110.171c-.891-.929-3.773-3.707-5.054-2.453-.8.781,1.133,2.92,1.947,3.767a21.545,21.545,0,0,1,3.58,6.314c.6,1.5,3.437-1.463,3.437-1.463A23.608,23.608,0,0,0,132.708,110.171Z" transform="translate(-91.889 -104.274)" fill="#ad6359"/>
      <path id="Path_23765" data-name="Path 23765" d="M140.387,121.4s1,2.673,2.618,2.612,1.21-2.359,1.188-2.524c.049.143,1.028,2.574,2.656,2.348s.935-2.486.885-2.629c.088.115,1.342,1.65,2.535,1.193,2.057-.781-1.028-4.779-.731-6.534,0,0,3.036.17,3.124.154,0,0-2.86-3.85-5.252-4.136a1.529,1.529,0,0,0-1.65,1,2.414,2.414,0,0,0-2.073-1.21c-.66.072-1.133,1.193-1.133,1.193a1.914,1.914,0,0,0-1.809-.858c-.907.149-1.358,1.281-1.408,1.721A21.593,21.593,0,0,0,140.387,121.4Z" transform="translate(-97.202 -106.193)" fill="#ad6359"/>
      <path id="Path_23766" data-name="Path 23766" d="M139.364,114.86h-.044a13.7,13.7,0,0,0,1,8.085c.038.077.181.049.154-.044A28.169,28.169,0,0,1,139.364,114.86Z" transform="translate(-97.126 -107.632)" fill="#263238"/>
      <path id="Path_23767" data-name="Path 23767" d="M145.037,113.76c0-.033-.049-.033-.055,0a12.809,12.809,0,0,0,1.65,8.745c.061.093.2.116.143,0C145.768,120.679,144.982,116.306,145.037,113.76Z" transform="translate(-99.691 -107.126)" fill="#263238"/>
      <path id="Path_23768" data-name="Path 23768" d="M153.052,122.412a17.613,17.613,0,0,1-2.167-8.354c0-.039-.055-.033-.066,0a11.566,11.566,0,0,0,.292,4.79,7.892,7.892,0,0,0,1.853,3.613C152.992,122.506,153.052,122.467,153.052,122.412Z" transform="translate(-102.333 -107.259)" fill="#263238"/>
      <path id="Path_23769" data-name="Path 23769" d="M141.3,124.828a9.1,9.1,0,0,0,.847,1.408,3.025,3.025,0,0,0,1.188,1.034.99.99,0,0,0,.709,0,1.452,1.452,0,0,0,.6-.412,1.777,1.777,0,0,0,.3-1.4l-.2-1.188.6,1.045a5,5,0,0,0,1,1.248,1.744,1.744,0,0,0,1.342.517,1.006,1.006,0,0,0,.935-.858,3.1,3.1,0,0,0-.192-1.518l-.49-1.342.9,1.1a4.818,4.818,0,0,0,.853.819,1.919,1.919,0,0,0,1.023.407.913.913,0,0,0,.836-.462,2.007,2.007,0,0,0,.083-1.1,15.91,15.91,0,0,0-.66-2.387c-.132-.4-.264-.8-.374-1.2a2.986,2.986,0,0,1-.143-1.243,3.3,3.3,0,0,0,.253,1.21c.143.39.3.775.462,1.166a13.5,13.5,0,0,1,.8,2.414,2.36,2.36,0,0,1-.055,1.347,1.287,1.287,0,0,1-1.21.737,2.332,2.332,0,0,1-1.281-.473,5.132,5.132,0,0,1-.962-.9l.407-.242a3.5,3.5,0,0,1,.247,1.787,1.457,1.457,0,0,1-.473.874,1.65,1.65,0,0,1-.9.374,2.2,2.2,0,0,1-1.705-.654,5.258,5.258,0,0,1-1.1-1.386l.4-.143a2.112,2.112,0,0,1-.462,1.71,1.788,1.788,0,0,1-.77.473,1.243,1.243,0,0,1-.9-.066,3.064,3.064,0,0,1-1.2-1.193,7.328,7.328,0,0,1-.7-1.5Z" transform="translate(-98.116 -109.625)" fill="#263238"/>
      <path id="Path_23770" data-name="Path 23770" d="M141.8,133.8s-10.488-5.362-6.38-8.431c1.215-.913,7.315-3.206,7.8-1.991.627,1.567-1.743,3-3.371,3.663,0,0,3.822,1.326,3.7,4.257A2.921,2.921,0,0,1,141.8,133.8Z" transform="translate(-95.04 -111.308)" fill="#ad6359"/>
      <path id="Path_23771" data-name="Path 23771" d="M135.61,125.429a5.967,5.967,0,0,1,1.463-1.034,14.163,14.163,0,0,1,1.65-.748,20.746,20.746,0,0,1,3.465-1.023,3.223,3.223,0,0,1,.957-.055,1.26,1.26,0,0,1,.55.165.891.891,0,0,1,.231.192.825.825,0,0,1,.149.259,1.5,1.5,0,0,1,0,1.05,2.706,2.706,0,0,1-.506.841,5.363,5.363,0,0,1-1.458,1.16,11.753,11.753,0,0,1-1.65.781v-.39a7.44,7.44,0,0,1,1.238.621,6.627,6.627,0,0,1,1.1.83,4.653,4.653,0,0,1,.836,1.1,3.575,3.575,0,0,1,.435,1.281,4.075,4.075,0,0,0-.55-1.2,4.911,4.911,0,0,0-.891-.957,6.27,6.27,0,0,0-1.1-.737,6.869,6.869,0,0,0-1.193-.517l-.511-.159.5-.231a12.987,12.987,0,0,0,1.556-.8,5.374,5.374,0,0,0,1.32-1.072,1.485,1.485,0,0,0,.418-1.386c-.121-.385-.776-.368-1.331-.286s-1.144.231-1.721.374-1.144.3-1.71.484a11.5,11.5,0,0,0-3.239,1.463Z" transform="translate(-95.555 -111.095)" fill="#263238"/>
      <path id="Path_23772" data-name="Path 23772" d="M123.224,150.533c9.273,11.445,22.753,18.859,26.081,16.445s-7.887-15.053-8.079-15.24c-.654-.627-5.615-3.206-14.624-7C117.762,141.013,119.082,145.424,123.224,150.533Z" transform="translate(-88.537 -120.453)" fill="#ad6359"/>
      <path id="Path_23773" data-name="Path 23773" d="M136.41,148.807l-6.985,9.185s-5.863-6.05-8.965-10.054-2.794-7.117,4.147-4.532A87.091,87.091,0,0,1,136.41,148.807Z" transform="translate(-87.89 -120.052)" fill="#e53f71"/>
      <path id="Path_23774" data-name="Path 23774" d="M137.077,160.915c.853-1.254,1.743-2.486,2.656-3.69.456-.594.9-1.2,1.364-1.787s1-1.177,1.479-1.782c.033-.044.1,0,.066.044-.44.6-.836,1.238-1.276,1.842s-.924,1.232-1.391,1.848q-1.38,1.815-2.843,3.564C137.1,160.987,137.027,160.954,137.077,160.915Z" transform="translate(-96.208 -125.082)" fill="#263238"/>
      <path id="Path_23775" data-name="Path 23775" d="M132.8,154.98l-3.344,4.4s-5.863-6.05-8.965-10.054l-.3-.391-.127-.182-.192-.28q-.247-.363-.445-.709c-.049-.082-.093-.165-.138-.247a6.722,6.722,0,0,1-.55-1.314,3.355,3.355,0,0,1-.093-.429c0-.072,0-.137,0-.2C121.7,147.682,128.847,152.307,132.8,154.98Z" transform="translate(-87.923 -121.451)" fill="#263238"/>
      <path id="Path_23776" data-name="Path 23776" d="M118.673,183.955s-31.828.55-32.015.352c-.5-.55,5.934-33.324,12.584-40.078,2.348-2.387,7.194-1.413,8-1.023,1.864.9,3.619,2.849,5.087,6.457C115.269,156.879,119.075,183.438,118.673,183.955Z" transform="translate(-73.514 -120.149)" fill="#e53f71"/>
      <path id="Path_23777" data-name="Path 23777" d="M108.814,145.064H99.172l.049-.055a4.274,4.274,0,0,1,.743-.6h8a6.6,6.6,0,0,1,.847.655Zm1.061,1.1H98.265c-.154.2-.3.423-.451.654h12.567c-.16-.231-.325-.435-.468-.654Zm1.2,1.754H97.148c-.121.215-.242.435-.357.66h14.657c-.115-.225-.236-.451-.363-.66Zm.9,1.76H96.235l-.313.655h16.34c-.088-.225-.181-.446-.28-.649Zm.7,1.755H95.438l-.281.654h17.737c-.072-.2-.143-.445-.231-.655Zm.55,1.754H94.712c-.083.22-.171.434-.258.66h18.958Zm.473,1.754H94.046c-.077.22-.16.434-.236.66h20.058a5.786,5.786,0,0,1-.165-.66Zm.429,1.76H93.414c-.077.215-.149.434-.22.654H114.27Zm.4,1.754H92.864c-.071.215-.137.434-.209.654H114.7c-.077-.22-.121-.44-.171-.627Zm.374,1.754H92.314c-.071.214-.137.434-.2.66h22.957c-.071-.22-.115-.44-.165-.66Zm.357,1.755H91.764c-.066.22-.132.44-.193.66h23.842Zm.341,1.76H91.247c-.066.22-.126.434-.187.654h24.662c-.038-.22-.077-.44-.121-.655Zm.324,1.754H90.757c-.061.22-.121.44-.176.655h25.465c-.038-.22-.082-.435-.121-.655Zm.313,1.755H90.29c-.061.22-.116.44-.171.66h26.235q-.05-.33-.116-.66Zm.314,1.76H89.833c-.049.22-.1.434-.16.654h26.983c-.033-.215-.071-.435-.1-.654Zm.286,1.754H89.4c-.049.22-.1.44-.154.654h27.7c-.033-.215-.071-.435-.11-.654Zm.286,1.754H88.981c-.049.225-.1.445-.154.66h28.4c-.033-.22-.066-.435-.1-.66Zm.28,1.754H88.579c-.049.22-.1.445-.148.66H117.5c-.033-.214-.066-.435-.094-.66Zm.258,1.76H88.189c-.044.22-.093.44-.137.654h29.7Zm.253,1.755H87.815c-.044.225-.088.44-.132.654H118.01c-.033-.215-.061-.435-.093-.655Zm.242,1.754H87.468q-.077.341-.132.66h30.91a5.153,5.153,0,0,1-.083-.66Zm.22,1.754H87.133c-.044.231-.082.451-.121.66h31.449q-.033-.314-.083-.66Zm.2,1.76H86.814c-.038.236-.066.456-.1.654h31.9a4.688,4.688,0,0,0-.033-.655ZM86.6,184.8a.589.589,0,0,0,0,.291c.148.148,19.888-.154,28.3-.291Z" transform="translate(-73.494 -120.929)" fill="#030402" opacity="0.1"/>
      <path id="Path_23778" data-name="Path 23778" d="M90.325,148.877c-2.145,2.942-13.145,15.1-13.552,16.23s2.139,3.619,2.1,4.086c-.165,1.9-4.273,14.564-5.918,13.277-2.167-1.694-11.341-13.827-10.043-19.079s22.72-17.864,26.119-18.958S92.442,145.973,90.325,148.877Z" transform="translate(-62.782 -120.826)" fill="#ad6359"/>
      <path id="Path_23779" data-name="Path 23779" d="M92.038,159.591l-6.248-8.772a94.776,94.776,0,0,1,11.665-6.545c4.675-1.958,6.979-.869,2.706,5.175A106.118,106.118,0,0,1,92.038,159.591Z" transform="translate(-73.136 -120.468)" fill="#e53f71"/>
      <path id="Path_23780" data-name="Path 23780" d="M89.1,155.85q1.485,1.721,2.887,3.52c.462.589.93,1.172,1.375,1.771s.885,1.27,1.353,1.886c.033.044-.033.1-.066.055-.473-.55-.979-1.1-1.452-1.7s-.957-1.21-1.43-1.815c-.935-1.2-1.842-2.425-2.717-3.668C89.019,155.861,89.074,155.817,89.1,155.85Z" transform="translate(-74.599 -126.072)" fill="#263238"/>
      <path id="Path_23781" data-name="Path 23781" d="M97.122,166.949c.957-1.27,2.084-2.4,3.118-3.608s2.062-2.447,3.047-3.7c0,0,.071,0,.049.033-.456.654-.9,1.314-1.38,1.952-.236.314-.484.622-.737.93l.368-.3a14.105,14.105,0,0,1,1.171-.792s.044,0,0,.033a13.29,13.29,0,0,1-1.1.913c-.275.209-.55.4-.841.594l-.44.55a26.16,26.16,0,0,1-3.2,3.437A.036.036,0,1,1,97.122,166.949Z" transform="translate(-78.231 -127.783)" fill="#263238"/>
      <path id="Path_23782" data-name="Path 23782" d="M82.247,207.132c1.468-1-.55-2.161-.55-2.161s3.3.979,4.4-.632-1.408-2.876-1.584-2.975c.176.055,3.234.869,4.191-.863s-1.727-2.7-1.9-2.75c.182,0,2.563-.1,2.992-1.589.731-2.546-6.11-2.843-7.584-4.4,0,0,.66-3.366.715-3.459a3.85,3.85,0,0,1-1.947,1.65c-1.479.418-2.81.66-3.41,1.37a1.947,1.947,0,0,0-.22,2.31,2.912,2.912,0,0,0-2.667,1.127c-.407.688.336,1.958.336,1.958a2.316,2.316,0,0,0-2.139,1.1,2.233,2.233,0,0,0,.313,2.106s-1.5.55-1.688,1.738C71.131,204.041,79.1,209.255,82.247,207.132Z" transform="translate(-66.7 -140.68)" fill="#ad6359"/>
      <path id="Path_23783" data-name="Path 23783" d="M74.785,209.8s-.06,0-.038.039a16.5,16.5,0,0,0,8.525,4.884c.1,0,.181-.143.071-.187a33.825,33.825,0,0,1-8.558-4.735Z" transform="translate(-68.164 -150.355)" fill="#263238"/>
      <path id="Path_23784" data-name="Path 23784" d="M77.813,203.554a.035.035,0,0,0-.044.055,15.488,15.488,0,0,0,9.63,4.746c.127,0,.253-.11.1-.132C85.04,207.849,80.233,205.446,77.813,203.554Z" transform="translate(-69.521 -147.541)" fill="#263238"/>
      <path id="Path_23785" data-name="Path 23785" d="M91.94,202.108A21.251,21.251,0,0,1,82.3,198.17c-.038,0-.072.028-.049.061a13.916,13.916,0,0,0,4.84,3.184,9.482,9.482,0,0,0,4.829.82A.064.064,0,0,0,91.94,202.108Z" transform="translate(-71.542 -145.122)" fill="#263238"/>
      <path id="Path_23786" data-name="Path 23786" d="M73.9,200.146a2.293,2.293,0,0,1-.55-2.337,1.738,1.738,0,0,1,.853-.858,2.926,2.926,0,0,1,1.4-.127,2.244,2.244,0,0,1-.038-2.541,1.716,1.716,0,0,1,1.1-.577,5.439,5.439,0,0,1,1.457.055,1.991,1.991,0,0,1-.423-1.732,2.167,2.167,0,0,1,1.32-1.447,10.449,10.449,0,0,1,2.315-.55,5.164,5.164,0,0,0,1.182-.324,2.233,2.233,0,0,0,.984-.88c.044-.066.044,0,0,.06a2.706,2.706,0,0,1-.583.693,3.5,3.5,0,0,1-.8.522,15.067,15.067,0,0,1-2.2.643,3.08,3.08,0,0,0-1.65,1.1,1.848,1.848,0,0,0-.066,1.936s0,.072-.049.066a5.4,5.4,0,0,0-1.3.154,1.76,1.76,0,0,0-.913.55,2.365,2.365,0,0,0-.11,2.354,3.851,3.851,0,0,0-1.369.352,1.732,1.732,0,0,0-.649.715,2.04,2.04,0,0,0,.214,2.128.061.061,0,0,1,0,.028h0s-.479.2-.5.2h0A3.386,3.386,0,0,1,73.9,200.146Z" transform="translate(-67.488 -140.905)" fill="#263238"/>
      <path id="Path_23787" data-name="Path 23787" d="M118.361,143.18c-1.749.643-5.17-1.738-6.66-3.817-.1-.143-.2-6.33-.341-7.551-.033-.253,7.9.946,7.9.946a19.629,19.629,0,0,0-.176,4.785C119.109,137.718,120.05,142.564,118.361,143.18Z" transform="translate(-84.642 -115.244)" fill="#ad6359"/>
      <path id="Path_23788" data-name="Path 23788" d="M119.263,132.758s-.088.511-.16,1.27c-2.2,2.7-5.731,2.986-7.524,2.926-.06-1.919-.132-4.4-.22-5.142C111.327,131.565,119.263,132.758,119.263,132.758Z" transform="translate(-84.642 -115.245)" fill="#263238"/>
      <path id="Path_23789" data-name="Path 23789" d="M108.745,107.87a5.234,5.234,0,0,0-3.047,3.509,10.589,10.589,0,0,0,.209,5.351C106.116,116.868,108.745,107.87,108.745,107.87Z" transform="translate(-81.994 -104.486)" fill="#263238"/>
      <path id="Path_23790" data-name="Path 23790" d="M118.877,109.816c.649,2.788-1.32,10.593-3.388,12.221-2.992,2.365-7.634,2.3-9.581-1.237-1.881-3.426.869-13.546,3.151-15C112.415,103.656,117.9,105.691,118.877,109.816Z" transform="translate(-81.908 -103.165)" fill="#ad6359"/>
      <path id="Path_23791" data-name="Path 23791" d="M115.622,121.78s.038.033.033.055c-.11.55-.148,1.171.313,1.435v.028C115.374,123.111,115.429,122.27,115.622,121.78Z" transform="translate(-86.501 -110.746)" fill="#263238"/>
      <path id="Path_23792" data-name="Path 23792" d="M116.229,120.9c.885.083.649,1.842-.165,1.765S115.492,120.827,116.229,120.9Z" transform="translate(-86.53 -110.348)" fill="#263238"/>
      <path id="Path_23793" data-name="Path 23793" d="M109.524,120.79a.05.05,0,0,0-.049.044c-.049.55-.2,1.16-.715,1.281v.033C109.376,122.137,109.563,121.313,109.524,120.79Z" transform="translate(-83.473 -110.3)" fill="#263238"/>
      <path id="Path_23794" data-name="Path 23794" d="M108.723,119.63c-.869-.176-1.16,1.573-.352,1.738S109.449,119.778,108.723,119.63Z" transform="translate(-83.083 -109.773)" fill="#263238"/>
      <path id="Path_23795" data-name="Path 23795" d="M114.637,130.041c-.143.116-.292.281-.489.281a1.457,1.457,0,0,1-.577-.187.726.726,0,0,0,.665.357.55.55,0,0,0,.473-.446S114.659,130.014,114.637,130.041Z" transform="translate(-85.637 -114.458)" fill="#263238"/>
      <path id="Path_23796" data-name="Path 23796" d="M110.12,121.164s-.231.792-.286,1.177a7.848,7.848,0,0,1,2.161.644c.16.077.181-.061,0-.2a3.3,3.3,0,0,0-1.793-.726c0-.11.379-1.215.319-1.232a3.229,3.229,0,0,0-.885.071c.429-1.65,1.1-3.256,1.529-4.95,0-.06-.071-.093-.1-.044a28.314,28.314,0,0,0-1.87,5.236C109.125,121.378,109.955,121.208,110.12,121.164Z" transform="translate(-83.667 -108.089)" fill="#263238"/>
      <path id="Path_23797" data-name="Path 23797" d="M117.143,118.635a4.942,4.942,0,0,1-.55-.44,1.259,1.259,0,0,1-.489-.55.357.357,0,0,1,.2-.4.9.9,0,0,1,.9.2,1.32,1.32,0,0,1,.55.8.39.39,0,0,1-.61.39Z" transform="translate(-86.773 -108.684)" fill="#263238"/>
      <path id="Path_23798" data-name="Path 23798" d="M108.348,115.173c.242-.039.462-.1.7-.165a1.144,1.144,0,0,0,.682-.3.374.374,0,0,0,0-.451.919.919,0,0,0-.908-.192,1.347,1.347,0,0,0-.836.495.4.4,0,0,0,.363.616Z" transform="translate(-83.093 -107.252)" fill="#263238"/>
      <path id="Path_23799" data-name="Path 23799" d="M118.056,115.034c-1.617-.16-.737-7.293-.737-7.293a10.351,10.351,0,0,1-3.1.55,14.03,14.03,0,0,1-3.151-.473,18.231,18.231,0,0,1,2.7-.907s-7.183.627-7.425-.726c-.088-.467,1.248-4.724,7.21-4.455,4.4.2,6.451,4.8,6.451,4.8s2.139,2.381,1.771,3.459C121.153,111.877,119.772,115.2,118.056,115.034Z" transform="translate(-82.385 -101.718)" fill="#263238"/>
      <path id="Path_23800" data-name="Path 23800" d="M125.333,124.532s2.007-2.4,3.113-1.65-.55,4.317-1.969,4.708a1.391,1.391,0,0,1-1.787-.907Z" transform="translate(-90.641 -111.177)" fill="#ad6359"/>
      <path id="Path_23801" data-name="Path 23801" d="M128.546,124.82v.038a3.5,3.5,0,0,0-2,2.024.77.77,0,0,1,1.16-.11.033.033,0,0,1-.033.05.864.864,0,0,0-.962.214,4.163,4.163,0,0,0-.511.721c-.055.082-.2,0-.16-.072h0C126.137,126.442,127.231,124.826,128.546,124.82Z" transform="translate(-91.247 -112.114)" fill="#263238"/>
      <path id="Path_23802" data-name="Path 23802" d="M162.508,162.7c4.466-3.448.2-20.955-2.4-27.4-.764-1.9-12.892,1.65-12.325,3.778C151.024,151.116,157.618,166.477,162.508,162.7Z" transform="translate(-101.025 -116.586)" fill="#ad6359"/>
      <path id="Path_23803" data-name="Path 23803" d="M151.45,154.62l1.336,3.3c.456,1.1.9,2.2,1.4,3.3s.973,2.161,1.479,3.234,1.067,2.123,1.617,3.179a28.249,28.249,0,0,1-1.9-3.03c-.55-1.05-1.1-2.128-1.578-3.217s-.918-2.2-1.314-3.333S151.753,155.78,151.45,154.62Z" transform="translate(-102.683 -125.524)" fill="#263238"/>
    </g>
    <g id="freepik--speech-bubble--inject-26" transform="translate(89.168 35.177)">
      <path id="Path_23804" data-name="Path 23804" d="M144.87,89a3.14,3.14,0,1,1-1.109-2.136A3.14,3.14,0,0,1,144.87,89Z" transform="translate(-134.273 -58.105)" fill="#fff"/>
      <path id="Path_23805" data-name="Path 23805" d="M144.438,88.9a3.442,3.442,0,1,1-3.4-3A3.3,3.3,0,0,1,144.438,88.9Zm0,0a3.008,3.008,0,1,0-.737,2.247,3.009,3.009,0,0,0,.737-2.247Z" transform="translate(-133.84 -58.001)" fill="#263238"/>
      <path id="Path_23806" data-name="Path 23806" d="M134.723,100.569a1.743,1.743,0,1,1-.614-1.191,1.749,1.749,0,0,1,.614,1.191Z" transform="translate(-130.956 -63.883)" fill="#fff"/>
      <path id="Path_23807" data-name="Path 23807" d="M134.5,100.462a1.886,1.886,0,1,1-1.9-1.732,1.886,1.886,0,0,1,1.9,1.732Zm0,0a1.617,1.617,0,1,0-1.43,1.744A1.611,1.611,0,0,0,134.5,100.462Z" transform="translate(-130.731 -63.776)" fill="#263238"/>
      <path id="Path_23808" data-name="Path 23808" d="M165.036,51.575a9.179,9.179,0,0,1-8,10.213,9.08,9.08,0,0,1-4.675-.654,7.7,7.7,0,0,1-12.237,0,6.387,6.387,0,0,1-1.034.215,6.237,6.237,0,0,1-5.857-9.779A9.174,9.174,0,0,1,145.583,38.3a7.7,7.7,0,0,1,13.2,2.1,4.8,4.8,0,0,1,.99-.22,5.038,5.038,0,0,1,4.35,8.365,9.037,9.037,0,0,1,.913,3.036Z" transform="translate(-130.976 -35.288)" fill="#fff"/>
      <path id="Path_23809" data-name="Path 23809" d="M164.805,51.464a9.312,9.312,0,0,1-1.865,6.77,9.653,9.653,0,0,1-1.7,1.677,9.289,9.289,0,0,1-9.13,1.188h.088a7.793,7.793,0,0,1-6.187,3.1,7.876,7.876,0,0,1-3.481-.8,8.09,8.09,0,0,1-2.777-2.266l.2.066a6.473,6.473,0,0,1-3.916-.055,6.407,6.407,0,0,1-3.173-2.315,6.952,6.952,0,0,1-.907-1.776,6.683,6.683,0,0,1-.325-1.969,6.5,6.5,0,0,1,1.166-3.773v.308a9.379,9.379,0,0,1,12.65-13.579l-.242.033a7.834,7.834,0,0,1,13.425,2.194l-.071-.039a5.126,5.126,0,0,1,3.3.044,5.054,5.054,0,0,1,2.04,8.156h0A8.982,8.982,0,0,1,164.805,51.464Zm0,0a9,9,0,0,0-.935-3.03h0a5,5,0,0,0-5.285-8.107h-.055v-.055a7.7,7.7,0,0,0-2.337-3.19,7.541,7.541,0,0,0-3.619-1.584,7.645,7.645,0,0,0-3.91.44,7.535,7.535,0,0,0-3.14,2.343l-.1.132-.143-.1a8.959,8.959,0,0,0-12.039,12.958l.121.154-.115.16a5.978,5.978,0,0,0-1.1,3.47,6.4,6.4,0,0,0,.291,1.82,6.2,6.2,0,0,0,.831,1.65,6.05,6.05,0,0,0,6.6,2.293l.127-.033.071.1a7.7,7.7,0,0,0,2.629,2.2,7.573,7.573,0,0,0,9.4-2.112l.038-.05h.055a9.058,9.058,0,0,0,4.658.682,9.246,9.246,0,0,0,4.4-1.765,9.559,9.559,0,0,0,1.7-1.65,9.691,9.691,0,0,0,1.215-2.057,9.29,9.29,0,0,0,.638-4.669Z" transform="translate(-130.745 -35.177)" fill="#263238"/>
      <path id="Path_23810" data-name="Path 23810" d="M162.57,56.467a5.131,5.131,0,0,1,.352-1.958A3.228,3.228,0,0,1,164.391,53c.225-.138.495-.286.825-.457a6.6,6.6,0,0,0,.951-.61,3.564,3.564,0,0,0,.792-.836,1.931,1.931,0,0,0,.325-1.1,1.8,1.8,0,0,0-.182-.825,1.859,1.859,0,0,0-.467-.6,1.909,1.909,0,0,0-.676-.363,2.585,2.585,0,0,0-.786-.126,2.2,2.2,0,0,0-.891.171,3.091,3.091,0,0,0-.72.418,3.405,3.405,0,0,0-.55.583,5.833,5.833,0,0,0-.434.61l-1.936-1.336a4.4,4.4,0,0,1,.77-1.221,4.538,4.538,0,0,1,1.078-.907,5.2,5.2,0,0,1,1.32-.55,5.66,5.66,0,0,1,1.468-.187,5.957,5.957,0,0,1,1.65.242,4.3,4.3,0,0,1,1.479.781,4.026,4.026,0,0,1,1.067,1.364,4.526,4.526,0,0,1,.407,1.991,4.328,4.328,0,0,1-.165,1.254,3.442,3.442,0,0,1-.479.99,4.219,4.219,0,0,1-.731.8,7.936,7.936,0,0,1-.957.687l-.891.511a5.461,5.461,0,0,0-.808.55,2.535,2.535,0,0,0-.611.687,1.776,1.776,0,0,0-.236.946Zm.044,5.181V58.579h2.464v3.069Z" transform="translate(-144.19 -39.895)" fill="#e53f71"/>
      <path id="Path_23811" data-name="Path 23811" d="M149.3,50.73a4.95,4.95,0,0,1,.055,1.985,3.206,3.206,0,0,1-1.1,1.782c-.193.176-.429.379-.715.616a6.837,6.837,0,0,0-.808.792,3.525,3.525,0,0,0-.6.979,1.919,1.919,0,0,0-.088,1.144,1.744,1.744,0,0,0,.341.764,1.853,1.853,0,0,0,.583.5,1.92,1.92,0,0,0,.737.22,2.75,2.75,0,0,0,.8-.044,2.239,2.239,0,0,0,.836-.346,3.206,3.206,0,0,0,.621-.55,3.35,3.35,0,0,0,.446-.687,6.335,6.335,0,0,0,.3-.687l2.167.913a4.257,4.257,0,0,1-.5,1.353,4.609,4.609,0,0,1-.88,1.1,5.214,5.214,0,0,1-1.177.814,5.6,5.6,0,0,1-1.4.484,5.736,5.736,0,0,1-1.683.1,4.158,4.158,0,0,1-1.606-.456,4.1,4.1,0,0,1-1.326-1.1,4.917,4.917,0,0,1-.907-3.129,3.421,3.421,0,0,1,.264-1.061,4.114,4.114,0,0,1,.55-.935A8.135,8.135,0,0,1,145,54.4c.253-.231.511-.462.764-.682a5.093,5.093,0,0,0,.665-.72,2.662,2.662,0,0,0,.445-.8,1.8,1.8,0,0,0,.033-.973Zm-1.1-5.06.633,3-2.414.506-.633-3Z" transform="translate(-136.426 -39.899)" fill="#e53f71"/>
    </g>
  </g>
</svg>
