<svg xmlns="http://www.w3.org/2000/svg" width="306.452" height="317.13" viewBox="0 0 306.452 317.13">
  <g id="Electrician-amico" transform="translate(-21.156 -17.09)">
    <g id="freepik--Plants--inject-65" transform="translate(21.156 166.359)">
      <g id="freepik--plants--inject-65-2" data-name="freepik--plants--inject-65">
        <path id="Path_23381" data-name="Path 23381" d="M61.205,288.2A90.873,90.873,0,0,0,59.694,265.5C57.3,254.381,51.5,245.822,44.387,242.481s-15.64,1.211-9.5,8.818,18.882,21.171,18.808,41Z" transform="translate(-25.043 -241.37)" fill="#e0e0e0"/>
        <path id="Path_23382" data-name="Path 23382" d="M60.826,289.473h.087a.426.426,0,0,0,.413-.433c-.666-24.279-8.759-36.439-18.1-42.595a.419.419,0,0,0-.579.12.413.413,0,0,0,.113.579c9.218,6.1,17.065,18.01,17.723,41.929a.419.419,0,0,0,.346.4Z" transform="translate(-28.318 -243.045)" fill="#fff"/>
        <path id="Path_23383" data-name="Path 23383" d="M21.159,276.743c.133,1.331,1.218,2.369,2.256,3.241s2.163,1.8,2.443,3.121c.572,2.662-2.589,5.125-1.9,7.76a4.206,4.206,0,0,0,2.223,2.482,26.621,26.621,0,0,0,2.616,1.118,12.109,12.109,0,0,0,1.331.319,6.1,6.1,0,0,1,3.574,1.577c1.451,1.577,1.271,3.993,1.784,6.1.626,2.5,2.11,3.993,5.511,5.151l11.647-6.6c2.9-2.955,3.927-7.987,1.251-11.454-1.6-2.063-4.606-2.323-6.123-4.393-1.331-1.85-.572-4.526-1.4-6.655s-3.048-2.875-5.138-3.241-4.313.5-6.349-.246-3.933-1.95-6.05-2.476a7.028,7.028,0,0,0-6.1,1.025A3.72,3.72,0,0,0,21.159,276.743Z" transform="translate(-21.156 -251.699)" fill="#ebebeb"/>
        <path id="Path_23384" data-name="Path 23384" d="M45.008,288.6a.326.326,0,0,0-.093-.12c-5.471-7.76-14.056-11.447-16.951-12.093a.306.306,0,1,0-.133.592c2.749.612,10.715,3.993,16.08,11.141a16.745,16.745,0,0,0-13.358,1.158.306.306,0,0,0-.093.419.326.326,0,0,0,.246.14.279.279,0,0,0,.173-.053,16.193,16.193,0,0,1,13.644-.819,25.431,25.431,0,0,1,4.559,15.654.3.3,0,0,0,.266.313h0a.306.306,0,0,0,.313-.293,26.009,26.009,0,0,0-4.652-16.04Z" transform="translate(-23.295 -253.076)" fill="#fff"/>
      </g>
      <g id="freepik--plants--inject-65-3" data-name="freepik--plants--inject-65" transform="translate(275.137 5.411)">
        <path id="Path_23385" data-name="Path 23385" d="M434.579,298.73c-.113-8.652.047-16.639,4.439-28.925,3.68-10.323,13.145-20.732,19.534-20.293,5.957.413,7.274,7.727,1.917,14.236s-17.025,18.961-17.743,27.953l-2.283,10.2Z" transform="translate(-434.557 -249.5)" fill="#e0e0e0"/>
        <path id="Path_23386" data-name="Path 23386" d="M438.312,298.516a.393.393,0,0,0,.293-.359c.932-20.126,12.173-36.9,21.55-42.056a.381.381,0,0,0-.373-.666c-9.531,5.238-21,22.283-21.963,42.688a.379.379,0,0,0,.359.4Z" transform="translate(-435.648 -251.469)" fill="#fff"/>
        <path id="Path_23387" data-name="Path 23387" d="M444.717,314.245c.366-3.035,3.148-8.393,8.246-13.271,5.644-5.391,13.351-8.685,14.642-12.392,1.571-4.446-2.363-6.822-8.865-5.431-7.82,1.671-16.486,10.615-17.97,28.891Z" transform="translate(-436.635 -260.622)" fill="#ebebeb"/>
        <path id="Path_23388" data-name="Path 23388" d="M443.832,312.878a.379.379,0,0,0,.286-.3c2.988-15.973,13.664-23.114,18.895-24.665a.379.379,0,0,0,.253-.473.373.373,0,0,0-.473-.26c-5.777,1.71-16.372,8.952-19.427,25.251a.379.379,0,0,0,.306.446A.326.326,0,0,0,443.832,312.878Z" transform="translate(-437.501 -262.097)" fill="#fff"/>
      </g>
    </g>
    <g id="freepik--Floor--inject-65" transform="translate(27.016 166.947)">
      <path id="freepik--floor--inject-65-2" data-name="freepik--floor--inject-65" d="M72.389,385.031c-56.571-32.658-56.571-85.616,0-118.281s148.3-32.658,204.868,0,56.571,85.623,0,118.281S128.96,417.7,72.389,385.031Z" transform="translate(-29.96 -242.254)" fill="#f89f5b" opacity="0.2"/>
    </g>
    <g id="freepik--Shadows--inject-65" transform="translate(57.185 210.676)">
      <path id="freepik--Shadow--inject-65" d="M249.3,414.4l15.487-8.945a.506.506,0,0,0,0-.958l-3.794-2.19a1.83,1.83,0,0,0-1.664,0l-15.487,8.945a.506.506,0,0,0,0,.958l1.9,1.091-19.447,11.228c-.459.266-.266.353-.053.479a.684.684,0,0,0,.832,0l19.441-11.221,1.118.666a1.83,1.83,0,0,0,1.671-.053Z" transform="translate(-125.698 -339.447)" fill="#e0e0e0"/>
      <path id="freepik--shadow--inject-65-2" data-name="freepik--shadow--inject-65" d="M249.685,385.348a7,7,0,0,1-3.467-.839l-.313-.2-.572-.406,4.878-.712.439-.918-1.331-.772-4.659.666.153-.439a3.022,3.022,0,0,1,1.431-1.531,6.975,6.975,0,0,1,3.408-.812,8.09,8.09,0,0,1,1.564.146l15.893-9.171a1.91,1.91,0,0,1-.133-1.285,2.855,2.855,0,0,1,1.478-1.7,7.055,7.055,0,0,1,3.414-.812,6.928,6.928,0,0,1,3.468.845,3.6,3.6,0,0,1,.313.2l.572.4-4.878.712-.439.925,1.331.772,4.659-.666-.153.433a3.035,3.035,0,0,1-1.431,1.537,7.048,7.048,0,0,1-3.408.812,8.093,8.093,0,0,1-1.564-.153l-15.893,9.178a1.9,1.9,0,0,1,.133,1.278,2.842,2.842,0,0,1-1.478,1.7A6.981,6.981,0,0,1,249.685,385.348Z" transform="translate(-131.936 -327.556)" fill="#e0e0e0"/>
      <ellipse id="freepik--shadow--inject-65-3" data-name="freepik--shadow--inject-65" cx="50.775" cy="29.317" rx="50.775" ry="29.317" transform="translate(0 33.785)" fill="#e0e0e0"/>
      <path id="freepik--shadow--inject-65-4" data-name="freepik--shadow--inject-65" d="M276.43,385.751l67.38-38.9,37.643,21.73-67.38,38.9Z" transform="translate(-142.562 -320.965)" fill="#e0e0e0"/>
      <path id="freepik--shadow--inject-65-5" data-name="freepik--shadow--inject-65" d="M236.744,350.075,210.461,334.9a1.055,1.055,0,0,1,0-2l42.5-24.532a3.82,3.82,0,0,1,3.461,0l26.282,15.168a1.055,1.055,0,0,1,0,2l-42.5,24.539a3.82,3.82,0,0,1-3.461,0Z" transform="translate(-120.26 -307.957)" fill="#e0e0e0"/>
    </g>
    <g id="freepik--tool-box--inject-65" transform="translate(146.672 182.17)">
      <g id="freepik--tool-box--inject-65-2" data-name="freepik--tool-box--inject-65" transform="translate(0 0)">
        <path id="Path_23389" data-name="Path 23389" d="M239.324,348.614v-21.85L212.29,311.15l2.7,23.414Z" transform="translate(-210.598 -280.52)" fill="#263238"/>
        <path id="Path_23390" data-name="Path 23390" d="M252.91,343.908l40.552-23.414,2.7-23.414L252.91,322.058Z" transform="translate(-224.183 -275.814)" fill="#37474f"/>
        <path id="Path_23391" data-name="Path 23391" d="M209.75,291.079a1.218,1.218,0,0,1,.712-1l42.5-24.539a3.82,3.82,0,0,1,3.461,0l26.282,15.174a1.211,1.211,0,0,1,.712,1v6.243a1.211,1.211,0,0,1-.712,1l-42.5,24.532a3.82,3.82,0,0,1-3.461,0L210.462,298.32a1.225,1.225,0,0,1-.712-1Z" transform="translate(-209.748 -265.127)" fill="#e53f71"/>
        <path id="Path_23392" data-name="Path 23392" d="M210.462,294.493l28.013-16.173v40.006a3.507,3.507,0,0,1-1.73-.419l-26.282-15.174a1.225,1.225,0,0,1-.712-1v-6.249a1.218,1.218,0,0,1,.712-.992Z" transform="translate(-209.748 -269.54)" opacity="0.2"/>
        <path id="Path_23393" data-name="Path 23393" d="M252.91,273.908l14.489-8.366a3.82,3.82,0,0,1,3.461,0l26.282,15.174a1.211,1.211,0,0,1,.712,1v6.243a1.211,1.211,0,0,1-.712,1l-42.5,24.532a3.507,3.507,0,0,1-1.73.419Z" transform="translate(-224.183 -265.127)" opacity="0.1"/>
        <path id="Path_23394" data-name="Path 23394" d="M236.744,307.252l-26.282-15.174a1.055,1.055,0,0,1,0-2l42.5-24.539a3.82,3.82,0,0,1,3.461,0l26.282,15.174a1.055,1.055,0,0,1,0,2l-42.5,24.539A3.82,3.82,0,0,1,236.744,307.252Z" transform="translate(-209.747 -265.127)" fill="#e53f71"/>
        <path id="Path_23395" data-name="Path 23395" d="M291.177,291.065c.745.433.705,1.151-.093,1.611l-29.557,17.071a3.088,3.088,0,0,1-2.8.047c-.745-.426-.705-1.151.093-1.611l29.557-17.065a3.088,3.088,0,0,1,2.8-.053Z" transform="translate(-225.952 -273.699)" opacity="0.2"/>
        <path id="Path_23396" data-name="Path 23396" d="M261.722,310.423a3.088,3.088,0,0,1-2.8.047l-.146-.1a1.683,1.683,0,0,1,.24-.166l29.557-17.065a3.088,3.088,0,0,1,2.8-.053l.146.107a1.665,1.665,0,0,1-.24.16Z" transform="translate(-226.147 -274.375)" opacity="0.2"/>
        <path id="Path_23397" data-name="Path 23397" d="M258.68,272.3c.752.426.712,1.151-.087,1.611L229.03,290.979a3.075,3.075,0,0,1-2.789.053c-.745-.433-.705-1.151.087-1.611l29.564-17.071A3.075,3.075,0,0,1,258.68,272.3Z" transform="translate(-215.085 -267.423)" opacity="0.2"/>
        <path id="Path_23398" data-name="Path 23398" d="M229.225,291.655a3.075,3.075,0,0,1-2.789.053.833.833,0,0,1-.146-.106,2.047,2.047,0,0,1,.233-.16l29.564-17.065a3.055,3.055,0,0,1,2.789-.053,1.4,1.4,0,0,1,.146.1,1.6,1.6,0,0,1-.233.166Z" transform="translate(-215.28 -268.099)" opacity="0.2"/>
        <path id="Path_23399" data-name="Path 23399" d="M234.352,302.845c-.745.433-.705,1.151.093,1.611l10.649,6.136a3.075,3.075,0,0,0,2.789.053c.745-.433.705-1.151-.087-1.611L237.147,302.9A3.088,3.088,0,0,0,234.352,302.845Z" transform="translate(-217.798 -277.639)" opacity="0.2"/>
        <path id="Path_23400" data-name="Path 23400" d="M245.282,311.218a3.075,3.075,0,0,0,2.789.053,1.391,1.391,0,0,0,.146-.1,1.6,1.6,0,0,0-.233-.166l-10.649-6.136a3.088,3.088,0,0,0-2.8-.053,1.1,1.1,0,0,0-.14.107,1.329,1.329,0,0,0,.233.16Z" transform="translate(-217.993 -278.298)" opacity="0.2"/>
        <path id="Path_23401" data-name="Path 23401" d="M226.242,307.483c-.745.426-.705,1.151.087,1.611l10.649,6.136a3.088,3.088,0,0,0,2.8.053c.745-.433.705-1.158-.093-1.617L229.03,307.53A3.075,3.075,0,0,0,226.242,307.483Z" transform="translate(-215.085 -279.189)" opacity="0.2"/>
        <path id="Path_23402" data-name="Path 23402" d="M237.162,315.906a3.088,3.088,0,0,0,2.8.053c.053-.033.093-.073.14-.107a1.6,1.6,0,0,0-.233-.166l-10.649-6.136a3.075,3.075,0,0,0-2.789-.047.805.805,0,0,0-.146.1,1.6,1.6,0,0,0,.233.166Z" transform="translate(-215.277 -279.865)" opacity="0.2"/>
        <path id="Path_23403" data-name="Path 23403" d="M283.1,274.655c-.745.433-.712,1.151.086,1.611l10.649,6.136a3.075,3.075,0,0,0,2.789.053c.752-.433.712-1.151-.086-1.611l-10.649-6.136A3.075,3.075,0,0,0,283.1,274.655Z" transform="translate(-234.101 -268.211)" opacity="0.2"/>
        <path id="Path_23404" data-name="Path 23404" d="M294.022,283.078a3.088,3.088,0,0,0,2.8.053,1.1,1.1,0,0,0,.14-.106,1.58,1.58,0,0,0-.233-.16l-10.649-6.136a3.075,3.075,0,0,0-2.789-.053,1.4,1.4,0,0,0-.146.1,1.606,1.606,0,0,0,.233.166Z" transform="translate(-234.294 -268.886)" opacity="0.2"/>
        <path id="Path_23405" data-name="Path 23405" d="M274.982,279.337c-.745.433-.705,1.158.087,1.617l10.649,6.136a3.115,3.115,0,0,0,2.8.053c.745-.433.705-1.158-.093-1.617l-10.649-6.136a3.115,3.115,0,0,0-2.789-.053Z" transform="translate(-231.387 -269.778)" opacity="0.2"/>
        <path id="Path_23406" data-name="Path 23406" d="M285.9,287.766a3.115,3.115,0,0,0,2.8.053l.146-.106a1.68,1.68,0,0,0-.24-.166l-10.649-6.136a3.115,3.115,0,0,0-2.8-.053l-.146.107a2.076,2.076,0,0,0,.233.166Z" transform="translate(-231.575 -270.453)" opacity="0.2"/>
        <path id="Path_23407" data-name="Path 23407" d="M248.85,289.316v6.036l2.7,1.564,2.7-1.564v-4.579a3.2,3.2,0,0,1,1.438-2.5l6.655-3.854,1.265-.725c.792-.459,1.438-.087,1.438.832v4.579l2.7-1.564v-6.036a3.069,3.069,0,0,0,0-.359,1.674,1.674,0,0,0-.04-.273,2.05,2.05,0,0,0-.08-.306,2.425,2.425,0,0,0-.093-.233,1.728,1.728,0,0,0-.126-.22,1.473,1.473,0,0,0-.146-.193,1.248,1.248,0,0,0-.166-.16h0a1.112,1.112,0,0,0-.186-.12l-.086-.047-2.6-1.5a2,2,0,0,0-2.03.2l-10.456,6.036A6.356,6.356,0,0,0,248.85,289.316Z" transform="translate(-222.825 -269.401)" fill="#455a64"/>
        <path id="Path_23408" data-name="Path 23408" d="M269.15,287.233h0v3.115l2.7,1.564v-4.579c0-.918-.666-1.291-1.438-.832Z" transform="translate(-229.615 -272.21)" fill="#263238"/>
        <path id="Path_23409" data-name="Path 23409" d="M252.91,291.662V297.7l2.7-1.564v-4.579a3.2,3.2,0,0,1,1.438-2.5l6.655-3.847h0l1.265-.725c.792-.459,1.438-.087,1.438.832V289.9l2.7-1.557V282.3a3.083,3.083,0,0,0,0-.359,1.68,1.68,0,0,0-.04-.273,2.061,2.061,0,0,0-.08-.306,2.441,2.441,0,0,0-.093-.233,1.728,1.728,0,0,0-.126-.22,1.47,1.47,0,0,0-.146-.193,1.249,1.249,0,0,0-.166-.16h0a1.11,1.11,0,0,0-.186-.12l-.087-.047a2.076,2.076,0,0,0-1.93.253L255.8,286.683a6.383,6.383,0,0,0-2.888,4.978Z" transform="translate(-224.183 -270.189)" fill="#37474f"/>
        <path id="Path_23410" data-name="Path 23410" d="M271.357,336.662l-1-.572-2.709,1.557,1,.579Z" transform="translate(-229.113 -288.861)" fill="#455a64"/>
        <path id="Path_23411" data-name="Path 23411" d="M268.655,339.009l-1,13.065-.007-13.644Z" transform="translate(-229.113 -289.644)" fill="#263238"/>
        <path id="Path_23412" data-name="Path 23412" d="M272.718,336.95l-1,13.065.326-.153Z" transform="translate(-230.474 -289.149)" fill="#37474f"/>
        <path id="Path_23413" data-name="Path 23413" d="M239.22,340.489l1-.579,2.7,1.557-1,.579Z" transform="translate(-219.605 -290.139)" fill="#455a64"/>
        <path id="Path_23414" data-name="Path 23414" d="M239.22,340.78l1,13.058-.326-.153Z" transform="translate(-219.605 -290.43)"/>
        <path id="Path_23415" data-name="Path 23415" d="M222.97,331.1l1-.572,2.7,1.557-1,.579Z" transform="translate(-214.17 -287.002)" fill="#455a64"/>
        <path id="Path_23416" data-name="Path 23416" d="M244.278,355.894l-1-13.065,1-.579Z" transform="translate(-220.963 -290.921)" fill="#37474f"/>
        <path id="Path_23417" data-name="Path 23417" d="M228.035,332.87v13.644l-1-13.065Z" transform="translate(-215.528 -287.784)" fill="#37474f"/>
        <path id="Path_23418" data-name="Path 23418" d="M222.97,331.39l1,13.065-.326-.153Z" transform="translate(-214.17 -287.289)"/>
        <path id="Path_23419" data-name="Path 23419" d="M299.79,320.249l-1-.579-2.7,1.557,1,.579Z" transform="translate(-238.625 -283.369)" fill="#455a64"/>
        <path id="Path_23420" data-name="Path 23420" d="M297.088,322.589l-1,13.065V322.01Z" transform="translate(-238.625 -284.152)" fill="#263238"/>
        <path id="Path_23421" data-name="Path 23421" d="M301.148,320.54l-1,13.065.333-.16Z" transform="translate(-239.983 -283.66)" fill="#37474f"/>
        <path id="Path_23422" data-name="Path 23422" d="M265.47,330.483l.007-3.121,5.4-3.121.905.519-.007,3.121L266.368,331Z" transform="translate(-228.384 -284.898)" fill="#37474f"/>
        <path id="Path_23423" data-name="Path 23423" d="M272.238,325.02l-.007,3.121-5.411,3.121.013-3.121Z" transform="translate(-228.836 -285.159)" fill="#455a64"/>
        <path id="Path_23424" data-name="Path 23424" d="M266.382,329.449l-.905-.519-.007,3.121.9.519Z" transform="translate(-228.384 -286.466)" fill="#263238"/>
        <path id="Path_23425" data-name="Path 23425" d="M294.12,313.953l.013-3.121,5.4-3.121.905.519-.013,3.121-5.4,3.121Z" transform="translate(-237.966 -279.369)" fill="#37474f"/>
        <path id="Path_23426" data-name="Path 23426" d="M300.9,308.49l-.013,3.121-5.4,3.121.007-3.121Z" transform="translate(-238.421 -279.63)" fill="#455a64"/>
        <path id="Path_23427" data-name="Path 23427" d="M295.032,312.919l-.9-.519-.013,3.121.905.519Z" transform="translate(-237.966 -280.938)" fill="#263238"/>
      </g>
    </g>
    <g id="freepik--Tools--inject-65" transform="translate(158.155 248.95)">
      <g id="freepik--Wrench--inject-65" transform="translate(12.299)">
        <path id="Path_23428" data-name="Path 23428" d="M246.751,380.1c-.366.206-1.052.2-1.271.446v.9l4.18-.606,1.577.925-.6,1.258-4.22-.286v.9a2.914,2.914,0,0,0,.28.186,7.135,7.135,0,0,0,6.443,0,2.269,2.269,0,0,0,1.331-1.87h0v-.9l-.246.04a.165.165,0,0,1,0-.047l15.813-9.131a7.122,7.122,0,0,0,4.759-.6,2.662,2.662,0,0,0,1.271-1.331v-.905l-4.18,1.511-1.577-.925.6-1.258,4.22-.612v-.905s-4.932-.326-6.729.666a2.9,2.9,0,0,0-1.111,1.032l-.24-.087v.892h0a1.7,1.7,0,0,0,.273.938l-15.813,9.131a7.121,7.121,0,0,0-4.759.639Z" transform="translate(-245.48 -365.923)" fill="#37474f"/>
        <path id="Path_23429" data-name="Path 23429" d="M274.433,374.048v-.9l-15.813,9.131v.9Z" transform="translate(-249.875 -368.035)" fill="#37474f"/>
        <path id="Path_23430" data-name="Path 23430" d="M267.323,369.009,251.51,378.14a7.155,7.155,0,0,0-4.759.592,2.662,2.662,0,0,0-1.271,1.331l4.18-.606,1.577.925-.6,1.251-4.22.619a2.917,2.917,0,0,0,.28.186,7.135,7.135,0,0,0,6.442,0c1.331-.745,1.677-1.837,1.085-2.775l15.813-9.131a7.161,7.161,0,0,0,4.759-.6,2.662,2.662,0,0,0,1.271-1.331l-4.18.612-1.577-.925.6-1.258,4.22-.619-.28-.18a7.135,7.135,0,0,0-6.442,0C267.124,366.979,266.731,368.071,267.323,369.009Z" transform="translate(-245.48 -365.465)" fill="#455a64"/>
        <path id="Path_23431" data-name="Path 23431" d="M283.123,369l-.333-.193.6-1.258,4.22-.619v.905l-4.22.612Z" transform="translate(-257.958 -365.955)" fill="#263238"/>
        <path id="Path_23432" data-name="Path 23432" d="M250.9,388.141l.333-.7-1.577-.932-4.18.612v.905l4.18-.612Z" transform="translate(-245.48 -372.504)" fill="#263238"/>
      </g>
      <g id="freepik--Screwdriver--inject-65" transform="translate(0 20.835)">
        <path id="Path_23433" data-name="Path 23433" d="M261.93,403.392l3.328,5.724,11.155-6.436a1.6,1.6,0,0,0,.745-1.544,5.165,5.165,0,0,0-2.343-4.053,1.63,1.63,0,0,0-1.651-.16h0Z" transform="translate(-238.682 -396.77)" fill="#e53f71"/>
        <path id="Path_23434" data-name="Path 23434" d="M260.288,407.828h0c-.047.872-1.278,1.058-1.278,1.058l2.336,4.053s.779-.958,1.557-.579h0c1.151.5,2.05-.12,2.05-1.5a5.165,5.165,0,0,0-2.343-4.047C261.413,406.117,260.428,406.583,260.288,407.828Z" transform="translate(-237.706 -400.021)" fill="#e53f71"/>
        <path id="Path_23435" data-name="Path 23435" d="M260.288,407.828h0c-.047.872-1.278,1.058-1.278,1.058l2.336,4.053s.779-.958,1.557-.579h0c1.151.5,2.05-.12,2.05-1.5a5.165,5.165,0,0,0-2.343-4.047C261.413,406.117,260.428,406.583,260.288,407.828Z" transform="translate(-237.706 -400.021)" opacity="0.05"/>
        <path id="Path_23436" data-name="Path 23436" d="M259.559,409.83A2.356,2.356,0,0,1,259,410l2.336,4.053a2.609,2.609,0,0,1,.433-.393,5.244,5.244,0,0,0-2.21-3.834Z" transform="translate(-237.703 -401.138)" opacity="0.05"/>
        <path id="Path_23437" data-name="Path 23437" d="M255.34,410.219l.193.339a2.662,2.662,0,0,0-.1.725,5.178,5.178,0,0,0,2.343,4.053,2.376,2.376,0,0,0,.666.273l.193.339.779-.446h0a1.644,1.644,0,0,0,.666-1.517,5.171,5.171,0,0,0-2.336-4.053,1.644,1.644,0,0,0-1.657-.16h0Z" transform="translate(-236.478 -401.068)" fill="#e53f71"/>
        <path id="Path_23438" data-name="Path 23438" d="M258.989,414.663a5.171,5.171,0,0,0-2.336-4.053c-1.291-.745-2.343-.14-2.343,1.331a5.191,5.191,0,0,0,2.343,4.053C257.944,416.752,258.989,416.153,258.989,414.663Z" transform="translate(-236.134 -401.292)" fill="#e53f71"/>
        <path id="Path_23439" data-name="Path 23439" d="M258.989,414.663a5.171,5.171,0,0,0-2.336-4.053c-1.291-.745-2.343-.14-2.343,1.331a5.191,5.191,0,0,0,2.343,4.053C257.944,416.752,258.989,416.153,258.989,414.663Z" transform="translate(-236.134 -401.292)" opacity="0.15"/>
        <path id="Path_23440" data-name="Path 23440" d="M256.46,417a3.519,3.519,0,0,0,.579.519l.546-1.557-.666-.486Z" transform="translate(-236.853 -403.027)" opacity="0.15"/>
        <path id="Path_23441" data-name="Path 23441" d="M277.292,400.762h0a.665.665,0,0,1-.24.878l-7.987,4.6a.666.666,0,0,1-.885-.233h0a.666.666,0,0,1,.24-.879l7.987-4.6A.666.666,0,0,1,277.292,400.762Z" transform="translate(-240.747 -398)" opacity="0.2"/>
        <path id="Path_23442" data-name="Path 23442" d="M275.1,398.251h0a.373.373,0,0,1,0,.666l-8.12,4.659a.885.885,0,0,1-.938-.107h0a.373.373,0,0,1,0-.666l8.113-4.659A.885.885,0,0,1,275.1,398.251Z" transform="translate(-239.988 -397.2)" opacity="0.2"/>
        <path id="Path_23443" data-name="Path 23443" d="M278.49,403.9h0a.379.379,0,0,0-.586-.306l-8.12,4.659a.892.892,0,0,0-.379.865h0a.379.379,0,0,0,.586.306l8.12-4.659A.9.9,0,0,0,278.49,403.9Z" transform="translate(-241.179 -399.03)" opacity="0.2"/>
        <path id="Path_23444" data-name="Path 23444" d="M227,425.17v1.557l3.9-1.265a6.024,6.024,0,0,1,1.557-1.883l14.815-8.552.453-1.3-.453-.26-14.815,8.552a1.557,1.557,0,0,1-1.557-.087Z" transform="translate(-227 -402.355)" fill="#455a64"/>
        <path id="Path_23445" data-name="Path 23445" d="M227.69,425.567v1.557l3.9-1.265a5.95,5.95,0,0,1,1.557-1.883l14.815-8.552V413.86l-14.815,8.552a1.551,1.551,0,0,1-1.557-.08Z" transform="translate(-227.231 -402.486)" fill="#37474f"/>
        <path id="Path_23446" data-name="Path 23446" d="M227.463,432.874l-.453-.266V431.05l.453.266Z" transform="translate(-227.003 -408.235)" fill="#263238"/>
        <path id="Path_23447" data-name="Path 23447" d="M227.01,429.425l.453.266,3.9-3.235-.453-.266Z" transform="translate(-227.003 -406.609)" fill="#455a64"/>
      </g>
    </g>
    <g id="freepik--Character--inject-65" transform="translate(32.106 31.284)">
      <g id="freepik--character--inject-65-2" data-name="freepik--character--inject-65">
        <g id="freepik--Top--inject-65" transform="translate(51.88)">
          <path id="Path_23448" data-name="Path 23448" d="M292.941,129.438h-34.3a.5.5,0,0,1,0-1h34.3a.5.5,0,0,1,0,1Z" transform="translate(-163.246 -68.525)" fill="#37474f"/>
          <g id="freepik--Arm--inject-65" transform="translate(39.434 44.974)">
            <path id="Path_23449" data-name="Path 23449" d="M187.672,144.113c-3.294-6.289-8.612-19.88-8.612-19.88l.113-18.243c-.133,0,2.463.785,3.255.972,5.138,1.9,6.556,2.8,8.759,7.321,1.75,3.6,7.647,20.02,9.744,25.577l12.546-8.925c3.161-2.662,3.9-6.456,5.83-8.818s4.12-3.015,6.3-5.018,3.008-3.494,3.847-1.89-1.544,4.552-1.957,5.264c-.286.506-1.012.879-1.178,1.444-.273.972,1.171.819,1.79.666,3.062-.666,5.844-3.248,7.734-5.611.739-.925,3.434-4.519,4.12-1.617.559,2.363-1.384,3.873-1.524,6.05a8.725,8.725,0,0,1-.932,3.461c-.459.985-.246,2.13-.572,3.161-1,3.208-3.554,4.306-6.516,5.324s-6.163,1.717-8.619,3.607c-2.982,2.3-10.19,10.063-14.575,14.729-5.571,5.93-9.244,7.321-12.506,3.827S188.917,146.442,187.672,144.113Z" transform="translate(-176.231 -105.99)" fill="#ffa8a7"/>
            <path id="Path_23450" data-name="Path 23450" d="M256.857,119.549c-.666-2.9-3.381.666-4.12,1.617-1.89,2.363-4.659,4.945-7.734,5.611-.619.133-2.063.286-1.79-.666.166-.566.892-.938,1.178-1.444.413-.712,2.8-3.667,1.957-5.264s-1.657-.12-3.847,1.89-4.373,2.662-6.3,5.018-2.662,6.163-5.83,8.818l-.859.612a11.543,11.543,0,0,0,5.77,8.519c1.371-1.331,2.569-2.443,3.414-3.1,2.456-1.89,5.737-2.662,8.619-3.607s5.511-2.1,6.516-5.324c.326-1.032.113-2.176.572-3.161a8.725,8.725,0,0,0,.932-3.461C255.473,123.423,257.416,121.912,256.857,119.549Z" transform="translate(-193.105 -110.152)" fill="#455a64"/>
            <path id="Path_23451" data-name="Path 23451" d="M230.1,142.169a10.208,10.208,0,0,0,2.057,5.89,10.648,10.648,0,0,0,3.547,2.476l.532-.413s.506.053-.852,1.418-1.677,1.87-2.436,1.757a8.44,8.44,0,0,1-4.353-3.587,11.035,11.035,0,0,1-1.817-5.324c.04-.666.972-1.145,1.817-1.757s1.724-1.631,2.2-1.225Z" transform="translate(-192.192 -117.803)" fill="#e53f71"/>
            <path id="Path_23452" data-name="Path 23452" d="M230.1,142.169a10.208,10.208,0,0,0,2.057,5.89,10.648,10.648,0,0,0,3.547,2.476l.532-.413s.506.053-.852,1.418-1.677,1.87-2.436,1.757a8.44,8.44,0,0,1-4.353-3.587,11.035,11.035,0,0,1-1.817-5.324c.04-.666.972-1.145,1.817-1.757s1.724-1.631,2.2-1.225Z" transform="translate(-192.192 -117.803)" opacity="0.2"/>
            <path id="Path_23453" data-name="Path 23453" d="M179.369,106.44a18.4,18.4,0,0,1,7.587,3.408c2.463,2.13,3.587,5.451,5.264,9.983s5.99,15.574,5.99,15.574a21.8,21.8,0,0,0-11.98,9.391L174.81,121.029Z" transform="translate(-174.81 -106.141)" fill="#e0e0e0"/>
            <path id="Path_23454" data-name="Path 23454" d="M209.428,156.261a11.507,11.507,0,0,0-5.118,5.138s0-3.667,4.659-6.409Z" transform="translate(-184.676 -122.378)" fill="#f28f8f"/>
          </g>
          <g id="freepik--Chest--inject-65" transform="translate(0 43.423)">
            <path id="Path_23455" data-name="Path 23455" d="M120.924,107.427s-3.907,3.434-4.905,7.148c-.486,1.824-.938,3.328.606,13.471,1.471,9.67,2.516,9.67,3.268,17.045l-1.078,18.456c5.784,6.775,32.791,10.223,46.3,1.1,0,0,.586-28.019-.366-39.56-.666-7.847-3.96-15.893-5.2-19.574-3.674-.666-7.208-1.065-7.208-1.065l-13.511-.785Z" transform="translate(-115.56 -103.66)" fill="#fafafa"/>
          </g>
          <g id="freepik--Head--inject-65" transform="translate(10.535 2.638)">
            <path id="Path_23456" data-name="Path 23456" d="M164.025,59.271c1.77-4.073.033-9.477-2.09-12.013-3.068-3.667-7.84-5.251-15.041-4.805-5.471.339-10.855,2.616-11.88,8.233-4.393,1.331-3.893,8.532-2.8,11.72,2.223,6.469,6.589,12.093,6.655,15.4Z" transform="translate(-131.413 -42.38)" fill="#37474f"/>
            <path id="Path_23457" data-name="Path 23457" d="M163.995,78.58c-.865,3.121-2.662,5.411-5.557,5.863a24.3,24.3,0,0,1-4.559,0l.113,3.993c5.99,7.581-8.026,9.118-14.948.812l-.413-13.424s-1.764,2-4.659.106a6.356,6.356,0,0,1-2-7.78c1.444-3.042,4.333-1.784,5.225-.859s1.923,2.662,2.662,2.423a2.7,2.7,0,0,0,1.79-1.83,16.393,16.393,0,0,0,.938-5.9,7.8,7.8,0,0,0,2.263-1.744,7.321,7.321,0,0,0,2-4.519c6.236-1.95,13.411-1.032,15.973.978,1.491,2.629,1.551,8.739,1.8,12.259A28.808,28.808,0,0,1,163.995,78.58Z" transform="translate(-131.389 -46.48)" fill="#ffa8a7"/>
            <path id="Path_23458" data-name="Path 23458" d="M158.27,94.988c-3.195-.18-9.617-1.671-11.314-3.448s-2.436-5.431-2.436-5.431.253,4.606,1.577,6.655,4.659,2.922,6.655,3.428a50.991,50.991,0,0,0,5.557.839Z" transform="translate(-135.781 -57.005)" fill="#f28f8f"/>
            <path id="Path_23459" data-name="Path 23459" d="M160.8,72.421a1.331,1.331,0,1,1-.833-1.234A1.331,1.331,0,0,1,160.8,72.421Z" transform="translate(-140.336 -51.982)" fill="#263238"/>
            <path id="Path_23460" data-name="Path 23460" d="M157.985,66.516l-2.616,1.764a1.657,1.657,0,0,1,.446-2.25,1.537,1.537,0,0,1,2.17.486Z" transform="translate(-139.322 -50.203)" fill="#263238"/>
            <path id="Path_23461" data-name="Path 23461" d="M177.059,66.97,174.19,65.6a1.524,1.524,0,0,1,2.07-.785,1.677,1.677,0,0,1,.8,2.156Z" transform="translate(-145.704 -49.832)" fill="#263238"/>
            <path id="Path_23462" data-name="Path 23462" d="M175.7,71.731a1.291,1.291,0,1,1-1.291-1.331A1.331,1.331,0,0,1,175.7,71.731Z" transform="translate(-145.346 -51.751)" fill="#263238"/>
            <path id="Path_23463" data-name="Path 23463" d="M166.6,68.92l.932,9.278,4.985-1.5Z" transform="translate(-143.165 -51.256)" fill="#f28f8f"/>
            <path id="Path_23464" data-name="Path 23464" d="M162.1,86.11l5.324,1.185a2.662,2.662,0,0,1-3.208,2.17A2.875,2.875,0,0,1,162.1,86.11Z" transform="translate(-141.642 -57.005)" fill="#b16668"/>
            <path id="Path_23465" data-name="Path 23465" d="M164.26,89.953a3.018,3.018,0,0,0,.333.04,2.476,2.476,0,0,0-2.482-2.423,2.829,2.829,0,0,0,2.15,2.383Z" transform="translate(-141.664 -57.494)" fill="#f28f8f"/>
          </g>
          <g id="freepik--Helmet--inject-65" transform="translate(10.189)">
            <path id="Path_23466" data-name="Path 23466" d="M130.956,57.541a16.972,16.972,0,0,0,1.185,4.732c.353-.446.759-.885,1.171-1.331a28.619,28.619,0,0,1,8.293-5.664h0c7.115-3.328,15.827-4.446,22.8-2.509a16.039,16.039,0,0,0-1.3-3.993,16.892,16.892,0,0,0-32.153,8.765Z" transform="translate(-130.868 -38.59)" fill="#e53f71"/>
            <path id="Path_23467" data-name="Path 23467" d="M140.913,40.555c.845-.413,5.1-1.684,5.444-1.79,2.2-.666,5.75-.626,9.391,2.369a17.151,17.151,0,0,1,5.7,9.2l-4.526,1.418-1.444.14c-.532-3.328-4.918-10.5-11.081-10.762a6.277,6.277,0,0,0-.865,0,8.126,8.126,0,0,0-2.389.486,23.3,23.3,0,0,0-2.389,1.917A3.774,3.774,0,0,1,140.913,40.555Z" transform="translate(-133.504 -38.416)" fill="#e53f71"/>
            <path id="Path_23468" data-name="Path 23468" d="M140.913,40.555c.845-.413,5.1-1.684,5.444-1.79,2.2-.666,5.75-.626,9.391,2.369a17.151,17.151,0,0,1,5.7,9.2l-4.526,1.418-1.444.14c-.532-3.328-4.918-10.5-11.081-10.762a6.277,6.277,0,0,0-.865,0,8.126,8.126,0,0,0-2.389.486,23.3,23.3,0,0,0-2.389,1.917A3.774,3.774,0,0,1,140.913,40.555Z" transform="translate(-133.504 -38.416)" fill="#fff" opacity="0.45"/>
            <path id="Path_23469" data-name="Path 23469" d="M155.492,52.618c-.666-3.873-6.536-13.038-14.336-10.276a23.347,23.347,0,0,0-2.4,1.917,3.794,3.794,0,0,1,2.156-2.988c2.03-.978,6.1-1.458,10.316,2a17.131,17.131,0,0,1,5.69,9.2Z" transform="translate(-133.508 -39.132)" fill="#e53f71"/>
            <path id="Path_23470" data-name="Path 23470" d="M155.492,52.618c-.666-3.873-6.536-13.038-14.336-10.276a23.347,23.347,0,0,0-2.4,1.917,3.794,3.794,0,0,1,2.156-2.988c2.03-.978,6.1-1.458,10.316,2a17.131,17.131,0,0,1,5.69,9.2Z" transform="translate(-133.508 -39.132)" opacity="0.3"/>
            <path id="Path_23471" data-name="Path 23471" d="M146.81,57.191a18.778,18.778,0,0,1,7.521-6.655c3.467-1.85,10.576-1.943,13.764-1.89,5.584.093,6.915,1.278,6.988,2.1,0,.193.093,1.1.12,1.3a.779.779,0,0,1-.12.532c-.832,1.265-5.324,3.461-5.324,3.461-6.975-1.937-15.687-.819-22.8,2.509Z" transform="translate(-136.2 -41.834)" fill="#e53f71"/>
            <path id="Path_23472" data-name="Path 23472" d="M146.81,57.191a18.778,18.778,0,0,1,7.521-6.655c3.467-1.85,10.576-1.943,13.764-1.89,5.584.093,6.915,1.278,6.988,2.1,0,.193.093,1.1.12,1.3a.779.779,0,0,1-.12.532c-.832,1.265-5.324,3.461-5.324,3.461-6.975-1.937-15.687-.819-22.8,2.509Z" transform="translate(-136.2 -41.834)" opacity="0.15"/>
            <path id="Path_23473" data-name="Path 23473" d="M147,59.177c7.115-3.328,15.827-4.446,22.8-2.509,0,0,4.512-2.2,5.324-3.461.453-.7.047-2.489-6.855-2.6-3.195-.053-10.3.04-13.77,1.89A19.189,19.189,0,0,0,147,59.177Z" transform="translate(-136.264 -42.489)" fill="#e53f71"/>
            <path id="Path_23474" data-name="Path 23474" d="M147,59.177c7.115-3.328,15.827-4.446,22.8-2.509,0,0,4.512-2.2,5.324-3.461.453-.7.047-2.489-6.855-2.6-3.195-.053-10.3.04-13.77,1.89A19.189,19.189,0,0,0,147,59.177Z" transform="translate(-136.264 -42.489)" opacity="0.3"/>
          </g>
        </g>
        <g id="freepik--Bottom--inject-65" transform="translate(42.553 43.875)">
          <path id="Path_23475" data-name="Path 23475" d="M171.654,350.274c.213-3.534,2.11-39.134,2.11-39.134l-17.3,12.2c3.015,20.352,3.68,26.489,3.807,29.883h0a2.848,2.848,0,0,0-.08.872c.093,4.033,4.925,6.136,8.712,8.772a70.33,70.33,0,0,0,10.223,6.123c2.735,1.258,8.246,1.3,8.9-.373-4.606-3.235-9.937-6.762-13.624-10.476C172.659,356.364,171.395,354.507,171.654,350.274Z" transform="translate(-119.912 -173.505)" fill="#ffa8a7"/>
          <path id="Path_23476" data-name="Path 23476" d="M196.75,399.539a3.3,3.3,0,0,1-.619,3.487c-1.438,1.218-5.69,3.248-11.368,2.629s-8.779-2.236-11.081-3.993-5.531-4.273-8.106-4.772a16.124,16.124,0,0,1-5.77-2.143c-.779-.686-.725-3.807-.725-3.807Z" transform="translate(-120.788 -200.194)" fill="#263238"/>
          <path id="Path_23477" data-name="Path 23477" d="M178.891,377.6c-.373-.346-.732-.666-1.085-1.052a13.311,13.311,0,0,1-2.709-4.466,12.69,12.69,0,0,1-.852-2.462c-.18-.978-.293-2-.459-2.948-.06-.366,0-1.171-.453-1.331a2.662,2.662,0,0,0-1.531.286c-1.151.492-2.356.872-3.541,1.291-.666.233-2.03.592-2.23,1.331s.133,1.657,0,2.456c-.06.313-.193.666-.559.626-.666,0-.832-.958-1-1.424-.373-.978-.666-1.438-1.724-1.724-.552-.153-1.631-.226-2-.719l-.14-1.331a2,2,0,0,0-1.4,1.092c-.459.952-.153,2.276,0,3.288a15.047,15.047,0,0,1,.253,3.048,19.157,19.157,0,0,1-.419,2.6,24.012,24.012,0,0,0-.419,4.526,11.115,11.115,0,0,0,.16,2.1,2.309,2.309,0,0,0,.892,1.438,7.733,7.733,0,0,0,2.429,1.451c1.218.486,2.476.859,3.714,1.291a32.037,32.037,0,0,1,8.126,4.705,24.567,24.567,0,0,0,12.02,4.053c5.644,0,9.584-1.864,10.649-3.807a6.014,6.014,0,0,0-.426-3.607c-2-3.048-6.369-4.033-9.89-5.71a39.872,39.872,0,0,1-4.433-2.609,22.786,22.786,0,0,1-2.968-2.389Z" transform="translate(-120.634 -191.627)" fill="#37474f"/>
          <path id="Path_23478" data-name="Path 23478" d="M198.286,392.66a13.9,13.9,0,0,0-10.336,10.4,22.921,22.921,0,0,0,7.82,1.81c5.644,0,9.584-1.864,10.649-3.807a6.015,6.015,0,0,0-.426-3.607C204.429,394.989,201.294,393.871,198.286,392.66Z" transform="translate(-130.444 -200.77)" fill="#455a64"/>
          <path id="Path_23479" data-name="Path 23479" d="M165.784,393.051l.293.113c-.273-5.324-2.469-8.852-7.281-9.564a23.9,23.9,0,0,0-.206,3.168,11.115,11.115,0,0,0,.16,2.1,2.31,2.31,0,0,0,.892,1.438,7.734,7.734,0,0,0,2.429,1.451C163.288,392.245,164.546,392.618,165.784,393.051Z" transform="translate(-120.624 -197.739)" fill="#455a64"/>
          <path id="Path_23480" data-name="Path 23480" d="M126.752,324.92,108.716,321c-.473,11.161-.186,26.262-.566,36.738-.073,2-1.092,15.308-.526,19.394.852,6.156,9.1,5.757,9.777,2.136s1.278-19.1,1.418-20.705c.379-6.709,4.213-17.97,6.9-29.95C125.847,328.061,126.626,325.492,126.752,324.92Z" transform="translate(-103.522 -176.803)" fill="#ffa8a7"/>
          <path id="Path_23481" data-name="Path 23481" d="M118.341,411.088c-.067,3.587-.592,5.99-1.937,8.133s-4.027,2.915-6.8,2.4-6.376-2-7.321-5.085a17.243,17.243,0,0,1-.393-8.519Z" transform="translate(-101.546 -205.907)" fill="#263238"/>
          <path id="Path_23482" data-name="Path 23482" d="M106.449,366.93c-1.125.12-1.331,9.857-1.784,14.689-.466,5.178-2.11,7.374-2.542,11.627-.493,4.858-.106,7,1.943,9.85s8.978,5.464,12.133,1.158c2.569-3.514,2.509-7.321,2.043-12.113-.486-4.972-.506-12.945-.446-16.738.053-3.621,1.151-7.447.146-7.814-.213.972-.346,1.8-.459,2.323-.246,1.145-.519,2.529-.865,2.27,0,0,.1-1.018.113-1.484s.113-.772-.2-1.072a6.047,6.047,0,0,0-2.136-.546c-1.125-.16-2.25-.286-3.388-.339h-1.7a5.357,5.357,0,0,0-1.424.233.965.965,0,0,0-.592.519,1.4,1.4,0,0,0,0,.552,3.561,3.561,0,0,1-.093.992c-.04.146-.14.326-.306.3s-.266-.12-.313-.446a15.338,15.338,0,0,1-.106-2v-1.058C106.469,367.522,106.443,367.236,106.449,366.93Z" transform="translate(-101.675 -192.164)" fill="#37474f"/>
          <path id="Path_23483" data-name="Path 23483" d="M101.936,409.841c-.06,3.008.233,5.051,1.837,7.281,2.05,2.849,9.524,5.451,12.645,1.145,1.571-2.143,1.9-4.619,2-7.135C116.312,407.984,104.978,406.979,101.936,409.841Z" transform="translate(-101.674 -205.951)" fill="#455a64"/>
          <path id="Path_23484" data-name="Path 23484" d="M163.25,147.78s-13.69,3.081-34.216,1.671c0,13.564,1.431,29.124-5.065,29.038l-7.754-.186c-.433,20.312-3.867,62.661-3.867,62.661-.306,2.5-3.92,13.1-4.053,22.129-.206,14.156-.506,24.885-.506,24.885s7.907,3.128,13.717.958c0,0,7.554-30.089,9.677-39.48,2.522-11.188,7.734-31.86,7.734-31.86l.632,29.437a81,81,0,0,0-.24,17.877c.666,5.99,3.095,22.569,3.095,22.569s7.274,1.464,13.584-.406c0,0,3.8-35.653,4.113-41.144.339-5.99,2.23-61.011,2.4-66.142h0C164.235,153.916,163.25,147.78,163.25,147.78Z" transform="translate(-103.635 -118.869)" fill="#455a64"/>
          <path id="Path_23485" data-name="Path 23485" d="M136.927,135.42c-.958-12.286-.932-22.382-5.537-28.352l5.883-1.238s5.091,11.274,5.091,30.009Z" transform="translate(-111.528 -104.838)" fill="#455a64"/>
          <path id="Path_23486" data-name="Path 23486" d="M179.171,134.8c0-13.384-2.948-24.858-7.62-29.87l6.729,1s6.3,10.13,6.3,28.865Z" transform="translate(-124.959 -104.537)" fill="#455a64"/>
          <path id="Path_23487" data-name="Path 23487" d="M150.82,153.978a94.434,94.434,0,0,0,19.9-1.058l.413,9.2-9.065,5.684-11.248-3.674Z" transform="translate(-118.026 -120.588)" fill="#37474f"/>
          <path id="Path_23488" data-name="Path 23488" d="M124.262,194.65c5.211,2.163,17.863,3.461,28.019,3.328s15.474-2.522,15.474-2.522l-.166,6.19s-18.023,7.561-44.1-1.331Z" transform="translate(-108.885 -134.544)" fill="#e53f71"/>
          <path id="Path_23489" data-name="Path 23489" d="M124.262,194.65c5.211,2.163,17.863,3.461,28.019,3.328s15.474-2.522,15.474-2.522l-.166,6.19s-18.023,7.561-44.1-1.331Z" transform="translate(-108.885 -134.544)" opacity="0.3"/>
          <path id="Path_23490" data-name="Path 23490" d="M154.56,240.69l4.832-19.527s7.241.093,11.98-4.333c0,0-.666,4.985-9.271,7.647l-4.472,15.514-2.536,29.584Z" transform="translate(-119.277 -141.963)" fill="#37474f"/>
          <path id="Path_23491" data-name="Path 23491" d="M133.482,104.58l.04,1.331a48.9,48.9,0,0,1,2.256,9.1c1.4,8.432,1.637,19.487,1.637,31.946v34.329s-15.607,1-20.565-10.915l2-24.971s-2.862-12.912-3.641-20.293-2.17-12.552,4.732-18.2Z" transform="translate(-105.893 -104.42)" fill="#e53f71"/>
          <path id="Path_23492" data-name="Path 23492" d="M118.85,155.42c.779,3.953,1.451,6.982,1.451,6.982l-.073.978a33.126,33.126,0,0,0,18.635,4.872v-6.975C131.6,161.61,123.609,159.134,118.85,155.42Z" transform="translate(-107.334 -121.424)" fill="#f0f0f0"/>
          <path id="Path_23493" data-name="Path 23493" d="M139.034,189.383v-7a32.973,32.973,0,0,1-19.128-5.211l-.506,6.609C124.192,187.353,131.946,189.7,139.034,189.383Z" transform="translate(-107.518 -128.698)" fill="#f0f0f0"/>
          <path id="Path_23494" data-name="Path 23494" d="M165.72,104.34a19.421,19.421,0,0,1,8.792,11.807c2.1,8.266,2.416,14.788,2.709,25.4s-.14,40.232-.14,40.232,4.659-2.043,5.684-4.259c0,0,1.331-37.61-.14-50.941s-6.3-20.845-6.3-20.845S172.881,104.327,165.72,104.34Z" transform="translate(-123.009 -104.34)" fill="#e53f71"/>
          <path id="Path_23495" data-name="Path 23495" d="M183.113,168.827a33.378,33.378,0,0,0,5.99-.719V161.14a33.416,33.416,0,0,1-6.1.705C183.073,163.855,183.1,166.245,183.113,168.827Z" transform="translate(-128.789 -123.337)" fill="#f0f0f0"/>
          <path id="Path_23496" data-name="Path 23496" d="M189.067,188.962c.04-2.143.087-4.512.113-7a33.278,33.278,0,0,1-5.95.666c0,2.363,0,4.725,0,6.982A34.2,34.2,0,0,0,189.067,188.962Z" transform="translate(-128.866 -130.3)" fill="#f0f0f0"/>
        </g>
        <g id="freepik--hand-with-bulb--inject-65" transform="translate(0 17.786)">
          <path id="Path_23497" data-name="Path 23497" d="M102.026,105.589c-3.993,0-8.652-.173-11.268,5.591-.852,1.877-3.481,12.912-6.4,23.088a141.361,141.361,0,0,1-10.276-14.689c-1.551-3.241-1.571-5.431-3.155-8.779a27.586,27.586,0,0,1-2.1-5.75c-.379-1.331-1.564-.353-2,.246a6.276,6.276,0,0,0-1.1,3.428c0,.865,0,1.75-.067,2.6s-.353.819-1.045.433a20.912,20.912,0,0,1-3.82-3.281c-1.158-1.1-2.742-2.143-3.993-3.328a37.469,37.469,0,0,1-2.9-3.587c-.765-.9-2.07-2.063-3.075-.779-.6.779-.047,1.684.22,2.463a4.2,4.2,0,0,1-.166,2.409,4.486,4.486,0,0,0,.08,2.9,4.09,4.09,0,0,1,.779,2.622,10.7,10.7,0,0,0-.293,2.722,5.771,5.771,0,0,0,1.052,2A14.529,14.529,0,0,0,55,119.1a29.9,29.9,0,0,0,3.747,3.215c3.2,2.489,4.393,3.268,5.464,4.1,1.6,1.238,3.261,4.413,4.193,6.163,1.817,3.434,5.737,13,10.968,19.853,3.028,3.947,7.148,5.2,10.782.745a34.349,34.349,0,0,0,4.572-8.865c4.04-10.762,6.962-19.614,6.962-19.614S104.954,114.64,102.026,105.589Z" transform="translate(-41.939 -76.871)" fill="#ffa8a7"/>
          <path id="Path_23498" data-name="Path 23498" d="M76.016,122.7c-1.038-1.571-1.73-2.709-1.937-3.135-1.551-3.241-1.571-5.431-3.155-8.779a27.587,27.587,0,0,1-2.1-5.737c-.379-1.331-1.564-.353-2,.246a6.276,6.276,0,0,0-1.1,3.428c0,.865,0,1.75-.067,2.6s-.353.819-1.045.433a20.912,20.912,0,0,1-3.82-3.281c-1.158-1.1-2.742-2.143-3.993-3.328a37.469,37.469,0,0,1-2.9-3.587c-.765-.9-2.07-2.063-3.075-.779-.6.779-.047,1.684.22,2.463a4.2,4.2,0,0,1-.166,2.409,4.486,4.486,0,0,0,.08,2.9,4.09,4.09,0,0,1,.779,2.622,10.7,10.7,0,0,0-.293,2.722,5.771,5.771,0,0,0,1.052,2A14.529,14.529,0,0,0,55,119.1a29.9,29.9,0,0,0,3.747,3.215c3.2,2.489,4.393,3.268,5.464,4.1,1.524,1.178,3.095,4.1,4.047,5.883C71.444,130.261,74.326,126.347,76.016,122.7Z" transform="translate(-41.939 -76.871)" fill="#455a64"/>
          <path id="Path_23499" data-name="Path 23499" d="M82.871,131.146l-.5-.745s.2-.872,1.012.373a20.133,20.133,0,0,1,1.883,3.294,10.307,10.307,0,0,1-3.235,6.569c-2.529,2.023-4.752,2.629-5.457,2.542s-.905-.725-1.331-1.571-1.411-1.883-1.111-2.662l.572.805a11.394,11.394,0,0,0,5.83-3.634A9.7,9.7,0,0,0,82.871,131.146Z" transform="translate(-49.806 -86.868)" fill="#e53f71"/>
          <path id="Path_23500" data-name="Path 23500" d="M82.871,131.146l-.5-.745s.2-.872,1.012.373a20.133,20.133,0,0,1,1.883,3.294,10.307,10.307,0,0,1-3.235,6.569c-2.529,2.023-4.752,2.629-5.457,2.542s-.905-.725-1.331-1.571-1.411-1.883-1.111-2.662l.572.805a11.394,11.394,0,0,0,5.83-3.634A9.7,9.7,0,0,0,82.871,131.146Z" transform="translate(-49.806 -86.868)" opacity="0.2"/>
          <path id="Path_23501" data-name="Path 23501" d="M101.34,150.477a30.189,30.189,0,0,1,3.4,11.68c.666-6.063-1.178-11.607-2.882-13.477Z" transform="translate(-58.924 -93.08)" fill="#f28f8f"/>
          <path id="Path_23502" data-name="Path 23502" d="M120.02,107a32.672,32.672,0,0,0-7.048,1.5c-2.429.839-4.173,1.671-6.416,8.985-2.156,7.055-4.166,15.081-4.166,15.081s2.13,5.577,12.645,6.655l5.571-15.534S122.323,114.321,120.02,107Z" transform="translate(-59.275 -79.14)" fill="#ebebeb"/>
          <g id="freepik--Light--inject-65" transform="translate(8.904 8.87)">
            <path id="Path_23503" data-name="Path 23503" d="M70.537,118.928a2.123,2.123,0,1,1-.8-1.424,2.13,2.13,0,0,1,.8,1.424Z" transform="translate(-56.106 -91.373)" fill="#263238"/>
            <path id="Path_23504" data-name="Path 23504" d="M193.174,127.06h-2.356a2.289,2.289,0,0,0-2.289,2.289v24.9a11.314,11.314,0,0,1-11.314,11.314H80.024A11.314,11.314,0,0,1,68.71,154.255V121.829a.5.5,0,1,1,1,0v32.192a10.522,10.522,0,0,0,10.529,10.522H177a10.522,10.522,0,0,0,10.529-10.522V129.35a3.288,3.288,0,0,1,3.288-3.288h4.053A12.069,12.069,0,0,1,193.174,127.06Z" transform="translate(-56.914 -92.803)" fill="#37474f"/>
            <path id="Path_23505" data-name="Path 23505" d="M65.079,118.976c-1.5-.666-1.657-1.95-.353-2.928a5.637,5.637,0,0,1,5.078-.619c1.5.666,1.657,1.95.353,2.928A5.637,5.637,0,0,1,65.079,118.976Z" transform="translate(-55.287 -90.715)" fill="#37474f"/>
            <path id="Path_23506" data-name="Path 23506" d="M64.8,117.776c-1.544-.666-1.71-2-.366-3.022a5.83,5.83,0,0,1,5.238-.666c1.544.666,1.71,2,.366,3.022A5.83,5.83,0,0,1,64.8,117.776Z" transform="translate(-55.18 -90.267)" fill="#263238"/>
            <path id="Path_23507" data-name="Path 23507" d="M64.518,116.549c-1.6-.666-1.764-2.077-.379-3.115a5.99,5.99,0,0,1,5.4-.666c1.591.666,1.764,2.077.379,3.115a5.99,5.99,0,0,1-5.4.666Z" transform="translate(-55.072 -89.819)" fill="#37474f"/>
            <path id="Path_23508" data-name="Path 23508" d="M64.227,115.285c-1.644-.666-1.824-2.136-.393-3.208a6.19,6.19,0,0,1,5.557-.666c1.644.666,1.824,2.136.393,3.215A6.19,6.19,0,0,1,64.227,115.285Z" transform="translate(-54.96 -89.36)" fill="#263238"/>
            <path id="Path_23509" data-name="Path 23509" d="M63.974,113.974c-1.677-.712-1.857-2.176-.4-3.274a6.3,6.3,0,0,1,5.67-.666c1.677.712,1.857,2.183.4,3.274A6.289,6.289,0,0,1,63.974,113.974Z" transform="translate(-54.867 -88.895)" fill="#37474f"/>
            <path id="Path_23510" data-name="Path 23510" d="M59.921,78.542a10.163,10.163,0,0,0-8.858,11.314c.978,7.987,7.747,8.532,8.14,11.76a1.764,1.764,0,0,0,1.191,1.331,5.5,5.5,0,0,0,4.925-.6,1.75,1.75,0,0,0,.845-1.564h0c-.393-3.228,6.05-5.364,5.078-13.371a10.163,10.163,0,0,0-11.321-8.872Z" transform="translate(-50.987 -78.467)" fill="#e53f71"/>
            <g id="Group_11624" data-name="Group 11624" opacity="0.6">
              <path id="Path_23511" data-name="Path 23511" d="M59.921,78.542a10.163,10.163,0,0,0-8.858,11.314c.978,7.987,7.747,8.532,8.14,11.76a1.764,1.764,0,0,0,1.191,1.331,5.5,5.5,0,0,0,4.925-.6,1.75,1.75,0,0,0,.845-1.564h0c-.393-3.228,6.05-5.364,5.078-13.371a10.163,10.163,0,0,0-11.321-8.872Z" transform="translate(-50.987 -78.467)" fill="#fff"/>
            </g>
            <path id="Path_23512" data-name="Path 23512" d="M65.546,113.005a1.136,1.136,0,0,1-.26-2.136,4.126,4.126,0,0,1,3.7-.453,1.136,1.136,0,0,1,.26,2.136,4.106,4.106,0,0,1-3.7.453Z" transform="translate(-55.555 -89.071)" fill="#e53f71"/>
            <path id="Path_23513" data-name="Path 23513" d="M66.708,105.709a.339.339,0,0,1-.379-.293,24.3,24.3,0,0,1,0-5.85,12.872,12.872,0,0,1,.306-1.664,4.945,4.945,0,0,1-.938-.319,5.87,5.87,0,0,1-1.471-.965,6.037,6.037,0,0,1-1.191,1.291,4.659,4.659,0,0,1-.825.532,12.521,12.521,0,0,1,.7,1.544,24.579,24.579,0,0,1,1.411,5.677.344.344,0,1,1-.686.067,24.139,24.139,0,0,0-1.371-5.5,11.315,11.315,0,0,0-.7-1.531,2.17,2.17,0,0,1-2-.326,1.1,1.1,0,0,1-.319-1.4.912.912,0,0,1,.9-.486,2.64,2.64,0,0,1,1.71,1.384,3.68,3.68,0,0,0,.745-.479,5.185,5.185,0,0,0,1.145-1.251,2.576,2.576,0,0,1-.732-1.864.965.965,0,0,1,1.837-.226,2.516,2.516,0,0,1-.26,2A5.112,5.112,0,0,0,66,96.99a4.04,4.04,0,0,0,.839.286c.339-.958.8-1.577,1.331-1.75a.925.925,0,0,1,.978.273,1.1,1.1,0,0,1,0,1.431,2.156,2.156,0,0,1-1.837.792,10.737,10.737,0,0,0-.319,1.664,24.806,24.806,0,0,0,0,5.664.346.346,0,0,1-.293.393ZM60.046,97.15c-.053,0-.12.04-.18.153-.14.246.087.466.16.532a1.411,1.411,0,0,0,1.145.226c-.446-.626-.839-.9-1.072-.912Zm7.514.133a1.331,1.331,0,0,0,1.052-.5c.053-.073.226-.346.033-.552a.24.24,0,0,0-.266-.093c-.22.08-.532.439-.819,1.151Zm-3.627-3.141a.218.218,0,0,0-.24.213,1.691,1.691,0,0,0,.4,1.092,1.71,1.71,0,0,0,.126-1.158.226.226,0,0,0-.286-.14Z" transform="translate(-53.707 -83.485)" fill="#fff"/>
          </g>
          <path id="Path_23514" data-name="Path 23514" d="M73.977,71.461a.666.666,0,0,1-.373-.879l1.331-3.248a.666.666,0,0,1,.865-.359h0a.666.666,0,0,1,.373.872L74.842,71.1a.666.666,0,0,1-.879.373Z" transform="translate(-49.63 -65.737)" fill="#e0e0e0"/>
          <path id="Path_23515" data-name="Path 23515" d="M62.175,69.905a.666.666,0,0,1-.413-.526l-.486-3.474a.672.672,0,1,1,1.331-.186l.479,3.474a.663.663,0,0,1-.912.712Z" transform="translate(-45.523 -65.14)" fill="#e0e0e0"/>
          <path id="Path_23516" data-name="Path 23516" d="M50.608,74.8a.666.666,0,0,1-.273-.206l-2.156-2.769A.674.674,0,1,1,49.244,71L51.4,73.761a.676.676,0,0,1-.792,1.038Z" transform="translate(-41.097 -67.012)" fill="#e0e0e0"/>
          <path id="Path_23517" data-name="Path 23517" d="M39.79,83.5a.673.673,0,1,1,.512-1.245l3.248,1.331h0a.672.672,0,0,1-.506,1.245L39.8,83.5Z" transform="translate(-38.199 -70.847)" fill="#e0e0e0"/>
          <path id="Path_23518" data-name="Path 23518" d="M38.022,97.517a.67.67,0,0,1,.166-1.285l3.474-.486a.672.672,0,0,1,.186,1.331l-3.474.486a.626.626,0,0,1-.353-.047Z" transform="translate(-37.609 -75.374)" fill="#e0e0e0"/>
          <path id="Path_23519" data-name="Path 23519" d="M87.776,90.583a.666.666,0,0,1,.166-1.291l3.474-.486a.675.675,0,1,1,.186,1.338l-3.474.479A.626.626,0,0,1,87.776,90.583Z" transform="translate(-54.239 -73.053)" fill="#e0e0e0"/>
          <path id="Path_23520" data-name="Path 23520" d="M83.264,79.017a.676.676,0,0,1-.16-1.171l2.769-2.156a.674.674,0,1,1,.825,1.065L83.929,78.91A.666.666,0,0,1,83.264,79.017Z" transform="translate(-52.734 -68.621)" fill="#e0e0e0"/>
        </g>
        <path id="Path_23521" data-name="Path 23521" d="M115.744,195.983l-3.527,1.943a1.7,1.7,0,0,0-.8,1.331c-.087,3.148-.379,15.527.126,21.444a1.863,1.863,0,0,0,.852,1.331c2,1.125,7.414,4.093,9.9,4.779a3.115,3.115,0,0,0,1.684-.18l2.5-1a1.424,1.424,0,0,0,.819-1.211c0-6.283,1.145-14.768,2.183-21.61a1.265,1.265,0,0,0-.666-1.258l-11.521-5.617A1.91,1.91,0,0,0,115.744,195.983Z" transform="translate(-62.24 -91.051)" fill="#455a64"/>
        <path id="Path_23522" data-name="Path 23522" d="M111.545,222.111c-.506-5.917-.213-18.3-.126-21.444a.519.519,0,0,1,.819-.486l10.729,5.324a1.4,1.4,0,0,1,.712,1.271,198.82,198.82,0,0,0-.566,20.685.666.666,0,0,1-.819.732c-2.482-.666-7.893-3.654-9.9-4.779a1.864,1.864,0,0,1-.852-1.3Z" transform="translate(-62.24 -92.486)" fill="#37474f"/>
        <path id="Path_23523" data-name="Path 23523" d="M128,229.958a3.208,3.208,0,0,0,1.551-.213l2.509-1a1.451,1.451,0,0,0,.805-1.211c.492-6.449,1.145-14.762,2.19-21.6a1.085,1.085,0,0,0-.126-.666l-5.8,2.662a1.218,1.218,0,0,1,.126.619,197.487,197.487,0,0,0-.566,20.692.666.666,0,0,1-.686.725Z" transform="translate(-67.841 -94.218)" fill="#263238"/>
        <path id="Path_23524" data-name="Path 23524" d="M113.623,204l9.4,4.386-.453,7.987-9.2-3.947S113.457,206.715,113.623,204Z" transform="translate(-62.947 -93.796)" fill="#263238"/>
        <path id="Path_23525" data-name="Path 23525" d="M122.812,215.987,114,212.213s.08-5.218.226-7.913l8.985,4.186Z" transform="translate(-63.158 -93.897)" fill="#e53f71"/>
        <path id="Path_23526" data-name="Path 23526" d="M122.812,215.987,114,212.213s.08-5.218.226-7.913l8.985,4.186Z" transform="translate(-63.158 -93.897)" opacity="0.4"/>
        <path id="Path_23527" data-name="Path 23527" d="M120.34,208.61l-1.97,2.849,1.238.426-.965,2.516,2.2-2.968-1.238-.466Z" transform="translate(-64.62 -95.338)" fill="#fafafa"/>
        <path id="Path_23528" data-name="Path 23528" d="M125.143,224.713l-.06.792a.3.3,0,0,1-.439.273l-1.424-.586a.666.666,0,0,1-.379-.612l.047-.805a.293.293,0,0,1,.433-.273l1.444.6A.666.666,0,0,1,125.143,224.713Z" transform="translate(-66.115 -100.307)" fill="#263238"/>
        <path id="Path_23529" data-name="Path 23529" d="M125.156,228.6l-.04.792a.3.3,0,0,1-.433.28l-1.438-.566a.666.666,0,0,1-.386-.6v-.812a.293.293,0,0,1,.426-.28l1.451.579A.666.666,0,0,1,125.156,228.6Z" transform="translate(-66.121 -101.616)" fill="#263238"/>
        <path id="Path_23530" data-name="Path 23530" d="M125.186,232.485v.792a.3.3,0,0,1-.433.286l-1.438-.539a.666.666,0,0,1-.406-.6v-.812a.293.293,0,0,1,.426-.28l1.458.552A.666.666,0,0,1,125.186,232.485Z" transform="translate(-66.138 -102.927)" fill="#263238"/>
        <path id="Path_23531" data-name="Path 23531" d="M125.2,236.42v.792a.3.3,0,0,1-.426.293l-1.451-.519a.666.666,0,0,1-.413-.586v-.812a.293.293,0,0,1,.419-.293l1.471.532A.666.666,0,0,1,125.2,236.42Z" transform="translate(-66.137 -104.253)" fill="#263238"/>
        <path id="Path_23532" data-name="Path 23532" d="M120.356,222.523l-.04.825a.293.293,0,0,1-.433.273l-1.411-.586a.666.666,0,0,1-.393-.612v-.839a.286.286,0,0,1,.426-.273l1.438.6A.666.666,0,0,1,120.356,222.523Z" transform="translate(-64.522 -99.574)" fill="#263238"/>
        <path id="Path_23533" data-name="Path 23533" d="M120.342,226.376l-.04.825a.293.293,0,0,1-.433.273l-1.411-.579a.666.666,0,0,1-.4-.612v-.839a.286.286,0,0,1,.426-.273l1.438.592a.666.666,0,0,1,.419.612Z" transform="translate(-64.516 -100.865)" fill="#263238"/>
        <path id="Path_23534" data-name="Path 23534" d="M120.342,230.221v.825a.293.293,0,0,1-.426.28l-1.424-.572a.666.666,0,0,1-.393-.612V229.3a.286.286,0,0,1,.419-.28l1.438.592a.666.666,0,0,1,.386.606Z" transform="translate(-64.529 -102.154)" fill="#263238"/>
        <path id="Path_23535" data-name="Path 23535" d="M120.319,234.075v.825a.293.293,0,0,1-.426.273l-1.424-.566a.666.666,0,0,1-.4-.6v-.845a.293.293,0,0,1,.426-.28l1.438.586a.666.666,0,0,1,.386.606Z" transform="translate(-64.519 -103.446)" fill="#263238"/>
        <path id="Path_23536" data-name="Path 23536" d="M115.593,220.371v.859a.286.286,0,0,1-.426.266l-1.4-.586a.666.666,0,0,1-.393-.612v-.879a.28.28,0,0,1,.413-.266l1.424.606A.666.666,0,0,1,115.593,220.371Z" transform="translate(-62.947 -98.853)" fill="#263238"/>
        <path id="Path_23537" data-name="Path 23537" d="M115.612,224.079v.859a.28.28,0,0,1-.419.266l-1.4-.586a.666.666,0,0,1-.4-.612v-.879a.28.28,0,0,1,.419-.266l1.424.606A.666.666,0,0,1,115.612,224.079Z" transform="translate(-62.954 -100.092)" fill="#263238"/>
        <path id="Path_23538" data-name="Path 23538" d="M115.619,227.819v.859a.286.286,0,0,1-.426.266l-1.4-.586a.706.706,0,0,1-.4-.612v-.879a.28.28,0,0,1,.419-.266l1.424.606A.666.666,0,0,1,115.619,227.819Z" transform="translate(-62.954 -101.342)" fill="#263238"/>
        <path id="Path_23539" data-name="Path 23539" d="M115.633,231.561v.859a.28.28,0,0,1-.419.266L113.8,232.1a.666.666,0,0,1-.393-.612v-.879a.28.28,0,0,1,.413-.266l1.424.6A.705.705,0,0,1,115.633,231.561Z" transform="translate(-62.96 -102.595)" fill="#263238"/>
      </g>
    </g>
    <g id="freepik--fuse-box--inject-65" transform="translate(204.364 17.09)">
      <g id="freepik--fuse-box--inject-65-2" data-name="freepik--fuse-box--inject-65">
        <g id="freepik--plants--inject-65-4" data-name="freepik--plants--inject-65" transform="translate(34.863 212.755)">
          <path id="Path_23540" data-name="Path 23540" d="M355.08,371.861l-6.143-2.09c-.526-5.883.233-20.139,9.8-28.505,9.71-8.492,16.046-3.048,15.86.666-.2,4.053-8.912,7.853-13.311,13.311C356.478,361.179,354.98,365.238,355.08,371.861Z" transform="translate(-348.813 -336.759)" fill="#e53f71"/>
          <path id="Path_23541" data-name="Path 23541" d="M355.08,371.861l-6.143-2.09c-.526-5.883.233-20.139,9.8-28.505,9.71-8.492,16.046-3.048,15.86.666-.2,4.053-8.912,7.853-13.311,13.311C356.478,361.179,354.98,365.238,355.08,371.861Z" transform="translate(-348.813 -336.759)" fill="#fff" opacity="0.5"/>
          <path id="Path_23542" data-name="Path 23542" d="M351.836,372.336h0a.333.333,0,0,1-.326-.333c.087-15.827,11.84-29.677,17.7-30.575a.337.337,0,1,1,.1.666c-5.737.879-17.051,14.968-17.131,29.916A.333.333,0,0,1,351.836,372.336Z" transform="translate(-349.715 -338.32)" fill="#fff"/>
          <path id="Path_23543" data-name="Path 23543" d="M370.538,368.024c-5.324-1.75-16.9,4.073-19.148,12.645l4.552,1.537a25.178,25.178,0,0,1,12.838-5.491C376.281,375.964,375.842,369.774,370.538,368.024Z" transform="translate(-349.675 -347.112)" fill="#e53f71"/>
          <path id="Path_23544" data-name="Path 23544" d="M370.538,368.024c-5.324-1.75-16.9,4.073-19.148,12.645l4.552,1.537a25.178,25.178,0,0,1,12.838-5.491C376.281,375.964,375.842,369.774,370.538,368.024Z" transform="translate(-349.675 -347.112)" fill="#fff" opacity="0.65"/>
          <path id="Path_23545" data-name="Path 23545" d="M354.344,383.37a.319.319,0,0,1-.153-.033.339.339,0,0,1-.14-.453c4.559-8.805,14.456-11.407,18.482-10.329a.326.326,0,0,1,.233.406.339.339,0,0,1-.406.24c-3.847-1.032-13.311,1.5-17.717,9.983a.326.326,0,0,1-.3.186Z" transform="translate(-350.552 -348.654)" fill="#fff"/>
        </g>
        <g id="freepik--Box--inject-65">
          <path id="Path_23546" data-name="Path 23546" d="M346.79,241.28V339.7h0a1.837,1.837,0,0,0,1.092,1.517,5.784,5.784,0,0,0,5.264,0,1.85,1.85,0,0,0,1.091-1.517h0V241.28Z" transform="translate(-313.273 -92.071)" fill="#455a64"/>
          <path id="Path_23547" data-name="Path 23547" d="M346.79,259.729l7.447-4.3V241.28H346.79Z" transform="translate(-313.273 -92.071)" fill="#37474f"/>
          <path id="Path_23548" data-name="Path 23548" d="M331.16,205.519l51.367-29.657V83.93L331.16,113.587Z" transform="translate(-308.046 -39.445)" fill="#e53f71"/>
          <path id="Path_23549" data-name="Path 23549" d="M370.911,77.224,347.8,63.88,296.43,93.537l23.114,13.344Z" transform="translate(-296.43 -32.739)" fill="#e53f71"/>
          <path id="Path_23550" data-name="Path 23550" d="M370.911,77.224,347.8,63.88,296.43,93.537l23.114,13.344Z" transform="translate(-296.43 -32.739)" fill="#fff" opacity="0.2"/>
          <path id="Path_23551" data-name="Path 23551" d="M296.43,108.44v91.932l23.114,13.344V121.784Z" transform="translate(-296.43 -47.642)" fill="#e53f71"/>
          <path id="Path_23552" data-name="Path 23552" d="M296.43,108.44v91.932l23.114,13.344V121.784Z" transform="translate(-296.43 -47.642)" opacity="0.2"/>
          <path id="Path_23553" data-name="Path 23553" d="M370.8,119.84,351.75,169.39l11.98-9.69-9.318,35.034,21.3-53.27-11.98,9.344Z" transform="translate(-314.932 -51.455)" fill="#fafafa"/>
          <path id="Path_23554" data-name="Path 23554" d="M336.354,129.513c.706-.406,1.285-.073,1.285.745a2.842,2.842,0,0,1-1.284,2.223c-.712.413-1.285.08-1.285-.739a2.849,2.849,0,0,1,1.284-2.23Z" transform="translate(-309.353 -54.632)" fill="#37474f"/>
          <path id="Path_23555" data-name="Path 23555" d="M336.354,254.291c.706-.413,1.285-.08,1.285.739a2.842,2.842,0,0,1-1.284,2.223c-.712.413-1.285.08-1.285-.739A2.822,2.822,0,0,1,336.354,254.291Z" transform="translate(-309.353 -96.363)" fill="#37474f"/>
          <path id="Path_23556" data-name="Path 23556" d="M401.908,91.641c.712-.413,1.284-.08,1.284.739a2.822,2.822,0,0,1-1.284,2.223c-.706.413-1.278.08-1.278-.739a2.835,2.835,0,0,1,1.278-2.223Z" transform="translate(-331.28 -41.965)" fill="#37474f"/>
          <path id="Path_23557" data-name="Path 23557" d="M401.908,216.411c.712-.413,1.284-.08,1.284.739a2.822,2.822,0,0,1-1.284,2.223c-.706.413-1.278.08-1.278-.739A2.835,2.835,0,0,1,401.908,216.411Z" transform="translate(-331.28 -83.694)" fill="#37474f"/>
          <path id="Path_23558" data-name="Path 23558" d="M396.724,62.321v65.244l28.252-16.313V19.32L373.61,48.977Z" transform="translate(-322.243 -17.836)" fill="#e53f71"/>
          <path id="Path_23559" data-name="Path 23559" d="M423.686,18.574,372.319,48.231l-2.569-1.484L421.117,17.09Z" transform="translate(-320.952 -17.09)" fill="#e53f71"/>
          <path id="Path_23560" data-name="Path 23560" d="M423.686,18.574,372.319,48.231l-2.569-1.484L421.117,17.09Z" transform="translate(-320.952 -17.09)" fill="#fff" opacity="0.2"/>
          <path id="Path_23561" data-name="Path 23561" d="M369.75,64.618V61.65l2.569,1.484Z" transform="translate(-320.952 -31.993)" fill="#e53f71"/>
          <path id="Path_23562" data-name="Path 23562" d="M369.75,64.618V61.65l2.569,1.484Z" transform="translate(-320.952 -31.993)" opacity="0.2"/>
          <path id="Path_23563" data-name="Path 23563" d="M373.61,63.88l33.078,9.078v63.759l-9.963,5.75V77.224Z" transform="translate(-322.243 -32.739)" opacity="0.2"/>
        </g>
      </g>
    </g>
  </g>
</svg>
