<svg id="Iconly_Bold_Star" data-name="Iconly/Bold/Star" xmlns="http://www.w3.org/2000/svg" width="5.847" height="5.262" viewBox="0 0 5.847 5.262">
  <g id="Star">
    <path id="Star-2" data-name="Star" d="M4.653,3.273a.3.3,0,0,0-.093.269L4.82,4.9a.292.292,0,0,1-.132.3.337.337,0,0,1-.342.022l-1.295-.64a.345.345,0,0,0-.146-.036H2.826a.246.246,0,0,0-.079.025l-1.295.643a.358.358,0,0,1-.208.03A.31.31,0,0,1,.985,4.9l.26-1.362a.3.3,0,0,0-.093-.271L.1,2.293A.288.288,0,0,1,.018,1.98a.324.324,0,0,1,.26-.208l1.453-.2A.325.325,0,0,0,1.987,1.4L2.628.161A.29.29,0,0,1,2.686.086L2.712.066A.2.2,0,0,1,2.759.03L2.791.019,2.841,0h.123a.328.328,0,0,1,.257.166L3.87,1.4a.324.324,0,0,0,.243.169l1.453.2a.328.328,0,0,1,.266.208.29.29,0,0,1-.085.313Z" transform="translate(0)" fill="#f89f5b"/>
  </g>
</svg>
