<svg xmlns="http://www.w3.org/2000/svg" width="371.684" height="314.376" viewBox="0 0 371.684 314.376">
  <g id="Group_226" data-name="Group 226" transform="translate(-50.38 -515)">
    <g id="freepik--background-simple--inject-59" transform="translate(50.38 555.731)">
      <path id="Path_1303" data-name="Path 1303" d="M399.04,183s-23.378-43.922-74.949-50.427-87.672,25.214-125.655,41.482c-19.9,8.513-42.615,5.208-63.736,9.33C67.12,196.57,41.685,279.178,69.81,326.155c24.349,40.665,67.2,61.814,132.468,66.7s111.05,10.57,169.491-29.288S426.319,240.752,399.04,183Z" transform="translate(-58.518 -131.708)" fill="#f89f5b" opacity="0.22"/>
    </g>
    <g id="freepik--Clouds--inject-59" transform="translate(122.123 515)" opacity="0.31">
      <path id="Path_1305" data-name="Path 1305" d="M189.094,141.047c-2.518-1.374-3.651-.231-4.564-1.374s2.508-4.1-4.334-7.072c0,0-.461-6.39-9.811-6.611s-6.842,6.38-9.349,7.985-3.2-.961-5.708.682-1.364,4.8-3.421,5.246-4.8-2.056-7.3-.461-2.508,2.969-3.651,2.969-3.421-.961-4.8,0-2.969,2.056-2.969,2.056H190.9S191.621,142.411,189.094,141.047Z" transform="translate(-133.18 -90.753)" fill="#f89f5b"/>
      <path id="Path_1306" data-name="Path 1306" d="M189.094,141.047c-2.518-1.374-3.651-.231-4.564-1.374s2.508-4.1-4.334-7.072c0,0-.461-6.39-9.811-6.611s-6.842,6.38-9.349,7.985-3.2-.961-5.708.682-1.364,4.8-3.421,5.246-4.8-2.056-7.3-.461-2.508,2.969-3.651,2.969-3.421-.961-4.8,0-2.969,2.056-2.969,2.056H190.9S191.621,142.411,189.094,141.047Z" transform="translate(-133.18 -90.753)" fill="#f89f5b" opacity="0.5"/>
      <g id="Group_222" data-name="Group 222" transform="translate(0 35.231)" opacity="0.8">
        <path id="Path_1307" data-name="Path 1307" d="M189.094,141.047c-2.518-1.374-3.651-.231-4.564-1.374s2.508-4.1-4.334-7.072c0,0-.461-6.39-9.811-6.611s-6.842,6.38-9.349,7.985-3.2-.961-5.708.682-1.364,4.8-3.421,5.246-4.8-2.056-7.3-.461-2.508,2.969-3.651,2.969-3.421-.961-4.8,0-2.969,2.056-2.969,2.056H190.9S191.621,142.411,189.094,141.047Z" transform="translate(-133.18 -125.984)" fill="#f89f5b"/>
        <path id="Path_1308" data-name="Path 1308" d="M189.094,141.047c-2.518-1.374-3.651-.231-4.564-1.374s2.508-4.1-4.334-7.072c0,0-.461-6.39-9.811-6.611s-6.842,6.38-9.349,7.985-3.2-.961-5.708.682-1.364,4.8-3.421,5.246-4.8-2.056-7.3-.461-2.508,2.969-3.651,2.969-3.421-.961-4.8,0-2.969,2.056-2.969,2.056H190.9S191.621,142.411,189.094,141.047Z" transform="translate(-133.18 -125.984)" fill="#f89f5b" opacity="0.5"/>
      </g>
      <path id="Path_1309" data-name="Path 1309" d="M380.184,117.426c-4.689-2.556-6.813-.423-8.513-2.556s4.68-7.687-8.091-13.193c0,0-.855-11.925-18.315-12.347s-12.77,11.915-17.45,14.894-5.967-1.7-10.647,1.278-2.556,8.946-6.39,9.791-8.936-3.844-13.625-.846-4.68,5.535-6.8,5.535-6.39-1.7-8.946,0-5.535,3.844-5.535,3.844H383.614S384.864,119.982,380.184,117.426Z" transform="translate(-138.761 -89.319)" fill="#f89f5b"/>
      <path id="Path_1310" data-name="Path 1310" d="M380.184,117.426c-4.689-2.556-6.813-.423-8.513-2.556s4.68-7.687-8.091-13.193c0,0-.855-11.925-18.315-12.347s-12.77,11.915-17.45,14.894-5.967-1.7-10.647,1.278-2.556,8.946-6.39,9.791-8.936-3.844-13.625-.846-4.68,5.535-6.8,5.535-6.39-1.7-8.946,0-5.535,3.844-5.535,3.844H383.614S384.864,119.982,380.184,117.426Z" transform="translate(-138.761 -89.319)" fill="#f89f5b" opacity="0.5"/>
      <g id="Group_223" data-name="Group 223" transform="translate(137.109)" opacity="0.8">
        <path id="Path_1311" data-name="Path 1311" d="M380.184,117.426c-4.689-2.556-6.813-.423-8.513-2.556s4.68-7.687-8.091-13.193c0,0-.855-11.925-18.315-12.347s-12.77,11.915-17.45,14.894-5.967-1.7-10.647,1.278-2.556,8.946-6.39,9.791-8.936-3.844-13.625-.846-4.68,5.535-6.8,5.535-6.39-1.7-8.946,0-5.535,3.844-5.535,3.844H383.614S384.864,119.982,380.184,117.426Z" transform="translate(-275.87 -89.319)" fill="#f89f5b"/>
        <path id="Path_1312" data-name="Path 1312" d="M380.184,117.426c-4.689-2.556-6.813-.423-8.513-2.556s4.68-7.687-8.091-13.193c0,0-.855-11.925-18.315-12.347s-12.77,11.915-17.45,14.894-5.967-1.7-10.647,1.278-2.556,8.946-6.39,9.791-8.936-3.844-13.625-.846-4.68,5.535-6.8,5.535-6.39-1.7-8.946,0-5.535,3.844-5.535,3.844H383.614S384.864,119.982,380.184,117.426Z" transform="translate(-275.87 -89.319)" fill="#f89f5b" opacity="0.5"/>
      </g>
    </g>
    <g id="freepik--Trees--inject-59" transform="translate(108.913 565.317)" opacity="0.77">
      <path id="Path_1313" data-name="Path 1313" d="M363.582,217.783c-.384,1.432.817,3.4.259,4.747s-2.806,1.922-3.546,3.181-.086,3.478-.961,4.651-3.2,1.105-4.247,2.152-.961,3.344-2.152,4.238-3.373.25-4.651.961-1.806,2.969-3.171,3.536-3.315-.634-4.747-.25-2.518,2.393-4,2.594-3.027-1.48-4.516-1.48-3.084,1.662-4.526,1.48-2.575-2.22-3.988-2.594-3.392.817-4.747.25-1.922-2.806-3.171-3.536-3.488-.086-4.651-.961-1.115-3.2-2.152-4.238-3.344-.961-4.247-2.152-.25-3.373-.961-4.651-2.969-1.807-3.536-3.181.634-3.315.25-4.747-2.393-2.508-2.585-3.988,1.48-3.027,1.48-4.526-1.672-3.075-1.48-4.516,2.21-2.575,2.585-3.988-.817-3.4-.25-4.747,2.806-1.922,3.536-3.181.1-3.488.961-4.651,3.2-1.1,4.237-2.152.961-3.344,2.152-4.238,3.373-.25,4.651-.961,1.806-2.969,3.181-3.536,3.315.634,4.747.25,2.517-2.4,3.988-2.594,3.027,1.48,4.526,1.48,3.075-1.662,4.516-1.48,2.585,2.22,3.988,2.594,3.4-.817,4.747-.259,1.922,2.806,3.181,3.546,3.488.086,4.651.961,1.115,3.2,2.152,4.238,3.344.961,4.238,2.152.25,3.373.961,4.651,2.979,1.806,3.546,3.171-.644,3.325-.259,4.756,2.4,2.508,2.594,3.988-1.48,3.027-1.48,4.516,1.662,3.084,1.48,4.526S363.957,216.37,363.582,217.783ZM173.134,202.408c-.317-1.163.663-2.758.2-3.844s-2.277-1.557-2.883-2.585-.077-2.835-.8-3.776-2.6-.9-3.45-1.749-.8-2.719-1.749-3.45-2.739-.192-3.776-.8-1.47-2.412-2.585-2.883-2.69.519-3.844.2-2.037-1.922-3.238-2.1-2.46,1.2-3.671,1.2-2.508-1.355-3.68-1.2-2.085,1.807-3.238,2.1-2.758-.663-3.844-.2-1.547,2.277-2.585,2.883-2.825.077-3.776.807-.9,2.594-1.749,3.44-2.71.8-3.44,1.749-.2,2.739-.807,3.776-2.412,1.47-2.883,2.585.519,2.69.211,3.844-1.922,2.037-2.1,3.238,1.2,2.46,1.2,3.671-1.355,2.508-1.2,3.68,1.8,2.095,2.1,3.238-.663,2.758-.211,3.844,2.277,1.557,2.883,2.585.067,2.883.8,3.776,2.6.9,3.45,1.749.8,2.719,1.739,3.44,2.748.2,3.786.807,1.47,2.412,2.575,2.883,2.69-.519,3.844-.2,2.047,1.922,3.248,2.1,2.46-1.2,3.671-1.2,2.5,1.345,3.671,1.2,2.095-1.806,3.238-2.114,2.758.663,3.844.211,1.547-2.277,2.575-2.883,2.835-.077,3.776-.807.9-2.594,1.749-3.44,2.719-.8,3.45-1.749.2-2.739.8-3.776,2.421-1.47,2.883-2.585-.519-2.69-.2-3.844,1.922-2.047,2.1-3.238-1.2-2.46-1.2-3.68,1.355-2.5,1.2-3.671-1.778-2.162-2.085-3.286ZM296.32,184.517c.375-1.4,2.4-2.508,2.594-3.988s-1.48-3.027-1.48-4.516,1.662-3.084,1.48-4.526-2.22-2.575-2.594-3.988.817-3.4.259-4.747-2.806-1.922-3.546-3.181-.086-3.488-.961-4.651-3.2-1.105-4.238-2.152-.961-3.344-2.152-4.238-3.373-.25-4.651-.961-1.806-2.969-3.181-3.536-3.315.634-4.747.25-2.508-2.393-3.988-2.585-3.027,1.48-4.516,1.48-3.084-1.672-4.526-1.48-2.575,2.21-3.988,2.585-3.4-.807-4.747-.25-1.922,2.806-3.181,3.536-3.488.1-4.651.961-1.105,3.2-2.152,4.247-3.344.961-4.238,2.152-.25,3.373-.961,4.651-2.969,1.807-3.536,3.171.634,3.315.25,4.747-2.393,2.518-2.585,3.988,1.48,3.027,1.48,4.526-1.672,3.075-1.48,4.516,2.21,2.585,2.585,3.988a3.843,3.843,0,0,1,0,1.643c-1.153-.192-2.566,0-3.488-.548-1.268-.73-1.806-2.969-3.181-3.536s-3.315.644-4.747.259-2.508-2.4-3.988-2.594-3.027,1.48-4.516,1.48-3.084-1.672-4.526-1.48-2.575,2.21-3.988,2.594-3.4-.817-4.747-.259-1.922,2.806-3.181,3.546-3.488.086-4.651.961-1.115,3.209-2.152,4.247-3.344.961-4.238,2.152-.25,3.373-.961,4.651-2.969,1.806-3.536,3.171.634,3.315.25,4.756-2.393,2.508-2.585,3.988,1.48,3.027,1.48,4.516-1.672,3.084-1.48,4.526,2.21,2.575,2.585,3.988-.817,3.392-.25,4.747,2.806,1.922,3.536,3.181.1,3.478.961,4.651,3.2,1.1,4.238,2.152.961,3.344,2.152,4.238,3.382.25,4.66.961,1.806,2.969,3.171,3.536,3.315-.634,4.747-.259,2.518,2.4,3.988,2.594,3.027-1.48,4.526-1.48,3.075,1.672,4.516,1.48,2.585-2.21,3.988-2.594,3.4.817,4.756.259,1.922-2.806,3.171-3.546,3.488-.086,4.651-.961,1.115-3.2,2.152-4.247,3.344-.961,4.247-2.152.24-3.373.961-4.651,2.979-1.806,3.546-3.171-.644-3.315-.259-4.747,2.4-2.518,2.594-3.988-1.48-3.036-1.48-4.526,1.662-3.075,1.48-4.526-2.22-2.575-2.594-3.988a3.776,3.776,0,0,1,0-1.634c1.153.192,2.556,0,3.488.538,1.268.74,1.806,2.979,3.171,3.546s3.315-.644,4.747-.259,2.518,2.4,3.988,2.594,3.027-1.48,4.526-1.48,3.075,1.662,4.516,1.48,2.585-2.22,4-2.594,3.392.817,4.747.259,1.922-2.806,3.171-3.546,3.488-.086,4.651-.961,1.115-3.2,2.152-4.238,3.344-.961,4.247-2.152.24-3.373.961-4.651,2.979-1.806,3.546-3.181-.653-3.363-.269-4.795Z" transform="translate(-119.433 -141.684)" fill="#e53f71"/>
      <path id="Path_1314" data-name="Path 1314" d="M363.582,217.783c-.384,1.432.817,3.4.259,4.747s-2.806,1.922-3.546,3.181-.086,3.478-.961,4.651-3.2,1.105-4.247,2.152-.961,3.344-2.152,4.238-3.373.25-4.651.961-1.806,2.969-3.171,3.536-3.315-.634-4.747-.25-2.518,2.393-4,2.594-3.027-1.48-4.516-1.48-3.084,1.662-4.526,1.48-2.575-2.22-3.988-2.594-3.392.817-4.747.25-1.922-2.806-3.171-3.536-3.488-.086-4.651-.961-1.115-3.2-2.152-4.238-3.344-.961-4.247-2.152-.25-3.373-.961-4.651-2.969-1.807-3.536-3.181.634-3.315.25-4.747-2.393-2.508-2.585-3.988,1.48-3.027,1.48-4.526-1.672-3.075-1.48-4.516,2.21-2.575,2.585-3.988-.817-3.4-.25-4.747,2.806-1.922,3.536-3.181.1-3.488.961-4.651,3.2-1.1,4.237-2.152.961-3.344,2.152-4.238,3.373-.25,4.651-.961,1.806-2.969,3.181-3.536,3.315.634,4.747.25,2.517-2.4,3.988-2.594,3.027,1.48,4.526,1.48,3.075-1.662,4.516-1.48,2.585,2.22,3.988,2.594,3.4-.817,4.747-.259,1.922,2.806,3.181,3.546,3.488.086,4.651.961,1.115,3.2,2.152,4.238,3.344.961,4.238,2.152.25,3.373.961,4.651,2.979,1.806,3.546,3.171-.644,3.325-.259,4.756,2.4,2.508,2.594,3.988-1.48,3.027-1.48,4.516,1.662,3.084,1.48,4.526S363.957,216.37,363.582,217.783ZM173.134,202.408c-.317-1.163.663-2.758.2-3.844s-2.277-1.557-2.883-2.585-.077-2.835-.8-3.776-2.6-.9-3.45-1.749-.8-2.719-1.749-3.45-2.739-.192-3.776-.8-1.47-2.412-2.585-2.883-2.69.519-3.844.2-2.037-1.922-3.238-2.1-2.46,1.2-3.671,1.2-2.508-1.355-3.68-1.2-2.085,1.807-3.238,2.1-2.758-.663-3.844-.2-1.547,2.277-2.585,2.883-2.825.077-3.776.807-.9,2.594-1.749,3.44-2.71.8-3.44,1.749-.2,2.739-.807,3.776-2.412,1.47-2.883,2.585.519,2.69.211,3.844-1.922,2.037-2.1,3.238,1.2,2.46,1.2,3.671-1.355,2.508-1.2,3.68,1.8,2.095,2.1,3.238-.663,2.758-.211,3.844,2.277,1.557,2.883,2.585.067,2.883.8,3.776,2.6.9,3.45,1.749.8,2.719,1.739,3.44,2.748.2,3.786.807,1.47,2.412,2.575,2.883,2.69-.519,3.844-.2,2.047,1.922,3.248,2.1,2.46-1.2,3.671-1.2,2.5,1.345,3.671,1.2,2.095-1.806,3.238-2.114,2.758.663,3.844.211,1.547-2.277,2.575-2.883,2.835-.077,3.776-.807.9-2.594,1.749-3.44,2.719-.8,3.45-1.749.2-2.739.8-3.776,2.421-1.47,2.883-2.585-.519-2.69-.2-3.844,1.922-2.047,2.1-3.238-1.2-2.46-1.2-3.68,1.355-2.5,1.2-3.671-1.778-2.162-2.085-3.286ZM296.32,184.517c.375-1.4,2.4-2.508,2.594-3.988s-1.48-3.027-1.48-4.516,1.662-3.084,1.48-4.526-2.22-2.575-2.594-3.988.817-3.4.259-4.747-2.806-1.922-3.546-3.181-.086-3.488-.961-4.651-3.2-1.105-4.238-2.152-.961-3.344-2.152-4.238-3.373-.25-4.651-.961-1.806-2.969-3.181-3.536-3.315.634-4.747.25-2.508-2.393-3.988-2.585-3.027,1.48-4.516,1.48-3.084-1.672-4.526-1.48-2.575,2.21-3.988,2.585-3.4-.807-4.747-.25-1.922,2.806-3.181,3.536-3.488.1-4.651.961-1.105,3.2-2.152,4.247-3.344.961-4.238,2.152-.25,3.373-.961,4.651-2.969,1.807-3.536,3.171.634,3.315.25,4.747-2.393,2.518-2.585,3.988,1.48,3.027,1.48,4.526-1.672,3.075-1.48,4.516,2.21,2.585,2.585,3.988a3.843,3.843,0,0,1,0,1.643c-1.153-.192-2.566,0-3.488-.548-1.268-.73-1.806-2.969-3.181-3.536s-3.315.644-4.747.259-2.508-2.4-3.988-2.594-3.027,1.48-4.516,1.48-3.084-1.672-4.526-1.48-2.575,2.21-3.988,2.594-3.4-.817-4.747-.259-1.922,2.806-3.181,3.546-3.488.086-4.651.961-1.115,3.209-2.152,4.247-3.344.961-4.238,2.152-.25,3.373-.961,4.651-2.969,1.806-3.536,3.171.634,3.315.25,4.756-2.393,2.508-2.585,3.988,1.48,3.027,1.48,4.516-1.672,3.084-1.48,4.526,2.21,2.575,2.585,3.988-.817,3.392-.25,4.747,2.806,1.922,3.536,3.181.1,3.478.961,4.651,3.2,1.1,4.238,2.152.961,3.344,2.152,4.238,3.382.25,4.66.961,1.806,2.969,3.171,3.536,3.315-.634,4.747-.259,2.518,2.4,3.988,2.594,3.027-1.48,4.526-1.48,3.075,1.672,4.516,1.48,2.585-2.21,3.988-2.594,3.4.817,4.756.259,1.922-2.806,3.171-3.546,3.488-.086,4.651-.961,1.115-3.2,2.152-4.247,3.344-.961,4.247-2.152.24-3.373.961-4.651,2.979-1.806,3.546-3.171-.644-3.315-.259-4.747,2.4-2.518,2.594-3.988-1.48-3.036-1.48-4.526,1.662-3.075,1.48-4.526-2.22-2.575-2.594-3.988a3.776,3.776,0,0,1,0-1.634c1.153.192,2.556,0,3.488.538,1.268.74,1.806,2.979,3.171,3.546s3.315-.644,4.747-.259,2.518,2.4,3.988,2.594,3.027-1.48,4.526-1.48,3.075,1.662,4.516,1.48,2.585-2.22,4-2.594,3.392.817,4.747.259,1.922-2.806,3.171-3.546,3.488-.086,4.651-.961,1.115-3.2,2.152-4.238,3.344-.961,4.247-2.152.24-3.373.961-4.651,2.979-1.806,3.546-3.181-.653-3.363-.269-4.795Z" transform="translate(-119.433 -141.684)" fill="#a2a0e6"/>
    </g>
    <g id="freepik--Fence--inject-59" transform="translate(54.015 618.512)">
      <path id="Path_1315" data-name="Path 1315" d="M157.327,207.341l-7.908-9.609a1.855,1.855,0,0,0-2.883,0l-7.456,9.532V354.9h18.257Z" transform="translate(-65.303 -197.044)" fill="#fff"/>
      <path id="Path_1316" data-name="Path 1316" d="M138.257,207.341l-7.908-9.609a1.864,1.864,0,0,0-2.883,0L120,207.341V354.9h18.257Z" transform="translate(-64.557 -197.045)" fill="#fff"/>
      <path id="Path_1317" data-name="Path 1317" d="M119.2,207.341l-7.908-9.609a1.854,1.854,0,0,0-2.883,0l-7.457,9.532V354.9h18.257Z" transform="translate(-63.812 -197.044)" fill="#fff"/>
      <path id="Path_1318" data-name="Path 1318" d="M100.137,207.341l-7.908-9.609a1.864,1.864,0,0,0-2.883,0l-7.456,9.532V354.9h18.257Z" transform="translate(-63.066 -197.045)" fill="#fff"/>
      <path id="Path_1319" data-name="Path 1319" d="M176.328,207.341l-7.9-9.609a1.864,1.864,0,0,0-2.883,0l-7.456,9.532V354.9h18.257Z" transform="translate(-66.046 -197.045)" fill="#fff"/>
      <path id="Path_1320" data-name="Path 1320" d="M195.337,207.341l-7.908-9.609a1.864,1.864,0,0,0-2.883,0l-7.456,9.532V354.9h18.257Z" transform="translate(-66.79 -197.045)" fill="#fff"/>
      <path id="Path_1321" data-name="Path 1321" d="M214.337,207.341l-7.908-9.609a1.854,1.854,0,0,0-2.883,0l-7.456,9.532V354.9h18.257Z" transform="translate(-67.533 -197.044)" fill="#fff"/>
      <path id="Path_1322" data-name="Path 1322" d="M233.338,207.341l-7.9-9.609a1.864,1.864,0,0,0-2.883,0l-7.456,9.532V354.9h18.257Z" transform="translate(-68.276 -197.045)" fill="#fff"/>
      <path id="Path_1323" data-name="Path 1323" d="M252.338,207.341l-7.9-9.609a1.864,1.864,0,0,0-2.883,0l-7.456,9.532V354.9h18.257Z" transform="translate(-69.019 -197.045)" fill="#fff"/>
      <path id="Path_1324" data-name="Path 1324" d="M271.347,207.341l-7.908-9.609a1.864,1.864,0,0,0-2.883,0l-7.456,9.532V354.9h18.257Z" transform="translate(-69.762 -197.045)" fill="#fff"/>
      <path id="Path_1325" data-name="Path 1325" d="M290.347,207.341l-7.908-9.609a1.855,1.855,0,0,0-2.883,0l-7.456,9.532V354.9h18.257Z" transform="translate(-70.506 -197.044)" fill="#fff"/>
      <path id="Path_1326" data-name="Path 1326" d="M309.348,207.341l-7.9-9.609a1.864,1.864,0,0,0-2.883,0l-7.456,9.532V354.9h18.257Z" transform="translate(-71.249 -197.045)" fill="#fff"/>
      <path id="Path_1327" data-name="Path 1327" d="M328.348,207.341l-7.9-9.609a1.864,1.864,0,0,0-2.883,0l-7.456,9.532V354.9h18.257Z" transform="translate(-71.992 -197.045)" fill="#fff"/>
      <path id="Path_1328" data-name="Path 1328" d="M347.357,207.341l-7.908-9.609a1.854,1.854,0,0,0-2.883,0l-7.466,9.532V354.9h18.257Z" transform="translate(-72.735 -197.044)" fill="#fff"/>
      <path id="Path_1329" data-name="Path 1329" d="M366.357,207.341l-7.908-9.609a1.854,1.854,0,0,0-2.883,0l-7.457,9.532V354.9h18.257Z" transform="translate(-73.478 -197.044)" fill="#fff"/>
      <path id="Path_1330" data-name="Path 1330" d="M385.358,207.341l-7.9-9.609a1.864,1.864,0,0,0-2.883,0l-7.457,9.532V354.9h18.257Z" transform="translate(-74.222 -197.045)" fill="#fff"/>
      <path id="Path_1331" data-name="Path 1331" d="M404.358,207.341l-7.9-9.609a1.864,1.864,0,0,0-2.883,0l-7.456,9.532V354.9h18.257Z" transform="translate(-74.965 -197.045)" fill="#fff"/>
      <path id="Path_1332" data-name="Path 1332" d="M423.367,207.341l-7.908-9.609a1.854,1.854,0,0,0-2.883,0l-7.466,9.532V354.9h18.257Z" transform="translate(-75.708 -197.044)" fill="#fff"/>
      <g id="Group_224" data-name="Group 224" transform="translate(18.824 0)" opacity="0.3">
        <path id="Path_1333" data-name="Path 1333" d="M157.327,207.341l-7.908-9.609a1.855,1.855,0,0,0-2.883,0l-7.456,9.532V354.9h18.257Z" transform="translate(-84.127 -197.044)" fill="none" stroke="#000" stroke-miterlimit="10" stroke-width="1"/>
        <path id="Path_1334" data-name="Path 1334" d="M138.257,207.341l-7.908-9.609a1.864,1.864,0,0,0-2.883,0L120,207.341V354.9h18.257Z" transform="translate(-83.381 -197.045)" fill="none" stroke="#000" stroke-miterlimit="10" stroke-width="1"/>
        <path id="Path_1335" data-name="Path 1335" d="M119.2,207.341l-7.908-9.609a1.854,1.854,0,0,0-2.883,0l-7.457,9.532V354.9h18.257Z" transform="translate(-82.635 -197.044)" fill="none" stroke="#000" stroke-miterlimit="10" stroke-width="1"/>
        <path id="Path_1336" data-name="Path 1336" d="M100.137,207.341l-7.908-9.609a1.864,1.864,0,0,0-2.883,0l-7.456,9.532V354.9h18.257Z" transform="translate(-81.89 -197.045)" fill="none" stroke="#000" stroke-miterlimit="10" stroke-width="1"/>
        <path id="Path_1337" data-name="Path 1337" d="M176.328,207.341l-7.9-9.609a1.864,1.864,0,0,0-2.883,0l-7.456,9.532V354.9h18.257Z" transform="translate(-84.87 -197.045)" fill="none" stroke="#000" stroke-miterlimit="10" stroke-width="1"/>
        <path id="Path_1338" data-name="Path 1338" d="M195.337,207.341l-7.908-9.609a1.864,1.864,0,0,0-2.883,0l-7.456,9.532V354.9h18.257Z" transform="translate(-85.613 -197.045)" fill="none" stroke="#000" stroke-miterlimit="10" stroke-width="1"/>
        <path id="Path_1339" data-name="Path 1339" d="M214.337,207.341l-7.908-9.609a1.854,1.854,0,0,0-2.883,0l-7.456,9.532V354.9h18.257Z" transform="translate(-86.356 -197.044)" fill="none" stroke="#000" stroke-miterlimit="10" stroke-width="1"/>
        <path id="Path_1340" data-name="Path 1340" d="M233.338,207.341l-7.9-9.609a1.864,1.864,0,0,0-2.883,0l-7.456,9.532V354.9h18.257Z" transform="translate(-87.1 -197.045)" fill="none" stroke="#000" stroke-miterlimit="10" stroke-width="1"/>
        <path id="Path_1341" data-name="Path 1341" d="M252.338,207.341l-7.9-9.609a1.864,1.864,0,0,0-2.883,0l-7.456,9.532V354.9h18.257Z" transform="translate(-87.843 -197.045)" fill="none" stroke="#000" stroke-miterlimit="10" stroke-width="1"/>
        <path id="Path_1342" data-name="Path 1342" d="M271.347,207.341l-7.908-9.609a1.864,1.864,0,0,0-2.883,0l-7.456,9.532V354.9h18.257Z" transform="translate(-88.586 -197.045)" fill="none" stroke="#000" stroke-miterlimit="10" stroke-width="1"/>
        <path id="Path_1343" data-name="Path 1343" d="M290.347,207.341l-7.908-9.609a1.855,1.855,0,0,0-2.883,0l-7.456,9.532V354.9h18.257Z" transform="translate(-89.329 -197.044)" fill="none" stroke="#000" stroke-miterlimit="10" stroke-width="1"/>
        <path id="Path_1344" data-name="Path 1344" d="M309.348,207.341l-7.9-9.609a1.864,1.864,0,0,0-2.883,0l-7.456,9.532V354.9h18.257Z" transform="translate(-90.073 -197.045)" fill="none" stroke="#000" stroke-miterlimit="10" stroke-width="1"/>
        <path id="Path_1345" data-name="Path 1345" d="M328.348,207.341l-7.9-9.609a1.864,1.864,0,0,0-2.883,0l-7.456,9.532V354.9h18.257Z" transform="translate(-90.816 -197.045)" fill="none" stroke="#000" stroke-miterlimit="10" stroke-width="1"/>
        <path id="Path_1346" data-name="Path 1346" d="M347.357,207.341l-7.908-9.609a1.854,1.854,0,0,0-2.883,0l-7.466,9.532V354.9h18.257Z" transform="translate(-91.559 -197.044)" fill="none" stroke="#000" stroke-miterlimit="10" stroke-width="1"/>
        <path id="Path_1347" data-name="Path 1347" d="M366.357,207.341l-7.908-9.609a1.854,1.854,0,0,0-2.883,0l-7.457,9.532V354.9h18.257Z" transform="translate(-92.302 -197.044)" fill="none" stroke="#000" stroke-miterlimit="10" stroke-width="1"/>
        <path id="Path_1348" data-name="Path 1348" d="M385.358,207.341l-7.9-9.609a1.864,1.864,0,0,0-2.883,0l-7.457,9.532V354.9h18.257Z" transform="translate(-93.046 -197.045)" fill="none" stroke="#000" stroke-miterlimit="10" stroke-width="1"/>
        <path id="Path_1349" data-name="Path 1349" d="M404.358,207.341l-7.9-9.609a1.864,1.864,0,0,0-2.883,0l-7.456,9.532V354.9h18.257Z" transform="translate(-93.789 -197.045)" fill="none" stroke="#000" stroke-miterlimit="10" stroke-width="1"/>
        <path id="Path_1350" data-name="Path 1350" d="M423.367,207.341l-7.908-9.609a1.854,1.854,0,0,0-2.883,0l-7.466,9.532V354.9h18.257Z" transform="translate(-94.532 -197.044)" fill="none" stroke="#000" stroke-miterlimit="10" stroke-width="1"/>
      </g>
      <path id="Path_1351" data-name="Path 1351" d="M408.614,364.682l21.735.452-7.572-2.258-1.5-.346-2.45-.557,1.643-5.871-2.633,2.71v-4.968l-3.959,1.787-2.96-5.419-1.316,3.613L407.3,346.6l-1.288,7.245-3.623-4.065V357l-4.949-3.613L397.112,357l-3.3-6.323-.961,5.871-2.96-4.065.327,4.968-1.653-1.067.894-2.095-2.152,1.336-2.085-1.336.894,2.095-1.653,1.067.327-4.968-2.969,4.1-.961-5.871-3.286,6.323-.336-3.613-4.939,3.613v-7.226l-3.623,4.065-1.316-7.226-2.306,7.226-1.326-3.651-2.988,5.4-3.949-1.806v4.968l-2.671-2.691,1.643,5.871-2.46.557-1.489.346-1.518.452h-3.19l1.979-4.065-4.286.452,2.306-5.419-4.939,3.161.327-4.968-2.96,4.1-.961-5.871-3.3,6.323-.327-3.613-4.939,3.613v-7.226l-3.623,4.065-1.326-7.226-2.306,7.226-1.307-3.651-3,5.4-3.959-1.806v4.968l-2.652-2.691,1.653,5.871-2.46.557-1.5.346h-.115l2.133-3.642-5.141.452,2.767-5.419-5.938,3.161.394-4.968-3.555,4.065-1.191-5.871-3.959,6.323-.394-3.613-5.938,3.613V349.75l-4.353,4.065-1.585-7.226-2.767,7.226-1.585-3.613-3.546,5.429-1.864-.711.163-2.45-1.432,1.922-1.614-.615v2.2l-.9-5.362-3.3,6.323-.327-3.613-4.949,3.613v-7.226l-3.623,4.065L255.6,346.55l-2.306,7.226-1.316-3.613-2.96,5.467-3.959-1.806v4.968l-2.633-2.71.961,3.325-2.71.288,2.306-5.419-4.939,3.161.327-4.968-3,4.122-.961-5.871L231.128,357l-.327-3.613L225.853,357v-7.226l-3.623,4.065-1.316-7.226-2.306,7.226-1.316-3.613-2.988,5.4-3.959-1.806v4.968l-2.633-2.71.961,3.325-2.71.288,2.306-5.419-5.006,3.181.327-4.968-2.931,4.1-.961-5.871-3.286,6.323-.336-3.613-4.939,3.613v-7.226l-3.623,4.065-1.316-7.226-2.306,7.226-1.316-3.613-3,5.362-3.949-1.806v4.968l-2.633-2.71.961,3.325-2.71.288,2.306-5.419-4.949,3.161.336-4.968-3,4.122-.961-5.871-3.286,6.323-.336-3.613-4.939,3.613v-7.226l-3.623,4.065-1.316-7.226-2.306,7.226-1.316-3.613-3,5.362-3.949-1.806v4.968l-2.633-2.71.961,3.325-2.71.288,2.306-5.419-4.949,3.161.336-4.968-3.027,4.122-.961-5.871-3.3,6.323-.327-3.613-4.939,3.613v-7.226l-3.623,4.065-1.268-7.264-2.306,7.226-1.316-3.613-3.017,5.4-2.758-1.268v-.086l-.106.058-1.124-.509v1.24l-2.239,1.422-.394-.4.154.567-1.23.788.327-4.968-2.931,4.122-.961-5.871-3.3,6.323-.336-3.613-4.939,3.613v-7.226l-3.623,4.065-1.316-7.226-2.306,7.226-1.316-3.613L78.77,355.63l-3.959-1.806v4.968l-2.633-2.71,1.643,5.871-2.45.557-1.5.346L62.3,365.114l21.735-.452-6.255,4.065,32.882-.961-1.509.961,36.389-1.086-1.672,1.086,36.389-1.086-1.662,1.086,36.379-1.086-1.662,1.086,36.389-1.086-1.672,1.086,27.039-.807-1.5.807,45.633-1.134-1.739,1.134,44.345-1.307-2.027,1.326,27.549-.826,27.558.826Zm-302.4-7.495v1.624l-.48-.5Zm4.929,7.581,4.3-.086-1.182.759Zm28.827-2.8-.519.115.356-.721Zm34.717,0-.519.115.269-.692Zm2.883,2.883,7.332-.154-2.008,1.307Zm31.834-2.883-.519.115.356-.721Zm2.883,2.883,7.332-.154-2.008,1.307Zm31.834-2.883-.519.115.356-.721ZM247,364.855l7.332-.154-2.066,1.288Zm34.025-.154h.067Zm33.276.192,9.465-.192-2.316,1.5Zm47.862,2.345L351.816,365l14.25-.3Zm25.4-7.553h-.394l.192-.461Z" transform="translate(-62.3 -202.892)" fill="#263238"/>
      <path id="Path_1352" data-name="Path 1352" d="M408.614,364.682l21.735.452-7.572-2.258-1.5-.346-2.45-.557,1.643-5.871-2.633,2.71v-4.968l-3.959,1.787-2.96-5.419-1.316,3.613L407.3,346.6l-1.288,7.245-3.623-4.065V357l-4.949-3.613L397.112,357l-3.3-6.323-.961,5.871-2.96-4.065.327,4.968-1.653-1.067.894-2.095-2.152,1.336-2.085-1.336.894,2.095-1.653,1.067.327-4.968-2.969,4.1-.961-5.871-3.286,6.323-.336-3.613-4.939,3.613v-7.226l-3.623,4.065-1.316-7.226-2.306,7.226-1.326-3.651-2.988,5.4-3.949-1.806v4.968l-2.671-2.691,1.643,5.871-2.46.557-1.489.346-1.518.452h-3.19l1.979-4.065-4.286.452,2.306-5.419-4.939,3.161.327-4.968-2.96,4.1-.961-5.871-3.3,6.323-.327-3.613-4.939,3.613v-7.226l-3.623,4.065-1.326-7.226-2.306,7.226-1.307-3.651-3,5.4-3.959-1.806v4.968l-2.652-2.691,1.653,5.871-2.46.557-1.5.346h-.115l2.133-3.642-5.141.452,2.767-5.419-5.938,3.161.394-4.968-3.555,4.065-1.191-5.871-3.959,6.323-.394-3.613-5.938,3.613V349.75l-4.353,4.065-1.585-7.226-2.767,7.226-1.585-3.613-3.546,5.429-1.864-.711.163-2.45-1.432,1.922-1.614-.615v2.2l-.9-5.362-3.3,6.323-.327-3.613-4.949,3.613v-7.226l-3.623,4.065L255.6,346.55l-2.306,7.226-1.316-3.613-2.96,5.467-3.959-1.806v4.968l-2.633-2.71.961,3.325-2.71.288,2.306-5.419-4.939,3.161.327-4.968-3,4.122-.961-5.871L231.128,357l-.327-3.613L225.853,357v-7.226l-3.623,4.065-1.316-7.226-2.306,7.226-1.316-3.613-2.988,5.4-3.959-1.806v4.968l-2.633-2.71.961,3.325-2.71.288,2.306-5.419-5.006,3.181.327-4.968-2.931,4.1-.961-5.871-3.286,6.323-.336-3.613-4.939,3.613v-7.226l-3.623,4.065-1.316-7.226-2.306,7.226-1.316-3.613-3,5.362-3.949-1.806v4.968l-2.633-2.71.961,3.325-2.71.288,2.306-5.419-4.949,3.161.336-4.968-3,4.122-.961-5.871-3.286,6.323-.336-3.613-4.939,3.613v-7.226l-3.623,4.065-1.316-7.226-2.306,7.226-1.316-3.613-3,5.362-3.949-1.806v4.968l-2.633-2.71.961,3.325-2.71.288,2.306-5.419-4.949,3.161.336-4.968-3.027,4.122-.961-5.871-3.3,6.323-.327-3.613-4.939,3.613v-7.226l-3.623,4.065-1.268-7.264-2.306,7.226-1.316-3.613-3.017,5.4-2.758-1.268v-.086l-.106.058-1.124-.509v1.24l-2.239,1.422-.394-.4.154.567-1.23.788.327-4.968-2.931,4.122-.961-5.871-3.3,6.323-.336-3.613-4.939,3.613v-7.226l-3.623,4.065-1.316-7.226-2.306,7.226-1.316-3.613L78.77,355.63l-3.959-1.806v4.968l-2.633-2.71,1.643,5.871-2.45.557-1.5.346L62.3,365.114l21.735-.452-6.255,4.065,32.882-.961-1.509.961,36.389-1.086-1.672,1.086,36.389-1.086-1.662,1.086,36.379-1.086-1.662,1.086,36.389-1.086-1.672,1.086,27.039-.807-1.5.807,45.633-1.134-1.739,1.134,44.345-1.307-2.027,1.326,27.549-.826,27.558.826Zm-302.4-7.495v1.624l-.48-.5Zm4.929,7.581,4.3-.086-1.182.759Zm28.827-2.8-.519.115.356-.721Zm34.717,0-.519.115.269-.692Zm2.883,2.883,7.332-.154-2.008,1.307Zm31.834-2.883-.519.115.356-.721Zm2.883,2.883,7.332-.154-2.008,1.307Zm31.834-2.883-.519.115.356-.721ZM247,364.855l7.332-.154-2.066,1.288Zm34.025-.154h.067Zm33.276.192,9.465-.192-2.316,1.5Zm47.862,2.345L351.816,365l14.25-.3Zm25.4-7.553h-.394l.192-.461Z" transform="translate(-62.3 -202.892)" fill="#69b591" opacity="0.7"/>
    </g>
    <g id="freepik--Character--inject-59" transform="translate(144.056 624.506)">
      <path id="Path_1353" data-name="Path 1353" d="M201.492,243.54s8.523,3.257,12.9,11.127S226.1,295.024,226.1,295.024s13.279,1.047,16.076,1.047,20.275-1.4,20.275-1.4l.874,5.419s-11.531,4.9-22.024,6.121-22.552.7-24.474-.519-11.7-26.05-11.7-26.05-2.1-11.012-3.844-18.709S197.87,246.231,201.492,243.54Z" transform="translate(-157.701 -204.857)" fill="#fff" stroke="#263238" stroke-linecap="round" stroke-linejoin="round" stroke-width="1"/>
      <path id="Path_1354" data-name="Path 1354" d="M212.716,259.72l-4.756,9.839,4.439-3.805" transform="translate(-158.038 -205.49)" fill="none" stroke="#263238" stroke-linecap="round" stroke-linejoin="round" stroke-width="1"/>
      <path id="Path_1355" data-name="Path 1355" d="M262.771,296.147s-17.479,1.4-20.275,1.4-16.076-1.047-16.076-1.047-1.634-7.216-3.844-15.672a102.306,102.306,0,0,0-14.567,6.726c3.046,7.447,7.831,18.776,9.109,19.592,1.922,1.22,13.991,1.739,24.474.519s22.024-6.121,22.024-6.121Z" transform="translate(-158.04 -206.315)" fill="#fff" stroke="#263238" stroke-linecap="round" stroke-linejoin="round" stroke-width="1"/>
      <path id="Path_1356" data-name="Path 1356" d="M272.427,302.91l-4.545-.173-12.953,4.2-1.749-11.185,9.964.519a64.483,64.483,0,0,1,6.813-3.325c1.4-.346,7.524.183,7.524.183s.346.692-.528,1.22l-.884.567s5.246,1.739,6.121,2.441-.356,2.277-.356,2.277a3.123,3.123,0,0,1-1.749,1.922,11.03,11.03,0,0,1-3.844,1.047S273.647,302.91,272.427,302.91Z" transform="translate(-159.807 -206.785)" fill="#263238" stroke="#263238" stroke-linecap="round" stroke-linejoin="round" stroke-width="1"/>
      <path id="Path_1357" data-name="Path 1357" d="M187.72,369.523s4.247-.432,6.14-2.335-2.191-4.968-4.382-3.219S186.7,365.727,187.72,369.523Z" transform="translate(-157.227 -209.547)" fill="#fff" stroke="#263238" stroke-linecap="round" stroke-linejoin="round" stroke-width="1"/>
      <path id="Path_1358" data-name="Path 1358" d="M183.434,241.235a49.688,49.688,0,0,0-16.22,11.108c-8.187,8.187-8.648,19.439-10.378,29.961s-.288,33.756.144,41.318,7.014,16.806,19.151,28.644,37.974,29.663,46.449,29.663,12.367-9.446,11.252-17.69c-2.719-20.054-30.672-47.929-32.276-51.283s-.73-8.485-.586-9.359,5.41-25.425,6.726-32.3-2.633-24.839-6-27.184S191.62,239.486,183.434,241.235Z" transform="translate(-156.006 -204.743)" fill="#e53f71" stroke="#263238" stroke-linecap="round" stroke-linejoin="round" stroke-width="1"/>
      <path id="Path_1359" data-name="Path 1359" d="M192,321.668s4.391-4.535,7.9-4.968" transform="translate(-157.414 -207.718)" fill="none" stroke="#263238" stroke-linecap="round" stroke-linejoin="round" stroke-width="1"/>
      <path id="Path_1360" data-name="Path 1360" d="M156.87,307.87s11.982,7.9,39.608,2.047" transform="translate(-156.04 -207.373)" fill="none" stroke="#263238" stroke-linecap="round" stroke-linejoin="round" stroke-width="1"/>
      <path id="Path_1361" data-name="Path 1361" d="M159,312s19,6.87,36.389.73" transform="translate(-156.123 -207.534)" fill="none" stroke="#263238" stroke-linecap="round" stroke-linejoin="round" stroke-width="1"/>
      <path id="Path_1362" data-name="Path 1362" d="M185,276.648a50.657,50.657,0,0,0,20.746-4.968l-.432,2.335" transform="translate(-157.14 -205.957)" fill="none" stroke="#263238" stroke-linecap="round" stroke-linejoin="round" stroke-width="1"/>
      <path id="Path_1363" data-name="Path 1363" d="M195.73,356.43s16.008,15.518,19.958,17.181" transform="translate(-157.56 -209.272)" fill="none" stroke="#263238" stroke-linecap="round" stroke-linejoin="round" stroke-width="1"/>
      <path id="Path_1364" data-name="Path 1364" d="M185,345.047s1.441-9.609,11.05-18.737" transform="translate(-157.14 -208.094)" fill="none" stroke="#263238" stroke-linecap="round" stroke-linejoin="round" stroke-width="1"/>
      <path id="Path_1365" data-name="Path 1365" d="M194.46,355.742s-6.793,6.726-7.687,12.818l-13.289-13.875a12.067,12.067,0,0,0-2.787-1.47c-.586,0-3.075,5.554-4.535,7.754s-3.065.144-2.883-3.507,4.6-10.339,5.333-13.558,3.209-5.554,5.4-4.968S194.46,355.742,194.46,355.742Z" transform="translate(-156.29 -208.584)" fill="#263238" stroke="#263238" stroke-linecap="round" stroke-linejoin="round" stroke-width="1"/>
      <path id="Path_1366" data-name="Path 1366" d="M159.469,295.365c3.949-.144,13-2.489,16.95-8.648s3.949-21.043,1.172-28.942c-2.056-5.833-5.381-7.687-6.976-8.235-1.124.961-2.258,1.979-3.4,3.123-8.187,8.187-8.648,19.439-10.378,29.961a89.057,89.057,0,0,0-.826,12.828Z" transform="translate(-156.006 -205.092)" fill="#fff" stroke="#263238" stroke-linecap="round" stroke-linejoin="round" stroke-width="1"/>
      <path id="Path_1367" data-name="Path 1367" d="M184.15,241.235a44.108,44.108,0,0,0-9.83,5.631,15.8,15.8,0,0,1,5.3,5.333c2.479,4.382,4.382,17.094,4.382,17.094s1.019,0,8.033-1.019a65.513,65.513,0,0,0,13.452-3.661c-.3-3.353-3.507-19-4.977-21.14a5.079,5.079,0,0,0-.528-.644A25.118,25.118,0,0,0,184.15,241.235Z" transform="translate(-156.722 -204.743)" fill="#fff" stroke="#263238" stroke-linecap="round" stroke-linejoin="round" stroke-width="1"/>
      <path id="Path_1368" data-name="Path 1368" d="M180.88,252.13s6.342,10.474,11.742,9.513,5.391-7.61,5.391-7.61" transform="translate(-156.979 -205.193)" fill="none" stroke="#263238" stroke-linecap="round" stroke-linejoin="round" stroke-width="1"/>
      <path id="Path_1369" data-name="Path 1369" d="M181.8,229.963s-.432,11.4,0,15.192,6,11.982,10.522,11.406,4.391-12.424,4.391-12.424-7.745-11.4-9.945-13.452S182.532,228.656,181.8,229.963Z" transform="translate(-157.007 -204.29)" fill="#fff" stroke="#263238" stroke-linecap="round" stroke-linejoin="round" stroke-width="1"/>
      <path id="Path_1370" data-name="Path 1370" d="M181.313,227.954s-2.883-2.345-4.382-.3,1.019,7.159,3.209,7.889,2.883.3,2.883.3a43.627,43.627,0,0,0,3.949,8.331c2.047,2.883,8.475,8.331,12.857,6.726s6.438-11.531,7.168-15.634a39.29,39.29,0,0,0,.73-5.112,59.571,59.571,0,0,0-11.108-1.614C190.519,228.242,181.313,227.954,181.313,227.954Z" transform="translate(-156.807 -204.203)" fill="#fff" stroke="#263238" stroke-linecap="round" stroke-linejoin="round" stroke-width="1"/>
      <path id="Path_1371" data-name="Path 1371" d="M184.729,229.162s.874,4.535-.442,4.8-2.777-5.986-2.777-5.986Z" transform="translate(-157.004 -204.248)" fill="#263238" stroke="#263238" stroke-linecap="round" stroke-linejoin="round" stroke-width="1"/>
      <path id="Path_1372" data-name="Path 1372" d="M203.111,233.77s.73,6.726-.442,7.312-3.209-.586-3.209-.586" transform="translate(-157.706 -204.475)" fill="none" stroke="#263238" stroke-linecap="round" stroke-linejoin="round" stroke-width="1"/>
      <path id="Path_1373" data-name="Path 1373" d="M179.335,225.111s7.36,7.524,14.087,8.168,23.061-3.68,24.022-5.439-8.485-6.092-8.485-6.092-1.124-11.531-2.566-14.413-10.08-5.439-17.3-3.2-12.011,4.641-11.848,8.648S179.335,225.111,179.335,225.111Z" transform="translate(-156.837 -203.282)" fill="#263238" stroke="#263238" stroke-linecap="round" stroke-linejoin="round" stroke-width="1"/>
      <path id="Path_1374" data-name="Path 1374" d="M184.66,226.46c6.726.548,18.612.721,24.58-3.93" transform="translate(-157.127 -204.035)" fill="none" stroke="#fff" stroke-linecap="round" stroke-linejoin="round" stroke-width="1"/>
      <path id="Path_1375" data-name="Path 1375" d="M159.76,272.109s2.489,12.424,4.238,19.15,2.047,9.349,3.507,9.936,48.669-6.87,48.669-6.87v-5.112l-35.659-3.507s-3.267-23.388-4.8-26.309a5.016,5.016,0,0,0-4.8-2.777" transform="translate(-156.153 -205.368)" fill="#fff" stroke="#263238" stroke-linecap="round" stroke-linejoin="round" stroke-width="1"/>
      <path id="Path_1376" data-name="Path 1376" d="M179.474,276.7a23.176,23.176,0,0,0-17.354,7.014c.653,2.969,1.355,6.025,1.922,8.379,1.758,6.726,2.047,9.349,3.507,9.936s48.669-6.87,48.669-6.87v-5.112l-35.659-3.507S180.166,281.984,179.474,276.7Z" transform="translate(-156.245 -206.153)" fill="#fff" stroke="#263238" stroke-linecap="round" stroke-linejoin="round" stroke-width="1"/>
      <path id="Path_1377" data-name="Path 1377" d="M180.938,286.888s-6.87-.586-10.378,2.623" transform="translate(-156.575 -206.551)" fill="none" stroke="#263238" stroke-linecap="round" stroke-linejoin="round" stroke-width="1"/>
      <path id="Path_1378" data-name="Path 1378" d="M240.651,286.76s5.073-3.046,9.138-3.93l-8.379,6.092,1.268,1.653,9.907-4.314s-3.94,4.065-6.092,4.949a24.105,24.105,0,0,0-3.69,1.922l-3.844-5.717Z" transform="translate(-159.25 -206.394)" fill="#fff" stroke="#263238" stroke-linecap="round" stroke-linejoin="round" stroke-width="1"/>
      <path id="Path_1379" data-name="Path 1379" d="M237.652,294.935s-.288,1.6-2.777,3.651-5.554,1.749-3.209,2.479,5.256-.288,8.177-5.256S237.652,294.935,237.652,294.935Z" transform="translate(-158.932 -206.805)" fill="#fff" stroke="#263238" stroke-linecap="round" stroke-linejoin="round" stroke-width="1"/>
      <path id="Path_1380" data-name="Path 1380" d="M214.66,288.723l.586,8.773,8.331-1.922a19.3,19.3,0,0,0,3.844,1.316,28.481,28.481,0,0,0,8.475-.874,9.169,9.169,0,0,1,2.479-.586s-1.019,1.922.144,1.922,3.661-.73,4.391-1.758a6.3,6.3,0,0,0,.586-3.209s.288-2.2-.586-3.363-3.844-3.844-5.266-3.651-14.317,3.209-15.374,3.507S214.66,288.723,214.66,288.723Z" transform="translate(-158.3 -206.493)" fill="#263238" stroke="#263238" stroke-linecap="round" stroke-linejoin="round" stroke-width="1"/>
      <path id="Path_1381" data-name="Path 1381" d="M164.885,310.191s-7.312,9.609-8.475,19.439,2.191,22.1,3.354,24.551.884,4.67,3.949,5.112,18.257.586,19-2.047,1.316-37.263.73-42.385-7.745-7.591-10.81-7.591A11.626,11.626,0,0,0,164.885,310.191Z" transform="translate(-156.012 -207.349)" fill="#e53f71" stroke="#263238" stroke-linecap="round" stroke-linejoin="round" stroke-width="1"/>
      <path id="Path_1382" data-name="Path 1382" d="M159.15,357.085a68.118,68.118,0,0,0,24.551-1.6s-.634,37.878-.192,38.753,7.745,10.089,10.378,12.424,3.065,3.075,1.461,4.8-4.093,3.8-11.838.586-10.08-9.205-12.28-12.126-1.749-3.661-1.749-8.043S159.15,357.085,159.15,357.085Z" transform="translate(-156.129 -209.235)" fill="#263238" stroke="#263238" stroke-linecap="round" stroke-linejoin="round" stroke-width="1"/>
      <path id="Path_1383" data-name="Path 1383" d="M166.324,356.841A39.733,39.733,0,0,1,162,345.31" transform="translate(-156.24 -208.837)" fill="none" stroke="#263238" stroke-linecap="round" stroke-linejoin="round" stroke-width="1"/>
      <path id="Path_1384" data-name="Path 1384" d="M175,356.938s3.363-5.285,2.4-9.128" transform="translate(-156.749 -208.935)" fill="none" stroke="#263238" stroke-linecap="round" stroke-linejoin="round" stroke-width="1"/>
    </g>
    <g id="freepik--Plants--inject-59" transform="translate(102.309 661.065)">
      <path id="Path_1385" data-name="Path 1385" d="M114,359.68l1.019,18.93a4.564,4.564,0,0,0,2.95,4.036,27.5,27.5,0,0,0,19.929,0,4.554,4.554,0,0,0,2.95-4l1.191-18.958Z" transform="translate(-112.616 -245.958)" fill="#f7a742" stroke="#263238" stroke-linecap="round" stroke-linejoin="round" stroke-width="1"/>
      <path id="Path_1386" data-name="Path 1386" d="M112.56,352.94v6.726c0,1.191,6.851,2.162,15.3,2.162s15.3-.961,15.3-2.162V352.94Z" transform="translate(-112.56 -245.694)" fill="#f7a742" stroke="#263238" stroke-linecap="round" stroke-linejoin="round" stroke-width="1"/>
      <ellipse id="Ellipse_31" data-name="Ellipse 31" cx="15.297" cy="2.162" rx="15.297" ry="2.162" transform="translate(0 105.084)" fill="#fff" stroke="#263238" stroke-linecap="round" stroke-linejoin="round" stroke-width="1"/>
      <path id="Path_1387" data-name="Path 1387" d="M114.31,353.952c2.537.7,7.687,1.182,13.616,1.182s11.079-.48,13.616-1.182c-2.537-.692-7.687-1.172-13.616-1.172S116.895,353.222,114.31,353.952Z" transform="translate(-112.628 -245.688)" fill="#f7a742" stroke="#263238" stroke-linecap="round" stroke-linejoin="round" stroke-width="1"/>
      <path id="Path_1388" data-name="Path 1388" d="M125.393,338.65s-1.182,8.648-.394,14.317h8.427a102.9,102.9,0,0,0,3.93-13.135l-6.275,1.566Z" transform="translate(-113.036 -245.135)" fill="#fff" stroke="#263238" stroke-linecap="round" stroke-linejoin="round" stroke-width="1"/>
      <path id="Path_1389" data-name="Path 1389" d="M131.994,336.77H131.8a1.922,1.922,0,0,1-1.653-2.162l2.152-15.816a1.939,1.939,0,0,1,3.844.509L134,335.127A1.922,1.922,0,0,1,131.994,336.77Z" transform="translate(-113.247 -244.293)" fill="#263238" stroke="#263238" stroke-linecap="round" stroke-linejoin="round" stroke-width="1"/>
      <path id="Path_1390" data-name="Path 1390" d="M130.652,346.446h-.1a.961.961,0,0,1-.817-1.076l1.355-9.964a.97.97,0,1,1,1.922.259l-1.355,9.964a.961.961,0,0,1-1.009.817Z" transform="translate(-113.232 -244.976)" fill="#fff" stroke="#263238" stroke-linecap="round" stroke-linejoin="round" stroke-width="1"/>
      <path id="Path_1391" data-name="Path 1391" d="M303.46,360.93l1.028,18.93a4.545,4.545,0,0,0,2.95,4.036,27.5,27.5,0,0,0,19.929,0,4.545,4.545,0,0,0,2.94-4l1.2-18.958Z" transform="translate(-120.026 -246.007)" fill="#f7a742" stroke="#263238" stroke-linecap="round" stroke-linejoin="round" stroke-width="1"/>
      <path id="Path_1392" data-name="Path 1392" d="M302,354.19v6.726c0,1.191,6.851,2.162,15.3,2.162s15.3-.961,15.3-2.162V354.19Z" transform="translate(-119.969 -245.743)" fill="#f7a742" stroke="#263238" stroke-linecap="round" stroke-linejoin="round" stroke-width="1"/>
      <ellipse id="Ellipse_32" data-name="Ellipse 32" cx="15.297" cy="2.162" rx="15.297" ry="2.162" transform="translate(182.06 106.285)" fill="#f7a742" stroke="#263238" stroke-linecap="round" stroke-linejoin="round" stroke-width="1"/>
      <path id="Path_1393" data-name="Path 1393" d="M303.78,355.162c2.537.7,7.687,1.182,13.616,1.182s11.079-.48,13.616-1.182c-2.537-.692-7.687-1.172-13.616-1.172S306.317,354.47,303.78,355.162Z" transform="translate(-120.039 -245.735)" fill="#263238" stroke="#263238" stroke-linecap="round" stroke-linejoin="round" stroke-width="1"/>
      <path id="Path_1394" data-name="Path 1394" d="M317.836,353.47s-.721-34.112-2.162-38.2-10.089-8.888-10.089-6.246a7.14,7.14,0,0,0,1.922,4.564s-13.933-1.922-11.29,1.441,8.648,1.922,8.648,1.922-13.693,4.084-6.726,5.045a93.458,93.458,0,0,0,11.531.961s-4.324,3.844-.721,3.844a15.374,15.374,0,0,0,5.765-.961L316.4,353.47Z" transform="translate(-119.73 -243.947)" fill="#e53f71"/>
      <path id="Path_1395" data-name="Path 1395" d="M319.305,353.425l-2.825-38.2s9.609-10.33,10.33-7.687-3.844,5.525-1.922,5.525,12.732-6.006,14.173-1.682-15.134,5.525-12.492,6.966,9.609,1.2,4.324,2.883-13.452,3.123-10.81,4.324,1.441,1.922.48,3.123l-.48,24.743Z" transform="translate(-120.536 -243.902)" fill="#e53f71"/>
      <path id="Path_1396" data-name="Path 1396" d="M313.635,354.771s-2.883-5.045-2.883-7.447.721-5.765-.721-9.128-5.525.24-6.486.961-3.844-4.8-6.006-3.6,1.682,3.363.961,4.324-11.771-2.162-11.771,1.2,10.81.48,11.771,1.682-6.486,2.883-2.642,4.084,6.246-2.642,6.486-1.2-5.765,3.123-1.2,4.324,6.246-.24,7.687.48,3.6,4.324,3.6,4.324Z" transform="translate(-119.372 -245.007)" fill="#e53f71"/>
      <path id="Path_1397" data-name="Path 1397" d="M321.23,354.771s2.883-5.045,2.883-7.447-.721-5.765.721-9.128,5.525.24,6.486.961,3.844-4.8,6.006-3.6-1.682,3.363-.961,4.324,11.771-2.162,11.771,1.2-10.81.48-11.771,1.682,6.486,2.883,2.642,4.084-6.246-2.642-6.486-1.2,5.765,3.123,1.2,4.324-6.246-.24-7.687.48-3.6,4.324-3.6,4.324Z" transform="translate(-120.721 -245.007)" fill="#e53f71"/>
      <path id="Path_1398" data-name="Path 1398" d="M316.2,354.113s-1.441-21.62-1.922-22.581-3.6.24-7.447,1.922-2.4.961-4.564.24-5.045.24-8.888.961-2.883-4.084,1.2-5.525a24.8,24.8,0,0,1,7.447-1.441s-4.8-2.162-.48-2.883,9.369,2.642,11.771,4.084a5.1,5.1,0,0,1,2.642,3.363l1.682,21.86Z" transform="translate(-119.537 -244.59)" fill="#e53f71"/>
      <path id="Path_1399" data-name="Path 1399" d="M319.361,354.113s1.441-21.62,1.922-22.581,3.6.24,7.447,1.922,2.4.961,4.564.24,5.045.24,8.888.961,2.883-4.084-1.2-5.525a24.8,24.8,0,0,0-7.447-1.441s4.8-2.162.48-2.883-9.369,2.642-11.771,4.084a5.1,5.1,0,0,0-2.642,3.363l-1.682,21.86Z" transform="translate(-120.592 -244.59)" fill="#e53f71"/>
      <path id="Path_1400" data-name="Path 1400" d="M344.59,360.93l1.028,18.93a4.564,4.564,0,0,0,2.95,4.036,27.5,27.5,0,0,0,19.929,0,4.555,4.555,0,0,0,2.95-4l1.192-18.958Z" transform="translate(-121.635 -246.007)" fill="#f7a742" stroke="#263238" stroke-linecap="round" stroke-linejoin="round" stroke-width="1"/>
      <path id="Path_1401" data-name="Path 1401" d="M343.16,354.19v6.726c0,1.191,6.851,2.162,15.3,2.162s15.3-.961,15.3-2.162V354.19Z" transform="translate(-121.579 -245.743)" fill="#f7a742" stroke="#263238" stroke-linecap="round" stroke-linejoin="round" stroke-width="1"/>
      <ellipse id="Ellipse_33" data-name="Ellipse 33" cx="15.297" cy="2.162" rx="15.297" ry="2.162" transform="translate(221.581 106.285)" fill="#f7a742" stroke="#263238" stroke-linecap="round" stroke-linejoin="round" stroke-width="1"/>
      <path id="Path_1402" data-name="Path 1402" d="M344.92,355.162c2.527.7,7.687,1.182,13.606,1.182s11.089-.48,13.616-1.182c-2.527-.692-7.687-1.172-13.616-1.172S347.447,354.47,344.92,355.162Z" transform="translate(-121.648 -245.735)" fill="#263238" stroke="#263238" stroke-linecap="round" stroke-linejoin="round" stroke-width="1"/>
      <path id="Path_1403" data-name="Path 1403" d="M351.11,338.13a99.678,99.678,0,0,1,6.015,16.21s-.577-19.343-1.97-26.521" transform="translate(-121.89 -244.712)" fill="none" stroke="#263238" stroke-linecap="round" stroke-linejoin="round" stroke-width="0.5"/>
      <path id="Path_1404" data-name="Path 1404" d="M364.835,333s-5.093,11-6.015,21.428" transform="translate(-122.192 -244.914)" fill="none" stroke="#263238" stroke-linecap="round" stroke-linejoin="round" stroke-width="0.5"/>
      <path id="Path_1405" data-name="Path 1405" d="M366.179,342.52s-5.093,7.995-5.679,12.4" transform="translate(-122.257 -245.287)" fill="none" stroke="#263238" stroke-linecap="round" stroke-linejoin="round" stroke-width="0.5"/>
      <path id="Path_1406" data-name="Path 1406" d="M356.41,346.86a32.957,32.957,0,0,1,1.5,7.754" transform="translate(-122.097 -245.456)" fill="none" stroke="#263238" stroke-linecap="round" stroke-linejoin="round" stroke-width="0.5"/>
      <path id="Path_1407" data-name="Path 1407" d="M355.467,325.828s-2.114-2.393-3.68-1.614-1.826,2.085.519,2.6-2.969.221-1.922,2.825,3.594-1.922,4.632-.346.961,2.969,2.431,2.316c2.662-1.163-.432-3.008.346-4.055s2.345-.211,2.345-1.778S358.081,322.955,355.467,325.828Z" transform="translate(-121.856 -244.565)" fill="#e53f71"/>
      <path id="Path_1408" data-name="Path 1408" d="M365.717,331.368s-2.124-2.393-3.69-1.614-1.826,2.085.519,2.614-2.969.211-1.922,2.815,3.594-1.922,4.632-.346.961,2.979,2.431,2.316c2.671-1.153-.432-3.008.356-4.045s2.335-.221,2.335-1.787S368.321,328.495,365.717,331.368Z" transform="translate(-122.257 -244.781)" fill="#e53f71"/>
      <path id="Path_1409" data-name="Path 1409" d="M356.557,345.468s-2.124-2.393-3.69-1.614-1.816,2.085.529,2.6-2.979.221-1.922,2.825,3.584-1.922,4.631-.346.913,2.969,2.431,2.316c2.662-1.163-.442-3.008.346-4.055s2.335-.211,2.335-1.778S359.161,342.595,356.557,345.468Z" transform="translate(-121.899 -245.333)" fill="#e53f71"/>
      <path id="Path_1410" data-name="Path 1410" d="M351.257,336.788s-2.124-2.393-3.69-1.6-1.826,2.085.519,2.6-2.969.211-1.922,2.825,3.584-1.922,4.631-.356.913,2.979,2.431,2.316c2.662-1.153-.442-3.008.346-4.045s2.335-.221,2.335-1.787S353.861,333.925,351.257,336.788Z" transform="translate(-121.691 -244.994)" fill="#e53f71"/>
      <path id="Path_1411" data-name="Path 1411" d="M366.917,341.248s-2.124-2.393-3.68-1.614-1.826,2.085.519,2.614-2.979.211-1.922,2.815,3.584-1.922,4.631-.346.961,2.979,2.431,2.316c2.662-1.153-.432-3.008.346-4.045s2.335-.221,2.335-1.787S369.521,338.375,366.917,341.248Z" transform="translate(-122.304 -245.168)" fill="#e53f71"/>
      <path id="Path_1412" data-name="Path 1412" d="M255.656,385.468s-5.294-16.431,10.954-48.121.817-82.867.817-82.867" transform="translate(-118.124 -241.843)" fill="none" stroke="#e53f71" stroke-linecap="round" stroke-linejoin="round" stroke-width="3"/>
      <path id="Path_1413" data-name="Path 1413" d="M245.016,387.406s-5.688-12.184.807-30.066,4.8-28.02,4.8-28.02" transform="translate(-117.65 -244.77)" fill="none" stroke="#e53f71" stroke-linecap="round" stroke-linejoin="round" stroke-width="3"/>
      <path id="Path_1414" data-name="Path 1414" d="M270.84,330.436s12.645-15.461,17.527-34.15c1.124-4.314,1.989-8.11,2.662-11.406" transform="translate(-118.751 -243.032)" fill="none" stroke="#e53f71" stroke-linecap="round" stroke-linejoin="round" stroke-width="3"/>
      <path id="Path_1415" data-name="Path 1415" d="M260.92,387.982s7.553-15.105,9.186-37.042a116.988,116.988,0,0,0-4.065-39.81" transform="translate(-118.363 -244.059)" fill="none" stroke="#e53f71" stroke-linecap="round" stroke-linejoin="round" stroke-width="3"/>
      <path id="Path_1416" data-name="Path 1416" d="M260.693,336.775c-.067.48-.73.836-.855,1.3s.269,1.115.086,1.557-.913.625-1.153,1.038,0,1.143-.327,1.528-1.047.365-1.393.7-.317,1.1-.7,1.393-1.1.077-1.518.317-.6.961-1.047,1.163-1.086-.211-1.547-.086-.826.788-1.307.855-.961-.49-1.48-.49-1.009.548-1.489.49-.836-.73-1.3-.855-1.115.269-1.557.086-.625-.913-1.038-1.153-1.143,0-1.528-.327-.365-1.047-.7-1.393-1.1-.317-1.393-.7-.077-1.1-.317-1.518-.961-.6-1.163-1.047.211-1.086.086-1.547-.788-.826-.855-1.307.49-.961.49-1.48-.548-1.009-.49-1.48.73-.846.855-1.307-.269-1.115-.086-1.557.961-.625,1.163-1.038,0-1.143.317-1.528,1.047-.365,1.393-.7.317-1.1.7-1.393,1.105-.077,1.528-.317.586-.961,1.038-1.163,1.086.211,1.557.086.817-.788,1.3-.855.961.49,1.489.49.961-.548,1.48-.49.836.73,1.3.855,1.115-.269,1.557-.086.625.961,1.038,1.163,1.143,0,1.528.317.365,1.047.7,1.393,1.1.317,1.393.7.077,1.105.317,1.528.961.586,1.163,1.038-.211,1.086-.086,1.557.788.817.855,1.3-.49.961-.49,1.489S260.8,336.295,260.693,336.775Zm15.374-32.046c0-.615.682-1.268.605-1.864s-.961-1.067-1.067-1.643.336-1.4.106-1.922-1.163-.788-1.461-1.316,0-1.432-.413-1.922-1.316-.461-1.749-.894-.4-1.374-.884-1.749-1.393-.1-1.922-.4-.749-1.23-1.307-1.461-1.374.259-1.922.106-1.038-.961-1.653-1.076-1.249.615-1.864.615-1.268-.692-1.864-.615-1.067.961-1.643,1.076-1.4-.336-1.922-.106-.788,1.153-1.316,1.461-1.432,0-1.922.4-.452,1.326-.884,1.749-1.374.413-1.749.894-.106,1.393-.4,1.922-1.23.74-1.461,1.307.259,1.365.1,1.922-.961,1.038-1.067,1.643.615,1.249.615,1.864-.692,1.278-.615,1.874.961,1.057,1.076,1.643-.346,1.4-.106,1.922,1.153.788,1.461,1.307,0,1.441.4,1.922,1.326.461,1.749.884.4,1.384.894,1.758,1.393.1,1.922.4.749,1.23,1.316,1.461,1.364-.259,1.922-.106,1.038.961,1.643,1.067,1.249-.605,1.864-.605,1.268.682,1.864.605,1.067-.913,1.653-1.067,1.4.336,1.922.106.788-1.163,1.307-1.461,1.441,0,1.922-.413.461-1.316.884-1.749,1.384-.4,1.749-.884.106-1.393.413-1.922,1.23-.75,1.461-1.307-.269-1.374-.106-1.922.961-1.038,1.067-1.643-.653-1.2-.653-1.864Zm1.6,54.473c0-.615.682-1.268.605-1.864s-.913-1.067-1.067-1.653.336-1.393.106-1.922-1.163-.778-1.461-1.307,0-1.441-.413-1.922-1.316-.452-1.749-.884-.4-1.384-.884-1.749-1.393-.106-1.922-.413-.75-1.22-1.307-1.461-1.374.269-1.922.106-1.038-.961-1.653-1.067-1.249.615-1.864.615-1.268-.692-1.864-.615-1.067.913-1.643,1.067-1.4-.336-1.922-.106-.788,1.163-1.316,1.461-1.432,0-1.922.413-.461,1.316-.894,1.749-1.374.4-1.749.884-.106,1.393-.4,1.922-1.23.75-1.461,1.316.259,1.365.106,1.922-.961,1.028-1.076,1.643.615,1.249.615,1.864-.692,1.268-.615,1.864.913,1.067,1.076,1.653-.336,1.393-.106,1.922,1.153.778,1.461,1.307,0,1.441.4,1.922,1.326.452,1.749.884.413,1.384.894,1.749,1.393.106,1.922.413.74,1.22,1.307,1.461,1.365-.269,1.922-.106,1.038.961,1.643,1.067,1.249-.615,1.864-.615,1.278.692,1.874.615,1.057-.961,1.643-1.067,1.4.336,1.922.106.788-1.163,1.307-1.461,1.441,0,1.922-.413.461-1.316.884-1.749,1.384-.4,1.758-.884.1-1.393.4-1.922,1.23-.75,1.461-1.316-.259-1.364-.106-1.922.961-1.028,1.067-1.643S277.672,359.856,277.672,359.2Zm-28.029,7.745c0-.413.7-.855.644-1.249s-.846-.653-.961-1.038.461-1.009.307-1.384-.961-.4-1.182-.749.173-1.1-.067-1.413-1.057-.135-1.345-.423-.106-1.1-.423-1.336-1.057.135-1.4-.067-.384-1.028-.759-1.182-.961.4-1.374.3-.634-.894-1.038-.961-.846.653-1.249.653-.855-.7-1.249-.653-.653.855-1.038.961-1.009-.452-1.374-.3-.413.961-.759,1.182-1.086-.173-1.4.067-.144,1.057-.423,1.345-1.105.106-1.345.423.135,1.057-.067,1.4-1.028.384-1.182.759.4.961.307,1.374-.9.634-.961,1.038.644.836.644,1.249-.7.855-.644,1.249.846.653.961,1.038-.461.961-.307,1.374.961.413,1.191.759-.183,1.086.058,1.4,1.057.144,1.345.423.106,1.1.423,1.345,1.057-.144,1.4.058.384,1.038.759,1.191.961-.413,1.374-.307.634.9,1.038.961.846-.653,1.249-.653.855.7,1.249.653.653-.846,1.038-.961,1.009.461,1.374.307.413-.961.759-1.191,1.086.183,1.4-.058.144-1.067.423-1.345,1.105-.106,1.345-.423-.135-1.057.067-1.4,1.028-.384,1.182-.759-.4-.961-.3-1.374.894-.634.961-1.038-.653-.807-.653-1.211Zm29.634-111.463c0-.615.692-1.268.615-1.864s-.913-1.067-1.067-1.653.336-1.393.106-1.922-1.163-.788-1.461-1.316,0-1.441-.413-1.922-1.316-.452-1.749-.884-.4-1.384-.884-1.749-1.393-.106-1.922-.413-.75-1.22-1.316-1.461-1.364.269-1.922.106-1.028-.961-1.643-1.067-1.249.615-1.864.615-1.268-.692-1.864-.615-1.067.961-1.653,1.067-1.393-.336-1.922-.106-.778,1.163-1.307,1.461-1.441,0-1.922.413-.452,1.316-.884,1.749-1.384.4-1.749.884-.106,1.393-.413,1.922-1.22.749-1.461,1.316.269,1.364.106,1.922-.961,1.028-1.067,1.643.615,1.249.615,1.864-.692,1.268-.615,1.864.913,1.067,1.067,1.653-.336,1.393-.106,1.922,1.163.778,1.461,1.307,0,1.441.413,1.922,1.316.452,1.749.884.4,1.384.884,1.749,1.393.106,1.922.413.75,1.22,1.316,1.461,1.365-.269,1.922-.106,1.028.961,1.643,1.067,1.249-.615,1.864-.615,1.268.692,1.864.615,1.067-.913,1.653-1.067,1.393.336,1.922.106.778-1.163,1.307-1.461,1.441,0,1.922-.413.452-1.316.884-1.749,1.384-.4,1.749-.884.106-1.393.413-1.922,1.22-.75,1.461-1.316-.269-1.364-.106-1.922.961-1.028,1.067-1.643-.615-1.23-.615-1.845Zm24.829,24.82c0-.615.682-1.268.605-1.864s-.913-1.067-1.067-1.643.336-1.4.106-1.922-1.163-.788-1.461-1.316,0-1.432-.413-1.922-1.316-.461-1.749-.894-.4-1.374-.884-1.749-1.393-.1-1.922-.4-.75-1.23-1.307-1.461-1.374.259-1.922.106-1.038-.961-1.643-1.076-1.259.615-1.874.615-1.268-.692-1.864-.615-1.067.961-1.643,1.076-1.4-.336-1.922-.106-.788,1.153-1.316,1.461-1.432,0-1.922.4-.461,1.326-.894,1.749-1.374.413-1.749.894-.106,1.393-.4,1.922-1.23.74-1.461,1.307.259,1.364.106,1.922-.961,1.038-1.076,1.643.615,1.249.615,1.864-.692,1.278-.615,1.922.913,1.057,1.076,1.643-.336,1.4-.106,1.922,1.153.788,1.461,1.307,0,1.441.4,1.922,1.326.461,1.749.884.413,1.384.894,1.758,1.393.1,1.922.4.74,1.23,1.307,1.461,1.364-.259,1.922-.106,1.038.961,1.643,1.067,1.249-.605,1.864-.605,1.278.682,1.874.605,1.057-.913,1.643-1.067,1.4.336,1.922.106.788-1.163,1.307-1.461,1.441,0,1.922-.413.461-1.316.884-1.749,1.384-.4,1.758-.884.1-1.393.4-1.922,1.23-.75,1.461-1.307-.259-1.374-.106-1.922.961-1.038,1.067-1.643-.6-1.278-.6-1.9Z" transform="translate(-117.204 -241.329)" fill="#e53f71"/>
      <path id="Path_1417" data-name="Path 1417" d="M260.693,336.775c-.067.48-.73.836-.855,1.3s.269,1.115.086,1.557-.913.625-1.153,1.038,0,1.143-.327,1.528-1.047.365-1.393.7-.317,1.1-.7,1.393-1.1.077-1.518.317-.6.961-1.047,1.163-1.086-.211-1.547-.086-.826.788-1.307.855-.961-.49-1.48-.49-1.009.548-1.489.49-.836-.73-1.3-.855-1.115.269-1.557.086-.625-.913-1.038-1.153-1.143,0-1.528-.327-.365-1.047-.7-1.393-1.1-.317-1.393-.7-.077-1.1-.317-1.518-.961-.6-1.163-1.047.211-1.086.086-1.547-.788-.826-.855-1.307.49-.961.49-1.48-.548-1.009-.49-1.48.73-.846.855-1.307-.269-1.115-.086-1.557.961-.625,1.163-1.038,0-1.143.317-1.528,1.047-.365,1.393-.7.317-1.1.7-1.393,1.105-.077,1.528-.317.586-.961,1.038-1.163,1.086.211,1.557.086.817-.788,1.3-.855.961.49,1.489.49.961-.548,1.48-.49.836.73,1.3.855,1.115-.269,1.557-.086.625.961,1.038,1.163,1.143,0,1.528.317.365,1.047.7,1.393,1.1.317,1.393.7.077,1.105.317,1.528.961.586,1.163,1.038-.211,1.086-.086,1.557.788.817.855,1.3-.49.961-.49,1.489S260.8,336.295,260.693,336.775Zm15.374-32.046c0-.615.682-1.268.605-1.864s-.961-1.067-1.067-1.643.336-1.4.106-1.922-1.163-.788-1.461-1.316,0-1.432-.413-1.922-1.316-.461-1.749-.894-.4-1.374-.884-1.749-1.393-.1-1.922-.4-.749-1.23-1.307-1.461-1.374.259-1.922.106-1.038-.961-1.653-1.076-1.249.615-1.864.615-1.268-.692-1.864-.615-1.067.961-1.643,1.076-1.4-.336-1.922-.106-.788,1.153-1.316,1.461-1.432,0-1.922.4-.452,1.326-.884,1.749-1.374.413-1.749.894-.106,1.393-.4,1.922-1.23.74-1.461,1.307.259,1.365.1,1.922-.961,1.038-1.067,1.643.615,1.249.615,1.864-.692,1.278-.615,1.874.961,1.057,1.076,1.643-.346,1.4-.106,1.922,1.153.788,1.461,1.307,0,1.441.4,1.922,1.326.461,1.749.884.4,1.384.894,1.758,1.393.1,1.922.4.749,1.23,1.316,1.461,1.364-.259,1.922-.106,1.038.961,1.643,1.067,1.249-.605,1.864-.605,1.268.682,1.864.605,1.067-.913,1.653-1.067,1.4.336,1.922.106.788-1.163,1.307-1.461,1.441,0,1.922-.413.461-1.316.884-1.749,1.384-.4,1.749-.884.106-1.393.413-1.922,1.23-.75,1.461-1.307-.269-1.374-.106-1.922.961-1.038,1.067-1.643-.653-1.2-.653-1.864Zm1.6,54.473c0-.615.682-1.268.605-1.864s-.913-1.067-1.067-1.653.336-1.393.106-1.922-1.163-.778-1.461-1.307,0-1.441-.413-1.922-1.316-.452-1.749-.884-.4-1.384-.884-1.749-1.393-.106-1.922-.413-.75-1.22-1.307-1.461-1.374.269-1.922.106-1.038-.961-1.653-1.067-1.249.615-1.864.615-1.268-.692-1.864-.615-1.067.913-1.643,1.067-1.4-.336-1.922-.106-.788,1.163-1.316,1.461-1.432,0-1.922.413-.461,1.316-.894,1.749-1.374.4-1.749.884-.106,1.393-.4,1.922-1.23.75-1.461,1.316.259,1.365.106,1.922-.961,1.028-1.076,1.643.615,1.249.615,1.864-.692,1.268-.615,1.864.913,1.067,1.076,1.653-.336,1.393-.106,1.922,1.153.778,1.461,1.307,0,1.441.4,1.922,1.326.452,1.749.884.413,1.384.894,1.749,1.393.106,1.922.413.74,1.22,1.307,1.461,1.365-.269,1.922-.106,1.038.961,1.643,1.067,1.249-.615,1.864-.615,1.278.692,1.874.615,1.057-.961,1.643-1.067,1.4.336,1.922.106.788-1.163,1.307-1.461,1.441,0,1.922-.413.461-1.316.884-1.749,1.384-.4,1.758-.884.1-1.393.4-1.922,1.23-.75,1.461-1.316-.259-1.364-.106-1.922.961-1.028,1.067-1.643S277.672,359.856,277.672,359.2Zm-28.029,7.745c0-.413.7-.855.644-1.249s-.846-.653-.961-1.038.461-1.009.307-1.384-.961-.4-1.182-.749.173-1.1-.067-1.413-1.057-.135-1.345-.423-.106-1.1-.423-1.336-1.057.135-1.4-.067-.384-1.028-.759-1.182-.961.4-1.374.3-.634-.894-1.038-.961-.846.653-1.249.653-.855-.7-1.249-.653-.653.855-1.038.961-1.009-.452-1.374-.3-.413.961-.759,1.182-1.086-.173-1.4.067-.144,1.057-.423,1.345-1.105.106-1.345.423.135,1.057-.067,1.4-1.028.384-1.182.759.4.961.307,1.374-.9.634-.961,1.038.644.836.644,1.249-.7.855-.644,1.249.846.653.961,1.038-.461.961-.307,1.374.961.413,1.191.759-.183,1.086.058,1.4,1.057.144,1.345.423.106,1.1.423,1.345,1.057-.144,1.4.058.384,1.038.759,1.191.961-.413,1.374-.307.634.9,1.038.961.846-.653,1.249-.653.855.7,1.249.653.653-.846,1.038-.961,1.009.461,1.374.307.413-.961.759-1.191,1.086.183,1.4-.058.144-1.067.423-1.345,1.105-.106,1.345-.423-.135-1.057.067-1.4,1.028-.384,1.182-.759-.4-.961-.3-1.374.894-.634.961-1.038-.653-.807-.653-1.211Zm29.634-111.463c0-.615.692-1.268.615-1.864s-.913-1.067-1.067-1.653.336-1.393.106-1.922-1.163-.788-1.461-1.316,0-1.441-.413-1.922-1.316-.452-1.749-.884-.4-1.384-.884-1.749-1.393-.106-1.922-.413-.75-1.22-1.316-1.461-1.364.269-1.922.106-1.028-.961-1.643-1.067-1.249.615-1.864.615-1.268-.692-1.864-.615-1.067.961-1.653,1.067-1.393-.336-1.922-.106-.778,1.163-1.307,1.461-1.441,0-1.922.413-.452,1.316-.884,1.749-1.384.4-1.749.884-.106,1.393-.413,1.922-1.22.749-1.461,1.316.269,1.364.106,1.922-.961,1.028-1.067,1.643.615,1.249.615,1.864-.692,1.268-.615,1.864.913,1.067,1.067,1.653-.336,1.393-.106,1.922,1.163.778,1.461,1.307,0,1.441.413,1.922,1.316.452,1.749.884.4,1.384.884,1.749,1.393.106,1.922.413.75,1.22,1.316,1.461,1.365-.269,1.922-.106,1.028.961,1.643,1.067,1.249-.615,1.864-.615,1.268.692,1.864.615,1.067-.913,1.653-1.067,1.393.336,1.922.106.778-1.163,1.307-1.461,1.441,0,1.922-.413.452-1.316.884-1.749,1.384-.4,1.749-.884.106-1.393.413-1.922,1.22-.75,1.461-1.316-.269-1.364-.106-1.922.961-1.028,1.067-1.643-.615-1.23-.615-1.845Zm24.829,24.82c0-.615.682-1.268.605-1.864s-.913-1.067-1.067-1.643.336-1.4.106-1.922-1.163-.788-1.461-1.316,0-1.432-.413-1.922-1.316-.461-1.749-.894-.4-1.374-.884-1.749-1.393-.1-1.922-.4-.75-1.23-1.307-1.461-1.374.259-1.922.106-1.038-.961-1.643-1.076-1.259.615-1.874.615-1.268-.692-1.864-.615-1.067.961-1.643,1.076-1.4-.336-1.922-.106-.788,1.153-1.316,1.461-1.432,0-1.922.4-.461,1.326-.894,1.749-1.374.413-1.749.894-.106,1.393-.4,1.922-1.23.74-1.461,1.307.259,1.364.106,1.922-.961,1.038-1.076,1.643.615,1.249.615,1.864-.692,1.278-.615,1.922.913,1.057,1.076,1.643-.336,1.4-.106,1.922,1.153.788,1.461,1.307,0,1.441.4,1.922,1.326.461,1.749.884.413,1.384.894,1.758,1.393.1,1.922.4.74,1.23,1.307,1.461,1.364-.259,1.922-.106,1.038.961,1.643,1.067,1.249-.605,1.864-.605,1.278.682,1.874.605,1.057-.913,1.643-1.067,1.4.336,1.922.106.788-1.163,1.307-1.461,1.441,0,1.922-.413.461-1.316.884-1.749,1.384-.4,1.758-.884.1-1.393.4-1.922,1.23-.75,1.461-1.307-.259-1.374-.106-1.922.961-1.038,1.067-1.643-.6-1.278-.6-1.9Z" transform="translate(-117.204 -241.329)" fill="#fff" opacity="0.53"/>
      <path id="Path_1418" data-name="Path 1418" d="M236.013,392.827l1.345-.221,2.21-.365-1.48-3.844,2.364,1.768v-3.248L244,388.1l2.671-3.555,1.182,2.373,2.066-4.737,1.182,4.737,3.257-2.662v4.728l4.439-2.364.288,2.364,2.96-4.141.894,3.844,2.662-2.662-.3,3.257,4.439-2.066-2.076,3.546,3.844-.3-1.768,2.662h9.167l-6.217.894,11.242,1.768-40.819.884,5.621-2.652-19.525.288Z" transform="translate(-117.122 -246.838)" fill="#263238"/>
      <path id="Path_1419" data-name="Path 1419" d="M236.013,392.827l1.345-.221,2.21-.365-1.48-3.844,2.364,1.768v-3.248L244,388.1l2.671-3.555,1.182,2.373,2.066-4.737,1.182,4.737,3.257-2.662v4.728l4.439-2.364.288,2.364,2.96-4.141.894,3.844,2.662-2.662-.3,3.257,4.439-2.066-2.076,3.546,3.844-.3-1.768,2.662h9.167l-6.217.894,11.242,1.768-40.819.884,5.621-2.652-19.525.288Z" transform="translate(-117.122 -246.838)" fill="#69b591" opacity="0.7"/>
    </g>
  </g>
</svg>
