<svg xmlns="http://www.w3.org/2000/svg" width="13.815" height="13.434" viewBox="0 0 13.815 13.434">
  <path id="pay-money-icon" d="M6.957,4.724a.9.9,0,1,1-.816.973A.9.9,0,0,1,6.957,4.724ZM.112.614H1.294a.112.112,0,0,1,.112.112V3.589a.112.112,0,0,1-.112.112H.112A.112.112,0,0,1,0,3.589V.73A.112.112,0,0,1,.112.617Zm1.593.513A.225.225,0,0,1,1.743.987c.075-.1.26-.072.377-.072A1.7,1.7,0,0,0,2.481.887,4.224,4.224,0,0,0,3,.715C3.638.49,4.184.344,4.85.052a.514.514,0,0,1,.434,0A11.321,11.321,0,0,1,7.09.895a.64.64,0,0,1,.269.266c.37.537.686,1.082.991,1.627a.529.529,0,0,1,.074.487c-.286.469-.8-.2-1.349-.642-.233-.187-.55-.353-.822-.542a4.267,4.267,0,0,0-.888-.364c-.576-.049-.623.777.134.807a3.2,3.2,0,0,1,1.869.914c.278.4.125.794-.44.779L6.455,4.14a2.712,2.712,0,0,0-1.513-.025,3.526,3.526,0,0,1-1.294.079,1.347,1.347,0,0,1-.637-.337A2.136,2.136,0,0,0,2.631,3.6a1.389,1.389,0,0,0-.344-.146c-.18-.043-.433.018-.539-.137a.291.291,0,0,1-.043-.154ZM13.815,9.35H12.064v3.389h1.752V9.35Zm-2.136,3.1V9.622H10.407a4.774,4.774,0,0,0-1.62.73H7.8c-.45.027-.682.48-.246.779a1.835,1.835,0,0,0,1.274.2.213.213,0,1,1,0,.42c-.112.009-.245-.019-.356-.019a1.452,1.452,0,0,1-1.363-.575l-.148-.346-1.472-.73c-.736-.242-1.259.528-.717,1.064a19.291,19.291,0,0,0,3.277,1.929,2.221,2.221,0,0,0,2.436,0l1.2-.618ZM8.9,3.038l2.909,4.475L8.468,9.624l-.286-.44,2.386-1.508.031-.019a.5.5,0,0,0,.144-.685l-.137-.211h.007L9.951,5.756,8.635,3.733A1.111,1.111,0,0,0,8.8,3.514h0A.717.717,0,0,0,8.9,3.038ZM8.288,3.9l2.194,3.373L7.146,9.39,4.081,4.668c.085,0,.17-.007.254-.015.145-.013.286-.034.422-.057L6.988,7.985a.585.585,0,0,1,.805.181l1.314-.839a.582.582,0,0,1,.184-.8L7.808,4.274c.007-.009.012-.019.018-.028a.407.407,0,0,0,.022-.037.811.811,0,0,0,.092-.358.741.741,0,0,0,.347.052Z" transform="translate(0 -0.002)" fill="#9c3587" fill-rule="evenodd"/>
</svg>
