<svg xmlns="http://www.w3.org/2000/svg" width="28" height="25.295" viewBox="0 0 28 25.295">
  <path id="export-image-photo-icon" d="M2.717,0H21.162a2.708,2.708,0,0,1,1.916.8l.045.05a2.71,2.71,0,0,1,.755,1.869v7.8a8.658,8.658,0,0,0-3.549-.254L22.417,8.32v-5.6a1.257,1.257,0,0,0-.339-.854l-.033-.031a1.251,1.251,0,0,0-.883-.371H2.717a1.251,1.251,0,0,0-.854.336l-.032.034a1.253,1.253,0,0,0-.37.886v9.731c1.618-1.459,4.207-3.5,5.842-4.872a.714.714,0,0,1,.926,0,1.15,1.15,0,0,1,.137.15L12.174,13.5l1.361-4.143a.719.719,0,0,1,1.206-.386L17.2,11.329a8.623,8.623,0,0,0-1.2.838L14.733,10.95l-1.389,4.308a.717.717,0,0,1-1.253.371L7.7,9.157,1.461,14.39v4.357A1.271,1.271,0,0,0,2.717,20H12.973a8.536,8.536,0,0,0,.338,1.461H2.717A2.731,2.731,0,0,1,0,18.747V2.717A2.713,2.713,0,0,1,.8.8L.848.752A2.71,2.71,0,0,1,2.717,0ZM21.5,15.6l2.851,3.432h-1.77V21.3H20.417V19.034h-1.77Zm0-3.311A6.506,6.506,0,1,1,16.9,14.2a6.48,6.48,0,0,1,4.6-1.907Zm3.709,2.792a5.247,5.247,0,1,0,1.537,3.71,5.232,5.232,0,0,0-1.537-3.71ZM14.651,3.344a2.19,2.19,0,1,1-1.548.641A2.184,2.184,0,0,1,14.651,3.344Zm.668,1.521a.947.947,0,1,0,.276.668A.945.945,0,0,0,15.319,4.865Z" fill="#f89f5b"/>
</svg>
