<svg id="Iconly_Bold_Voice_2" data-name="Iconly/Bold/Voice 2" xmlns="http://www.w3.org/2000/svg" width="17" height="20" viewBox="0 0 17 20">
  <g id="Voice_2" data-name="Voice 2">
    <path id="Voice_2-2" data-name="Voice 2" d="M7.532,19.043V17.118A8.443,8.443,0,0,1,0,8.783a.962.962,0,0,1,.968-.957.963.963,0,0,1,.969.957,6.563,6.563,0,0,0,13.125,0,.969.969,0,0,1,1.938,0,8.443,8.443,0,0,1-7.531,8.335v1.925a.968.968,0,0,1-1.937,0Zm.793-5.827a4.324,4.324,0,0,1-4.351-4.3V4.3A4.324,4.324,0,0,1,8.325,0h.35a4.345,4.345,0,0,1,4.189,3.131.388.388,0,0,1-.376.493H11.356a.616.616,0,0,0-.62.612h0a.616.616,0,0,0,.62.612H12.4a.618.618,0,1,1,0,1.236H11.356a.613.613,0,1,0,0,1.226H12.4a.618.618,0,1,1,0,1.236H11.356a.612.612,0,1,0,0,1.224h1.077a.387.387,0,0,1,.372.506,4.347,4.347,0,0,1-4.13,2.94Z" fill="#200e32"/>
  </g>
</svg>
